<?xml version="1.0" ?>
<svg height="224" version="1.1" width="224" xmlns="http://www.w3.org/2000/svg">
  <defs/>
  <g>
    <path d="M 126.98490142822266 84.90792846679688 C 123.85560607910156 132.2991485595703 144.559326171875 73.23946380615234 127.44546508789062 100.36510467529297" fill="none" stroke="rgb(0, 0, 0)" stroke-linecap="round" stroke-linejoin="round" stroke-opacity="1.0" stroke-width="3.0"/>
    <path d="M 125.80096435546875 87.75530242919922 C 111.36705780029297 115.8112564086914 123.17073822021484 69.64262390136719 129.48538208007812 97.78886413574219" fill="none" stroke="rgb(0, 0, 0)" stroke-linecap="round" stroke-linejoin="round" stroke-opacity="1.0" stroke-width="3.0"/>
    <path d="M 107.60055541992188 109.33980560302734 C 157.7942352294922 118.30164337158203 124.06980895996094 46.70013427734375 121.39323425292969 124.16959381103516" fill="none" stroke="rgb(0, 0, 0)" stroke-linecap="round" stroke-linejoin="round" stroke-opacity="1.0" stroke-width="3.0"/>
    <path d="M 92.69251251220703 159.33079528808594 C 115.56375885009766 171.85670471191406 60.614749908447266 156.50662231445312 104.36911010742188 158.18516540527344" fill="none" stroke="rgb(0, 0, 0)" stroke-linecap="round" stroke-linejoin="round" stroke-opacity="1.0" stroke-width="3.0"/>
    <path d="M 120.92539978027344 86.22372436523438 C 128.6833953857422 135.06907653808594 102.16096496582031 121.44511413574219 108.31133270263672 107.9437255859375" fill="none" stroke="rgb(0, 0, 0)" stroke-linecap="round" stroke-linejoin="round" stroke-opacity="1.0" stroke-width="3.0"/>
    <path d="M 84.16421508789062 163.94859313964844 C 89.37535858154297 105.6988525390625 79.20382690429688 128.83924865722656 124.89765167236328 124.32206726074219" fill="none" stroke="rgb(0, 0, 0)" stroke-linecap="round" stroke-linejoin="round" stroke-opacity="1.0" stroke-width="3.0"/>
    <path d="M 105.32343292236328 153.25550842285156 C 42.59272384643555 171.98507690429688 155.65992736816406 153.9172821044922 85.96854400634766 156.64059448242188" fill="none" stroke="rgb(0, 0, 0)" stroke-linecap="round" stroke-linejoin="round" stroke-opacity="1.0" stroke-width="3.0"/>
    <path d="M 103.36717987060547 103.6709213256836 C 100.2140884399414 99.0903091430664 122.30083465576172 133.4169921875 108.97469329833984 109.92174530029297" fill="none" stroke="rgb(0, 0, 0)" stroke-linecap="round" stroke-linejoin="round" stroke-opacity="1.0" stroke-width="3.0"/>
    <path d="M 123.85977935791016 126.90083312988281 C 111.13530731201172 139.37168884277344 117.11581420898438 58.5291748046875 104.23587799072266 155.59645080566406" fill="none" stroke="rgb(0, 0, 0)" stroke-linecap="round" stroke-linejoin="round" stroke-opacity="1.0" stroke-width="3.0"/>
    <path d="M 133.3355255126953 100.82506561279297 C 98.11611938476562 113.6422348022461 118.7718505859375 55.670188903808594 134.93138122558594 90.76811981201172" fill="none" stroke="rgb(0, 0, 0)" stroke-linecap="round" stroke-linejoin="round" stroke-opacity="1.0" stroke-width="3.0"/>
    <path d="M 131.807861328125 103.83155822753906 C 135.5105438232422 61.174312591552734 103.87110900878906 98.61186218261719 126.31745910644531 102.47872161865234" fill="none" stroke="rgb(0, 0, 0)" stroke-linecap="round" stroke-linejoin="round" stroke-opacity="1.0" stroke-width="3.0"/>
    <path d="M 118.03702545166016 126.26409912109375 C 108.61125183105469 100.59867095947266 135.72421264648438 119.25845336914062 125.102294921875 93.49270629882812" fill="none" stroke="rgb(0, 0, 0)" stroke-linecap="round" stroke-linejoin="round" stroke-opacity="1.0" stroke-width="3.0"/>
    <path d="M 129.30551147460938 99.35433959960938 C 99.20044708251953 149.30946350097656 107.9535140991211 86.08223724365234 101.96466827392578 157.0830841064453" fill="none" stroke="rgb(0, 0, 0)" stroke-linecap="round" stroke-linejoin="round" stroke-opacity="1.0" stroke-width="3.0"/>
    <path d="M 122.8863525390625 106.95166778564453 C 86.05675506591797 112.61243438720703 99.14212036132812 65.6598892211914 120.98231506347656 77.13996887207031" fill="none" stroke="rgb(0, 0, 0)" stroke-linecap="round" stroke-linejoin="round" stroke-opacity="1.0" stroke-width="3.0"/>
    <path d="M 86.36553955078125 137.8101043701172 C 116.06527709960938 136.37704467773438 96.73576354980469 130.55465698242188 106.93403625488281 122.61338806152344" fill="none" stroke="rgb(0, 0, 0)" stroke-linecap="round" stroke-linejoin="round" stroke-opacity="1.0" stroke-width="3.0"/>
    <path d="M 128.08131408691406 127.6950454711914 C 105.23358917236328 133.09178161621094 83.52006530761719 121.51229095458984 128.9591064453125 125.06085968017578" fill="none" stroke="rgb(0, 0, 0)" stroke-linecap="round" stroke-linejoin="round" stroke-opacity="1.0" stroke-width="3.0"/>
  </g>
</svg>
