<?xml version="1.0" ?>
<svg height="224" version="1.1" width="224" xmlns="http://www.w3.org/2000/svg">
  <defs/>
  <g>
    <path d="M 176.5719757080078 120.62149810791016 C 116.06245422363281 113.38888549804688 196.49850463867188 69.60091400146484 179.4225616455078 116.5593032836914" fill="none" stroke="rgb(0, 0, 0)" stroke-linecap="round" stroke-linejoin="round" stroke-opacity="1.0" stroke-width="3.0"/>
    <path d="M 175.6108856201172 116.63652801513672 C 103.9014892578125 143.7425079345703 97.96135711669922 78.10041046142578 183.73135375976562 142.39498901367188" fill="none" stroke="rgb(0, 0, 0)" stroke-linecap="round" stroke-linejoin="round" stroke-opacity="1.0" stroke-width="3.0"/>
    <path d="M 92.21553039550781 108.02664947509766 C 190.44366455078125 109.46346282958984 213.27139282226562 118.88954162597656 89.93142700195312 109.24488830566406" fill="none" stroke="rgb(0, 0, 0)" stroke-linecap="round" stroke-linejoin="round" stroke-opacity="1.0" stroke-width="3.0"/>
    <path d="M 163.16761779785156 126.25684356689453 C 191.1541748046875 104.81391143798828 177.89430236816406 122.50396728515625 100.92515563964844 119.10292053222656" fill="none" stroke="rgb(0, 0, 0)" stroke-linecap="round" stroke-linejoin="round" stroke-opacity="1.0" stroke-width="3.0"/>
    <path d="M 177.72518920898438 104.15840148925781 C 174.803955078125 162.50048828125 178.7098846435547 54.23964309692383 179.90679931640625 118.010986328125" fill="none" stroke="rgb(0, 0, 0)" stroke-linecap="round" stroke-linejoin="round" stroke-opacity="1.0" stroke-width="3.0"/>
    <path d="M 129.47190856933594 128.57461547851562 C 178.06935119628906 94.96775817871094 248.2600860595703 113.75370788574219 95.23892974853516 114.12850952148438" fill="none" stroke="rgb(0, 0, 0)" stroke-linecap="round" stroke-linejoin="round" stroke-opacity="1.0" stroke-width="3.0"/>
    <path d="M 142.2180938720703 100.89111328125 C 193.462646484375 88.70045471191406 179.7617645263672 130.69017028808594 105.0787582397461 108.35557556152344" fill="none" stroke="rgb(0, 0, 0)" stroke-linecap="round" stroke-linejoin="round" stroke-opacity="1.0" stroke-width="3.0"/>
    <path d="M 99.119384765625 115.55341339111328 C 222.79824829101562 130.07374572753906 176.1063995361328 111.77593231201172 105.25172424316406 136.2195281982422" fill="none" stroke="rgb(0, 0, 0)" stroke-linecap="round" stroke-linejoin="round" stroke-opacity="1.0" stroke-width="3.0"/>
    <path d="M 103.18033599853516 138.95753479003906 C 136.9140625 156.62342834472656 151.13449096679688 154.83843994140625 107.79180908203125 136.3567352294922" fill="none" stroke="rgb(0, 0, 0)" stroke-linecap="round" stroke-linejoin="round" stroke-opacity="1.0" stroke-width="3.0"/>
    <path d="M 142.88980102539062 124.88359069824219 C 136.1572265625 61.410030364990234 184.39500427246094 151.15879821777344 181.80233764648438 109.6564712524414" fill="none" stroke="rgb(0, 0, 0)" stroke-linecap="round" stroke-linejoin="round" stroke-opacity="1.0" stroke-width="3.0"/>
    <path d="M 98.05343627929688 111.51251983642578 C 199.89279174804688 131.7548065185547 105.38298797607422 90.15116119384766 185.59420776367188 95.7596435546875" fill="none" stroke="rgb(0, 0, 0)" stroke-linecap="round" stroke-linejoin="round" stroke-opacity="1.0" stroke-width="3.0"/>
    <path d="M 156.90257263183594 98.52946472167969 C 168.4467315673828 125.60334777832031 122.02313995361328 124.18133544921875 163.23658752441406 99.4150390625" fill="none" stroke="rgb(0, 0, 0)" stroke-linecap="round" stroke-linejoin="round" stroke-opacity="1.0" stroke-width="3.0"/>
    <path d="M 99.23258209228516 99.83414459228516 C 105.31912994384766 93.7087631225586 98.64820098876953 133.17776489257812 90.28409576416016 112.10630798339844" fill="none" stroke="rgb(0, 0, 0)" stroke-linecap="round" stroke-linejoin="round" stroke-opacity="1.0" stroke-width="3.0"/>
    <path d="M 178.40884399414062 141.59959411621094 C 105.86105346679688 149.12083435058594 112.9802017211914 155.64382934570312 183.87078857421875 145.7842559814453" fill="none" stroke="rgb(0, 0, 0)" stroke-linecap="round" stroke-linejoin="round" stroke-opacity="1.0" stroke-width="3.0"/>
    <path d="M 96.86710357666016 96.98019409179688 C 177.76063537597656 91.13871002197266 187.888427734375 92.46370697021484 166.81134033203125 124.79686737060547" fill="none" stroke="rgb(0, 0, 0)" stroke-linecap="round" stroke-linejoin="round" stroke-opacity="1.0" stroke-width="3.0"/>
    <path d="M 158.33319091796875 120.22579956054688 C 123.8829345703125 57.91215896606445 154.43360900878906 153.1898193359375 155.42926025390625 98.1651840209961" fill="none" stroke="rgb(0, 0, 0)" stroke-linecap="round" stroke-linejoin="round" stroke-opacity="1.0" stroke-width="3.0"/>
  </g>
</svg>
