<?xml version="1.0" ?>
<svg height="224" version="1.1" width="224" xmlns="http://www.w3.org/2000/svg">
  <defs/>
  <g>
    <path d="M 51.38975143432617 100.27943420410156 C 4.569624900817871 115.5689468383789 75.49967956542969 70.59539794921875 39.01902389526367 111.22331237792969" fill="none" stroke="rgb(0, 0, 0)" stroke-linecap="round" stroke-linejoin="round" stroke-opacity="1.0" stroke-width="3.0"/>
    <path d="M 37.65977096557617 103.8814926147461 C 55.11095428466797 106.15550231933594 11.602449417114258 110.2157974243164 57.18313217163086 101.6240463256836" fill="none" stroke="rgb(0, 0, 0)" stroke-linecap="round" stroke-linejoin="round" stroke-opacity="1.0" stroke-width="3.0"/>
    <path d="M 133.15333557128906 136.01345825195312 C 40.44178009033203 145.17286682128906 32.164520263671875 143.73623657226562 133.928955078125 138.6667022705078" fill="none" stroke="rgb(0, 0, 0)" stroke-linecap="round" stroke-linejoin="round" stroke-opacity="1.0" stroke-width="3.0"/>
    <path d="M 133.47695922851562 125.44605255126953 C 71.9256591796875 134.38475036621094 86.77300262451172 128.49305725097656 109.13134002685547 132.39990234375" fill="none" stroke="rgb(0, 0, 0)" stroke-linecap="round" stroke-linejoin="round" stroke-opacity="1.0" stroke-width="3.0"/>
    <path d="M 40.95404052734375 118.83531188964844 C 30.28936767578125 80.37297821044922 40.326900482177734 154.93081665039062 38.69809341430664 97.07925415039062" fill="none" stroke="rgb(0, 0, 0)" stroke-linecap="round" stroke-linejoin="round" stroke-opacity="1.0" stroke-width="3.0"/>
    <path d="M 68.20829010009766 129.474853515625 C 98.22401428222656 86.56732177734375 -8.182653427124023 91.24261474609375 101.6209716796875 92.35628509521484" fill="none" stroke="rgb(0, 0, 0)" stroke-linecap="round" stroke-linejoin="round" stroke-opacity="1.0" stroke-width="3.0"/>
    <path d="M 29.028366088867188 90.7867431640625 C 118.86219024658203 90.50749206542969 28.988048553466797 91.1845932006836 41.88615798950195 93.50496673583984" fill="none" stroke="rgb(0, 0, 0)" stroke-linecap="round" stroke-linejoin="round" stroke-opacity="1.0" stroke-width="3.0"/>
    <path d="M 69.6409912109375 126.83771514892578 C 62.24095153808594 136.26271057128906 77.3555908203125 127.30171966552734 73.71920776367188 113.4568862915039" fill="none" stroke="rgb(0, 0, 0)" stroke-linecap="round" stroke-linejoin="round" stroke-opacity="1.0" stroke-width="3.0"/>
    <path d="M 28.804325103759766 93.28413391113281 C 29.839265823364258 162.1103057861328 28.812599182128906 154.59678649902344 28.715517044067383 95.0931167602539" fill="none" stroke="rgb(0, 0, 0)" stroke-linecap="round" stroke-linejoin="round" stroke-opacity="1.0" stroke-width="3.0"/>
    <path d="M 133.91542053222656 100.67671203613281 C 132.1893768310547 99.51337432861328 131.63392639160156 65.00486755371094 136.44520568847656 141.9186248779297" fill="none" stroke="rgb(0, 0, 0)" stroke-linecap="round" stroke-linejoin="round" stroke-opacity="1.0" stroke-width="3.0"/>
    <path d="M 47.82745361328125 121.82564544677734 C 36.14140319824219 110.56626892089844 59.82417297363281 98.04283905029297 61.78606033325195 113.53157806396484" fill="none" stroke="rgb(0, 0, 0)" stroke-linecap="round" stroke-linejoin="round" stroke-opacity="1.0" stroke-width="3.0"/>
    <path d="M 128.5170440673828 93.77597045898438 C 99.9607925415039 95.01778411865234 160.8775634765625 103.71607971191406 109.2001724243164 99.87673950195312" fill="none" stroke="rgb(0, 0, 0)" stroke-linecap="round" stroke-linejoin="round" stroke-opacity="1.0" stroke-width="3.0"/>
    <path d="M 45.222991943359375 98.06163787841797 C 8.562819480895996 143.00064086914062 80.3926773071289 151.34176635742188 73.76367950439453 110.02497863769531" fill="none" stroke="rgb(0, 0, 0)" stroke-linecap="round" stroke-linejoin="round" stroke-opacity="1.0" stroke-width="3.0"/>
    <path d="M 63.20199966430664 93.21271514892578 C 2.9921507835388184 87.70071411132812 51.11958694458008 143.8158721923828 60.65191650390625 117.15374755859375" fill="none" stroke="rgb(0, 0, 0)" stroke-linecap="round" stroke-linejoin="round" stroke-opacity="1.0" stroke-width="3.0"/>
    <path d="M 64.68031311035156 90.98226928710938 C 172.5625457763672 90.48040008544922 53.68546676635742 90.10620880126953 133.37754821777344 90.37017059326172" fill="none" stroke="rgb(0, 0, 0)" stroke-linecap="round" stroke-linejoin="round" stroke-opacity="1.0" stroke-width="3.0"/>
    <path d="M 133.99319458007812 141.9381103515625 C 86.10712432861328 142.18983459472656 63.49188995361328 143.0626678466797 30.422948837280273 142.94949340820312" fill="none" stroke="rgb(0, 0, 0)" stroke-linecap="round" stroke-linejoin="round" stroke-opacity="1.0" stroke-width="3.0"/>
  </g>
</svg>
