<?xml version="1.0" ?>
<svg height="224" version="1.1" width="224" xmlns="http://www.w3.org/2000/svg">
  <defs/>
  <g>
    <path d="M 113.24475860595703 141.10140991210938 C 108.6768798828125 146.53834533691406 83.75971984863281 96.79118347167969 132.44625854492188 105.37979125976562" fill="none" stroke="rgb(0, 0, 0)" stroke-linecap="round" stroke-linejoin="round" stroke-opacity="1.0" stroke-width="3.0"/>
    <path d="M 122.0165786743164 141.91407775878906 C 77.09878540039062 139.429931640625 80.2559585571289 142.11582946777344 76.01093292236328 139.94142150878906" fill="none" stroke="rgb(0, 0, 0)" stroke-linecap="round" stroke-linejoin="round" stroke-opacity="1.0" stroke-width="3.0"/>
    <path d="M 132.69381713867188 83.1470718383789 C 108.09012603759766 83.75157165527344 120.87867736816406 76.52300262451172 105.53374481201172 97.62813568115234" fill="none" stroke="rgb(0, 0, 0)" stroke-linecap="round" stroke-linejoin="round" stroke-opacity="1.0" stroke-width="3.0"/>
    <path d="M 144.90826416015625 114.1461181640625 C 159.84967041015625 106.12440490722656 210.57740783691406 107.7701644897461 143.30010986328125 107.77787017822266" fill="none" stroke="rgb(0, 0, 0)" stroke-linecap="round" stroke-linejoin="round" stroke-opacity="1.0" stroke-width="3.0"/>
    <path d="M 141.1031036376953 136.50148010253906 C 91.49403381347656 159.77256774902344 103.13583374023438 102.90491485595703 107.4151840209961 106.62322235107422" fill="none" stroke="rgb(0, 0, 0)" stroke-linecap="round" stroke-linejoin="round" stroke-opacity="1.0" stroke-width="3.0"/>
    <path d="M 142.55426025390625 100.97775268554688 C 124.20062255859375 70.358642578125 137.34597778320312 83.59783935546875 115.33358001708984 84.73743438720703" fill="none" stroke="rgb(0, 0, 0)" stroke-linecap="round" stroke-linejoin="round" stroke-opacity="1.0" stroke-width="3.0"/>
    <path d="M 124.02050018310547 140.9302978515625 C 187.31427001953125 135.58554077148438 174.3765106201172 157.7028350830078 176.9868621826172 106.99639129638672" fill="none" stroke="rgb(0, 0, 0)" stroke-linecap="round" stroke-linejoin="round" stroke-opacity="1.0" stroke-width="3.0"/>
    <path d="M 124.85062408447266 102.30807495117188 C 157.98703002929688 110.42533874511719 144.33595275878906 146.62110900878906 130.12338256835938 141.5306396484375" fill="none" stroke="rgb(0, 0, 0)" stroke-linecap="round" stroke-linejoin="round" stroke-opacity="1.0" stroke-width="3.0"/>
    <path d="M 123.75006866455078 95.93428039550781 C 100.02983093261719 109.536865234375 105.74059295654297 87.78929138183594 139.32696533203125 100.53092193603516" fill="none" stroke="rgb(0, 0, 0)" stroke-linecap="round" stroke-linejoin="round" stroke-opacity="1.0" stroke-width="3.0"/>
    <path d="M 176.94729614257812 104.609130859375 C 163.12033081054688 95.07553100585938 200.7760009765625 90.84146881103516 106.92790985107422 99.0705795288086" fill="none" stroke="rgb(0, 0, 0)" stroke-linecap="round" stroke-linejoin="round" stroke-opacity="1.0" stroke-width="3.0"/>
    <path d="M 137.5924530029297 95.864990234375 C 94.97081756591797 92.7789535522461 177.97042846679688 89.30905151367188 76.55635070800781 107.41496276855469" fill="none" stroke="rgb(0, 0, 0)" stroke-linecap="round" stroke-linejoin="round" stroke-opacity="1.0" stroke-width="3.0"/>
    <path d="M 81.63853454589844 102.48439025878906 C 85.3993911743164 94.62874603271484 67.73831176757812 95.3052749633789 140.94947814941406 95.88664245605469" fill="none" stroke="rgb(0, 0, 0)" stroke-linecap="round" stroke-linejoin="round" stroke-opacity="1.0" stroke-width="3.0"/>
    <path d="M 74.40614318847656 138.4047393798828 C 75.96994018554688 149.95533752441406 71.34799194335938 101.88545989990234 78.56076049804688 100.72930145263672" fill="none" stroke="rgb(0, 0, 0)" stroke-linecap="round" stroke-linejoin="round" stroke-opacity="1.0" stroke-width="3.0"/>
    <path d="M 135.3822479248047 91.72069549560547 C 111.3627700805664 92.63538360595703 101.50714111328125 84.849609375 131.09188842773438 87.10413360595703" fill="none" stroke="rgb(0, 0, 0)" stroke-linecap="round" stroke-linejoin="round" stroke-opacity="1.0" stroke-width="3.0"/>
    <path d="M 134.9735870361328 94.82721710205078 C 56.21821975708008 96.3646240234375 145.5158233642578 85.49903106689453 135.15574645996094 93.38771057128906" fill="none" stroke="rgb(0, 0, 0)" stroke-linecap="round" stroke-linejoin="round" stroke-opacity="1.0" stroke-width="3.0"/>
    <path d="M 105.99610137939453 98.9595718383789 C 126.19972229003906 88.00150299072266 152.3335418701172 111.74708557128906 146.11680603027344 119.38040161132812" fill="none" stroke="rgb(0, 0, 0)" stroke-linecap="round" stroke-linejoin="round" stroke-opacity="1.0" stroke-width="3.0"/>
  </g>
</svg>
