<?xml version="1.0" ?>
<svg height="224" version="1.1" width="224" xmlns="http://www.w3.org/2000/svg">
  <defs/>
  <g>
    <path d="M 129.26145935058594 97.60018157958984 C 194.0255889892578 108.38703155517578 184.26348876953125 96.89395141601562 135.21392822265625 97.33390045166016" fill="none" stroke="rgb(0, 0, 0)" stroke-linecap="round" stroke-linejoin="round" stroke-opacity="1.0" stroke-width="3.0"/>
    <path d="M 168.999755859375 141.4313507080078 C 165.93287658691406 141.38290405273438 174.3096160888672 141.78118896484375 166.13967895507812 141.57627868652344" fill="none" stroke="rgb(0, 0, 0)" stroke-linecap="round" stroke-linejoin="round" stroke-opacity="1.0" stroke-width="3.0"/>
    <path d="M 129.82931518554688 143.0679931640625 C 60.74399948120117 137.0564422607422 75.54021453857422 152.11444091796875 77.94332885742188 116.61463165283203" fill="none" stroke="rgb(0, 0, 0)" stroke-linecap="round" stroke-linejoin="round" stroke-opacity="1.0" stroke-width="3.0"/>
    <path d="M 175.5229949951172 108.66539001464844 C 171.15025329589844 95.97979736328125 175.6970977783203 94.93669891357422 161.0269317626953 96.11544799804688" fill="none" stroke="rgb(0, 0, 0)" stroke-linecap="round" stroke-linejoin="round" stroke-opacity="1.0" stroke-width="3.0"/>
    <path d="M 178.0869903564453 105.01622772216797 C 175.78741455078125 150.38265991210938 193.37428283691406 138.0111541748047 127.77281188964844 141.8152313232422" fill="none" stroke="rgb(0, 0, 0)" stroke-linecap="round" stroke-linejoin="round" stroke-opacity="1.0" stroke-width="3.0"/>
    <path d="M 127.29959869384766 141.64895629882812 C 105.78021240234375 134.11590576171875 108.87739562988281 105.13843536376953 130.0267791748047 103.16158294677734" fill="none" stroke="rgb(0, 0, 0)" stroke-linecap="round" stroke-linejoin="round" stroke-opacity="1.0" stroke-width="3.0"/>
    <path d="M 126.16204833984375 96.7505111694336 C 77.82264709472656 104.47371673583984 85.5792465209961 87.71783447265625 78.2952880859375 110.04151916503906" fill="none" stroke="rgb(0, 0, 0)" stroke-linecap="round" stroke-linejoin="round" stroke-opacity="1.0" stroke-width="3.0"/>
    <path d="M 115.88069152832031 83.9532470703125 C 142.8651123046875 84.30529022216797 124.42535400390625 79.5264892578125 141.58889770507812 97.61445617675781" fill="none" stroke="rgb(0, 0, 0)" stroke-linecap="round" stroke-linejoin="round" stroke-opacity="1.0" stroke-width="3.0"/>
    <path d="M 119.33113098144531 93.19886016845703 C 62.7811393737793 106.36419677734375 76.17223358154297 85.29949951171875 73.44319152832031 129.93179321289062" fill="none" stroke="rgb(0, 0, 0)" stroke-linecap="round" stroke-linejoin="round" stroke-opacity="1.0" stroke-width="3.0"/>
    <path d="M 112.13545227050781 94.70708465576172 C 142.34225463867188 94.2268295288086 153.8050079345703 88.47862243652344 101.63264465332031 104.20166015625" fill="none" stroke="rgb(0, 0, 0)" stroke-linecap="round" stroke-linejoin="round" stroke-opacity="1.0" stroke-width="3.0"/>
    <path d="M 177.67922973632812 109.82962799072266 C 118.18055725097656 98.75877380371094 89.42276000976562 98.7158432006836 177.02719116210938 107.98365783691406" fill="none" stroke="rgb(0, 0, 0)" stroke-linecap="round" stroke-linejoin="round" stroke-opacity="1.0" stroke-width="3.0"/>
    <path d="M 130.57748413085938 87.69904327392578 C 101.66349029541016 90.62980651855469 120.42179870605469 77.81051635742188 104.25582122802734 103.11433410644531" fill="none" stroke="rgb(0, 0, 0)" stroke-linecap="round" stroke-linejoin="round" stroke-opacity="1.0" stroke-width="3.0"/>
    <path d="M 82.5055923461914 96.48938751220703 C 118.44393157958984 96.03711700439453 144.2348175048828 107.04843139648438 82.3950424194336 102.44940948486328" fill="none" stroke="rgb(0, 0, 0)" stroke-linecap="round" stroke-linejoin="round" stroke-opacity="1.0" stroke-width="3.0"/>
    <path d="M 94.81145477294922 96.56377410888672 C 95.12183380126953 101.13894653320312 103.28239440917969 89.43302917480469 81.98896026611328 98.67498779296875" fill="none" stroke="rgb(0, 0, 0)" stroke-linecap="round" stroke-linejoin="round" stroke-opacity="1.0" stroke-width="3.0"/>
    <path d="M 110.93944549560547 107.95835876464844 C 131.1815185546875 113.98563385009766 92.17863464355469 111.37371063232422 77.27400970458984 113.74781036376953" fill="none" stroke="rgb(0, 0, 0)" stroke-linecap="round" stroke-linejoin="round" stroke-opacity="1.0" stroke-width="3.0"/>
    <path d="M 118.68619537353516 96.8441390991211 C 171.8710479736328 100.54269409179688 188.4250030517578 98.0683364868164 161.95274353027344 93.96229553222656" fill="none" stroke="rgb(0, 0, 0)" stroke-linecap="round" stroke-linejoin="round" stroke-opacity="1.0" stroke-width="3.0"/>
  </g>
</svg>
