<?xml version="1.0" ?>
<svg height="224" version="1.1" width="224" xmlns="http://www.w3.org/2000/svg">
  <defs/>
  <g>
    <path d="M 96.24466705322266 150.8096923828125 C 90.34236145019531 86.60643005371094 107.63121032714844 88.0760498046875 108.4512710571289 148.77992248535156" fill="none" stroke="rgb(0, 0, 0)" stroke-linecap="round" stroke-linejoin="round" stroke-opacity="1.0" stroke-width="3.0"/>
    <path d="M 147.39186096191406 110.92569732666016 C 57.945579528808594 114.4216537475586 74.6532974243164 85.918212890625 75.56989288330078 147.6206512451172" fill="none" stroke="rgb(0, 0, 0)" stroke-linecap="round" stroke-linejoin="round" stroke-opacity="1.0" stroke-width="3.0"/>
    <path d="M 101.3456802368164 148.2067108154297 C 96.79264831542969 82.30449676513672 103.12474822998047 80.65255737304688 102.97775268554688 148.49356079101562" fill="none" stroke="rgb(0, 0, 0)" stroke-linecap="round" stroke-linejoin="round" stroke-opacity="1.0" stroke-width="3.0"/>
    <path d="M 100.47705078125 107.0660400390625 C 148.78927612304688 101.8587875366211 92.74173736572266 100.80744171142578 113.2781753540039 144.47805786132812" fill="none" stroke="rgb(0, 0, 0)" stroke-linecap="round" stroke-linejoin="round" stroke-opacity="1.0" stroke-width="3.0"/>
    <path d="M 137.1811065673828 142.90078735351562 C 96.3387222290039 144.25546264648438 126.21675872802734 146.31040954589844 100.37042999267578 151.9366455078125" fill="none" stroke="rgb(0, 0, 0)" stroke-linecap="round" stroke-linejoin="round" stroke-opacity="1.0" stroke-width="3.0"/>
    <path d="M 166.30645751953125 160.18826293945312 C 131.24594116210938 156.40768432617188 134.2418975830078 108.2718734741211 166.9735870361328 108.5095443725586" fill="none" stroke="rgb(0, 0, 0)" stroke-linecap="round" stroke-linejoin="round" stroke-opacity="1.0" stroke-width="3.0"/>
    <path d="M 135.99729919433594 148.4412078857422 C 128.87374877929688 110.81981658935547 155.66758728027344 106.51007080078125 166.63681030273438 112.36650085449219" fill="none" stroke="rgb(0, 0, 0)" stroke-linecap="round" stroke-linejoin="round" stroke-opacity="1.0" stroke-width="3.0"/>
    <path d="M 181.1917266845703 142.66339111328125 C 171.46041870117188 187.2507781982422 114.27684783935547 126.59960174560547 110.66715240478516 144.92750549316406" fill="none" stroke="rgb(0, 0, 0)" stroke-linecap="round" stroke-linejoin="round" stroke-opacity="1.0" stroke-width="3.0"/>
    <path d="M 119.70391082763672 102.33731079101562 C 49.97771072387695 110.4188003540039 94.10723876953125 105.00347137451172 114.86988830566406 109.12796783447266" fill="none" stroke="rgb(0, 0, 0)" stroke-linecap="round" stroke-linejoin="round" stroke-opacity="1.0" stroke-width="3.0"/>
    <path d="M 170.70281982421875 154.1112060546875 C 208.07550048828125 114.36994171142578 137.3574676513672 100.9078369140625 152.27487182617188 109.07500457763672" fill="none" stroke="rgb(0, 0, 0)" stroke-linecap="round" stroke-linejoin="round" stroke-opacity="1.0" stroke-width="3.0"/>
    <path d="M 150.95040893554688 131.9143829345703 C 157.85406494140625 124.10923767089844 140.61749267578125 144.2913360595703 163.03468322753906 151.514892578125" fill="none" stroke="rgb(0, 0, 0)" stroke-linecap="round" stroke-linejoin="round" stroke-opacity="1.0" stroke-width="3.0"/>
    <path d="M 158.0459747314453 148.6903533935547 C 148.94403076171875 137.08148193359375 151.16725158691406 118.10575866699219 165.13253784179688 115.74401092529297" fill="none" stroke="rgb(0, 0, 0)" stroke-linecap="round" stroke-linejoin="round" stroke-opacity="1.0" stroke-width="3.0"/>
    <path d="M 158.3632354736328 159.9867706298828 C 194.36294555664062 177.0631866455078 201.01824951171875 88.50961303710938 150.05609130859375 110.59293365478516" fill="none" stroke="rgb(0, 0, 0)" stroke-linecap="round" stroke-linejoin="round" stroke-opacity="1.0" stroke-width="3.0"/>
    <path d="M 142.76129150390625 116.7702407836914 C 139.23060607910156 115.79280090332031 121.6858139038086 158.10232543945312 167.40272521972656 158.39239501953125" fill="none" stroke="rgb(0, 0, 0)" stroke-linecap="round" stroke-linejoin="round" stroke-opacity="1.0" stroke-width="3.0"/>
    <path d="M 102.22759246826172 97.95036315917969 C 226.7136688232422 104.35284423828125 76.49009704589844 98.57427215576172 86.05101776123047 107.1144790649414" fill="none" stroke="rgb(0, 0, 0)" stroke-linecap="round" stroke-linejoin="round" stroke-opacity="1.0" stroke-width="3.0"/>
    <path d="M 127.25357818603516 100.46995544433594 C 117.49395751953125 82.93182373046875 100.32097625732422 119.40937805175781 105.76225280761719 147.38739013671875" fill="none" stroke="rgb(0, 0, 0)" stroke-linecap="round" stroke-linejoin="round" stroke-opacity="1.0" stroke-width="3.0"/>
  </g>
</svg>
