<?xml version="1.0" ?>
<svg height="224" version="1.1" width="224" xmlns="http://www.w3.org/2000/svg">
  <defs/>
  <g>
    <path d="M 106.74436950683594 100.8375015258789 C 83.56475830078125 56.06468200683594 110.11665344238281 110.51957702636719 120.66339874267578 94.06853485107422" fill="none" stroke="rgb(0, 0, 0)" stroke-linecap="round" stroke-linejoin="round" stroke-opacity="1.0" stroke-width="3.0"/>
    <path d="M 56.46525573730469 98.34674072265625 C 59.9149055480957 150.37374877929688 46.91122055053711 127.16819763183594 88.44886016845703 125.84764099121094" fill="none" stroke="rgb(0, 0, 0)" stroke-linecap="round" stroke-linejoin="round" stroke-opacity="1.0" stroke-width="3.0"/>
    <path d="M 157.614501953125 110.74720001220703 C 71.85577392578125 118.92610168457031 199.35142517089844 105.1230239868164 147.55758666992188 120.5220718383789" fill="none" stroke="rgb(0, 0, 0)" stroke-linecap="round" stroke-linejoin="round" stroke-opacity="1.0" stroke-width="3.0"/>
    <path d="M 150.66270446777344 110.37165069580078 C 162.54898071289062 136.8894805908203 156.22860717773438 127.3121109008789 159.11175537109375 108.3326644897461" fill="none" stroke="rgb(0, 0, 0)" stroke-linecap="round" stroke-linejoin="round" stroke-opacity="1.0" stroke-width="3.0"/>
    <path d="M 98.4032974243164 82.0931625366211 C 63.034542083740234 77.58445739746094 92.52721405029297 91.54875183105469 58.76544189453125 103.14507293701172" fill="none" stroke="rgb(0, 0, 0)" stroke-linecap="round" stroke-linejoin="round" stroke-opacity="1.0" stroke-width="3.0"/>
    <path d="M 62.89199447631836 97.68231201171875 C 47.13270568847656 134.10748291015625 76.34066772460938 130.9068145751953 60.627960205078125 120.93856811523438" fill="none" stroke="rgb(0, 0, 0)" stroke-linecap="round" stroke-linejoin="round" stroke-opacity="1.0" stroke-width="3.0"/>
    <path d="M 56.867401123046875 128.5379638671875 C 184.3647918701172 125.2345962524414 168.3007354736328 122.73644256591797 59.43443298339844 124.33978271484375" fill="none" stroke="rgb(0, 0, 0)" stroke-linecap="round" stroke-linejoin="round" stroke-opacity="1.0" stroke-width="3.0"/>
    <path d="M 160.5698699951172 104.02399444580078 C 158.17660522460938 141.0077362060547 162.4342498779297 137.7704315185547 146.1975555419922 114.44050598144531" fill="none" stroke="rgb(0, 0, 0)" stroke-linecap="round" stroke-linejoin="round" stroke-opacity="1.0" stroke-width="3.0"/>
    <path d="M 123.3839111328125 120.6725082397461 C 80.04029846191406 66.50566101074219 162.91586303710938 103.76927947998047 68.03587341308594 93.17668151855469" fill="none" stroke="rgb(0, 0, 0)" stroke-linecap="round" stroke-linejoin="round" stroke-opacity="1.0" stroke-width="3.0"/>
    <path d="M 116.3926010131836 110.38867950439453 C 250.08554077148438 122.12348937988281 22.42914581298828 105.77046203613281 157.67791748046875 122.08765411376953" fill="none" stroke="rgb(0, 0, 0)" stroke-linecap="round" stroke-linejoin="round" stroke-opacity="1.0" stroke-width="3.0"/>
    <path d="M 116.51052856445312 92.1439208984375 C 103.18116760253906 164.23313903808594 133.9003448486328 128.04795837402344 114.9462661743164 97.00955963134766" fill="none" stroke="rgb(0, 0, 0)" stroke-linecap="round" stroke-linejoin="round" stroke-opacity="1.0" stroke-width="3.0"/>
    <path d="M 159.0280303955078 124.22724151611328 C 70.07945251464844 114.17018127441406 160.23448181152344 132.56309509277344 118.82510375976562 109.49481964111328" fill="none" stroke="rgb(0, 0, 0)" stroke-linecap="round" stroke-linejoin="round" stroke-opacity="1.0" stroke-width="3.0"/>
    <path d="M 57.66682052612305 100.24500274658203 C 94.20917510986328 94.7782974243164 76.02024841308594 94.67991638183594 57.841556549072266 97.41002655029297" fill="none" stroke="rgb(0, 0, 0)" stroke-linecap="round" stroke-linejoin="round" stroke-opacity="1.0" stroke-width="3.0"/>
    <path d="M 159.7672576904297 133.23997497558594 C 116.12466430664062 115.09142303466797 184.26895141601562 97.07496643066406 143.23841857910156 109.71394348144531" fill="none" stroke="rgb(0, 0, 0)" stroke-linecap="round" stroke-linejoin="round" stroke-opacity="1.0" stroke-width="3.0"/>
    <path d="M 100.49662780761719 130.40359497070312 C 99.53804016113281 137.981201171875 152.78182983398438 127.90071868896484 82.32777404785156 129.7383270263672" fill="none" stroke="rgb(0, 0, 0)" stroke-linecap="round" stroke-linejoin="round" stroke-opacity="1.0" stroke-width="3.0"/>
    <path d="M 101.4620132446289 97.40455627441406 C 128.8937225341797 86.28755950927734 133.53329467773438 103.2859115600586 99.6009750366211 99.12631225585938" fill="none" stroke="rgb(0, 0, 0)" stroke-linecap="round" stroke-linejoin="round" stroke-opacity="1.0" stroke-width="3.0"/>
  </g>
</svg>
