<?xml version="1.0" ?>
<svg height="224" version="1.1" width="224" xmlns="http://www.w3.org/2000/svg">
  <defs/>
  <g>
    <path d="M 117.77118682861328 121.3231201171875 C 125.79143524169922 136.32846069335938 112.4215316772461 131.04310607910156 148.54931640625 130.22415161132812" fill="none" stroke="rgb(0, 0, 0)" stroke-linecap="round" stroke-linejoin="round" stroke-opacity="1.0" stroke-width="3.0"/>
    <path d="M 149.2813262939453 104.65747833251953 C 143.6728057861328 103.00691986083984 163.9106903076172 97.23404693603516 127.52335357666016 98.0071792602539" fill="none" stroke="rgb(0, 0, 0)" stroke-linecap="round" stroke-linejoin="round" stroke-opacity="1.0" stroke-width="3.0"/>
    <path d="M 88.45925903320312 92.90489959716797 C 133.75320434570312 93.76079559326172 127.20101928710938 96.1574935913086 88.38520050048828 90.53919219970703" fill="none" stroke="rgb(0, 0, 0)" stroke-linecap="round" stroke-linejoin="round" stroke-opacity="1.0" stroke-width="3.0"/>
    <path d="M 127.2580795288086 101.68382263183594 C 178.7501983642578 104.69615936279297 122.43962097167969 99.04302215576172 120.0528335571289 102.2165756225586" fill="none" stroke="rgb(0, 0, 0)" stroke-linecap="round" stroke-linejoin="round" stroke-opacity="1.0" stroke-width="3.0"/>
    <path d="M 86.55459594726562 91.36210632324219 C 128.91612243652344 97.39490509033203 127.57896423339844 84.71450805664062 84.50330352783203 94.21300506591797" fill="none" stroke="rgb(0, 0, 0)" stroke-linecap="round" stroke-linejoin="round" stroke-opacity="1.0" stroke-width="3.0"/>
    <path d="M 119.60184478759766 124.4847412109375 C 96.23155212402344 129.01019287109375 81.16678619384766 118.81672668457031 119.48493957519531 122.04120635986328" fill="none" stroke="rgb(0, 0, 0)" stroke-linecap="round" stroke-linejoin="round" stroke-opacity="1.0" stroke-width="3.0"/>
    <path d="M 147.55943298339844 130.15748596191406 C 146.50909423828125 83.10298919677734 146.8600311279297 101.94550323486328 149.74734497070312 109.14749145507812" fill="none" stroke="rgb(0, 0, 0)" stroke-linecap="round" stroke-linejoin="round" stroke-opacity="1.0" stroke-width="3.0"/>
    <path d="M 148.15805053710938 129.94236755371094 C 150.04141235351562 127.78254699707031 118.17658996582031 140.9206085205078 119.61913299560547 124.935546875" fill="none" stroke="rgb(0, 0, 0)" stroke-linecap="round" stroke-linejoin="round" stroke-opacity="1.0" stroke-width="3.0"/>
    <path d="M 87.91234588623047 127.6111831665039 C 108.5292739868164 135.07203674316406 90.40045928955078 133.5478973388672 98.95568084716797 92.77439880371094" fill="none" stroke="rgb(0, 0, 0)" stroke-linecap="round" stroke-linejoin="round" stroke-opacity="1.0" stroke-width="3.0"/>
    <path d="M 147.22885131835938 99.73973083496094 C 149.1148681640625 97.56112670898438 150.2846221923828 93.9081039428711 150.3354034423828 127.63402557373047" fill="none" stroke="rgb(0, 0, 0)" stroke-linecap="round" stroke-linejoin="round" stroke-opacity="1.0" stroke-width="3.0"/>
    <path d="M 88.02168273925781 90.23998260498047 C 92.88121795654297 91.17922973632812 78.82200622558594 76.18939971923828 86.39344024658203 124.69483184814453" fill="none" stroke="rgb(0, 0, 0)" stroke-linecap="round" stroke-linejoin="round" stroke-opacity="1.0" stroke-width="3.0"/>
    <path d="M 93.81918334960938 92.69229888916016 C 92.55111694335938 84.95323181152344 76.99604797363281 86.10067749023438 83.27112579345703 120.77873992919922" fill="none" stroke="rgb(0, 0, 0)" stroke-linecap="round" stroke-linejoin="round" stroke-opacity="1.0" stroke-width="3.0"/>
    <path d="M 93.51072692871094 92.8066177368164 C 116.6566162109375 88.43252563476562 82.56564331054688 90.09465789794922 109.297119140625 93.0898666381836" fill="none" stroke="rgb(0, 0, 0)" stroke-linecap="round" stroke-linejoin="round" stroke-opacity="1.0" stroke-width="3.0"/>
    <path d="M 118.44102478027344 113.70756530761719 C 104.00051879882812 115.33331298828125 75.20232391357422 118.59966278076172 116.92594146728516 117.27579498291016" fill="none" stroke="rgb(0, 0, 0)" stroke-linecap="round" stroke-linejoin="round" stroke-opacity="1.0" stroke-width="3.0"/>
    <path d="M 116.27689361572266 122.21209716796875 C 69.97371673583984 142.50184631347656 79.07135009765625 96.39812469482422 86.56343841552734 92.21637725830078" fill="none" stroke="rgb(0, 0, 0)" stroke-linecap="round" stroke-linejoin="round" stroke-opacity="1.0" stroke-width="3.0"/>
    <path d="M 118.2569351196289 117.66612243652344 C 113.70475006103516 81.11030578613281 140.72291564941406 114.94718170166016 117.5391616821289 93.96061706542969" fill="none" stroke="rgb(0, 0, 0)" stroke-linecap="round" stroke-linejoin="round" stroke-opacity="1.0" stroke-width="3.0"/>
  </g>
</svg>
