<?xml version="1.0" ?>
<svg height="224" version="1.1" width="224" xmlns="http://www.w3.org/2000/svg">
  <defs/>
  <g>
    <path d="M 117.87206268310547 111.56867218017578 C 104.3330307006836 101.83029174804688 78.88478088378906 107.23274993896484 114.75093078613281 101.83924865722656" fill="none" stroke="rgb(0, 0, 0)" stroke-linecap="round" stroke-linejoin="round" stroke-opacity="1.0" stroke-width="3.0"/>
    <path d="M 151.31280517578125 132.44635009765625 C 116.04226684570312 118.4765396118164 169.63294982910156 135.55807495117188 102.10066223144531 133.39794921875" fill="none" stroke="rgb(0, 0, 0)" stroke-linecap="round" stroke-linejoin="round" stroke-opacity="1.0" stroke-width="3.0"/>
    <path d="M 121.88540649414062 83.04000854492188 C 98.77080535888672 89.54629516601562 116.83499908447266 111.35021209716797 129.02667236328125 102.04839324951172" fill="none" stroke="rgb(0, 0, 0)" stroke-linecap="round" stroke-linejoin="round" stroke-opacity="1.0" stroke-width="3.0"/>
    <path d="M 107.12275695800781 88.9979019165039 C 129.46141052246094 69.81497955322266 142.64768981933594 107.8702392578125 113.51587677001953 105.16812896728516" fill="none" stroke="rgb(0, 0, 0)" stroke-linecap="round" stroke-linejoin="round" stroke-opacity="1.0" stroke-width="3.0"/>
    <path d="M 91.40176391601562 115.61054229736328 C 85.36697387695312 105.42467498779297 130.6939697265625 114.98118591308594 130.17709350585938 98.68061065673828" fill="none" stroke="rgb(0, 0, 0)" stroke-linecap="round" stroke-linejoin="round" stroke-opacity="1.0" stroke-width="3.0"/>
    <path d="M 107.095947265625 91.47010803222656 C 113.64701080322266 110.0837631225586 141.13290405273438 110.71576690673828 91.53792572021484 107.97154235839844" fill="none" stroke="rgb(0, 0, 0)" stroke-linecap="round" stroke-linejoin="round" stroke-opacity="1.0" stroke-width="3.0"/>
    <path d="M 112.3309555053711 87.10830688476562 C 97.1624755859375 88.52874755859375 116.18008422851562 116.02185821533203 113.11570739746094 103.11566162109375" fill="none" stroke="rgb(0, 0, 0)" stroke-linecap="round" stroke-linejoin="round" stroke-opacity="1.0" stroke-width="3.0"/>
    <path d="M 94.42894744873047 92.58995819091797 C 96.58621978759766 113.21678924560547 90.64574432373047 77.0759506225586 90.76083374023438 104.35350799560547" fill="none" stroke="rgb(0, 0, 0)" stroke-linecap="round" stroke-linejoin="round" stroke-opacity="1.0" stroke-width="3.0"/>
    <path d="M 108.64054107666016 87.3309326171875 C 127.08006286621094 140.1581268310547 181.39186096191406 134.27374267578125 99.55603790283203 134.09347534179688" fill="none" stroke="rgb(0, 0, 0)" stroke-linecap="round" stroke-linejoin="round" stroke-opacity="1.0" stroke-width="3.0"/>
    <path d="M 104.39728546142578 87.1370620727539 C 77.62248229980469 91.29496765136719 91.55926513671875 92.70407104492188 95.22704315185547 132.33270263671875" fill="none" stroke="rgb(0, 0, 0)" stroke-linecap="round" stroke-linejoin="round" stroke-opacity="1.0" stroke-width="3.0"/>
    <path d="M 94.53266143798828 112.0350570678711 C 154.01649475097656 113.85600280761719 116.03646087646484 117.5981674194336 94.13536834716797 101.1714859008789" fill="none" stroke="rgb(0, 0, 0)" stroke-linecap="round" stroke-linejoin="round" stroke-opacity="1.0" stroke-width="3.0"/>
    <path d="M 102.8467025756836 134.826904296875 C 66.9469223022461 140.2486114501953 60.81550598144531 122.75074005126953 102.19419860839844 134.63424682617188" fill="none" stroke="rgb(0, 0, 0)" stroke-linecap="round" stroke-linejoin="round" stroke-opacity="1.0" stroke-width="3.0"/>
    <path d="M 66.96073913574219 129.80726623535156 C 129.12435913085938 144.462158203125 191.1614227294922 126.72628021240234 109.57703399658203 132.47756958007812" fill="none" stroke="rgb(0, 0, 0)" stroke-linecap="round" stroke-linejoin="round" stroke-opacity="1.0" stroke-width="3.0"/>
    <path d="M 115.44728088378906 93.05850219726562 C 125.62483215332031 77.80828094482422 131.32135009765625 110.37735748291016 116.28730010986328 96.51130676269531" fill="none" stroke="rgb(0, 0, 0)" stroke-linecap="round" stroke-linejoin="round" stroke-opacity="1.0" stroke-width="3.0"/>
    <path d="M 87.70478057861328 106.12860870361328 C 138.86415100097656 109.08842468261719 138.04075622558594 62.64169692993164 96.99418640136719 90.47077941894531" fill="none" stroke="rgb(0, 0, 0)" stroke-linecap="round" stroke-linejoin="round" stroke-opacity="1.0" stroke-width="3.0"/>
    <path d="M 93.69967651367188 124.85800170898438 C 76.85657501220703 125.76809692382812 60.072994232177734 128.85765075683594 138.80406188964844 134.0953369140625" fill="none" stroke="rgb(0, 0, 0)" stroke-linecap="round" stroke-linejoin="round" stroke-opacity="1.0" stroke-width="3.0"/>
  </g>
</svg>
