<?xml version="1.0" ?>
<svg height="224" version="1.1" width="224" xmlns="http://www.w3.org/2000/svg">
  <defs/>
  <g>
    <path d="M 136.6802978515625 95.46839904785156 C 50.35287857055664 114.19046020507812 100.82432556152344 96.09037017822266 142.79409790039062 97.83916473388672" fill="none" stroke="rgb(0, 0, 0)" stroke-linecap="round" stroke-linejoin="round" stroke-opacity="1.0" stroke-width="3.0"/>
    <path d="M 147.68826293945312 101.12261962890625 C 27.405174255371094 86.94807434082031 150.2825927734375 82.23843383789062 149.77423095703125 117.79924774169922" fill="none" stroke="rgb(0, 0, 0)" stroke-linecap="round" stroke-linejoin="round" stroke-opacity="1.0" stroke-width="3.0"/>
    <path d="M 98.94086456298828 132.1629180908203 C 137.68536376953125 157.81613159179688 143.5177764892578 154.12318420410156 101.298583984375 136.189697265625" fill="none" stroke="rgb(0, 0, 0)" stroke-linecap="round" stroke-linejoin="round" stroke-opacity="1.0" stroke-width="3.0"/>
    <path d="M 106.85507202148438 140.01084899902344 C 140.7282257080078 154.11019897460938 150.6104278564453 127.37516021728516 150.3868408203125 120.57608795166016" fill="none" stroke="rgb(0, 0, 0)" stroke-linecap="round" stroke-linejoin="round" stroke-opacity="1.0" stroke-width="3.0"/>
    <path d="M 148.27398681640625 131.16473388671875 C 130.10189819335938 155.22462463378906 159.58950805664062 112.18235778808594 148.2295684814453 136.18043518066406" fill="none" stroke="rgb(0, 0, 0)" stroke-linecap="round" stroke-linejoin="round" stroke-opacity="1.0" stroke-width="3.0"/>
    <path d="M 101.36543273925781 133.77740478515625 C 119.7010498046875 167.41314697265625 157.99365234375 125.3263168334961 140.94032287597656 145.472412109375" fill="none" stroke="rgb(0, 0, 0)" stroke-linecap="round" stroke-linejoin="round" stroke-opacity="1.0" stroke-width="3.0"/>
    <path d="M 96.16057586669922 128.84373474121094 C 103.61503601074219 154.98187255859375 121.37873840332031 136.1278839111328 122.02348327636719 150.81346130371094" fill="none" stroke="rgb(0, 0, 0)" stroke-linecap="round" stroke-linejoin="round" stroke-opacity="1.0" stroke-width="3.0"/>
    <path d="M 116.59432983398438 149.2185821533203 C 84.2685317993164 119.79583740234375 106.79698944091797 144.26385498046875 112.704345703125 148.25314331054688" fill="none" stroke="rgb(0, 0, 0)" stroke-linecap="round" stroke-linejoin="round" stroke-opacity="1.0" stroke-width="3.0"/>
    <path d="M 82.99508666992188 134.73681640625 C 99.2392578125 138.0066375732422 78.88763427734375 129.18714904785156 136.0236358642578 148.904052734375" fill="none" stroke="rgb(0, 0, 0)" stroke-linecap="round" stroke-linejoin="round" stroke-opacity="1.0" stroke-width="3.0"/>
    <path d="M 82.49710083007812 134.21774291992188 C 85.75435638427734 65.53658294677734 72.59898376464844 119.8145523071289 126.2588882446289 91.41248321533203" fill="none" stroke="rgb(0, 0, 0)" stroke-linecap="round" stroke-linejoin="round" stroke-opacity="1.0" stroke-width="3.0"/>
    <path d="M 106.57637786865234 87.82532501220703 C 93.10679626464844 130.92953491210938 117.35418701171875 84.345458984375 101.99803161621094 92.85282897949219" fill="none" stroke="rgb(0, 0, 0)" stroke-linecap="round" stroke-linejoin="round" stroke-opacity="1.0" stroke-width="3.0"/>
    <path d="M 113.4315414428711 100.84696960449219 C 103.61112976074219 94.13825225830078 73.69236755371094 95.41061401367188 95.34679412841797 98.79620361328125" fill="none" stroke="rgb(0, 0, 0)" stroke-linecap="round" stroke-linejoin="round" stroke-opacity="1.0" stroke-width="3.0"/>
    <path d="M 90.47982788085938 136.63034057617188 C 88.7017593383789 89.55167388916016 95.57152557373047 75.30037689208984 113.79057312011719 97.86412048339844" fill="none" stroke="rgb(0, 0, 0)" stroke-linecap="round" stroke-linejoin="round" stroke-opacity="1.0" stroke-width="3.0"/>
    <path d="M 124.88683319091797 88.9553451538086 C 45.47042465209961 108.11637115478516 144.58767700195312 75.58097076416016 133.75387573242188 91.89234924316406" fill="none" stroke="rgb(0, 0, 0)" stroke-linecap="round" stroke-linejoin="round" stroke-opacity="1.0" stroke-width="3.0"/>
    <path d="M 127.56995391845703 94.20440673828125 C 82.80821228027344 109.15850067138672 128.07424926757812 103.18297576904297 92.46221923828125 96.65384674072266" fill="none" stroke="rgb(0, 0, 0)" stroke-linecap="round" stroke-linejoin="round" stroke-opacity="1.0" stroke-width="3.0"/>
    <path d="M 127.61669158935547 95.12982177734375 C 102.57046508789062 101.71630096435547 91.15243530273438 121.81461334228516 111.04907989501953 140.46299743652344" fill="none" stroke="rgb(0, 0, 0)" stroke-linecap="round" stroke-linejoin="round" stroke-opacity="1.0" stroke-width="3.0"/>
  </g>
</svg>
