<?xml version="1.0" ?>
<svg height="224" version="1.1" width="224" xmlns="http://www.w3.org/2000/svg">
  <defs/>
  <g>
    <path d="M 120.67301177978516 135.37362670898438 C 96.75346374511719 132.44189453125 82.04313659667969 131.0193328857422 137.18377685546875 127.06784057617188" fill="none" stroke="rgb(0, 0, 0)" stroke-linecap="round" stroke-linejoin="round" stroke-opacity="1.0" stroke-width="3.0"/>
    <path d="M 131.26535034179688 107.61377716064453 C 132.880859375 89.59270477294922 109.8331298828125 78.30309295654297 97.39808654785156 84.54022979736328" fill="none" stroke="rgb(0, 0, 0)" stroke-linecap="round" stroke-linejoin="round" stroke-opacity="1.0" stroke-width="3.0"/>
    <path d="M 106.7707748413086 140.3428497314453 C 169.54052734375 143.02499389648438 142.67759704589844 109.68631744384766 73.19715118408203 130.64764404296875" fill="none" stroke="rgb(0, 0, 0)" stroke-linecap="round" stroke-linejoin="round" stroke-opacity="1.0" stroke-width="3.0"/>
    <path d="M 105.58069610595703 82.68986511230469 C 85.60942077636719 86.92373657226562 75.355712890625 116.81600189208984 104.78205108642578 124.9828872680664" fill="none" stroke="rgb(0, 0, 0)" stroke-linecap="round" stroke-linejoin="round" stroke-opacity="1.0" stroke-width="3.0"/>
    <path d="M 116.04383087158203 121.69218444824219 C 126.8631591796875 118.63191986083984 121.91881561279297 110.9427261352539 114.11255645751953 86.5943603515625" fill="none" stroke="rgb(0, 0, 0)" stroke-linecap="round" stroke-linejoin="round" stroke-opacity="1.0" stroke-width="3.0"/>
    <path d="M 128.97129821777344 102.98204040527344 C 144.62460327148438 105.78697967529297 120.92284393310547 85.547119140625 130.86965942382812 106.72969055175781" fill="none" stroke="rgb(0, 0, 0)" stroke-linecap="round" stroke-linejoin="round" stroke-opacity="1.0" stroke-width="3.0"/>
    <path d="M 106.94342041015625 124.03976440429688 C 41.48739242553711 122.51221466064453 48.673179626464844 147.05064392089844 138.2263641357422 134.53855895996094" fill="none" stroke="rgb(0, 0, 0)" stroke-linecap="round" stroke-linejoin="round" stroke-opacity="1.0" stroke-width="3.0"/>
    <path d="M 125.80530548095703 130.8390655517578 C 50.61886215209961 129.5156707763672 44.13253402709961 131.3988800048828 138.68443298339844 134.4713897705078" fill="none" stroke="rgb(0, 0, 0)" stroke-linecap="round" stroke-linejoin="round" stroke-opacity="1.0" stroke-width="3.0"/>
    <path d="M 106.38817596435547 124.99051666259766 C 141.2371063232422 100.28665161132812 126.47564697265625 115.44429779052734 125.71570587158203 94.94551849365234" fill="none" stroke="rgb(0, 0, 0)" stroke-linecap="round" stroke-linejoin="round" stroke-opacity="1.0" stroke-width="3.0"/>
    <path d="M 107.74010467529297 134.47412109375 C 156.11952209472656 121.03483581542969 154.81336975097656 142.00201416015625 70.47256469726562 134.7715301513672" fill="none" stroke="rgb(0, 0, 0)" stroke-linecap="round" stroke-linejoin="round" stroke-opacity="1.0" stroke-width="3.0"/>
    <path d="M 114.46436309814453 123.20512390136719 C 129.7036590576172 112.57865905761719 107.89344787597656 128.59385681152344 82.5199203491211 135.75430297851562" fill="none" stroke="rgb(0, 0, 0)" stroke-linecap="round" stroke-linejoin="round" stroke-opacity="1.0" stroke-width="3.0"/>
    <path d="M 137.4915008544922 136.75611877441406 C 50.22119903564453 151.44891357421875 36.31439208984375 118.32500457763672 128.106201171875 128.97621154785156" fill="none" stroke="rgb(0, 0, 0)" stroke-linecap="round" stroke-linejoin="round" stroke-opacity="1.0" stroke-width="3.0"/>
    <path d="M 97.69062805175781 132.56704711914062 C 176.70362854003906 128.6276092529297 117.05520629882812 150.5629425048828 98.41972351074219 128.38792419433594" fill="none" stroke="rgb(0, 0, 0)" stroke-linecap="round" stroke-linejoin="round" stroke-opacity="1.0" stroke-width="3.0"/>
    <path d="M 131.14010620117188 91.29041290283203 C 132.70567321777344 109.3714370727539 127.9845199584961 130.56773376464844 123.04666900634766 92.47058868408203" fill="none" stroke="rgb(0, 0, 0)" stroke-linecap="round" stroke-linejoin="round" stroke-opacity="1.0" stroke-width="3.0"/>
    <path d="M 126.03691864013672 100.4437026977539 C 130.6424102783203 87.45877838134766 129.3638153076172 95.42073059082031 117.69408416748047 86.25853729248047" fill="none" stroke="rgb(0, 0, 0)" stroke-linecap="round" stroke-linejoin="round" stroke-opacity="1.0" stroke-width="3.0"/>
    <path d="M 98.2841567993164 85.5615005493164 C 94.67879486083984 86.58953094482422 99.27342224121094 84.01219940185547 96.72493743896484 86.87709045410156" fill="none" stroke="rgb(0, 0, 0)" stroke-linecap="round" stroke-linejoin="round" stroke-opacity="1.0" stroke-width="3.0"/>
  </g>
</svg>
