<?xml version="1.0" ?>
<svg height="224" version="1.1" width="224" xmlns="http://www.w3.org/2000/svg">
  <defs/>
  <g>
    <path d="M 166.49884033203125 74.68965911865234 C 56.39243698120117 74.1296157836914 187.99749755859375 73.76911163330078 149.23724365234375 79.52983093261719" fill="none" stroke="rgb(0, 0, 0)" stroke-linecap="round" stroke-linejoin="round" stroke-opacity="1.0" stroke-width="3.0"/>
    <path d="M 163.26194763183594 74.95512390136719 C 208.41738891601562 75.33834838867188 200.36280822753906 72.84635925292969 200.7212677001953 89.76327514648438" fill="none" stroke="rgb(0, 0, 0)" stroke-linecap="round" stroke-linejoin="round" stroke-opacity="1.0" stroke-width="3.0"/>
    <path d="M 194.6126708984375 137.1902618408203 C 58.05057144165039 133.8148956298828 93.99402618408203 141.54563903808594 89.75243377685547 110.90259552001953" fill="none" stroke="rgb(0, 0, 0)" stroke-linecap="round" stroke-linejoin="round" stroke-opacity="1.0" stroke-width="3.0"/>
    <path d="M 136.54322814941406 101.01905059814453 C 138.18780517578125 151.5015411376953 212.86749267578125 134.5708770751953 91.24332427978516 134.33970642089844" fill="none" stroke="rgb(0, 0, 0)" stroke-linecap="round" stroke-linejoin="round" stroke-opacity="1.0" stroke-width="3.0"/>
    <path d="M 198.43345642089844 114.89159393310547 C 192.06468200683594 139.09596252441406 144.73727416992188 130.8091583251953 151.98892211914062 98.02745819091797" fill="none" stroke="rgb(0, 0, 0)" stroke-linecap="round" stroke-linejoin="round" stroke-opacity="1.0" stroke-width="3.0"/>
    <path d="M 192.77362060546875 141.93360900878906 C 9.175821304321289 143.18963623046875 120.34317779541016 140.63600158691406 127.021728515625 137.7216033935547" fill="none" stroke="rgb(0, 0, 0)" stroke-linecap="round" stroke-linejoin="round" stroke-opacity="1.0" stroke-width="3.0"/>
    <path d="M 147.88389587402344 82.62979888916016 C 31.325963973999023 81.63442993164062 196.03005981445312 91.47406005859375 92.5478744506836 80.93965148925781" fill="none" stroke="rgb(0, 0, 0)" stroke-linecap="round" stroke-linejoin="round" stroke-opacity="1.0" stroke-width="3.0"/>
    <path d="M 99.0562973022461 141.91183471679688 C 104.27132415771484 86.80860900878906 71.05412292480469 94.25357818603516 150.5658721923828 96.16405487060547" fill="none" stroke="rgb(0, 0, 0)" stroke-linecap="round" stroke-linejoin="round" stroke-opacity="1.0" stroke-width="3.0"/>
    <path d="M 186.19007873535156 83.3646240234375 C 166.72474670410156 76.6856918334961 149.32521057128906 90.56263732910156 150.62176513671875 105.0621337890625" fill="none" stroke="rgb(0, 0, 0)" stroke-linecap="round" stroke-linejoin="round" stroke-opacity="1.0" stroke-width="3.0"/>
    <path d="M 89.166748046875 122.6534194946289 C 83.46186828613281 158.42002868652344 111.18437194824219 129.26492309570312 90.68914031982422 133.9071044921875" fill="none" stroke="rgb(0, 0, 0)" stroke-linecap="round" stroke-linejoin="round" stroke-opacity="1.0" stroke-width="3.0"/>
    <path d="M 194.8260955810547 139.46939086914062 C 204.16455078125 114.65480041503906 210.80934143066406 88.9522933959961 191.31008911132812 84.36605072021484" fill="none" stroke="rgb(0, 0, 0)" stroke-linecap="round" stroke-linejoin="round" stroke-opacity="1.0" stroke-width="3.0"/>
    <path d="M 146.53387451171875 138.18663024902344 C 73.5968017578125 137.16043090820312 93.08308410644531 133.9240264892578 113.41432189941406 135.86656188964844" fill="none" stroke="rgb(0, 0, 0)" stroke-linecap="round" stroke-linejoin="round" stroke-opacity="1.0" stroke-width="3.0"/>
    <path d="M 89.87621307373047 101.99982452392578 C 90.14643096923828 68.94807434082031 76.07886505126953 74.0137939453125 129.66127014160156 77.70127868652344" fill="none" stroke="rgb(0, 0, 0)" stroke-linecap="round" stroke-linejoin="round" stroke-opacity="1.0" stroke-width="3.0"/>
    <path d="M 94.67540740966797 125.33402252197266 C 99.23587036132812 153.6334686279297 97.99462890625 106.91712188720703 97.37507629394531 112.12018585205078" fill="none" stroke="rgb(0, 0, 0)" stroke-linecap="round" stroke-linejoin="round" stroke-opacity="1.0" stroke-width="3.0"/>
    <path d="M 97.13877868652344 134.90927124023438 C 88.2640609741211 111.4227523803711 90.8526840209961 148.98684692382812 89.63299560546875 99.91410064697266" fill="none" stroke="rgb(0, 0, 0)" stroke-linecap="round" stroke-linejoin="round" stroke-opacity="1.0" stroke-width="3.0"/>
    <path d="M 167.80235290527344 142.0402374267578 C 72.00430297851562 136.3190155029297 91.39778137207031 163.06442260742188 89.13201904296875 83.74346923828125" fill="none" stroke="rgb(0, 0, 0)" stroke-linecap="round" stroke-linejoin="round" stroke-opacity="1.0" stroke-width="3.0"/>
  </g>
</svg>
