<?xml version="1.0" ?>
<svg height="224" version="1.1" width="224" xmlns="http://www.w3.org/2000/svg">
  <defs/>
  <g>
    <path d="M 124.60556030273438 100.63068389892578 C 111.19066619873047 119.18273162841797 119.09309387207031 67.35501861572266 114.80368041992188 135.54103088378906" fill="none" stroke="rgb(0, 0, 0)" stroke-linecap="round" stroke-linejoin="round" stroke-opacity="1.0" stroke-width="3.0"/>
    <path d="M 50.90553665161133 141.4633026123047 C 47.53636169433594 143.3108367919922 122.89224243164062 137.91259765625 115.76979064941406 137.5289306640625" fill="none" stroke="rgb(0, 0, 0)" stroke-linecap="round" stroke-linejoin="round" stroke-opacity="1.0" stroke-width="3.0"/>
    <path d="M 125.78153991699219 148.6943817138672 C 117.51605224609375 148.5076446533203 105.64436340332031 152.4718017578125 149.0941162109375 144.8431396484375" fill="none" stroke="rgb(0, 0, 0)" stroke-linecap="round" stroke-linejoin="round" stroke-opacity="1.0" stroke-width="3.0"/>
    <path d="M 122.88825988769531 100.02957153320312 C -63.760948181152344 94.88897705078125 180.82472229003906 96.7803955078125 114.45635223388672 99.25601959228516" fill="none" stroke="rgb(0, 0, 0)" stroke-linecap="round" stroke-linejoin="round" stroke-opacity="1.0" stroke-width="3.0"/>
    <path d="M 73.15496826171875 95.3862533569336 C 68.67115783691406 91.49115753173828 186.50904846191406 101.82389068603516 126.46989440917969 95.6205825805664" fill="none" stroke="rgb(0, 0, 0)" stroke-linecap="round" stroke-linejoin="round" stroke-opacity="1.0" stroke-width="3.0"/>
    <path d="M 151.46206665039062 110.73332214355469 C 157.4890899658203 161.33900451660156 113.16720581054688 137.726806640625 135.76925659179688 111.91532897949219" fill="none" stroke="rgb(0, 0, 0)" stroke-linecap="round" stroke-linejoin="round" stroke-opacity="1.0" stroke-width="3.0"/>
    <path d="M 123.78181457519531 148.8773956298828 C 68.24992370605469 144.0153350830078 82.71383666992188 151.43316650390625 58.53652572631836 154.7636260986328" fill="none" stroke="rgb(0, 0, 0)" stroke-linecap="round" stroke-linejoin="round" stroke-opacity="1.0" stroke-width="3.0"/>
    <path d="M 89.43687438964844 151.6354217529297 C 63.60149383544922 152.7490234375 25.935514450073242 168.69093322753906 113.4583511352539 148.2139129638672" fill="none" stroke="rgb(0, 0, 0)" stroke-linecap="round" stroke-linejoin="round" stroke-opacity="1.0" stroke-width="3.0"/>
    <path d="M 142.9178466796875 107.28417205810547 C 113.55460357666016 99.9518814086914 114.15955352783203 154.40713500976562 143.5655517578125 140.42800903320312" fill="none" stroke="rgb(0, 0, 0)" stroke-linecap="round" stroke-linejoin="round" stroke-opacity="1.0" stroke-width="3.0"/>
    <path d="M 69.74592590332031 87.65696716308594 C 68.59922790527344 85.83599853515625 16.39881706237793 83.67280578613281 151.39068603515625 92.31362915039062" fill="none" stroke="rgb(0, 0, 0)" stroke-linecap="round" stroke-linejoin="round" stroke-opacity="1.0" stroke-width="3.0"/>
    <path d="M 121.2024917602539 150.3531494140625 C 34.18092346191406 152.32388305664062 42.68272018432617 141.4468231201172 67.9729995727539 151.7877655029297" fill="none" stroke="rgb(0, 0, 0)" stroke-linecap="round" stroke-linejoin="round" stroke-opacity="1.0" stroke-width="3.0"/>
    <path d="M 132.3472900390625 146.22872924804688 C 24.01070213317871 144.57611083984375 27.45024299621582 164.02777099609375 116.58929443359375 150.90890502929688" fill="none" stroke="rgb(0, 0, 0)" stroke-linecap="round" stroke-linejoin="round" stroke-opacity="1.0" stroke-width="3.0"/>
    <path d="M 81.41796112060547 154.06280517578125 C 46.49555206298828 146.02749633789062 37.17906188964844 165.15452575683594 97.11341094970703 153.73606872558594" fill="none" stroke="rgb(0, 0, 0)" stroke-linecap="round" stroke-linejoin="round" stroke-opacity="1.0" stroke-width="3.0"/>
    <path d="M 49.615562438964844 151.68997192382812 C 52.175880432128906 74.16325378417969 42.912540435791016 89.86664581298828 67.31231689453125 90.610595703125" fill="none" stroke="rgb(0, 0, 0)" stroke-linecap="round" stroke-linejoin="round" stroke-opacity="1.0" stroke-width="3.0"/>
    <path d="M 134.29940795898438 115.35382080078125 C 156.41506958007812 88.95881652832031 151.9864044189453 144.52796936035156 151.8131561279297 92.1808853149414" fill="none" stroke="rgb(0, 0, 0)" stroke-linecap="round" stroke-linejoin="round" stroke-opacity="1.0" stroke-width="3.0"/>
    <path d="M 150.5570831298828 145.53282165527344 C 154.03904724121094 124.51376342773438 153.8340606689453 112.15291595458984 138.3547821044922 112.323974609375" fill="none" stroke="rgb(0, 0, 0)" stroke-linecap="round" stroke-linejoin="round" stroke-opacity="1.0" stroke-width="3.0"/>
  </g>
</svg>
