<?xml version="1.0" ?>
<svg height="224" version="1.1" width="224" xmlns="http://www.w3.org/2000/svg">
  <defs/>
  <g>
    <path d="M 132.9887237548828 101.72573852539062 C 132.29527282714844 125.2735824584961 134.65786743164062 66.6981430053711 129.40711975097656 121.65394592285156" fill="none" stroke="rgb(0, 0, 0)" stroke-linecap="round" stroke-linejoin="round" stroke-opacity="1.0" stroke-width="3.0"/>
    <path d="M 90.45625305175781 123.41897583007812 C 108.30451965332031 149.794921875 134.51585388183594 144.78555297851562 65.4568099975586 136.43157958984375" fill="none" stroke="rgb(0, 0, 0)" stroke-linecap="round" stroke-linejoin="round" stroke-opacity="1.0" stroke-width="3.0"/>
    <path d="M 110.9745101928711 145.0172576904297 C 68.41804504394531 105.18046569824219 103.24919891357422 152.27085876464844 79.78205871582031 108.98973846435547" fill="none" stroke="rgb(0, 0, 0)" stroke-linecap="round" stroke-linejoin="round" stroke-opacity="1.0" stroke-width="3.0"/>
    <path d="M 77.66942596435547 110.66575622558594 C 115.29443359375 148.7057342529297 111.3709487915039 163.38363647460938 83.51457977294922 114.18695068359375" fill="none" stroke="rgb(0, 0, 0)" stroke-linecap="round" stroke-linejoin="round" stroke-opacity="1.0" stroke-width="3.0"/>
    <path d="M 106.46145629882812 137.96615600585938 C 67.90161895751953 131.72572326660156 69.78726959228516 124.4632797241211 64.24223327636719 136.7396240234375" fill="none" stroke="rgb(0, 0, 0)" stroke-linecap="round" stroke-linejoin="round" stroke-opacity="1.0" stroke-width="3.0"/>
    <path d="M 99.93251037597656 112.6366195678711 C 73.27290344238281 97.7781982421875 99.15167999267578 106.35758972167969 87.70218658447266 102.28627014160156" fill="none" stroke="rgb(0, 0, 0)" stroke-linecap="round" stroke-linejoin="round" stroke-opacity="1.0" stroke-width="3.0"/>
    <path d="M 122.88633728027344 145.75967407226562 C 126.64604949951172 157.43373107910156 88.58126068115234 140.15419006347656 63.62958526611328 139.85089111328125" fill="none" stroke="rgb(0, 0, 0)" stroke-linecap="round" stroke-linejoin="round" stroke-opacity="1.0" stroke-width="3.0"/>
    <path d="M 127.18921661376953 124.36985778808594 C 143.86004638671875 125.44536590576172 129.45457458496094 53.726165771484375 125.97000885009766 125.41930389404297" fill="none" stroke="rgb(0, 0, 0)" stroke-linecap="round" stroke-linejoin="round" stroke-opacity="1.0" stroke-width="3.0"/>
    <path d="M 108.810302734375 136.9368133544922 C 94.05354309082031 126.22200775146484 105.60496520996094 136.5068817138672 71.69911193847656 133.03831481933594" fill="none" stroke="rgb(0, 0, 0)" stroke-linecap="round" stroke-linejoin="round" stroke-opacity="1.0" stroke-width="3.0"/>
    <path d="M 107.59941101074219 142.96652221679688 C 100.20630645751953 120.10918426513672 76.5367660522461 124.05036926269531 83.40497589111328 114.42066955566406" fill="none" stroke="rgb(0, 0, 0)" stroke-linecap="round" stroke-linejoin="round" stroke-opacity="1.0" stroke-width="3.0"/>
    <path d="M 124.92523193359375 123.64424896240234 C 141.62538146972656 149.972412109375 130.71868896484375 134.2652130126953 121.82068634033203 149.61563110351562" fill="none" stroke="rgb(0, 0, 0)" stroke-linecap="round" stroke-linejoin="round" stroke-opacity="1.0" stroke-width="3.0"/>
    <path d="M 108.27427673339844 136.42398071289062 C 83.87239837646484 126.71856689453125 30.879919052124023 131.9174041748047 105.78128051757812 143.78228759765625" fill="none" stroke="rgb(0, 0, 0)" stroke-linecap="round" stroke-linejoin="round" stroke-opacity="1.0" stroke-width="3.0"/>
    <path d="M 72.78399658203125 133.18292236328125 C 49.27992630004883 139.09677124023438 164.11424255371094 136.71414184570312 67.73887634277344 135.21290588378906" fill="none" stroke="rgb(0, 0, 0)" stroke-linecap="round" stroke-linejoin="round" stroke-opacity="1.0" stroke-width="3.0"/>
    <path d="M 95.31591796875 142.68617248535156 C 83.21833038330078 102.72689056396484 76.7758560180664 118.61898040771484 85.34505462646484 120.99491882324219" fill="none" stroke="rgb(0, 0, 0)" stroke-linecap="round" stroke-linejoin="round" stroke-opacity="1.0" stroke-width="3.0"/>
    <path d="M 95.31295013427734 133.10231018066406 C 80.7487564086914 144.83499145507812 89.04085540771484 126.8057861328125 101.43749237060547 139.3409881591797" fill="none" stroke="rgb(0, 0, 0)" stroke-linecap="round" stroke-linejoin="round" stroke-opacity="1.0" stroke-width="3.0"/>
    <path d="M 83.21336364746094 116.06224060058594 C 76.53460693359375 95.66818237304688 97.70184326171875 67.1456298828125 127.34408569335938 95.64998626708984" fill="none" stroke="rgb(0, 0, 0)" stroke-linecap="round" stroke-linejoin="round" stroke-opacity="1.0" stroke-width="3.0"/>
  </g>
</svg>
