<?xml version="1.0" ?>
<svg height="224" version="1.1" width="224" xmlns="http://www.w3.org/2000/svg">
  <defs/>
  <g>
    <path d="M 88.6894302368164 99.4496078491211 C 68.25186157226562 112.6048812866211 85.3415756225586 85.48900604248047 132.06129455566406 110.4532470703125" fill="none" stroke="rgb(0, 0, 0)" stroke-linecap="round" stroke-linejoin="round" stroke-opacity="1.0" stroke-width="3.0"/>
    <path d="M 94.47026062011719 103.13631439208984 C 130.65342712402344 108.49867248535156 157.38816833496094 99.01358795166016 120.11131286621094 89.51592254638672" fill="none" stroke="rgb(0, 0, 0)" stroke-linecap="round" stroke-linejoin="round" stroke-opacity="1.0" stroke-width="3.0"/>
    <path d="M 99.4309310913086 94.59819030761719 C 101.70140838623047 77.76496887207031 131.1126251220703 92.01301574707031 84.05807495117188 104.08444213867188" fill="none" stroke="rgb(0, 0, 0)" stroke-linecap="round" stroke-linejoin="round" stroke-opacity="1.0" stroke-width="3.0"/>
    <path d="M 109.20439147949219 139.12594604492188 C 84.08966064453125 133.65182495117188 87.20648193359375 103.70831298828125 107.14745330810547 103.55020904541016" fill="none" stroke="rgb(0, 0, 0)" stroke-linecap="round" stroke-linejoin="round" stroke-opacity="1.0" stroke-width="3.0"/>
    <path d="M 81.3027572631836 99.98219299316406 C 93.94461059570312 136.4185333251953 84.8903579711914 163.66236877441406 84.48204040527344 102.17512512207031" fill="none" stroke="rgb(0, 0, 0)" stroke-linecap="round" stroke-linejoin="round" stroke-opacity="1.0" stroke-width="3.0"/>
    <path d="M 132.78883361816406 102.61638641357422 C 132.20652770996094 156.7390594482422 137.4412384033203 103.06974792480469 135.78890991210938 138.93862915039062" fill="none" stroke="rgb(0, 0, 0)" stroke-linecap="round" stroke-linejoin="round" stroke-opacity="1.0" stroke-width="3.0"/>
    <path d="M 111.22652435302734 92.27283477783203 C 149.213623046875 81.77031707763672 115.71038818359375 99.20820617675781 82.44265747070312 104.5264663696289" fill="none" stroke="rgb(0, 0, 0)" stroke-linecap="round" stroke-linejoin="round" stroke-opacity="1.0" stroke-width="3.0"/>
    <path d="M 136.392333984375 100.86112213134766 C 72.46045684814453 92.83146667480469 40.70896530151367 95.42323303222656 132.6772918701172 101.66238403320312" fill="none" stroke="rgb(0, 0, 0)" stroke-linecap="round" stroke-linejoin="round" stroke-opacity="1.0" stroke-width="3.0"/>
    <path d="M 82.76441955566406 101.39945220947266 C 77.1114501953125 172.03245544433594 100.64238739013672 130.09286499023438 84.3185043334961 106.70526123046875" fill="none" stroke="rgb(0, 0, 0)" stroke-linecap="round" stroke-linejoin="round" stroke-opacity="1.0" stroke-width="3.0"/>
    <path d="M 124.20417022705078 90.11746215820312 C 99.9224853515625 96.33828735351562 130.2117462158203 93.56974029541016 91.97258758544922 93.08029174804688" fill="none" stroke="rgb(0, 0, 0)" stroke-linecap="round" stroke-linejoin="round" stroke-opacity="1.0" stroke-width="3.0"/>
    <path d="M 136.26025390625 91.6042251586914 C 100.84114074707031 97.58412170410156 98.9045639038086 73.59226989746094 99.04025268554688 101.53433227539062" fill="none" stroke="rgb(0, 0, 0)" stroke-linecap="round" stroke-linejoin="round" stroke-opacity="1.0" stroke-width="3.0"/>
    <path d="M 97.4258804321289 137.99530029296875 C 68.96159362792969 122.7122573852539 80.00841522216797 168.5771942138672 76.15180969238281 98.93531799316406" fill="none" stroke="rgb(0, 0, 0)" stroke-linecap="round" stroke-linejoin="round" stroke-opacity="1.0" stroke-width="3.0"/>
    <path d="M 112.06520080566406 95.251953125 C 152.55419921875 99.4331283569336 140.5296630859375 90.3810043334961 113.91561126708984 97.64458465576172" fill="none" stroke="rgb(0, 0, 0)" stroke-linecap="round" stroke-linejoin="round" stroke-opacity="1.0" stroke-width="3.0"/>
    <path d="M 119.10215759277344 92.96231842041016 C 101.20355224609375 105.90433502197266 120.27212524414062 100.61781311035156 107.66777038574219 98.88835144042969" fill="none" stroke="rgb(0, 0, 0)" stroke-linecap="round" stroke-linejoin="round" stroke-opacity="1.0" stroke-width="3.0"/>
    <path d="M 138.25059509277344 91.87998962402344 C 132.06341552734375 149.54403686523438 154.37034606933594 136.03265380859375 76.7674560546875 140.26568603515625" fill="none" stroke="rgb(0, 0, 0)" stroke-linecap="round" stroke-linejoin="round" stroke-opacity="1.0" stroke-width="3.0"/>
    <path d="M 107.07103729248047 103.51953887939453 C 72.09515380859375 104.97501373291016 79.53429412841797 109.25983428955078 109.42467498779297 100.90216064453125" fill="none" stroke="rgb(0, 0, 0)" stroke-linecap="round" stroke-linejoin="round" stroke-opacity="1.0" stroke-width="3.0"/>
  </g>
</svg>
