<?xml version="1.0" ?>
<svg height="224" version="1.1" width="224" xmlns="http://www.w3.org/2000/svg">
  <defs/>
  <g>
    <path d="M 127.15885925292969 103.33131408691406 C 134.12989807128906 88.71903991699219 110.0461196899414 83.566162109375 120.0882339477539 88.23883819580078" fill="none" stroke="rgb(0, 0, 0)" stroke-linecap="round" stroke-linejoin="round" stroke-opacity="1.0" stroke-width="3.0"/>
    <path d="M 101.43792724609375 108.09789276123047 C 132.59536743164062 153.520751953125 96.2181167602539 111.02281188964844 146.26266479492188 137.40489196777344" fill="none" stroke="rgb(0, 0, 0)" stroke-linecap="round" stroke-linejoin="round" stroke-opacity="1.0" stroke-width="3.0"/>
    <path d="M 106.86978149414062 114.54837799072266 C 146.63096618652344 119.43960571289062 133.08009338378906 82.05809020996094 120.61730194091797 82.57865905761719" fill="none" stroke="rgb(0, 0, 0)" stroke-linecap="round" stroke-linejoin="round" stroke-opacity="1.0" stroke-width="3.0"/>
    <path d="M 113.52387237548828 115.7591552734375 C 76.29615783691406 134.58094787597656 108.25591278076172 101.63623046875 100.34293365478516 135.15383911132812" fill="none" stroke="rgb(0, 0, 0)" stroke-linecap="round" stroke-linejoin="round" stroke-opacity="1.0" stroke-width="3.0"/>
    <path d="M 156.1532745361328 147.40805053710938 C 133.05239868164062 101.82689666748047 28.460615158081055 139.74830627441406 124.84680938720703 134.92822265625" fill="none" stroke="rgb(0, 0, 0)" stroke-linecap="round" stroke-linejoin="round" stroke-opacity="1.0" stroke-width="3.0"/>
    <path d="M 75.45283508300781 145.6558074951172 C 136.51629638671875 113.18016052246094 76.1641845703125 120.07830047607422 56.0070686340332 141.1409149169922" fill="none" stroke="rgb(0, 0, 0)" stroke-linecap="round" stroke-linejoin="round" stroke-opacity="1.0" stroke-width="3.0"/>
    <path d="M 118.22086334228516 82.09667205810547 C 91.94120788574219 94.94111633300781 62.65475845336914 95.04674530029297 92.40776824951172 112.72715759277344" fill="none" stroke="rgb(0, 0, 0)" stroke-linecap="round" stroke-linejoin="round" stroke-opacity="1.0" stroke-width="3.0"/>
    <path d="M 97.99454498291016 121.98770141601562 C 150.8155059814453 151.32017517089844 92.54232788085938 114.90829467773438 73.07884979248047 142.30105590820312" fill="none" stroke="rgb(0, 0, 0)" stroke-linecap="round" stroke-linejoin="round" stroke-opacity="1.0" stroke-width="3.0"/>
    <path d="M 127.42130279541016 104.12733459472656 C 109.00201416015625 127.00448608398438 93.89909362792969 87.63703155517578 122.03842163085938 88.54078674316406" fill="none" stroke="rgb(0, 0, 0)" stroke-linecap="round" stroke-linejoin="round" stroke-opacity="1.0" stroke-width="3.0"/>
    <path d="M 75.5583267211914 150.0042266845703 C 87.08566284179688 105.88497924804688 93.11165618896484 151.5961456298828 68.62458801269531 136.01673889160156" fill="none" stroke="rgb(0, 0, 0)" stroke-linecap="round" stroke-linejoin="round" stroke-opacity="1.0" stroke-width="3.0"/>
    <path d="M 66.37181854248047 132.7816162109375 C 102.42646026611328 119.39990997314453 125.24103546142578 124.67940521240234 65.39581298828125 134.01873779296875" fill="none" stroke="rgb(0, 0, 0)" stroke-linecap="round" stroke-linejoin="round" stroke-opacity="1.0" stroke-width="3.0"/>
    <path d="M 75.56178283691406 154.04420471191406 C 87.70140838623047 120.88082885742188 116.08952331542969 124.7486801147461 151.74169921875 141.76048278808594" fill="none" stroke="rgb(0, 0, 0)" stroke-linecap="round" stroke-linejoin="round" stroke-opacity="1.0" stroke-width="3.0"/>
    <path d="M 94.38591003417969 110.04486846923828 C 153.41090393066406 172.65182495117188 143.3530731201172 107.05682373046875 75.70081329345703 153.85098266601562" fill="none" stroke="rgb(0, 0, 0)" stroke-linecap="round" stroke-linejoin="round" stroke-opacity="1.0" stroke-width="3.0"/>
    <path d="M 74.20911407470703 150.7710723876953 C 93.16334533691406 128.86448669433594 158.78558349609375 127.7321548461914 61.1313591003418 136.0421142578125" fill="none" stroke="rgb(0, 0, 0)" stroke-linecap="round" stroke-linejoin="round" stroke-opacity="1.0" stroke-width="3.0"/>
    <path d="M 74.77000427246094 157.37744140625 C 75.20391082763672 135.74655151367188 58.83992004394531 137.37794494628906 52.722782135009766 144.84593200683594" fill="none" stroke="rgb(0, 0, 0)" stroke-linecap="round" stroke-linejoin="round" stroke-opacity="1.0" stroke-width="3.0"/>
    <path d="M 105.36076354980469 116.75013732910156 C 87.99275970458984 151.4117431640625 40.41179656982422 145.47964477539062 101.30894470214844 125.49708557128906" fill="none" stroke="rgb(0, 0, 0)" stroke-linecap="round" stroke-linejoin="round" stroke-opacity="1.0" stroke-width="3.0"/>
  </g>
</svg>
