<?xml version="1.0" ?>
<svg height="224" version="1.1" width="224" xmlns="http://www.w3.org/2000/svg">
  <defs/>
  <g>
    <path d="M 132.99346923828125 118.4007339477539 C 144.0630340576172 94.19071197509766 102.14214324951172 93.93123626708984 75.51342010498047 92.39335632324219" fill="none" stroke="rgb(0, 0, 0)" stroke-linecap="round" stroke-linejoin="round" stroke-opacity="1.0" stroke-width="3.0"/>
    <path d="M 99.898681640625 94.35602569580078 C 74.41069030761719 90.29146575927734 49.46908187866211 92.51119995117188 105.68199920654297 93.28234100341797" fill="none" stroke="rgb(0, 0, 0)" stroke-linecap="round" stroke-linejoin="round" stroke-opacity="1.0" stroke-width="3.0"/>
    <path d="M 75.29613494873047 94.29375457763672 C 200.8559112548828 107.55622863769531 135.92274475097656 91.85490417480469 47.942501068115234 90.24729919433594" fill="none" stroke="rgb(0, 0, 0)" stroke-linecap="round" stroke-linejoin="round" stroke-opacity="1.0" stroke-width="3.0"/>
    <path d="M 145.8848876953125 130.3459930419922 C 147.10968017578125 53.162357330322266 127.59690856933594 120.10835266113281 143.44557189941406 95.22943115234375" fill="none" stroke="rgb(0, 0, 0)" stroke-linecap="round" stroke-linejoin="round" stroke-opacity="1.0" stroke-width="3.0"/>
    <path d="M 124.80514526367188 128.64291381835938 C 162.7586212158203 133.33421325683594 123.78636169433594 73.06859588623047 131.79684448242188 123.83695220947266" fill="none" stroke="rgb(0, 0, 0)" stroke-linecap="round" stroke-linejoin="round" stroke-opacity="1.0" stroke-width="3.0"/>
    <path d="M 110.26383209228516 103.48577117919922 C 145.30943298339844 97.56564331054688 113.51627349853516 155.2580108642578 100.35282135009766 90.07994842529297" fill="none" stroke="rgb(0, 0, 0)" stroke-linecap="round" stroke-linejoin="round" stroke-opacity="1.0" stroke-width="3.0"/>
    <path d="M 147.31304931640625 90.24811553955078 C 145.6993865966797 151.25521850585938 161.61366271972656 123.92228698730469 72.59101867675781 125.2444076538086" fill="none" stroke="rgb(0, 0, 0)" stroke-linecap="round" stroke-linejoin="round" stroke-opacity="1.0" stroke-width="3.0"/>
    <path d="M 73.06787109375 123.41776275634766 C 75.17618560791016 80.82096862792969 62.81905746459961 92.53497314453125 100.63850402832031 88.88665008544922" fill="none" stroke="rgb(0, 0, 0)" stroke-linecap="round" stroke-linejoin="round" stroke-opacity="1.0" stroke-width="3.0"/>
    <path d="M 142.02365112304688 128.72467041015625 C 129.34519958496094 82.34223175048828 89.70587921142578 95.47166442871094 105.30741119384766 95.68174743652344" fill="none" stroke="rgb(0, 0, 0)" stroke-linecap="round" stroke-linejoin="round" stroke-opacity="1.0" stroke-width="3.0"/>
    <path d="M 144.1562957763672 129.72085571289062 C 141.9541473388672 63.04035949707031 145.8720245361328 131.34152221679688 103.59366607666016 128.3760223388672" fill="none" stroke="rgb(0, 0, 0)" stroke-linecap="round" stroke-linejoin="round" stroke-opacity="1.0" stroke-width="3.0"/>
    <path d="M 101.25846099853516 99.4706039428711 C 125.0735092163086 96.99008178710938 169.86593627929688 81.914306640625 127.66409301757812 100.5984115600586" fill="none" stroke="rgb(0, 0, 0)" stroke-linecap="round" stroke-linejoin="round" stroke-opacity="1.0" stroke-width="3.0"/>
    <path d="M 81.66771697998047 90.90652465820312 C 118.9741439819336 105.25513458251953 77.9613265991211 72.48575592041016 88.28568267822266 93.96752166748047" fill="none" stroke="rgb(0, 0, 0)" stroke-linecap="round" stroke-linejoin="round" stroke-opacity="1.0" stroke-width="3.0"/>
    <path d="M 109.10716247558594 107.68207550048828 C 125.54344177246094 142.8514862060547 82.55636596679688 108.54985046386719 113.97823333740234 97.90567779541016" fill="none" stroke="rgb(0, 0, 0)" stroke-linecap="round" stroke-linejoin="round" stroke-opacity="1.0" stroke-width="3.0"/>
    <path d="M 127.9139404296875 123.50983428955078 C 147.4009552001953 125.18273162841797 142.49900817871094 119.6080322265625 125.90593719482422 119.74056243896484" fill="none" stroke="rgb(0, 0, 0)" stroke-linecap="round" stroke-linejoin="round" stroke-opacity="1.0" stroke-width="3.0"/>
    <path d="M 49.031707763671875 91.54814147949219 C 48.55104446411133 128.51681518554688 49.7591667175293 158.4053497314453 49.525108337402344 91.66947174072266" fill="none" stroke="rgb(0, 0, 0)" stroke-linecap="round" stroke-linejoin="round" stroke-opacity="1.0" stroke-width="3.0"/>
    <path d="M 48.85460662841797 94.8218765258789 C 54.13948059082031 144.816650390625 25.687232971191406 129.22389221191406 117.99304962158203 128.60467529296875" fill="none" stroke="rgb(0, 0, 0)" stroke-linecap="round" stroke-linejoin="round" stroke-opacity="1.0" stroke-width="3.0"/>
  </g>
</svg>
