<?xml version="1.0" ?>
<svg height="224" version="1.1" width="224" xmlns="http://www.w3.org/2000/svg">
  <defs/>
  <g>
    <path d="M 108.22589874267578 89.9849624633789 C 84.59032440185547 82.51765441894531 114.01516723632812 82.83306884765625 97.76863861083984 107.48709106445312" fill="none" stroke="rgb(0, 0, 0)" stroke-linecap="round" stroke-linejoin="round" stroke-opacity="1.0" stroke-width="3.0"/>
    <path d="M 93.21271514892578 138.77398681640625 C 9.84155559539795 134.7557373046875 185.25469970703125 133.71636962890625 57.640113830566406 130.50482177734375" fill="none" stroke="rgb(0, 0, 0)" stroke-linecap="round" stroke-linejoin="round" stroke-opacity="1.0" stroke-width="3.0"/>
    <path d="M 92.25399780273438 86.68243408203125 C 92.47520446777344 190.8633575439453 100.79031372070312 110.93810272216797 93.13676452636719 90.47332000732422" fill="none" stroke="rgb(0, 0, 0)" stroke-linecap="round" stroke-linejoin="round" stroke-opacity="1.0" stroke-width="3.0"/>
    <path d="M 100.88764953613281 103.18082427978516 C 88.3058853149414 95.55095672607422 91.28190612792969 70.05233001708984 96.33409881591797 99.69120025634766" fill="none" stroke="rgb(0, 0, 0)" stroke-linecap="round" stroke-linejoin="round" stroke-opacity="1.0" stroke-width="3.0"/>
    <path d="M 113.65367889404297 80.49433135986328 C 163.62588500976562 87.19296264648438 140.73382568359375 81.26534271240234 151.1514892578125 115.31458282470703" fill="none" stroke="rgb(0, 0, 0)" stroke-linecap="round" stroke-linejoin="round" stroke-opacity="1.0" stroke-width="3.0"/>
    <path d="M 90.00916290283203 136.02952575683594 C 47.8093147277832 119.72090911865234 58.98265075683594 168.48550415039062 56.92250442504883 87.79682159423828" fill="none" stroke="rgb(0, 0, 0)" stroke-linecap="round" stroke-linejoin="round" stroke-opacity="1.0" stroke-width="3.0"/>
    <path d="M 57.488162994384766 85.92628479003906 C 120.58816528320312 75.82586669921875 78.30370330810547 110.5709228515625 109.51039123535156 93.70602416992188" fill="none" stroke="rgb(0, 0, 0)" stroke-linecap="round" stroke-linejoin="round" stroke-opacity="1.0" stroke-width="3.0"/>
    <path d="M 110.30048370361328 91.77918243408203 C 63.8922004699707 87.14747619628906 122.99732971191406 82.3302993774414 135.39756774902344 84.98797607421875" fill="none" stroke="rgb(0, 0, 0)" stroke-linecap="round" stroke-linejoin="round" stroke-opacity="1.0" stroke-width="3.0"/>
    <path d="M 138.4465789794922 81.75956726074219 C 95.62265014648438 75.80706024169922 112.08149719238281 106.84783935546875 111.29296875 80.83187103271484" fill="none" stroke="rgb(0, 0, 0)" stroke-linecap="round" stroke-linejoin="round" stroke-opacity="1.0" stroke-width="3.0"/>
    <path d="M 150.76913452148438 113.85147094726562 C 153.66644287109375 110.98545837402344 139.88014221191406 96.2566146850586 145.06875610351562 87.67491149902344" fill="none" stroke="rgb(0, 0, 0)" stroke-linecap="round" stroke-linejoin="round" stroke-opacity="1.0" stroke-width="3.0"/>
    <path d="M 114.13338470458984 138.51052856445312 C 180.76773071289062 146.50991821289062 141.05807495117188 57.84941101074219 100.53661346435547 106.46102905273438" fill="none" stroke="rgb(0, 0, 0)" stroke-linecap="round" stroke-linejoin="round" stroke-opacity="1.0" stroke-width="3.0"/>
    <path d="M 92.50328063964844 96.02104949951172 C 119.7999496459961 95.13380432128906 104.6677474975586 81.30894470214844 109.39582824707031 95.8493881225586" fill="none" stroke="rgb(0, 0, 0)" stroke-linecap="round" stroke-linejoin="round" stroke-opacity="1.0" stroke-width="3.0"/>
    <path d="M 96.8828125 127.05209350585938 C 124.77334594726562 150.55648803710938 66.8837890625 128.50619506835938 109.02452087402344 91.81783294677734" fill="none" stroke="rgb(0, 0, 0)" stroke-linecap="round" stroke-linejoin="round" stroke-opacity="1.0" stroke-width="3.0"/>
    <path d="M 111.53678131103516 135.112060546875 C 50.72639083862305 132.26979064941406 39.12261199951172 141.2432403564453 114.47169494628906 136.51734924316406" fill="none" stroke="rgb(0, 0, 0)" stroke-linecap="round" stroke-linejoin="round" stroke-opacity="1.0" stroke-width="3.0"/>
    <path d="M 104.34962463378906 131.0822296142578 C 81.53966522216797 122.4693832397461 89.31945037841797 159.4993438720703 87.98310852050781 85.8064193725586" fill="none" stroke="rgb(0, 0, 0)" stroke-linecap="round" stroke-linejoin="round" stroke-opacity="1.0" stroke-width="3.0"/>
    <path d="M 117.45779418945312 137.9755401611328 C 71.84403228759766 119.333251953125 133.33482360839844 71.87837982177734 93.18898010253906 92.1454086303711" fill="none" stroke="rgb(0, 0, 0)" stroke-linecap="round" stroke-linejoin="round" stroke-opacity="1.0" stroke-width="3.0"/>
  </g>
</svg>
