<?xml version="1.0" ?>
<svg height="224" version="1.1" width="224" xmlns="http://www.w3.org/2000/svg">
  <defs/>
  <g>
    <path d="M 85.39009857177734 166.35397338867188 C 119.36701965332031 167.63531494140625 136.96592712402344 174.34425354003906 130.9571990966797 137.86192321777344" fill="none" stroke="rgb(0, 0, 0)" stroke-linecap="round" stroke-linejoin="round" stroke-opacity="1.0" stroke-width="3.0"/>
    <path d="M 90.9406509399414 92.3018798828125 C 81.07672119140625 87.69052124023438 111.98980712890625 80.41087341308594 86.72251892089844 87.42422485351562" fill="none" stroke="rgb(0, 0, 0)" stroke-linecap="round" stroke-linejoin="round" stroke-opacity="1.0" stroke-width="3.0"/>
    <path d="M 133.87705993652344 107.35890197753906 C 131.18959045410156 86.55889892578125 131.08055114746094 88.5176773071289 132.29588317871094 104.30095672607422" fill="none" stroke="rgb(0, 0, 0)" stroke-linecap="round" stroke-linejoin="round" stroke-opacity="1.0" stroke-width="3.0"/>
    <path d="M 126.8424301147461 83.96100616455078 C 124.02192687988281 198.7259521484375 120.6930160522461 162.4458770751953 140.0109405517578 144.47328186035156" fill="none" stroke="rgb(0, 0, 0)" stroke-linecap="round" stroke-linejoin="round" stroke-opacity="1.0" stroke-width="3.0"/>
    <path d="M 142.16683959960938 135.19361877441406 C 140.76348876953125 155.9651641845703 141.50331115722656 90.66726684570312 137.24560546875 116.1748275756836" fill="none" stroke="rgb(0, 0, 0)" stroke-linecap="round" stroke-linejoin="round" stroke-opacity="1.0" stroke-width="3.0"/>
    <path d="M 92.0169677734375 90.7144546508789 C 91.26625061035156 84.36386108398438 87.92180633544922 136.8845672607422 91.21810150146484 87.24925231933594" fill="none" stroke="rgb(0, 0, 0)" stroke-linecap="round" stroke-linejoin="round" stroke-opacity="1.0" stroke-width="3.0"/>
    <path d="M 88.11006164550781 162.95709228515625 C 86.87059020996094 160.38726806640625 88.7426528930664 153.72816467285156 87.30946350097656 136.44985961914062" fill="none" stroke="rgb(0, 0, 0)" stroke-linecap="round" stroke-linejoin="round" stroke-opacity="1.0" stroke-width="3.0"/>
    <path d="M 92.8475570678711 86.78611755371094 C 87.04417419433594 180.5701446533203 81.62944030761719 209.6355438232422 87.2176742553711 86.771240234375" fill="none" stroke="rgb(0, 0, 0)" stroke-linecap="round" stroke-linejoin="round" stroke-opacity="1.0" stroke-width="3.0"/>
    <path d="M 88.93916320800781 84.51119232177734 C 149.0797882080078 81.26539611816406 126.7458267211914 64.44886779785156 129.12596130371094 160.85020446777344" fill="none" stroke="rgb(0, 0, 0)" stroke-linecap="round" stroke-linejoin="round" stroke-opacity="1.0" stroke-width="3.0"/>
    <path d="M 89.09976196289062 86.38496398925781 C 87.53831481933594 216.51515197753906 82.56443786621094 168.91671752929688 86.71669006347656 85.96813201904297" fill="none" stroke="rgb(0, 0, 0)" stroke-linecap="round" stroke-linejoin="round" stroke-opacity="1.0" stroke-width="3.0"/>
    <path d="M 132.160888671875 91.36424255371094 C 138.1383514404297 109.09849548339844 150.83067321777344 102.63983917236328 127.43960571289062 88.81807708740234" fill="none" stroke="rgb(0, 0, 0)" stroke-linecap="round" stroke-linejoin="round" stroke-opacity="1.0" stroke-width="3.0"/>
    <path d="M 87.73827362060547 162.4928741455078 C 86.84549713134766 93.55801391601562 90.41947937011719 140.9895477294922 87.27713775634766 166.22462463378906" fill="none" stroke="rgb(0, 0, 0)" stroke-linecap="round" stroke-linejoin="round" stroke-opacity="1.0" stroke-width="3.0"/>
    <path d="M 141.9612274169922 144.92953491210938 C 144.7819366455078 81.3860855102539 139.9647216796875 108.29427337646484 136.24737548828125 99.34364318847656" fill="none" stroke="rgb(0, 0, 0)" stroke-linecap="round" stroke-linejoin="round" stroke-opacity="1.0" stroke-width="3.0"/>
    <path d="M 137.94436645507812 120.63671875 C 142.0544891357422 167.9705810546875 130.75088500976562 143.57046508789062 134.76109313964844 102.83143615722656" fill="none" stroke="rgb(0, 0, 0)" stroke-linecap="round" stroke-linejoin="round" stroke-opacity="1.0" stroke-width="3.0"/>
    <path d="M 93.38993072509766 85.59559631347656 C 89.75332641601562 181.0890350341797 84.90921783447266 204.6626434326172 86.27771759033203 102.32785034179688" fill="none" stroke="rgb(0, 0, 0)" stroke-linecap="round" stroke-linejoin="round" stroke-opacity="1.0" stroke-width="3.0"/>
    <path d="M 88.21253204345703 163.8042449951172 C 84.5156478881836 160.0743408203125 89.0181884765625 168.7650604248047 87.71185302734375 165.47190856933594" fill="none" stroke="rgb(0, 0, 0)" stroke-linecap="round" stroke-linejoin="round" stroke-opacity="1.0" stroke-width="3.0"/>
  </g>
</svg>
