<?xml version="1.0" ?>
<svg height="224" version="1.1" width="224" xmlns="http://www.w3.org/2000/svg">
  <defs/>
  <g>
    <path d="M 117.50773620605469 117.23845672607422 C 50.76424026489258 109.52864837646484 106.39701080322266 114.19718933105469 74.92149353027344 99.48236083984375" fill="none" stroke="rgb(0, 0, 0)" stroke-linecap="round" stroke-linejoin="round" stroke-opacity="1.0" stroke-width="3.0"/>
    <path d="M 91.46206665039062 79.22225952148438 C 91.38581085205078 121.16789245605469 105.67867279052734 126.2044677734375 96.8416976928711 72.55139923095703" fill="none" stroke="rgb(0, 0, 0)" stroke-linecap="round" stroke-linejoin="round" stroke-opacity="1.0" stroke-width="3.0"/>
    <path d="M 101.90412139892578 111.78335571289062 C 81.9642105102539 94.5940933227539 119.55522918701172 116.19729614257812 84.13069915771484 107.55399322509766" fill="none" stroke="rgb(0, 0, 0)" stroke-linecap="round" stroke-linejoin="round" stroke-opacity="1.0" stroke-width="3.0"/>
    <path d="M 64.95392608642578 131.1116943359375 C 75.84154510498047 91.59188079833984 101.3634262084961 138.69259643554688 98.80113220214844 75.5260009765625" fill="none" stroke="rgb(0, 0, 0)" stroke-linecap="round" stroke-linejoin="round" stroke-opacity="1.0" stroke-width="3.0"/>
    <path d="M 80.39818572998047 74.30357360839844 C 70.2439193725586 116.31928253173828 96.88336944580078 90.9127197265625 84.24394989013672 109.77056884765625" fill="none" stroke="rgb(0, 0, 0)" stroke-linecap="round" stroke-linejoin="round" stroke-opacity="1.0" stroke-width="3.0"/>
    <path d="M 93.43608856201172 68.87352752685547 C 132.3889923095703 67.55328369140625 120.08779907226562 60.56369400024414 125.39910125732422 93.5863037109375" fill="none" stroke="rgb(0, 0, 0)" stroke-linecap="round" stroke-linejoin="round" stroke-opacity="1.0" stroke-width="3.0"/>
    <path d="M 118.94918823242188 94.36015319824219 C 115.35370635986328 134.7777862548828 151.19346618652344 128.87185668945312 66.36202239990234 131.5790252685547" fill="none" stroke="rgb(0, 0, 0)" stroke-linecap="round" stroke-linejoin="round" stroke-opacity="1.0" stroke-width="3.0"/>
    <path d="M 94.03157043457031 75.60248565673828 C 104.38232421875 59.4185905456543 66.34656524658203 67.93142700195312 86.60957336425781 111.81918334960938" fill="none" stroke="rgb(0, 0, 0)" stroke-linecap="round" stroke-linejoin="round" stroke-opacity="1.0" stroke-width="3.0"/>
    <path d="M 95.1611099243164 109.5809097290039 C 85.9720230102539 71.8662338256836 111.21529388427734 44.895896911621094 102.80436706542969 111.94011688232422" fill="none" stroke="rgb(0, 0, 0)" stroke-linecap="round" stroke-linejoin="round" stroke-opacity="1.0" stroke-width="3.0"/>
    <path d="M 122.82462310791016 70.31615447998047 C 138.41134643554688 131.33338928222656 78.91703796386719 107.97865295410156 98.3211898803711 105.75934600830078" fill="none" stroke="rgb(0, 0, 0)" stroke-linecap="round" stroke-linejoin="round" stroke-opacity="1.0" stroke-width="3.0"/>
    <path d="M 74.2322998046875 101.42141723632812 C 62.87602233886719 65.48884582519531 89.38399505615234 49.13451385498047 85.30333709716797 108.60066223144531" fill="none" stroke="rgb(0, 0, 0)" stroke-linecap="round" stroke-linejoin="round" stroke-opacity="1.0" stroke-width="3.0"/>
    <path d="M 96.86741638183594 73.47704315185547 C 75.08091735839844 64.9494857788086 82.41109466552734 66.32283782958984 98.20038604736328 92.64688873291016" fill="none" stroke="rgb(0, 0, 0)" stroke-linecap="round" stroke-linejoin="round" stroke-opacity="1.0" stroke-width="3.0"/>
    <path d="M 90.68159484863281 111.40656280517578 C 90.18096923828125 63.010467529296875 92.49327087402344 58.58320236206055 81.38288879394531 109.06167602539062" fill="none" stroke="rgb(0, 0, 0)" stroke-linecap="round" stroke-linejoin="round" stroke-opacity="1.0" stroke-width="3.0"/>
    <path d="M 93.21749114990234 78.44377136230469 C 100.84465789794922 134.50148010253906 75.30390167236328 94.00784301757812 96.93096923828125 75.05927276611328" fill="none" stroke="rgb(0, 0, 0)" stroke-linecap="round" stroke-linejoin="round" stroke-opacity="1.0" stroke-width="3.0"/>
    <path d="M 92.78350830078125 72.29556274414062 C 83.53416442871094 70.36656188964844 75.71924591064453 109.13725280761719 92.47500610351562 109.7593994140625" fill="none" stroke="rgb(0, 0, 0)" stroke-linecap="round" stroke-linejoin="round" stroke-opacity="1.0" stroke-width="3.0"/>
    <path d="M 88.23223876953125 104.85417175292969 C 109.29171752929688 77.38578033447266 84.55342864990234 58.94538116455078 83.34100341796875 97.4609375" fill="none" stroke="rgb(0, 0, 0)" stroke-linecap="round" stroke-linejoin="round" stroke-opacity="1.0" stroke-width="3.0"/>
  </g>
</svg>
