<?xml version="1.0" ?>
<svg height="224" version="1.1" width="224" xmlns="http://www.w3.org/2000/svg">
  <defs/>
  <g>
    <path d="M 122.54586029052734 117.9239730834961 C 100.40911865234375 109.91757202148438 107.3782730102539 120.13370513916016 106.21127319335938 93.3442153930664" fill="none" stroke="rgb(0, 0, 0)" stroke-linecap="round" stroke-linejoin="round" stroke-opacity="1.0" stroke-width="3.0"/>
    <path d="M 98.22122955322266 107.148681640625 C 123.05848693847656 119.0431137084961 104.27952575683594 118.03511047363281 85.74727630615234 116.5602035522461" fill="none" stroke="rgb(0, 0, 0)" stroke-linecap="round" stroke-linejoin="round" stroke-opacity="1.0" stroke-width="3.0"/>
    <path d="M 108.67054748535156 106.16535186767578 C 116.09085845947266 126.58267974853516 71.18830871582031 90.93458557128906 100.61389923095703 120.21553039550781" fill="none" stroke="rgb(0, 0, 0)" stroke-linecap="round" stroke-linejoin="round" stroke-opacity="1.0" stroke-width="3.0"/>
    <path d="M 141.78102111816406 122.50089263916016 C 67.64998626708984 90.61398315429688 131.55458068847656 103.46172332763672 101.77428436279297 117.89234924316406" fill="none" stroke="rgb(0, 0, 0)" stroke-linecap="round" stroke-linejoin="round" stroke-opacity="1.0" stroke-width="3.0"/>
    <path d="M 110.36090087890625 104.56932067871094 C 114.21776580810547 99.99756622314453 96.91886901855469 127.89321899414062 144.5207061767578 120.7470932006836" fill="none" stroke="rgb(0, 0, 0)" stroke-linecap="round" stroke-linejoin="round" stroke-opacity="1.0" stroke-width="3.0"/>
    <path d="M 99.24281311035156 98.8182373046875 C 142.0884246826172 98.47676086425781 74.21766662597656 107.27571105957031 108.72492218017578 97.76861572265625" fill="none" stroke="rgb(0, 0, 0)" stroke-linecap="round" stroke-linejoin="round" stroke-opacity="1.0" stroke-width="3.0"/>
    <path d="M 111.38168334960938 108.64751434326172 C 116.11579895019531 82.60836791992188 79.59903717041016 95.48895263671875 108.63362884521484 113.4207763671875" fill="none" stroke="rgb(0, 0, 0)" stroke-linecap="round" stroke-linejoin="round" stroke-opacity="1.0" stroke-width="3.0"/>
    <path d="M 112.0738754272461 105.21009063720703 C 96.81329345703125 120.635986328125 114.8024673461914 123.04936981201172 108.0007095336914 108.7445068359375" fill="none" stroke="rgb(0, 0, 0)" stroke-linecap="round" stroke-linejoin="round" stroke-opacity="1.0" stroke-width="3.0"/>
    <path d="M 105.36788177490234 111.82279205322266 C 140.93328857421875 83.7056655883789 54.604862213134766 84.38201904296875 104.0101089477539 111.69696044921875" fill="none" stroke="rgb(0, 0, 0)" stroke-linecap="round" stroke-linejoin="round" stroke-opacity="1.0" stroke-width="3.0"/>
    <path d="M 86.75493621826172 113.51496124267578 C 113.31442260742188 117.88814544677734 99.59613037109375 90.65751647949219 102.96463012695312 96.656005859375" fill="none" stroke="rgb(0, 0, 0)" stroke-linecap="round" stroke-linejoin="round" stroke-opacity="1.0" stroke-width="3.0"/>
    <path d="M 129.0673370361328 118.54267120361328 C 69.49971771240234 112.22702026367188 78.68433380126953 102.4522705078125 129.05686950683594 123.02926635742188" fill="none" stroke="rgb(0, 0, 0)" stroke-linecap="round" stroke-linejoin="round" stroke-opacity="1.0" stroke-width="3.0"/>
    <path d="M 117.50038146972656 117.81282806396484 C 78.568603515625 125.7683334350586 102.45072937011719 84.22850799560547 84.44061279296875 117.54476928710938" fill="none" stroke="rgb(0, 0, 0)" stroke-linecap="round" stroke-linejoin="round" stroke-opacity="1.0" stroke-width="3.0"/>
    <path d="M 87.36529541015625 119.8699951171875 C 144.91641235351562 121.38436889648438 102.6608657836914 122.3460464477539 81.45397186279297 122.37567138671875" fill="none" stroke="rgb(0, 0, 0)" stroke-linecap="round" stroke-linejoin="round" stroke-opacity="1.0" stroke-width="3.0"/>
    <path d="M 109.75631713867188 93.48590087890625 C 107.41254425048828 119.50664520263672 137.9094696044922 117.97816467285156 106.6312484741211 116.81796264648438" fill="none" stroke="rgb(0, 0, 0)" stroke-linecap="round" stroke-linejoin="round" stroke-opacity="1.0" stroke-width="3.0"/>
    <path d="M 82.90982055664062 119.61617279052734 C 109.13508605957031 115.894775390625 101.9852294921875 129.40472412109375 112.322021484375 98.59928894042969" fill="none" stroke="rgb(0, 0, 0)" stroke-linecap="round" stroke-linejoin="round" stroke-opacity="1.0" stroke-width="3.0"/>
    <path d="M 90.1784439086914 117.91189575195312 C 115.76335906982422 122.66344451904297 71.07351684570312 100.36740112304688 132.41481018066406 117.76534271240234" fill="none" stroke="rgb(0, 0, 0)" stroke-linecap="round" stroke-linejoin="round" stroke-opacity="1.0" stroke-width="3.0"/>
  </g>
</svg>
