<?xml version="1.0" ?>
<svg height="224" version="1.1" width="224" xmlns="http://www.w3.org/2000/svg">
  <defs/>
  <g>
    <path d="M 84.18274688720703 79.39662170410156 C 79.1575927734375 233.53025817871094 79.25347137451172 47.39046096801758 86.54873657226562 50.65916442871094" fill="none" stroke="rgb(0, 0, 0)" stroke-linecap="round" stroke-linejoin="round" stroke-opacity="1.0" stroke-width="3.0"/>
    <path d="M 104.4017562866211 90.39632415771484 C 105.11788177490234 157.48472595214844 106.48089599609375 127.23983764648438 103.9158706665039 57.71102523803711" fill="none" stroke="rgb(0, 0, 0)" stroke-linecap="round" stroke-linejoin="round" stroke-opacity="1.0" stroke-width="3.0"/>
    <path d="M 144.5470428466797 129.35299682617188 C 145.17974853515625 76.58724212646484 146.68887329101562 75.95204162597656 144.13418579101562 140.90142822265625" fill="none" stroke="rgb(0, 0, 0)" stroke-linecap="round" stroke-linejoin="round" stroke-opacity="1.0" stroke-width="3.0"/>
    <path d="M 112.2232666015625 79.15200805664062 C 111.77067565917969 74.22258758544922 111.38275146484375 82.93229675292969 110.79576110839844 79.58033752441406" fill="none" stroke="rgb(0, 0, 0)" stroke-linecap="round" stroke-linejoin="round" stroke-opacity="1.0" stroke-width="3.0"/>
    <path d="M 145.72447204589844 66.47798919677734 C 146.5017547607422 125.38186645507812 143.46803283691406 153.2084503173828 145.5066375732422 81.9228744506836" fill="none" stroke="rgb(0, 0, 0)" stroke-linecap="round" stroke-linejoin="round" stroke-opacity="1.0" stroke-width="3.0"/>
    <path d="M 89.6474609375 50.79171371459961 C 157.95458984375 60.96705627441406 142.58944702148438 62.20857620239258 145.93994140625 69.31224060058594" fill="none" stroke="rgb(0, 0, 0)" stroke-linecap="round" stroke-linejoin="round" stroke-opacity="1.0" stroke-width="3.0"/>
    <path d="M 81.85974884033203 113.42977905273438 C 84.40364837646484 7.32551908493042 85.37129974365234 64.45895385742188 81.88038635253906 150.8857421875" fill="none" stroke="rgb(0, 0, 0)" stroke-linecap="round" stroke-linejoin="round" stroke-opacity="1.0" stroke-width="3.0"/>
    <path d="M 76.66262817382812 139.4930419921875 C 77.49664306640625 28.673912048339844 74.91230010986328 88.12742614746094 83.02444458007812 73.46456909179688" fill="none" stroke="rgb(0, 0, 0)" stroke-linecap="round" stroke-linejoin="round" stroke-opacity="1.0" stroke-width="3.0"/>
    <path d="M 105.12312316894531 143.55169677734375 C 139.57394409179688 148.6697235107422 122.7137680053711 145.6719512939453 141.39926147460938 142.69363403320312" fill="none" stroke="rgb(0, 0, 0)" stroke-linecap="round" stroke-linejoin="round" stroke-opacity="1.0" stroke-width="3.0"/>
    <path d="M 83.58126831054688 153.1166229248047 C 148.19520568847656 164.0979766845703 148.07843017578125 80.52974700927734 124.28591918945312 79.8561782836914" fill="none" stroke="rgb(0, 0, 0)" stroke-linecap="round" stroke-linejoin="round" stroke-opacity="1.0" stroke-width="3.0"/>
    <path d="M 145.54466247558594 109.1938705444336 C 146.19468688964844 76.96251678466797 146.61534118652344 49.05876541137695 144.98423767089844 109.45772552490234" fill="none" stroke="rgb(0, 0, 0)" stroke-linecap="round" stroke-linejoin="round" stroke-opacity="1.0" stroke-width="3.0"/>
    <path d="M 145.11131286621094 104.09119415283203 C 145.88650512695312 62.840702056884766 145.50262451171875 100.32393646240234 145.24954223632812 99.57826232910156" fill="none" stroke="rgb(0, 0, 0)" stroke-linecap="round" stroke-linejoin="round" stroke-opacity="1.0" stroke-width="3.0"/>
    <path d="M 104.93455505371094 87.22940063476562 C 104.10848236083984 141.37742614746094 105.13703918457031 207.90907287597656 104.77388000488281 91.04549407958984" fill="none" stroke="rgb(0, 0, 0)" stroke-linecap="round" stroke-linejoin="round" stroke-opacity="1.0" stroke-width="3.0"/>
    <path d="M 124.17359161376953 144.52047729492188 C 81.21603393554688 147.88356018066406 127.73064422607422 154.47219848632812 105.2734146118164 141.4658203125" fill="none" stroke="rgb(0, 0, 0)" stroke-linecap="round" stroke-linejoin="round" stroke-opacity="1.0" stroke-width="3.0"/>
    <path d="M 82.5670166015625 78.68750762939453 C 63.59486770629883 54.62154006958008 99.21305847167969 59.84381103515625 78.6513671875 65.01781463623047" fill="none" stroke="rgb(0, 0, 0)" stroke-linecap="round" stroke-linejoin="round" stroke-opacity="1.0" stroke-width="3.0"/>
    <path d="M 146.0727081298828 87.91473388671875 C 143.49365234375 148.4501190185547 144.19810485839844 142.72903442382812 144.9752960205078 103.11760711669922" fill="none" stroke="rgb(0, 0, 0)" stroke-linecap="round" stroke-linejoin="round" stroke-opacity="1.0" stroke-width="3.0"/>
  </g>
</svg>
