<?xml version="1.0" ?>
<svg height="224" version="1.1" width="224" xmlns="http://www.w3.org/2000/svg">
  <defs/>
  <g>
    <path d="M 95.11812591552734 116.67521667480469 C 85.35948944091797 156.00900268554688 120.46443176269531 158.74932861328125 120.90560913085938 156.00917053222656" fill="none" stroke="rgb(0, 0, 0)" stroke-linecap="round" stroke-linejoin="round" stroke-opacity="1.0" stroke-width="3.0"/>
    <path d="M 112.96930694580078 150.25509643554688 C 92.98006439208984 146.72801208496094 76.2806167602539 85.31178283691406 142.98428344726562 104.93760681152344" fill="none" stroke="rgb(0, 0, 0)" stroke-linecap="round" stroke-linejoin="round" stroke-opacity="1.0" stroke-width="3.0"/>
    <path d="M 86.30125427246094 101.04015350341797 C 72.42276000976562 89.38572692871094 78.8131332397461 164.72216796875 75.72586822509766 157.80419921875" fill="none" stroke="rgb(0, 0, 0)" stroke-linecap="round" stroke-linejoin="round" stroke-opacity="1.0" stroke-width="3.0"/>
    <path d="M 109.31367492675781 156.64297485351562 C 58.12419128417969 150.07888793945312 85.19945526123047 159.82078552246094 77.65239715576172 155.04910278320312" fill="none" stroke="rgb(0, 0, 0)" stroke-linecap="round" stroke-linejoin="round" stroke-opacity="1.0" stroke-width="3.0"/>
    <path d="M 85.89427185058594 99.89815521240234 C 83.25657653808594 113.16917419433594 43.13335037231445 98.19637298583984 93.43428802490234 100.09184265136719" fill="none" stroke="rgb(0, 0, 0)" stroke-linecap="round" stroke-linejoin="round" stroke-opacity="1.0" stroke-width="3.0"/>
    <path d="M 65.59607696533203 108.41292572021484 C 76.95597839355469 98.03536224365234 55.522789001464844 95.92573547363281 94.99662017822266 100.4522933959961" fill="none" stroke="rgb(0, 0, 0)" stroke-linecap="round" stroke-linejoin="round" stroke-opacity="1.0" stroke-width="3.0"/>
    <path d="M 141.28038024902344 82.4461669921875 C 92.84911346435547 81.72093200683594 114.73030853271484 81.87350463867188 108.09648132324219 92.33209991455078" fill="none" stroke="rgb(0, 0, 0)" stroke-linecap="round" stroke-linejoin="round" stroke-opacity="1.0" stroke-width="3.0"/>
    <path d="M 108.79524993896484 155.18809509277344 C 146.87803649902344 153.22166442871094 117.3161849975586 154.55970764160156 103.40641784667969 145.3434295654297" fill="none" stroke="rgb(0, 0, 0)" stroke-linecap="round" stroke-linejoin="round" stroke-opacity="1.0" stroke-width="3.0"/>
    <path d="M 125.68036651611328 154.08309936523438 C 116.33607482910156 154.2354278564453 127.62339782714844 155.4492645263672 93.18486022949219 155.83554077148438" fill="none" stroke="rgb(0, 0, 0)" stroke-linecap="round" stroke-linejoin="round" stroke-opacity="1.0" stroke-width="3.0"/>
    <path d="M 150.05540466308594 124.69493103027344 C 152.0530548095703 100.52690887451172 104.29468536376953 81.49988555908203 150.1683807373047 89.77764892578125" fill="none" stroke="rgb(0, 0, 0)" stroke-linecap="round" stroke-linejoin="round" stroke-opacity="1.0" stroke-width="3.0"/>
    <path d="M 103.54064178466797 92.60277557373047 C 167.4106903076172 87.75596618652344 149.2052459716797 95.44729614257812 161.19227600097656 125.0889892578125" fill="none" stroke="rgb(0, 0, 0)" stroke-linecap="round" stroke-linejoin="round" stroke-opacity="1.0" stroke-width="3.0"/>
    <path d="M 113.96925354003906 150.58303833007812 C 111.8194808959961 146.9902801513672 148.32321166992188 164.73004150390625 150.9900665283203 124.35968017578125" fill="none" stroke="rgb(0, 0, 0)" stroke-linecap="round" stroke-linejoin="round" stroke-opacity="1.0" stroke-width="3.0"/>
    <path d="M 73.2047119140625 158.8038330078125 C 60.08221435546875 153.60243225097656 66.04408264160156 166.5705108642578 64.61739349365234 109.1253433227539" fill="none" stroke="rgb(0, 0, 0)" stroke-linecap="round" stroke-linejoin="round" stroke-opacity="1.0" stroke-width="3.0"/>
    <path d="M 119.44860076904297 155.96279907226562 C 178.6726531982422 156.8657684326172 151.14356994628906 141.70651245117188 160.82546997070312 129.89501953125" fill="none" stroke="rgb(0, 0, 0)" stroke-linecap="round" stroke-linejoin="round" stroke-opacity="1.0" stroke-width="3.0"/>
    <path d="M 105.61299133300781 95.04502868652344 C 30.026567459106445 113.86534881591797 95.65599822998047 96.55168914794922 80.87763214111328 110.34751892089844" fill="none" stroke="rgb(0, 0, 0)" stroke-linecap="round" stroke-linejoin="round" stroke-opacity="1.0" stroke-width="3.0"/>
    <path d="M 145.99972534179688 88.1342544555664 C 167.3721160888672 90.66060638427734 96.38078308105469 69.20814514160156 105.42928314208984 92.30006408691406" fill="none" stroke="rgb(0, 0, 0)" stroke-linecap="round" stroke-linejoin="round" stroke-opacity="1.0" stroke-width="3.0"/>
  </g>
</svg>
