<?xml version="1.0" ?>
<svg height="224" version="1.1" width="224" xmlns="http://www.w3.org/2000/svg">
  <defs/>
  <g>
    <path d="M 117.5566177368164 103.32841491699219 C 144.53233337402344 113.03030395507812 85.18498229980469 113.1645736694336 123.48426055908203 106.7138442993164" fill="none" stroke="rgb(0, 0, 0)" stroke-linecap="round" stroke-linejoin="round" stroke-opacity="1.0" stroke-width="3.0"/>
    <path d="M 100.46715545654297 90.40477752685547 C 99.75228881835938 114.70478820800781 112.82423400878906 122.59819030761719 96.7009048461914 102.0824203491211" fill="none" stroke="rgb(0, 0, 0)" stroke-linecap="round" stroke-linejoin="round" stroke-opacity="1.0" stroke-width="3.0"/>
    <path d="M 117.36581420898438 91.07787322998047 C 80.72257232666016 86.81729888916016 105.73004913330078 93.23464965820312 99.53146362304688 88.01667022705078" fill="none" stroke="rgb(0, 0, 0)" stroke-linecap="round" stroke-linejoin="round" stroke-opacity="1.0" stroke-width="3.0"/>
    <path d="M 106.05675506591797 126.57569885253906 C 120.55384063720703 112.97685241699219 133.5541534423828 175.1513214111328 129.38040161132812 129.4224090576172" fill="none" stroke="rgb(0, 0, 0)" stroke-linecap="round" stroke-linejoin="round" stroke-opacity="1.0" stroke-width="3.0"/>
    <path d="M 93.87124633789062 95.6705551147461 C 84.18726348876953 108.70631408691406 129.63706970214844 105.4483642578125 115.2339096069336 90.7955322265625" fill="none" stroke="rgb(0, 0, 0)" stroke-linecap="round" stroke-linejoin="round" stroke-opacity="1.0" stroke-width="3.0"/>
    <path d="M 101.69847106933594 108.57051849365234 C 149.50515747070312 109.43460083007812 89.6349868774414 106.04458618164062 108.70116424560547 91.2186050415039" fill="none" stroke="rgb(0, 0, 0)" stroke-linecap="round" stroke-linejoin="round" stroke-opacity="1.0" stroke-width="3.0"/>
    <path d="M 105.3745346069336 102.90253448486328 C 105.48468780517578 85.99529266357422 94.19734954833984 80.52288055419922 100.44715118408203 84.02223205566406" fill="none" stroke="rgb(0, 0, 0)" stroke-linecap="round" stroke-linejoin="round" stroke-opacity="1.0" stroke-width="3.0"/>
    <path d="M 116.35713195800781 108.52478790283203 C 105.9323959350586 131.58602905273438 142.36520385742188 127.33810424804688 123.98014831542969 138.5807647705078" fill="none" stroke="rgb(0, 0, 0)" stroke-linecap="round" stroke-linejoin="round" stroke-opacity="1.0" stroke-width="3.0"/>
    <path d="M 96.44105529785156 108.0116958618164 C 104.35918426513672 86.13851928710938 92.72526550292969 88.39171600341797 121.07039642333984 86.18885803222656" fill="none" stroke="rgb(0, 0, 0)" stroke-linecap="round" stroke-linejoin="round" stroke-opacity="1.0" stroke-width="3.0"/>
    <path d="M 117.73614501953125 85.44641876220703 C 126.16446685791016 75.7800521850586 120.65151977539062 121.99118041992188 118.42575073242188 104.90547180175781" fill="none" stroke="rgb(0, 0, 0)" stroke-linecap="round" stroke-linejoin="round" stroke-opacity="1.0" stroke-width="3.0"/>
    <path d="M 92.4356918334961 100.20121002197266 C 97.7249984741211 117.72257995605469 86.56622314453125 107.01597595214844 117.1203842163086 107.15353393554688" fill="none" stroke="rgb(0, 0, 0)" stroke-linecap="round" stroke-linejoin="round" stroke-opacity="1.0" stroke-width="3.0"/>
    <path d="M 97.79241943359375 89.80817413330078 C 98.3362045288086 131.51512145996094 103.34645080566406 94.5989990234375 107.51224517822266 121.71795654296875" fill="none" stroke="rgb(0, 0, 0)" stroke-linecap="round" stroke-linejoin="round" stroke-opacity="1.0" stroke-width="3.0"/>
    <path d="M 101.11099243164062 85.77306365966797 C 86.704833984375 101.35690307617188 92.84263610839844 105.76640319824219 98.39825439453125 90.94070434570312" fill="none" stroke="rgb(0, 0, 0)" stroke-linecap="round" stroke-linejoin="round" stroke-opacity="1.0" stroke-width="3.0"/>
    <path d="M 115.10601806640625 82.97195434570312 C 97.27496337890625 85.92496490478516 97.05679321289062 73.64311218261719 95.62477111816406 109.09043884277344" fill="none" stroke="rgb(0, 0, 0)" stroke-linecap="round" stroke-linejoin="round" stroke-opacity="1.0" stroke-width="3.0"/>
    <path d="M 99.48149871826172 82.24795532226562 C 129.00025939941406 78.93207550048828 127.6885986328125 75.74256134033203 126.89453125 107.24168395996094" fill="none" stroke="rgb(0, 0, 0)" stroke-linecap="round" stroke-linejoin="round" stroke-opacity="1.0" stroke-width="3.0"/>
    <path d="M 107.51545715332031 109.92427062988281 C 95.7967300415039 104.1458740234375 79.11830139160156 117.040771484375 120.08819580078125 110.27401733398438" fill="none" stroke="rgb(0, 0, 0)" stroke-linecap="round" stroke-linejoin="round" stroke-opacity="1.0" stroke-width="3.0"/>
  </g>
</svg>
