<?xml version="1.0" ?>
<svg height="224" version="1.1" width="224" xmlns="http://www.w3.org/2000/svg">
  <defs/>
  <g>
    <path d="M 128.10252380371094 126.7486343383789 C 122.82826232910156 160.46038818359375 147.31028747558594 137.53878784179688 106.5551986694336 125.91059112548828" fill="none" stroke="rgb(0, 0, 0)" stroke-linecap="round" stroke-linejoin="round" stroke-opacity="1.0" stroke-width="3.0"/>
    <path d="M 100.30838775634766 115.18596649169922 C 94.16789245605469 87.57068634033203 93.5770263671875 78.64717102050781 95.5938720703125 110.62881469726562" fill="none" stroke="rgb(0, 0, 0)" stroke-linecap="round" stroke-linejoin="round" stroke-opacity="1.0" stroke-width="3.0"/>
    <path d="M 110.80797576904297 105.71490478515625 C 138.43386840820312 106.55853271484375 102.3873291015625 112.94877624511719 109.36245727539062 108.42925262451172" fill="none" stroke="rgb(0, 0, 0)" stroke-linecap="round" stroke-linejoin="round" stroke-opacity="1.0" stroke-width="3.0"/>
    <path d="M 123.14199829101562 93.18096160888672 C 97.76420593261719 105.78300476074219 123.28471374511719 129.63320922851562 116.82586669921875 90.6906509399414" fill="none" stroke="rgb(0, 0, 0)" stroke-linecap="round" stroke-linejoin="round" stroke-opacity="1.0" stroke-width="3.0"/>
    <path d="M 123.12619018554688 107.90947723388672 C 129.31080627441406 86.27154541015625 93.48625946044922 78.50897216796875 115.49444580078125 107.59747314453125" fill="none" stroke="rgb(0, 0, 0)" stroke-linecap="round" stroke-linejoin="round" stroke-opacity="1.0" stroke-width="3.0"/>
    <path d="M 112.77462768554688 100.18370056152344 C 101.91999816894531 130.0739288330078 115.49968719482422 146.93380737304688 117.54429626464844 87.90800476074219" fill="none" stroke="rgb(0, 0, 0)" stroke-linecap="round" stroke-linejoin="round" stroke-opacity="1.0" stroke-width="3.0"/>
    <path d="M 119.15330505371094 100.23193359375 C 122.24214935302734 74.77565002441406 129.12423706054688 79.33712768554688 96.59857177734375 86.90267944335938" fill="none" stroke="rgb(0, 0, 0)" stroke-linecap="round" stroke-linejoin="round" stroke-opacity="1.0" stroke-width="3.0"/>
    <path d="M 106.33499145507812 109.83053588867188 C 80.74838256835938 73.947265625 153.34722900390625 96.81183624267578 107.07689666748047 96.69685363769531" fill="none" stroke="rgb(0, 0, 0)" stroke-linecap="round" stroke-linejoin="round" stroke-opacity="1.0" stroke-width="3.0"/>
    <path d="M 95.88899230957031 110.63245391845703 C 136.59494018554688 102.97251892089844 113.7408676147461 125.66793823242188 111.30582427978516 91.83004760742188" fill="none" stroke="rgb(0, 0, 0)" stroke-linecap="round" stroke-linejoin="round" stroke-opacity="1.0" stroke-width="3.0"/>
    <path d="M 111.28782653808594 109.6831283569336 C 129.05923461914062 98.4503173828125 125.13442993164062 133.88294982910156 122.5078125 86.54231262207031" fill="none" stroke="rgb(0, 0, 0)" stroke-linecap="round" stroke-linejoin="round" stroke-opacity="1.0" stroke-width="3.0"/>
    <path d="M 115.75696563720703 87.88519287109375 C 121.88919830322266 99.07103729248047 135.3374786376953 115.87293243408203 96.86139678955078 111.86627197265625" fill="none" stroke="rgb(0, 0, 0)" stroke-linecap="round" stroke-linejoin="round" stroke-opacity="1.0" stroke-width="3.0"/>
    <path d="M 118.56485748291016 108.16407775878906 C 126.77352905273438 77.94540405273438 124.84661865234375 80.69204711914062 125.9841537475586 104.25865173339844" fill="none" stroke="rgb(0, 0, 0)" stroke-linecap="round" stroke-linejoin="round" stroke-opacity="1.0" stroke-width="3.0"/>
    <path d="M 127.06926727294922 145.12533569335938 C 106.4277114868164 102.11360168457031 146.60914611816406 153.4114990234375 112.1910400390625 118.75569152832031" fill="none" stroke="rgb(0, 0, 0)" stroke-linecap="round" stroke-linejoin="round" stroke-opacity="1.0" stroke-width="3.0"/>
    <path d="M 120.88742065429688 97.59809875488281 C 82.36473846435547 110.04154205322266 128.56503295898438 68.6699447631836 122.3609390258789 108.20856475830078" fill="none" stroke="rgb(0, 0, 0)" stroke-linecap="round" stroke-linejoin="round" stroke-opacity="1.0" stroke-width="3.0"/>
    <path d="M 121.78890991210938 87.88410949707031 C 120.11493682861328 68.89624786376953 140.3134765625 99.56845092773438 100.8576431274414 108.98580932617188" fill="none" stroke="rgb(0, 0, 0)" stroke-linecap="round" stroke-linejoin="round" stroke-opacity="1.0" stroke-width="3.0"/>
    <path d="M 95.04530334472656 104.4994125366211 C 134.10635375976562 96.15925598144531 133.0091094970703 120.7428970336914 98.93709564208984 112.24909973144531" fill="none" stroke="rgb(0, 0, 0)" stroke-linecap="round" stroke-linejoin="round" stroke-opacity="1.0" stroke-width="3.0"/>
  </g>
</svg>
