<?xml version="1.0" ?>
<svg height="224" version="1.1" width="224" xmlns="http://www.w3.org/2000/svg">
  <defs/>
  <g>
    <path d="M 151.84095764160156 95.54428100585938 C 55.395084381103516 93.5905990600586 97.7817153930664 90.30963897705078 96.31257629394531 91.29296112060547" fill="none" stroke="rgb(0, 0, 0)" stroke-linecap="round" stroke-linejoin="round" stroke-opacity="1.0" stroke-width="3.0"/>
    <path d="M 100.4838638305664 102.18925476074219 C 106.46448516845703 162.4903106689453 73.10691833496094 119.49842834472656 128.1623077392578 135.2138214111328" fill="none" stroke="rgb(0, 0, 0)" stroke-linecap="round" stroke-linejoin="round" stroke-opacity="1.0" stroke-width="3.0"/>
    <path d="M 140.584228515625 96.30369567871094 C 152.60626220703125 150.781494140625 133.37879943847656 130.75900268554688 145.9075927734375 109.10159301757812" fill="none" stroke="rgb(0, 0, 0)" stroke-linecap="round" stroke-linejoin="round" stroke-opacity="1.0" stroke-width="3.0"/>
    <path d="M 96.81915283203125 124.51087188720703 C 98.97840881347656 83.17304229736328 88.27637481689453 95.39520263671875 139.83526611328125 105.6190185546875" fill="none" stroke="rgb(0, 0, 0)" stroke-linecap="round" stroke-linejoin="round" stroke-opacity="1.0" stroke-width="3.0"/>
    <path d="M 149.410888671875 118.63908386230469 C 126.19729614257812 86.67249298095703 83.56587219238281 111.1797866821289 108.68241882324219 130.96328735351562" fill="none" stroke="rgb(0, 0, 0)" stroke-linecap="round" stroke-linejoin="round" stroke-opacity="1.0" stroke-width="3.0"/>
    <path d="M 116.51058197021484 96.93426513671875 C 166.3068084716797 94.99427032470703 122.45275115966797 107.00343322753906 107.80791473388672 101.58058166503906" fill="none" stroke="rgb(0, 0, 0)" stroke-linecap="round" stroke-linejoin="round" stroke-opacity="1.0" stroke-width="3.0"/>
    <path d="M 134.88392639160156 132.2814483642578 C 162.10662841796875 86.86785125732422 156.39413452148438 108.0814437866211 97.96041107177734 104.2030029296875" fill="none" stroke="rgb(0, 0, 0)" stroke-linecap="round" stroke-linejoin="round" stroke-opacity="1.0" stroke-width="3.0"/>
    <path d="M 85.79766082763672 96.34327697753906 C 138.91152954101562 95.21241760253906 170.1175537109375 107.26101684570312 104.94286346435547 99.39619445800781" fill="none" stroke="rgb(0, 0, 0)" stroke-linecap="round" stroke-linejoin="round" stroke-opacity="1.0" stroke-width="3.0"/>
    <path d="M 132.42620849609375 103.019287109375 C 132.29696655273438 94.75736236572266 83.67539978027344 105.6412353515625 113.31472778320312 133.55520629882812" fill="none" stroke="rgb(0, 0, 0)" stroke-linecap="round" stroke-linejoin="round" stroke-opacity="1.0" stroke-width="3.0"/>
    <path d="M 97.38351440429688 102.51795196533203 C 153.61082458496094 100.4095458984375 143.8795166015625 134.69845581054688 117.01721954345703 133.0469970703125" fill="none" stroke="rgb(0, 0, 0)" stroke-linecap="round" stroke-linejoin="round" stroke-opacity="1.0" stroke-width="3.0"/>
    <path d="M 145.84481811523438 122.6035385131836 C 170.9069366455078 111.78173065185547 127.95161437988281 90.55633544921875 98.71556091308594 94.53176879882812" fill="none" stroke="rgb(0, 0, 0)" stroke-linecap="round" stroke-linejoin="round" stroke-opacity="1.0" stroke-width="3.0"/>
    <path d="M 118.33914947509766 132.2544403076172 C 79.10687255859375 96.64595031738281 183.6641387939453 104.91252899169922 124.16452026367188 104.79812622070312" fill="none" stroke="rgb(0, 0, 0)" stroke-linecap="round" stroke-linejoin="round" stroke-opacity="1.0" stroke-width="3.0"/>
    <path d="M 84.47593688964844 94.28089141845703 C 82.82186889648438 151.49948120117188 94.27741241455078 132.6961212158203 47.46704864501953 143.3123016357422" fill="none" stroke="rgb(0, 0, 0)" stroke-linecap="round" stroke-linejoin="round" stroke-opacity="1.0" stroke-width="3.0"/>
    <path d="M 144.16847229003906 129.08506774902344 C 68.841064453125 143.5050048828125 63.909305572509766 118.5139389038086 131.95147705078125 135.1416778564453" fill="none" stroke="rgb(0, 0, 0)" stroke-linecap="round" stroke-linejoin="round" stroke-opacity="1.0" stroke-width="3.0"/>
    <path d="M 109.4001235961914 104.68560791015625 C 128.57675170898438 90.41063690185547 133.00125122070312 85.33065032958984 130.96434020996094 104.2666015625" fill="none" stroke="rgb(0, 0, 0)" stroke-linecap="round" stroke-linejoin="round" stroke-opacity="1.0" stroke-width="3.0"/>
    <path d="M 153.35577392578125 96.31873321533203 C 151.23977661132812 150.1834716796875 162.6900177001953 129.6739044189453 124.67161560058594 135.00848388671875" fill="none" stroke="rgb(0, 0, 0)" stroke-linecap="round" stroke-linejoin="round" stroke-opacity="1.0" stroke-width="3.0"/>
  </g>
</svg>
