<?xml version="1.0" ?>
<svg height="224" version="1.1" width="224" xmlns="http://www.w3.org/2000/svg">
  <defs/>
  <g>
    <path d="M 127.35746765136719 123.12313842773438 C 122.84429931640625 126.59825134277344 133.50335693359375 124.47294616699219 129.4770965576172 109.23294830322266" fill="none" stroke="rgb(0, 0, 0)" stroke-linecap="round" stroke-linejoin="round" stroke-opacity="1.0" stroke-width="3.0"/>
    <path d="M 132.39849853515625 109.37449645996094 C 118.70332336425781 64.1763687133789 66.92586517333984 100.71945190429688 91.35192108154297 125.50946044921875" fill="none" stroke="rgb(0, 0, 0)" stroke-linecap="round" stroke-linejoin="round" stroke-opacity="1.0" stroke-width="3.0"/>
    <path d="M 87.44554138183594 121.2225570678711 C 115.08639526367188 153.09130859375 141.80369567871094 113.81204223632812 117.41264343261719 132.5430450439453" fill="none" stroke="rgb(0, 0, 0)" stroke-linecap="round" stroke-linejoin="round" stroke-opacity="1.0" stroke-width="3.0"/>
    <path d="M 89.52847290039062 127.23460388183594 C 133.12835693359375 160.13763427734375 135.07386779785156 81.43025970458984 130.36444091796875 112.20584106445312" fill="none" stroke="rgb(0, 0, 0)" stroke-linecap="round" stroke-linejoin="round" stroke-opacity="1.0" stroke-width="3.0"/>
    <path d="M 129.31997680664062 122.15493774414062 C 134.5977020263672 95.60382080078125 131.65309143066406 123.99539947509766 124.02812957763672 126.25336456298828" fill="none" stroke="rgb(0, 0, 0)" stroke-linecap="round" stroke-linejoin="round" stroke-opacity="1.0" stroke-width="3.0"/>
    <path d="M 130.96392822265625 111.3241958618164 C 137.51239013671875 132.0250701904297 99.22044372558594 153.42872619628906 85.79817962646484 121.76008605957031" fill="none" stroke="rgb(0, 0, 0)" stroke-linecap="round" stroke-linejoin="round" stroke-opacity="1.0" stroke-width="3.0"/>
    <path d="M 89.71875762939453 128.54388427734375 C 90.95079040527344 122.20977020263672 77.14833068847656 135.86029052734375 79.69699096679688 131.72023010253906" fill="none" stroke="rgb(0, 0, 0)" stroke-linecap="round" stroke-linejoin="round" stroke-opacity="1.0" stroke-width="3.0"/>
    <path d="M 96.264404296875 96.19377136230469 C 91.07245635986328 86.57947540283203 132.81002807617188 80.16950988769531 127.0177230834961 119.99493408203125" fill="none" stroke="rgb(0, 0, 0)" stroke-linecap="round" stroke-linejoin="round" stroke-opacity="1.0" stroke-width="3.0"/>
    <path d="M 128.19886779785156 106.02631378173828 C 133.90505981445312 94.67548370361328 147.94815063476562 114.49287414550781 134.5323486328125 111.22969818115234" fill="none" stroke="rgb(0, 0, 0)" stroke-linecap="round" stroke-linejoin="round" stroke-opacity="1.0" stroke-width="3.0"/>
    <path d="M 115.72673034667969 135.68942260742188 C 137.6733856201172 105.38850402832031 116.50936126708984 139.62603759765625 95.04485321044922 133.66574096679688" fill="none" stroke="rgb(0, 0, 0)" stroke-linecap="round" stroke-linejoin="round" stroke-opacity="1.0" stroke-width="3.0"/>
    <path d="M 141.40171813964844 106.32212829589844 C 171.5640869140625 103.69654083251953 163.8561553955078 135.40921020507812 140.4593048095703 150.23947143554688" fill="none" stroke="rgb(0, 0, 0)" stroke-linecap="round" stroke-linejoin="round" stroke-opacity="1.0" stroke-width="3.0"/>
    <path d="M 109.32447814941406 87.67036437988281 C 97.44597625732422 84.31780242919922 60.85148620605469 118.65196990966797 106.7721176147461 137.31004333496094" fill="none" stroke="rgb(0, 0, 0)" stroke-linecap="round" stroke-linejoin="round" stroke-opacity="1.0" stroke-width="3.0"/>
    <path d="M 134.84115600585938 103.99757385253906 C 138.25808715820312 110.09434509277344 126.03244018554688 94.15763092041016 131.27064514160156 116.06886291503906" fill="none" stroke="rgb(0, 0, 0)" stroke-linecap="round" stroke-linejoin="round" stroke-opacity="1.0" stroke-width="3.0"/>
    <path d="M 130.88877868652344 104.55413055419922 C 129.0772247314453 102.48563385009766 136.72244262695312 98.28301239013672 128.51266479492188 126.59083557128906" fill="none" stroke="rgb(0, 0, 0)" stroke-linecap="round" stroke-linejoin="round" stroke-opacity="1.0" stroke-width="3.0"/>
    <path d="M 133.0483856201172 112.43094635009766 C 124.92028045654297 84.1475830078125 142.7290802001953 115.73090362548828 110.58592224121094 134.72012329101562" fill="none" stroke="rgb(0, 0, 0)" stroke-linecap="round" stroke-linejoin="round" stroke-opacity="1.0" stroke-width="3.0"/>
    <path d="M 126.89102935791016 108.29902648925781 C 134.0811767578125 97.0076675415039 152.95530700683594 107.5057144165039 133.1475830078125 103.27821350097656" fill="none" stroke="rgb(0, 0, 0)" stroke-linecap="round" stroke-linejoin="round" stroke-opacity="1.0" stroke-width="3.0"/>
  </g>
</svg>
