<?xml version="1.0" ?>
<svg height="224" version="1.1" width="224" xmlns="http://www.w3.org/2000/svg">
  <defs/>
  <g>
    <path d="M 130.62123107910156 126.24615478515625 C 153.6696319580078 87.7615737915039 34.6016845703125 99.27681732177734 104.24003601074219 97.05158996582031" fill="none" stroke="rgb(0, 0, 0)" stroke-linecap="round" stroke-linejoin="round" stroke-opacity="1.0" stroke-width="3.0"/>
    <path d="M 130.62965393066406 125.67999267578125 C 102.89936065673828 144.9546661376953 94.67330932617188 91.83859252929688 97.48419189453125 134.16232299804688" fill="none" stroke="rgb(0, 0, 0)" stroke-linecap="round" stroke-linejoin="round" stroke-opacity="1.0" stroke-width="3.0"/>
    <path d="M 114.61328125 93.93594360351562 C 136.18434143066406 83.30149841308594 114.15280151367188 104.29522705078125 140.15200805664062 104.30430603027344" fill="none" stroke="rgb(0, 0, 0)" stroke-linecap="round" stroke-linejoin="round" stroke-opacity="1.0" stroke-width="3.0"/>
    <path d="M 109.40617370605469 105.1493148803711 C 93.71746063232422 116.86846160888672 110.06389617919922 107.38369750976562 97.78660583496094 94.82315826416016" fill="none" stroke="rgb(0, 0, 0)" stroke-linecap="round" stroke-linejoin="round" stroke-opacity="1.0" stroke-width="3.0"/>
    <path d="M 100.54996490478516 108.1989974975586 C 136.8284912109375 84.8165054321289 157.94680786132812 107.16795349121094 93.77149200439453 95.33560180664062" fill="none" stroke="rgb(0, 0, 0)" stroke-linecap="round" stroke-linejoin="round" stroke-opacity="1.0" stroke-width="3.0"/>
    <path d="M 82.89161682128906 130.8488006591797 C 136.9614715576172 142.59646606445312 117.82564544677734 121.48744201660156 91.49992370605469 131.3572998046875" fill="none" stroke="rgb(0, 0, 0)" stroke-linecap="round" stroke-linejoin="round" stroke-opacity="1.0" stroke-width="3.0"/>
    <path d="M 110.80767822265625 100.49603271484375 C 23.499183654785156 86.52296447753906 184.65655517578125 97.6463623046875 84.4942626953125 95.67466735839844" fill="none" stroke="rgb(0, 0, 0)" stroke-linecap="round" stroke-linejoin="round" stroke-opacity="1.0" stroke-width="3.0"/>
    <path d="M 102.58587646484375 132.26524353027344 C 100.8374252319336 64.64817810058594 92.90628051757812 101.54105377197266 95.93165588378906 93.2957992553711" fill="none" stroke="rgb(0, 0, 0)" stroke-linecap="round" stroke-linejoin="round" stroke-opacity="1.0" stroke-width="3.0"/>
    <path d="M 82.14745330810547 97.8960952758789 C 84.3302230834961 155.1542205810547 75.73646545410156 125.60415649414062 104.4729995727539 134.17156982421875" fill="none" stroke="rgb(0, 0, 0)" stroke-linecap="round" stroke-linejoin="round" stroke-opacity="1.0" stroke-width="3.0"/>
    <path d="M 138.98390197753906 98.6332015991211 C 81.74403381347656 90.70812225341797 140.2891845703125 84.85659790039062 119.5883560180664 96.60981750488281" fill="none" stroke="rgb(0, 0, 0)" stroke-linecap="round" stroke-linejoin="round" stroke-opacity="1.0" stroke-width="3.0"/>
    <path d="M 129.96963500976562 131.82200622558594 C 65.81096649169922 135.53672790527344 83.4234848022461 132.75453186035156 116.66509246826172 134.060791015625" fill="none" stroke="rgb(0, 0, 0)" stroke-linecap="round" stroke-linejoin="round" stroke-opacity="1.0" stroke-width="3.0"/>
    <path d="M 121.62940216064453 134.02455139160156 C 154.47906494140625 129.2624053955078 122.2890396118164 89.69469451904297 141.2599334716797 110.06198120117188" fill="none" stroke="rgb(0, 0, 0)" stroke-linecap="round" stroke-linejoin="round" stroke-opacity="1.0" stroke-width="3.0"/>
    <path d="M 140.73910522460938 135.34970092773438 C 110.46588134765625 135.49729919433594 113.8173828125 138.0876922607422 98.69816589355469 124.55534362792969" fill="none" stroke="rgb(0, 0, 0)" stroke-linecap="round" stroke-linejoin="round" stroke-opacity="1.0" stroke-width="3.0"/>
    <path d="M 121.71245574951172 89.28329467773438 C 148.08241271972656 103.77740478515625 140.54600524902344 76.33779907226562 142.69581604003906 133.3797607421875" fill="none" stroke="rgb(0, 0, 0)" stroke-linecap="round" stroke-linejoin="round" stroke-opacity="1.0" stroke-width="3.0"/>
    <path d="M 104.66242980957031 130.3112335205078 C 75.20716094970703 130.2401580810547 72.51932525634766 138.12863159179688 113.29368591308594 134.97267150878906" fill="none" stroke="rgb(0, 0, 0)" stroke-linecap="round" stroke-linejoin="round" stroke-opacity="1.0" stroke-width="3.0"/>
    <path d="M 97.55850219726562 104.98416900634766 C 178.9727325439453 101.8653564453125 105.60820007324219 77.81865692138672 107.84629821777344 102.7564697265625" fill="none" stroke="rgb(0, 0, 0)" stroke-linecap="round" stroke-linejoin="round" stroke-opacity="1.0" stroke-width="3.0"/>
  </g>
</svg>
