<?xml version="1.0" ?>
<svg height="224" version="1.1" width="224" xmlns="http://www.w3.org/2000/svg">
  <defs/>
  <g>
    <path d="M 125.90338134765625 102.15666198730469 C 107.75373077392578 84.65859985351562 134.88784790039062 89.77385711669922 120.95010375976562 99.88583374023438" fill="none" stroke="rgb(0, 0, 0)" stroke-linecap="round" stroke-linejoin="round" stroke-opacity="1.0" stroke-width="3.0"/>
    <path d="M 113.91960906982422 98.50698852539062 C 75.38530731201172 135.57940673828125 81.16677856445312 165.7766571044922 80.63018035888672 97.19964599609375" fill="none" stroke="rgb(0, 0, 0)" stroke-linecap="round" stroke-linejoin="round" stroke-opacity="1.0" stroke-width="3.0"/>
    <path d="M 133.102294921875 126.58778381347656 C 99.40804290771484 150.2808837890625 89.30249786376953 85.20972442626953 93.60620880126953 124.00556945800781" fill="none" stroke="rgb(0, 0, 0)" stroke-linecap="round" stroke-linejoin="round" stroke-opacity="1.0" stroke-width="3.0"/>
    <path d="M 112.34465026855469 131.71640014648438 C 73.84919738769531 89.54483795166016 206.7256622314453 91.51403045654297 89.95793151855469 96.7126693725586" fill="none" stroke="rgb(0, 0, 0)" stroke-linecap="round" stroke-linejoin="round" stroke-opacity="1.0" stroke-width="3.0"/>
    <path d="M 85.23994445800781 135.0452880859375 C 78.06126403808594 65.95661926269531 109.37736511230469 101.94294738769531 98.64334869384766 131.54519653320312" fill="none" stroke="rgb(0, 0, 0)" stroke-linecap="round" stroke-linejoin="round" stroke-opacity="1.0" stroke-width="3.0"/>
    <path d="M 111.7438735961914 135.0514678955078 C 55.506141662597656 131.01910400390625 119.84751892089844 154.71746826171875 92.45914459228516 97.95381164550781" fill="none" stroke="rgb(0, 0, 0)" stroke-linecap="round" stroke-linejoin="round" stroke-opacity="1.0" stroke-width="3.0"/>
    <path d="M 123.74052429199219 99.41462707519531 C 74.0472640991211 111.55972290039062 107.64816284179688 105.25609588623047 123.71250915527344 92.32696533203125" fill="none" stroke="rgb(0, 0, 0)" stroke-linecap="round" stroke-linejoin="round" stroke-opacity="1.0" stroke-width="3.0"/>
    <path d="M 88.07262420654297 103.20841979980469 C 143.98757934570312 97.2250747680664 159.0752716064453 107.7124252319336 92.28101348876953 92.01927185058594" fill="none" stroke="rgb(0, 0, 0)" stroke-linecap="round" stroke-linejoin="round" stroke-opacity="1.0" stroke-width="3.0"/>
    <path d="M 92.0156478881836 108.50764465332031 C 116.3118667602539 86.52889251708984 150.08799743652344 109.99252319335938 140.8486328125 94.3595962524414" fill="none" stroke="rgb(0, 0, 0)" stroke-linecap="round" stroke-linejoin="round" stroke-opacity="1.0" stroke-width="3.0"/>
    <path d="M 131.61944580078125 129.31451416015625 C 144.52459716796875 99.18000030517578 106.32485961914062 101.64469909667969 85.19506072998047 99.77389526367188" fill="none" stroke="rgb(0, 0, 0)" stroke-linecap="round" stroke-linejoin="round" stroke-opacity="1.0" stroke-width="3.0"/>
    <path d="M 131.91458129882812 135.12564086914062 C 45.8546142578125 140.57171630859375 85.7549819946289 129.9376678466797 118.3209228515625 134.1094970703125" fill="none" stroke="rgb(0, 0, 0)" stroke-linecap="round" stroke-linejoin="round" stroke-opacity="1.0" stroke-width="3.0"/>
    <path d="M 86.63270568847656 101.62484741210938 C 101.347900390625 137.14328002929688 81.2951431274414 143.12965393066406 93.43667602539062 94.45051574707031" fill="none" stroke="rgb(0, 0, 0)" stroke-linecap="round" stroke-linejoin="round" stroke-opacity="1.0" stroke-width="3.0"/>
    <path d="M 94.07270812988281 128.78636169433594 C 114.96846771240234 65.55673217773438 113.48802185058594 92.83039855957031 88.81419372558594 128.3569793701172" fill="none" stroke="rgb(0, 0, 0)" stroke-linecap="round" stroke-linejoin="round" stroke-opacity="1.0" stroke-width="3.0"/>
    <path d="M 83.87162017822266 96.38249206542969 C 152.40921020507812 93.50109100341797 136.3456573486328 94.70934295654297 138.49334716796875 98.60943603515625" fill="none" stroke="rgb(0, 0, 0)" stroke-linecap="round" stroke-linejoin="round" stroke-opacity="1.0" stroke-width="3.0"/>
    <path d="M 96.0941390991211 128.34364318847656 C 106.7764892578125 52.72216796875 63.35862731933594 142.0442352294922 106.9677963256836 127.4473648071289" fill="none" stroke="rgb(0, 0, 0)" stroke-linecap="round" stroke-linejoin="round" stroke-opacity="1.0" stroke-width="3.0"/>
    <path d="M 143.40261840820312 96.45914459228516 C 140.4394073486328 142.69940185546875 147.58224487304688 133.43101501464844 119.31517028808594 136.84066772460938" fill="none" stroke="rgb(0, 0, 0)" stroke-linecap="round" stroke-linejoin="round" stroke-opacity="1.0" stroke-width="3.0"/>
  </g>
</svg>
