<?xml version="1.0" ?>
<svg height="224" version="1.1" width="224" xmlns="http://www.w3.org/2000/svg">
  <defs/>
  <g>
    <path d="M 113.52484130859375 95.71293640136719 C 139.2769317626953 89.62037658691406 134.6515655517578 77.41092681884766 134.72454833984375 102.37979125976562" fill="none" stroke="rgb(0, 0, 0)" stroke-linecap="round" stroke-linejoin="round" stroke-opacity="1.0" stroke-width="3.0"/>
    <path d="M 75.41377258300781 83.13871765136719 C 147.0643768310547 89.87655639648438 192.40499877929688 86.916015625 96.911865234375 97.28598022460938" fill="none" stroke="rgb(0, 0, 0)" stroke-linecap="round" stroke-linejoin="round" stroke-opacity="1.0" stroke-width="3.0"/>
    <path d="M 73.19407653808594 86.31950378417969 C 143.3205108642578 90.43598937988281 123.75433349609375 89.82817840576172 104.87744903564453 94.58061218261719" fill="none" stroke="rgb(0, 0, 0)" stroke-linecap="round" stroke-linejoin="round" stroke-opacity="1.0" stroke-width="3.0"/>
    <path d="M 122.58292388916016 99.93595123291016 C 77.73136138916016 84.47810363769531 73.13945007324219 97.54338073730469 159.24600219726562 85.53784942626953" fill="none" stroke="rgb(0, 0, 0)" stroke-linecap="round" stroke-linejoin="round" stroke-opacity="1.0" stroke-width="3.0"/>
    <path d="M 136.58905029296875 93.14193725585938 C 76.35200500488281 69.18059539794922 89.08548736572266 96.23058319091797 152.0749969482422 90.38133239746094" fill="none" stroke="rgb(0, 0, 0)" stroke-linecap="round" stroke-linejoin="round" stroke-opacity="1.0" stroke-width="3.0"/>
    <path d="M 152.13555908203125 92.8840560913086 C 153.94766235351562 79.27069854736328 155.70249938964844 74.41897583007812 153.69943237304688 92.1130599975586" fill="none" stroke="rgb(0, 0, 0)" stroke-linecap="round" stroke-linejoin="round" stroke-opacity="1.0" stroke-width="3.0"/>
    <path d="M 104.94157409667969 143.83436584472656 C 135.44703674316406 154.42564392089844 -13.242377281188965 149.24734497070312 129.232421875 158.45065307617188" fill="none" stroke="rgb(0, 0, 0)" stroke-linecap="round" stroke-linejoin="round" stroke-opacity="1.0" stroke-width="3.0"/>
    <path d="M 152.23092651367188 78.52250671386719 C 30.69979476928711 78.05532836914062 42.5412712097168 97.96453857421875 155.56515502929688 95.23548889160156" fill="none" stroke="rgb(0, 0, 0)" stroke-linecap="round" stroke-linejoin="round" stroke-opacity="1.0" stroke-width="3.0"/>
    <path d="M 65.6734619140625 135.98829650878906 C 155.44485473632812 80.46810150146484 117.5429916381836 112.2187728881836 132.97256469726562 105.1201400756836" fill="none" stroke="rgb(0, 0, 0)" stroke-linecap="round" stroke-linejoin="round" stroke-opacity="1.0" stroke-width="3.0"/>
    <path d="M 151.39312744140625 92.1552734375 C 58.315643310546875 94.17069244384766 80.96395111083984 87.09813690185547 152.5438232421875 88.58539581298828" fill="none" stroke="rgb(0, 0, 0)" stroke-linecap="round" stroke-linejoin="round" stroke-opacity="1.0" stroke-width="3.0"/>
    <path d="M 118.4251937866211 105.0079574584961 C 57.975990295410156 88.28428649902344 54.95523452758789 80.99916076660156 110.24105072021484 97.1441421508789" fill="none" stroke="rgb(0, 0, 0)" stroke-linecap="round" stroke-linejoin="round" stroke-opacity="1.0" stroke-width="3.0"/>
    <path d="M 130.8480224609375 153.66986083984375 C -26.388376235961914 148.7161102294922 168.39581298828125 142.44509887695312 100.08955383300781 156.56336975097656" fill="none" stroke="rgb(0, 0, 0)" stroke-linecap="round" stroke-linejoin="round" stroke-opacity="1.0" stroke-width="3.0"/>
    <path d="M 115.5625991821289 90.14628601074219 C 38.93429946899414 88.54785919189453 68.57765197753906 85.75879669189453 152.6855926513672 84.47196197509766" fill="none" stroke="rgb(0, 0, 0)" stroke-linecap="round" stroke-linejoin="round" stroke-opacity="1.0" stroke-width="3.0"/>
    <path d="M 116.90110778808594 159.2666015625 C -15.305315971374512 142.1276092529297 218.83377075195312 168.34149169921875 66.66944885253906 143.70448303222656" fill="none" stroke="rgb(0, 0, 0)" stroke-linecap="round" stroke-linejoin="round" stroke-opacity="1.0" stroke-width="3.0"/>
    <path d="M 81.4946517944336 94.64373779296875 C 104.55059814453125 90.46637725830078 95.02507019042969 84.60694885253906 155.73220825195312 85.46373748779297" fill="none" stroke="rgb(0, 0, 0)" stroke-linecap="round" stroke-linejoin="round" stroke-opacity="1.0" stroke-width="3.0"/>
    <path d="M 158.9676055908203 85.56194305419922 C 156.83457946777344 111.86186981201172 153.9769287109375 78.51712799072266 105.9400634765625 91.56752014160156" fill="none" stroke="rgb(0, 0, 0)" stroke-linecap="round" stroke-linejoin="round" stroke-opacity="1.0" stroke-width="3.0"/>
  </g>
</svg>
