<?xml version="1.0" ?>
<svg height="224" version="1.1" width="224" xmlns="http://www.w3.org/2000/svg">
  <defs/>
  <g>
    <path d="M 100.89114379882812 140.42405700683594 C 122.73004150390625 147.88818359375 103.83802032470703 185.34983825683594 103.79039001464844 96.00702667236328" fill="none" stroke="rgb(0, 0, 0)" stroke-linecap="round" stroke-linejoin="round" stroke-opacity="1.0" stroke-width="3.0"/>
    <path d="M 97.90918731689453 84.13965606689453 C 95.77386474609375 184.71104431152344 98.84092712402344 162.8313446044922 100.03736877441406 111.06305694580078" fill="none" stroke="rgb(0, 0, 0)" stroke-linecap="round" stroke-linejoin="round" stroke-opacity="1.0" stroke-width="3.0"/>
    <path d="M 115.67042541503906 158.6046142578125 C 68.37010192871094 152.28546142578125 119.69489288330078 148.39987182617188 115.109130859375 103.327392578125" fill="none" stroke="rgb(0, 0, 0)" stroke-linecap="round" stroke-linejoin="round" stroke-opacity="1.0" stroke-width="3.0"/>
    <path d="M 105.62890625 155.9101104736328 C 119.47909545898438 140.606689453125 93.31160736083984 86.81195068359375 100.19767761230469 149.97552490234375" fill="none" stroke="rgb(0, 0, 0)" stroke-linecap="round" stroke-linejoin="round" stroke-opacity="1.0" stroke-width="3.0"/>
    <path d="M 103.64704132080078 81.94857025146484 C 114.66317749023438 188.22671508789062 99.84935760498047 176.74293518066406 102.64588165283203 83.39517211914062" fill="none" stroke="rgb(0, 0, 0)" stroke-linecap="round" stroke-linejoin="round" stroke-opacity="1.0" stroke-width="3.0"/>
    <path d="M 118.13343048095703 156.94903564453125 C 130.3564910888672 127.81664276123047 128.87696838378906 162.96902465820312 130.51148986816406 105.17839813232422" fill="none" stroke="rgb(0, 0, 0)" stroke-linecap="round" stroke-linejoin="round" stroke-opacity="1.0" stroke-width="3.0"/>
    <path d="M 133.0064697265625 138.58685302734375 C 135.78822326660156 74.36571502685547 136.25299072265625 107.47525787353516 113.87841796875 80.9188003540039" fill="none" stroke="rgb(0, 0, 0)" stroke-linecap="round" stroke-linejoin="round" stroke-opacity="1.0" stroke-width="3.0"/>
    <path d="M 101.13919067382812 155.42018127441406 C 93.08460998535156 73.27066802978516 116.17340850830078 162.11322021484375 107.22587585449219 90.02812957763672" fill="none" stroke="rgb(0, 0, 0)" stroke-linecap="round" stroke-linejoin="round" stroke-opacity="1.0" stroke-width="3.0"/>
    <path d="M 115.8702392578125 156.97909545898438 C 123.9505386352539 35.227699279785156 103.17398071289062 93.21794128417969 112.8551025390625 156.25241088867188" fill="none" stroke="rgb(0, 0, 0)" stroke-linecap="round" stroke-linejoin="round" stroke-opacity="1.0" stroke-width="3.0"/>
    <path d="M 101.25098419189453 84.72770690917969 C 123.14149475097656 87.09774780273438 122.30619049072266 67.82722473144531 120.69348907470703 154.31698608398438" fill="none" stroke="rgb(0, 0, 0)" stroke-linecap="round" stroke-linejoin="round" stroke-opacity="1.0" stroke-width="3.0"/>
    <path d="M 101.84815979003906 130.39096069335938 C 109.07171630859375 174.81192016601562 88.02197265625 143.81243896484375 110.63019561767578 157.37254333496094" fill="none" stroke="rgb(0, 0, 0)" stroke-linecap="round" stroke-linejoin="round" stroke-opacity="1.0" stroke-width="3.0"/>
    <path d="M 111.57223510742188 99.12036895751953 C 101.68655395507812 85.68318176269531 134.19435119628906 84.72886657714844 103.4498291015625 91.61853790283203" fill="none" stroke="rgb(0, 0, 0)" stroke-linecap="round" stroke-linejoin="round" stroke-opacity="1.0" stroke-width="3.0"/>
    <path d="M 110.31454467773438 122.59194946289062 C 97.92156219482422 110.33780670166016 114.51588439941406 19.706268310546875 113.39378356933594 155.94073486328125" fill="none" stroke="rgb(0, 0, 0)" stroke-linecap="round" stroke-linejoin="round" stroke-opacity="1.0" stroke-width="3.0"/>
    <path d="M 115.2389907836914 155.74331665039062 C 114.44737243652344 45.73928451538086 114.60734558105469 84.15934753417969 124.78005981445312 92.02456665039062" fill="none" stroke="rgb(0, 0, 0)" stroke-linecap="round" stroke-linejoin="round" stroke-opacity="1.0" stroke-width="3.0"/>
    <path d="M 106.82537078857422 95.96411895751953 C 115.02149200439453 54.81886672973633 116.94786834716797 157.09019470214844 105.17854309082031 93.71672821044922" fill="none" stroke="rgb(0, 0, 0)" stroke-linecap="round" stroke-linejoin="round" stroke-opacity="1.0" stroke-width="3.0"/>
    <path d="M 124.89653778076172 120.56950378417969 C 91.02808380126953 125.16493225097656 95.76130676269531 202.72259521484375 95.6789779663086 90.2880630493164" fill="none" stroke="rgb(0, 0, 0)" stroke-linecap="round" stroke-linejoin="round" stroke-opacity="1.0" stroke-width="3.0"/>
  </g>
</svg>
