<?xml version="1.0" ?>
<svg height="224" version="1.1" width="224" xmlns="http://www.w3.org/2000/svg">
  <defs/>
  <g>
    <path d="M 54.95886993408203 96.80078125 C 81.23324584960938 98.67643737792969 186.56832885742188 115.13467407226562 101.90617370605469 104.24125671386719" fill="none" stroke="rgb(0, 0, 0)" stroke-linecap="round" stroke-linejoin="round" stroke-opacity="1.0" stroke-width="3.0"/>
    <path d="M 134.18746948242188 106.65892028808594 C 73.86437225341797 108.30615997314453 69.73332214355469 99.88783264160156 118.1531982421875 101.40979766845703" fill="none" stroke="rgb(0, 0, 0)" stroke-linecap="round" stroke-linejoin="round" stroke-opacity="1.0" stroke-width="3.0"/>
    <path d="M 147.3382568359375 119.42922973632812 C 147.11920166015625 102.57563781738281 147.37889099121094 83.05989074707031 148.38278198242188 117.0274429321289" fill="none" stroke="rgb(0, 0, 0)" stroke-linecap="round" stroke-linejoin="round" stroke-opacity="1.0" stroke-width="3.0"/>
    <path d="M 106.25841522216797 97.96613311767578 C 125.04666137695312 104.40506744384766 152.2938995361328 109.90582275390625 129.32643127441406 143.2895965576172" fill="none" stroke="rgb(0, 0, 0)" stroke-linecap="round" stroke-linejoin="round" stroke-opacity="1.0" stroke-width="3.0"/>
    <path d="M 86.28430938720703 115.10565948486328 C 90.25178527832031 172.32608032226562 88.45536041259766 85.61542510986328 84.3558349609375 122.96806335449219" fill="none" stroke="rgb(0, 0, 0)" stroke-linecap="round" stroke-linejoin="round" stroke-opacity="1.0" stroke-width="3.0"/>
    <path d="M 38.917266845703125 97.83786010742188 C 40.44719314575195 110.30538940429688 38.415260314941406 111.68682098388672 39.14371871948242 98.35517883300781" fill="none" stroke="rgb(0, 0, 0)" stroke-linecap="round" stroke-linejoin="round" stroke-opacity="1.0" stroke-width="3.0"/>
    <path d="M 38.99828338623047 100.71732330322266 C 38.388858795166016 92.35002899169922 41.192440032958984 101.22631072998047 37.37368392944336 137.02908325195312" fill="none" stroke="rgb(0, 0, 0)" stroke-linecap="round" stroke-linejoin="round" stroke-opacity="1.0" stroke-width="3.0"/>
    <path d="M 146.43524169921875 146.48782348632812 C 148.67835998535156 92.77267456054688 152.119140625 108.59178924560547 138.052490234375 103.69064331054688" fill="none" stroke="rgb(0, 0, 0)" stroke-linecap="round" stroke-linejoin="round" stroke-opacity="1.0" stroke-width="3.0"/>
    <path d="M 90.17772674560547 112.60873413085938 C 94.68804168701172 150.93858337402344 68.38733673095703 118.27996826171875 85.48844909667969 108.2223892211914" fill="none" stroke="rgb(0, 0, 0)" stroke-linecap="round" stroke-linejoin="round" stroke-opacity="1.0" stroke-width="3.0"/>
    <path d="M 37.66986083984375 123.70984649658203 C 41.829010009765625 83.91871643066406 39.53525924682617 77.60680389404297 39.089263916015625 96.89189910888672" fill="none" stroke="rgb(0, 0, 0)" stroke-linecap="round" stroke-linejoin="round" stroke-opacity="1.0" stroke-width="3.0"/>
    <path d="M 105.57437133789062 152.51524353027344 C 20.42961883544922 166.02476501464844 14.857844352722168 166.7281494140625 146.07945251464844 146.83309936523438" fill="none" stroke="rgb(0, 0, 0)" stroke-linecap="round" stroke-linejoin="round" stroke-opacity="1.0" stroke-width="3.0"/>
    <path d="M 59.36931228637695 90.17369079589844 C 68.53619384765625 96.67833709716797 117.10276794433594 87.72347259521484 84.71155548095703 108.82811737060547" fill="none" stroke="rgb(0, 0, 0)" stroke-linecap="round" stroke-linejoin="round" stroke-opacity="1.0" stroke-width="3.0"/>
    <path d="M 147.7445526123047 97.27687072753906 C 32.88229751586914 88.30189514160156 27.701026916503906 89.5290756225586 98.56466674804688 95.00476837158203" fill="none" stroke="rgb(0, 0, 0)" stroke-linecap="round" stroke-linejoin="round" stroke-opacity="1.0" stroke-width="3.0"/>
    <path d="M 90.10846710205078 139.125244140625 C 125.31785583496094 147.64654541015625 180.6763153076172 140.1031951904297 90.2226791381836 153.61456298828125" fill="none" stroke="rgb(0, 0, 0)" stroke-linecap="round" stroke-linejoin="round" stroke-opacity="1.0" stroke-width="3.0"/>
    <path d="M 52.41033935546875 95.45050811767578 C 50.1124382019043 160.92294311523438 46.402626037597656 151.8788604736328 99.18716430664062 148.8849639892578" fill="none" stroke="rgb(0, 0, 0)" stroke-linecap="round" stroke-linejoin="round" stroke-opacity="1.0" stroke-width="3.0"/>
    <path d="M 46.299068450927734 160.00730895996094 C 32.0379638671875 163.14898681640625 39.50503921508789 166.36280822753906 36.4873046875 93.9958267211914" fill="none" stroke="rgb(0, 0, 0)" stroke-linecap="round" stroke-linejoin="round" stroke-opacity="1.0" stroke-width="3.0"/>
  </g>
</svg>
