<?xml version="1.0" ?>
<svg height="224" version="1.1" width="224" xmlns="http://www.w3.org/2000/svg">
  <defs/>
  <g>
    <path d="M 87.32653045654297 129.48312377929688 C 152.03189086914062 129.43417358398438 128.6633758544922 125.32176971435547 121.31067657470703 129.3196258544922" fill="none" stroke="rgb(0, 0, 0)" stroke-linecap="round" stroke-linejoin="round" stroke-opacity="1.0" stroke-width="3.0"/>
    <path d="M 114.0126724243164 104.44562530517578 C 135.5571746826172 104.69994354248047 126.60704040527344 104.27823638916016 115.80076599121094 104.24263000488281" fill="none" stroke="rgb(0, 0, 0)" stroke-linecap="round" stroke-linejoin="round" stroke-opacity="1.0" stroke-width="3.0"/>
    <path d="M 86.86541748046875 126.52339935302734 C 121.46929931640625 124.11205291748047 80.34751892089844 127.67229461669922 91.33779907226562 123.64817810058594" fill="none" stroke="rgb(0, 0, 0)" stroke-linecap="round" stroke-linejoin="round" stroke-opacity="1.0" stroke-width="3.0"/>
    <path d="M 92.71188354492188 106.79181671142578 C 77.1959228515625 102.8160629272461 93.45567321777344 105.12289428710938 112.60192108154297 102.92343139648438" fill="none" stroke="rgb(0, 0, 0)" stroke-linecap="round" stroke-linejoin="round" stroke-opacity="1.0" stroke-width="3.0"/>
    <path d="M 103.32515716552734 105.49118041992188 C 100.09272766113281 98.06275939941406 88.53962707519531 104.8439712524414 108.2799072265625 98.0663070678711" fill="none" stroke="rgb(0, 0, 0)" stroke-linecap="round" stroke-linejoin="round" stroke-opacity="1.0" stroke-width="3.0"/>
    <path d="M 103.15962219238281 101.88238525390625 C 115.42333984375 96.03959655761719 116.2442855834961 97.04195404052734 97.3199462890625 99.28427124023438" fill="none" stroke="rgb(0, 0, 0)" stroke-linecap="round" stroke-linejoin="round" stroke-opacity="1.0" stroke-width="3.0"/>
    <path d="M 120.01730346679688 101.63245391845703 C 123.67359924316406 100.26744079589844 98.68517303466797 102.5877456665039 131.9403839111328 105.08953094482422" fill="none" stroke="rgb(0, 0, 0)" stroke-linecap="round" stroke-linejoin="round" stroke-opacity="1.0" stroke-width="3.0"/>
    <path d="M 111.38196563720703 118.53276062011719 C 96.87198638916016 126.07823181152344 123.55332946777344 121.21853637695312 111.71060943603516 114.68753814697266" fill="none" stroke="rgb(0, 0, 0)" stroke-linecap="round" stroke-linejoin="round" stroke-opacity="1.0" stroke-width="3.0"/>
    <path d="M 114.12787628173828 103.23087310791016 C 101.52288055419922 97.87872314453125 111.41316986083984 58.05131912231445 112.14335632324219 99.96912384033203" fill="none" stroke="rgb(0, 0, 0)" stroke-linecap="round" stroke-linejoin="round" stroke-opacity="1.0" stroke-width="3.0"/>
    <path d="M 90.54911041259766 123.54492950439453 C 82.14976501464844 104.11516571044922 97.30925750732422 104.04158782958984 114.73208618164062 106.7731704711914" fill="none" stroke="rgb(0, 0, 0)" stroke-linecap="round" stroke-linejoin="round" stroke-opacity="1.0" stroke-width="3.0"/>
    <path d="M 86.34171295166016 106.73673248291016 C 86.4124526977539 124.00579833984375 85.34335327148438 159.56442260742188 88.34541320800781 104.3012466430664" fill="none" stroke="rgb(0, 0, 0)" stroke-linecap="round" stroke-linejoin="round" stroke-opacity="1.0" stroke-width="3.0"/>
    <path d="M 105.46549224853516 83.19090270996094 C 127.62994384765625 80.19733428955078 104.24295043945312 90.15531921386719 108.79867553710938 97.00435638427734" fill="none" stroke="rgb(0, 0, 0)" stroke-linecap="round" stroke-linejoin="round" stroke-opacity="1.0" stroke-width="3.0"/>
    <path d="M 130.69764709472656 126.5289077758789 C 126.22089385986328 124.31797790527344 139.6280517578125 132.93751525878906 126.02891540527344 130.2079315185547" fill="none" stroke="rgb(0, 0, 0)" stroke-linecap="round" stroke-linejoin="round" stroke-opacity="1.0" stroke-width="3.0"/>
    <path d="M 115.19477844238281 105.51856231689453 C 117.42337799072266 98.38043212890625 110.97044372558594 98.89376068115234 106.73574829101562 100.37113952636719" fill="none" stroke="rgb(0, 0, 0)" stroke-linecap="round" stroke-linejoin="round" stroke-opacity="1.0" stroke-width="3.0"/>
    <path d="M 134.05258178710938 104.65755462646484 C 131.13665771484375 142.3460693359375 134.44720458984375 137.19898986816406 128.46875 105.84514617919922" fill="none" stroke="rgb(0, 0, 0)" stroke-linecap="round" stroke-linejoin="round" stroke-opacity="1.0" stroke-width="3.0"/>
    <path d="M 89.67096710205078 113.71200561523438 C 98.324951171875 98.55591583251953 83.43385314941406 114.53197479248047 96.71266174316406 125.35637664794922" fill="none" stroke="rgb(0, 0, 0)" stroke-linecap="round" stroke-linejoin="round" stroke-opacity="1.0" stroke-width="3.0"/>
  </g>
</svg>
