<?xml version="1.0" ?>
<svg height="224" version="1.1" width="224" xmlns="http://www.w3.org/2000/svg">
  <defs/>
  <g>
    <path d="M 138.1087646484375 150.03073120117188 C 54.80826187133789 150.55337524414062 77.33097076416016 165.71337890625 68.4239730834961 115.43665313720703" fill="none" stroke="rgb(0, 0, 0)" stroke-linecap="round" stroke-linejoin="round" stroke-opacity="1.0" stroke-width="3.0"/>
    <path d="M 135.72386169433594 88.44307708740234 C 186.4873504638672 86.46442413330078 172.6612548828125 79.33345794677734 175.1365203857422 114.87711334228516" fill="none" stroke="rgb(0, 0, 0)" stroke-linecap="round" stroke-linejoin="round" stroke-opacity="1.0" stroke-width="3.0"/>
    <path d="M 153.1439971923828 148.0189208984375 C 177.70262145996094 152.69366455078125 173.73483276367188 155.8441162109375 174.80441284179688 114.15874481201172" fill="none" stroke="rgb(0, 0, 0)" stroke-linecap="round" stroke-linejoin="round" stroke-opacity="1.0" stroke-width="3.0"/>
    <path d="M 128.49534606933594 92.34071350097656 C 174.8808135986328 82.52647399902344 102.81692504882812 93.89916229248047 105.73340606689453 85.3768539428711" fill="none" stroke="rgb(0, 0, 0)" stroke-linecap="round" stroke-linejoin="round" stroke-opacity="1.0" stroke-width="3.0"/>
    <path d="M 75.14018249511719 116.22554779052734 C 64.63455963134766 112.8892593383789 71.50543975830078 122.81257629394531 70.3318862915039 123.08063507080078" fill="none" stroke="rgb(0, 0, 0)" stroke-linecap="round" stroke-linejoin="round" stroke-opacity="1.0" stroke-width="3.0"/>
    <path d="M 150.4701385498047 148.76002502441406 C 178.7748260498047 156.56663513183594 95.86759948730469 136.92376708984375 128.98500061035156 100.13568878173828" fill="none" stroke="rgb(0, 0, 0)" stroke-linecap="round" stroke-linejoin="round" stroke-opacity="1.0" stroke-width="3.0"/>
    <path d="M 77.15106964111328 151.43910217285156 C 74.29822540283203 161.74050903320312 77.35975646972656 42.526573181152344 75.8736343383789 114.25066375732422" fill="none" stroke="rgb(0, 0, 0)" stroke-linecap="round" stroke-linejoin="round" stroke-opacity="1.0" stroke-width="3.0"/>
    <path d="M 132.61859130859375 136.75450134277344 C 174.6787109375 148.54116821289062 164.48675537109375 89.79610443115234 131.65017700195312 104.148193359375" fill="none" stroke="rgb(0, 0, 0)" stroke-linecap="round" stroke-linejoin="round" stroke-opacity="1.0" stroke-width="3.0"/>
    <path d="M 68.22286224365234 119.53134155273438 C 74.3533706665039 75.97789764404297 62.4357795715332 89.07979583740234 105.78929138183594 83.374267578125" fill="none" stroke="rgb(0, 0, 0)" stroke-linecap="round" stroke-linejoin="round" stroke-opacity="1.0" stroke-width="3.0"/>
    <path d="M 145.64674377441406 86.50845336914062 C 78.79308319091797 90.3519287109375 51.401092529296875 84.60016632080078 174.80259704589844 91.8497543334961" fill="none" stroke="rgb(0, 0, 0)" stroke-linecap="round" stroke-linejoin="round" stroke-opacity="1.0" stroke-width="3.0"/>
    <path d="M 159.04518127441406 90.97734069824219 C 205.6232147216797 86.83399200439453 84.11792755126953 89.02515411376953 141.4224853515625 93.91595458984375" fill="none" stroke="rgb(0, 0, 0)" stroke-linecap="round" stroke-linejoin="round" stroke-opacity="1.0" stroke-width="3.0"/>
    <path d="M 131.74342346191406 147.50877380371094 C 134.17181396484375 154.0618133544922 179.6178436279297 149.9822235107422 131.98521423339844 151.3087921142578" fill="none" stroke="rgb(0, 0, 0)" stroke-linecap="round" stroke-linejoin="round" stroke-opacity="1.0" stroke-width="3.0"/>
    <path d="M 133.9233856201172 98.5860824584961 C 185.5666961669922 86.46693420410156 174.3313446044922 148.2404022216797 148.03265380859375 146.67996215820312" fill="none" stroke="rgb(0, 0, 0)" stroke-linecap="round" stroke-linejoin="round" stroke-opacity="1.0" stroke-width="3.0"/>
    <path d="M 133.29759216308594 150.62696838378906 C 148.87542724609375 146.22337341308594 156.87173461914062 151.9737091064453 173.336181640625 146.29466247558594" fill="none" stroke="rgb(0, 0, 0)" stroke-linecap="round" stroke-linejoin="round" stroke-opacity="1.0" stroke-width="3.0"/>
    <path d="M 156.26963806152344 101.25454711914062 C 105.53611755371094 56.20941162109375 89.9469223022461 154.4280242919922 139.8777313232422 146.30075073242188" fill="none" stroke="rgb(0, 0, 0)" stroke-linecap="round" stroke-linejoin="round" stroke-opacity="1.0" stroke-width="3.0"/>
    <path d="M 96.95451354980469 151.27853393554688 C 183.19554138183594 152.00694274902344 200.37820434570312 151.7753448486328 85.3418197631836 152.6574249267578" fill="none" stroke="rgb(0, 0, 0)" stroke-linecap="round" stroke-linejoin="round" stroke-opacity="1.0" stroke-width="3.0"/>
  </g>
</svg>
