<?xml version="1.0" ?>
<svg height="224" version="1.1" width="224" xmlns="http://www.w3.org/2000/svg">
  <defs/>
  <g>
    <path d="M 167.1104278564453 111.75375366210938 C 167.85494995117188 157.8337860107422 96.29158782958984 141.48487854003906 152.95217895507812 140.10569763183594" fill="none" stroke="rgb(0, 0, 0)" stroke-linecap="round" stroke-linejoin="round" stroke-opacity="1.0" stroke-width="3.0"/>
    <path d="M 99.67500305175781 89.94547271728516 C 72.9417495727539 89.13798522949219 80.3238296508789 70.98958587646484 78.83677673339844 125.58848571777344" fill="none" stroke="rgb(0, 0, 0)" stroke-linecap="round" stroke-linejoin="round" stroke-opacity="1.0" stroke-width="3.0"/>
    <path d="M 177.6036376953125 134.3924560546875 C 173.1710662841797 70.79751586914062 195.99520874023438 91.99502563476562 110.46147918701172 88.99503326416016" fill="none" stroke="rgb(0, 0, 0)" stroke-linecap="round" stroke-linejoin="round" stroke-opacity="1.0" stroke-width="3.0"/>
    <path d="M 86.35845184326172 90.03937530517578 C 94.30601501464844 91.28890228271484 240.57276916503906 99.38533020019531 136.9436492919922 87.53588104248047" fill="none" stroke="rgb(0, 0, 0)" stroke-linecap="round" stroke-linejoin="round" stroke-opacity="1.0" stroke-width="3.0"/>
    <path d="M 72.93603515625 118.69529724121094 C 73.04035949707031 150.94337463378906 72.60535430908203 152.69732666015625 90.20753479003906 148.3565216064453" fill="none" stroke="rgb(0, 0, 0)" stroke-linecap="round" stroke-linejoin="round" stroke-opacity="1.0" stroke-width="3.0"/>
    <path d="M 143.127685546875 85.6219711303711 C 49.95166015625 89.0911636352539 72.89070129394531 85.17601776123047 164.473876953125 91.86978149414062" fill="none" stroke="rgb(0, 0, 0)" stroke-linecap="round" stroke-linejoin="round" stroke-opacity="1.0" stroke-width="3.0"/>
    <path d="M 103.03099822998047 84.5743408203125 C 64.6465835571289 90.67523193359375 75.73068237304688 76.80171203613281 70.65603637695312 116.99012756347656" fill="none" stroke="rgb(0, 0, 0)" stroke-linecap="round" stroke-linejoin="round" stroke-opacity="1.0" stroke-width="3.0"/>
    <path d="M 131.58871459960938 95.03453826904297 C 103.01593017578125 113.98587799072266 126.4612808227539 145.1927032470703 144.60630798339844 140.76318359375" fill="none" stroke="rgb(0, 0, 0)" stroke-linecap="round" stroke-linejoin="round" stroke-opacity="1.0" stroke-width="3.0"/>
    <path d="M 162.84405517578125 91.73418426513672 C 202.2305145263672 94.03834533691406 98.07005310058594 66.99043273925781 115.51375579833984 121.04459381103516" fill="none" stroke="rgb(0, 0, 0)" stroke-linecap="round" stroke-linejoin="round" stroke-opacity="1.0" stroke-width="3.0"/>
    <path d="M 136.4182586669922 140.33468627929688 C 139.0188751220703 146.3064727783203 110.73004150390625 142.6349334716797 112.01578521728516 110.904541015625" fill="none" stroke="rgb(0, 0, 0)" stroke-linecap="round" stroke-linejoin="round" stroke-opacity="1.0" stroke-width="3.0"/>
    <path d="M 108.4015121459961 112.0874252319336 C 116.83068084716797 165.23121643066406 90.0364990234375 90.58597564697266 124.42267608642578 151.04676818847656" fill="none" stroke="rgb(0, 0, 0)" stroke-linecap="round" stroke-linejoin="round" stroke-opacity="1.0" stroke-width="3.0"/>
    <path d="M 77.41238403320312 149.26414489746094 C 184.37957763671875 143.69662475585938 176.55838012695312 162.4215087890625 177.9738311767578 130.70761108398438" fill="none" stroke="rgb(0, 0, 0)" stroke-linecap="round" stroke-linejoin="round" stroke-opacity="1.0" stroke-width="3.0"/>
    <path d="M 108.77796173095703 88.48827362060547 C 102.45267486572266 70.51636505126953 89.74871063232422 98.52392578125 95.38700866699219 89.7644271850586" fill="none" stroke="rgb(0, 0, 0)" stroke-linecap="round" stroke-linejoin="round" stroke-opacity="1.0" stroke-width="3.0"/>
    <path d="M 164.69970703125 125.2815170288086 C 163.90835571289062 127.81494903564453 186.78884887695312 90.74203491210938 118.32372283935547 87.20760345458984" fill="none" stroke="rgb(0, 0, 0)" stroke-linecap="round" stroke-linejoin="round" stroke-opacity="1.0" stroke-width="3.0"/>
    <path d="M 111.64897918701172 149.34950256347656 C 86.25630950927734 148.77191162109375 75.33545684814453 156.07644653320312 74.7769546508789 148.67376708984375" fill="none" stroke="rgb(0, 0, 0)" stroke-linecap="round" stroke-linejoin="round" stroke-opacity="1.0" stroke-width="3.0"/>
    <path d="M 172.51614379882812 151.78659057617188 C 71.12804412841797 154.38075256347656 29.71795082092285 149.4029998779297 157.12022399902344 149.64601135253906" fill="none" stroke="rgb(0, 0, 0)" stroke-linecap="round" stroke-linejoin="round" stroke-opacity="1.0" stroke-width="3.0"/>
  </g>
</svg>
