<?xml version="1.0" ?>
<svg height="224" version="1.1" width="224" xmlns="http://www.w3.org/2000/svg">
  <defs/>
  <g>
    <path d="M 66.0604248046875 141.27120971679688 C 65.06712341308594 77.49819946289062 70.35637664794922 78.90286254882812 69.9100341796875 129.82179260253906" fill="none" stroke="rgb(0, 0, 0)" stroke-linecap="round" stroke-linejoin="round" stroke-opacity="1.0" stroke-width="3.0"/>
    <path d="M 106.42595672607422 99.90770721435547 C 153.79803466796875 107.50828552246094 147.73777770996094 94.36241149902344 74.56472778320312 103.5665512084961" fill="none" stroke="rgb(0, 0, 0)" stroke-linecap="round" stroke-linejoin="round" stroke-opacity="1.0" stroke-width="3.0"/>
    <path d="M 127.31891632080078 108.90785217285156 C 141.78282165527344 101.63285064697266 165.99337768554688 99.99598693847656 159.02407836914062 128.04380798339844" fill="none" stroke="rgb(0, 0, 0)" stroke-linecap="round" stroke-linejoin="round" stroke-opacity="1.0" stroke-width="3.0"/>
    <path d="M 128.2387237548828 105.29244232177734 C 159.25221252441406 105.87211608886719 123.17965698242188 106.28680419921875 132.85731506347656 135.34796142578125" fill="none" stroke="rgb(0, 0, 0)" stroke-linecap="round" stroke-linejoin="round" stroke-opacity="1.0" stroke-width="3.0"/>
    <path d="M 129.8217315673828 134.18601989746094 C 117.3727035522461 80.56782531738281 133.06394958496094 98.09355163574219 124.86072540283203 133.4384307861328" fill="none" stroke="rgb(0, 0, 0)" stroke-linecap="round" stroke-linejoin="round" stroke-opacity="1.0" stroke-width="3.0"/>
    <path d="M 122.06065368652344 101.85647583007812 C 135.16249084472656 98.298828125 132.44842529296875 108.45799255371094 129.39683532714844 101.8625259399414" fill="none" stroke="rgb(0, 0, 0)" stroke-linecap="round" stroke-linejoin="round" stroke-opacity="1.0" stroke-width="3.0"/>
    <path d="M 122.06218719482422 102.00269317626953 C 110.39623260498047 105.0135269165039 122.07034301757812 100.73644256591797 127.55681610107422 109.81871795654297" fill="none" stroke="rgb(0, 0, 0)" stroke-linecap="round" stroke-linejoin="round" stroke-opacity="1.0" stroke-width="3.0"/>
    <path d="M 118.2460708618164 103.15824127197266 C 138.12899780273438 128.31356811523438 118.9533462524414 104.16401672363281 148.7323455810547 106.21524047851562" fill="none" stroke="rgb(0, 0, 0)" stroke-linecap="round" stroke-linejoin="round" stroke-opacity="1.0" stroke-width="3.0"/>
    <path d="M 119.71212005615234 133.57872009277344 C 124.56188201904297 113.07795715332031 113.73439025878906 96.02754974365234 94.10073852539062 95.66577911376953" fill="none" stroke="rgb(0, 0, 0)" stroke-linecap="round" stroke-linejoin="round" stroke-opacity="1.0" stroke-width="3.0"/>
    <path d="M 75.8033676147461 142.35433959960938 C 71.35891723632812 141.62843322753906 67.07515716552734 140.6527099609375 73.31051635742188 142.57455444335938" fill="none" stroke="rgb(0, 0, 0)" stroke-linecap="round" stroke-linejoin="round" stroke-opacity="1.0" stroke-width="3.0"/>
    <path d="M 128.63043212890625 106.36988067626953 C 113.86327362060547 88.26863861083984 133.14996337890625 92.94590759277344 101.16280364990234 92.14664459228516" fill="none" stroke="rgb(0, 0, 0)" stroke-linecap="round" stroke-linejoin="round" stroke-opacity="1.0" stroke-width="3.0"/>
    <path d="M 121.94107818603516 104.69291687011719 C 143.97178649902344 110.61031341552734 123.72396850585938 98.42790985107422 126.4317398071289 133.87074279785156" fill="none" stroke="rgb(0, 0, 0)" stroke-linecap="round" stroke-linejoin="round" stroke-opacity="1.0" stroke-width="3.0"/>
    <path d="M 158.6431427001953 125.87925720214844 C 147.62867736816406 154.11929321289062 116.72015380859375 122.58737182617188 144.28070068359375 107.36962127685547" fill="none" stroke="rgb(0, 0, 0)" stroke-linecap="round" stroke-linejoin="round" stroke-opacity="1.0" stroke-width="3.0"/>
    <path d="M 93.6538314819336 95.55974578857422 C 97.83719635009766 83.64928436279297 64.26980590820312 93.24095153808594 74.06454467773438 90.59710693359375" fill="none" stroke="rgb(0, 0, 0)" stroke-linecap="round" stroke-linejoin="round" stroke-opacity="1.0" stroke-width="3.0"/>
    <path d="M 114.25147247314453 131.4178924560547 C 114.26980590820312 127.09465026855469 89.59947967529297 141.1245574951172 71.53582763671875 141.20977783203125" fill="none" stroke="rgb(0, 0, 0)" stroke-linecap="round" stroke-linejoin="round" stroke-opacity="1.0" stroke-width="3.0"/>
    <path d="M 72.23270416259766 142.2427215576172 C 67.6352310180664 142.6880340576172 70.82665252685547 143.100830078125 69.76226043701172 129.38525390625" fill="none" stroke="rgb(0, 0, 0)" stroke-linecap="round" stroke-linejoin="round" stroke-opacity="1.0" stroke-width="3.0"/>
  </g>
</svg>
