<?xml version="1.0" ?>
<svg height="224" version="1.1" width="224" xmlns="http://www.w3.org/2000/svg">
  <defs/>
  <g>
    <path d="M 104.98929595947266 122.70413970947266 C 127.52289581298828 142.64862060546875 78.52854919433594 113.95440673828125 121.05958557128906 128.8528594970703" fill="none" stroke="rgb(0, 0, 0)" stroke-linecap="round" stroke-linejoin="round" stroke-opacity="1.0" stroke-width="3.0"/>
    <path d="M 140.11868286132812 114.1357650756836 C 138.65728759765625 71.18130493164062 137.40231323242188 104.95732879638672 115.50526428222656 76.9234390258789" fill="none" stroke="rgb(0, 0, 0)" stroke-linecap="round" stroke-linejoin="round" stroke-opacity="1.0" stroke-width="3.0"/>
    <path d="M 83.1881332397461 128.2698211669922 C 84.71611022949219 55.843238830566406 69.89738464355469 77.5942611694336 118.28995513916016 76.08222961425781" fill="none" stroke="rgb(0, 0, 0)" stroke-linecap="round" stroke-linejoin="round" stroke-opacity="1.0" stroke-width="3.0"/>
    <path d="M 115.89486694335938 80.28734588623047 C 137.9341278076172 86.96180725097656 116.84618377685547 124.19669342041016 131.3731689453125 120.93824768066406" fill="none" stroke="rgb(0, 0, 0)" stroke-linecap="round" stroke-linejoin="round" stroke-opacity="1.0" stroke-width="3.0"/>
    <path d="M 125.55269622802734 139.2538299560547 C 111.57752990722656 69.43870544433594 135.57064819335938 81.94428253173828 129.79598999023438 121.3698959350586" fill="none" stroke="rgb(0, 0, 0)" stroke-linecap="round" stroke-linejoin="round" stroke-opacity="1.0" stroke-width="3.0"/>
    <path d="M 90.06876373291016 126.75992584228516 C 124.94535064697266 108.2854995727539 126.24736022949219 114.12012481689453 92.98030853271484 127.23724365234375" fill="none" stroke="rgb(0, 0, 0)" stroke-linecap="round" stroke-linejoin="round" stroke-opacity="1.0" stroke-width="3.0"/>
    <path d="M 115.97449493408203 140.14520263671875 C 127.53240966796875 75.95816040039062 89.14087677001953 67.82405853271484 121.50816345214844 98.70689392089844" fill="none" stroke="rgb(0, 0, 0)" stroke-linecap="round" stroke-linejoin="round" stroke-opacity="1.0" stroke-width="3.0"/>
    <path d="M 135.30105590820312 136.11062622070312 C 91.1751708984375 150.98123168945312 85.0381088256836 147.4445343017578 104.20429229736328 148.20350646972656" fill="none" stroke="rgb(0, 0, 0)" stroke-linecap="round" stroke-linejoin="round" stroke-opacity="1.0" stroke-width="3.0"/>
    <path d="M 90.95658874511719 147.7578887939453 C 80.35595703125 107.14825439453125 87.48158264160156 128.46424865722656 83.71807861328125 112.44058227539062" fill="none" stroke="rgb(0, 0, 0)" stroke-linecap="round" stroke-linejoin="round" stroke-opacity="1.0" stroke-width="3.0"/>
    <path d="M 83.52735900878906 105.0908203125 C 86.46780395507812 124.39764404296875 72.33340454101562 117.79512786865234 116.41004180908203 124.3617935180664" fill="none" stroke="rgb(0, 0, 0)" stroke-linecap="round" stroke-linejoin="round" stroke-opacity="1.0" stroke-width="3.0"/>
    <path d="M 101.40511322021484 73.17403411865234 C 95.7492446899414 76.4150619506836 84.9596176147461 42.73689270019531 89.52469635009766 128.04434204101562" fill="none" stroke="rgb(0, 0, 0)" stroke-linecap="round" stroke-linejoin="round" stroke-opacity="1.0" stroke-width="3.0"/>
    <path d="M 109.5273666381836 73.47942352294922 C 122.67727661132812 165.6912841796875 116.87660217285156 150.17677307128906 125.8008041381836 93.94822692871094" fill="none" stroke="rgb(0, 0, 0)" stroke-linecap="round" stroke-linejoin="round" stroke-opacity="1.0" stroke-width="3.0"/>
    <path d="M 116.44143676757812 135.9191436767578 C 148.1252899169922 149.2908172607422 128.14013671875 110.1846694946289 135.91258239746094 111.66986846923828" fill="none" stroke="rgb(0, 0, 0)" stroke-linecap="round" stroke-linejoin="round" stroke-opacity="1.0" stroke-width="3.0"/>
    <path d="M 112.1788101196289 110.447021484375 C 100.15229797363281 133.4247589111328 55.59801483154297 118.275634765625 117.3928451538086 121.75080108642578" fill="none" stroke="rgb(0, 0, 0)" stroke-linecap="round" stroke-linejoin="round" stroke-opacity="1.0" stroke-width="3.0"/>
    <path d="M 94.4063720703125 68.9727554321289 C 152.00909423828125 83.92133331298828 50.341434478759766 76.2706527709961 96.50814819335938 72.90147399902344" fill="none" stroke="rgb(0, 0, 0)" stroke-linecap="round" stroke-linejoin="round" stroke-opacity="1.0" stroke-width="3.0"/>
    <path d="M 113.21456909179688 140.42840576171875 C 109.26313018798828 50.579715728759766 122.47140502929688 55.01166915893555 124.99365234375 139.89959716796875" fill="none" stroke="rgb(0, 0, 0)" stroke-linecap="round" stroke-linejoin="round" stroke-opacity="1.0" stroke-width="3.0"/>
  </g>
</svg>
