<?xml version="1.0" ?>
<svg height="224" version="1.1" width="224" xmlns="http://www.w3.org/2000/svg">
  <defs/>
  <g>
    <path d="M 94.86077117919922 151.72720336914062 C 76.9292221069336 152.23080444335938 80.26448059082031 158.25875854492188 106.64246368408203 161.86697387695312" fill="none" stroke="rgb(0, 0, 0)" stroke-linecap="round" stroke-linejoin="round" stroke-opacity="1.0" stroke-width="3.0"/>
    <path d="M 93.69001770019531 157.78875732421875 C 104.37541198730469 61.61100387573242 113.35652923583984 102.11766815185547 107.34772491455078 158.02874755859375" fill="none" stroke="rgb(0, 0, 0)" stroke-linecap="round" stroke-linejoin="round" stroke-opacity="1.0" stroke-width="3.0"/>
    <path d="M 83.3530044555664 99.0077133178711 C 82.41986846923828 181.56265258789062 78.6888656616211 157.54563903808594 97.02529907226562 131.4443359375" fill="none" stroke="rgb(0, 0, 0)" stroke-linecap="round" stroke-linejoin="round" stroke-opacity="1.0" stroke-width="3.0"/>
    <path d="M 122.75999450683594 102.53170013427734 C 131.1676025390625 100.78838348388672 136.4047088623047 133.41090393066406 127.92656707763672 145.47799682617188" fill="none" stroke="rgb(0, 0, 0)" stroke-linecap="round" stroke-linejoin="round" stroke-opacity="1.0" stroke-width="3.0"/>
    <path d="M 89.99515533447266 150.09844970703125 C 112.72940826416016 124.2628173828125 98.6671142578125 157.81036376953125 100.61772155761719 104.51434326171875" fill="none" stroke="rgb(0, 0, 0)" stroke-linecap="round" stroke-linejoin="round" stroke-opacity="1.0" stroke-width="3.0"/>
    <path d="M 107.29146575927734 116.53553771972656 C 84.07882690429688 129.1889190673828 86.46627044677734 136.8436737060547 106.40839385986328 128.32464599609375" fill="none" stroke="rgb(0, 0, 0)" stroke-linecap="round" stroke-linejoin="round" stroke-opacity="1.0" stroke-width="3.0"/>
    <path d="M 86.52922058105469 126.31085968017578 C 95.96097564697266 159.16976928710938 75.26023864746094 166.15638732910156 103.83908081054688 130.85821533203125" fill="none" stroke="rgb(0, 0, 0)" stroke-linecap="round" stroke-linejoin="round" stroke-opacity="1.0" stroke-width="3.0"/>
    <path d="M 113.69419860839844 111.10557556152344 C 116.2091064453125 173.62709045410156 104.86659240722656 144.56883239746094 125.47859954833984 145.02976989746094" fill="none" stroke="rgb(0, 0, 0)" stroke-linecap="round" stroke-linejoin="round" stroke-opacity="1.0" stroke-width="3.0"/>
    <path d="M 104.18553161621094 105.60069274902344 C 133.63926696777344 93.455810546875 110.90385437011719 113.30423736572266 96.70541381835938 104.64812469482422" fill="none" stroke="rgb(0, 0, 0)" stroke-linecap="round" stroke-linejoin="round" stroke-opacity="1.0" stroke-width="3.0"/>
    <path d="M 85.48485565185547 150.28123474121094 C 87.19892120361328 81.86564636230469 78.6369400024414 91.73190307617188 110.04496765136719 123.37352752685547" fill="none" stroke="rgb(0, 0, 0)" stroke-linecap="round" stroke-linejoin="round" stroke-opacity="1.0" stroke-width="3.0"/>
    <path d="M 109.37081909179688 129.99942016601562 C 93.53348541259766 132.24819946289062 99.04508972167969 69.15044403076172 90.9881362915039 120.18334197998047" fill="none" stroke="rgb(0, 0, 0)" stroke-linecap="round" stroke-linejoin="round" stroke-opacity="1.0" stroke-width="3.0"/>
    <path d="M 91.293212890625 104.84297180175781 C 96.93834686279297 159.95909118652344 88.839111328125 147.3623809814453 89.20701599121094 110.12223052978516" fill="none" stroke="rgb(0, 0, 0)" stroke-linecap="round" stroke-linejoin="round" stroke-opacity="1.0" stroke-width="3.0"/>
    <path d="M 104.83877563476562 94.40708923339844 C 69.10259246826172 101.70560455322266 96.68156433105469 95.60002136230469 93.1272964477539 97.54885864257812" fill="none" stroke="rgb(0, 0, 0)" stroke-linecap="round" stroke-linejoin="round" stroke-opacity="1.0" stroke-width="3.0"/>
    <path d="M 94.26532745361328 108.46949768066406 C 95.16728210449219 178.8544464111328 81.85126495361328 160.7126922607422 82.56413269042969 122.82534790039062" fill="none" stroke="rgb(0, 0, 0)" stroke-linecap="round" stroke-linejoin="round" stroke-opacity="1.0" stroke-width="3.0"/>
    <path d="M 87.34304809570312 102.59793853759766 C 89.64292907714844 177.48013305664062 108.2983169555664 143.6499481201172 101.14025115966797 107.67415618896484" fill="none" stroke="rgb(0, 0, 0)" stroke-linecap="round" stroke-linejoin="round" stroke-opacity="1.0" stroke-width="3.0"/>
    <path d="M 125.00418853759766 107.67161560058594 C 77.5750961303711 110.14714813232422 144.30691528320312 117.80123901367188 106.6182632446289 98.65159606933594" fill="none" stroke="rgb(0, 0, 0)" stroke-linecap="round" stroke-linejoin="round" stroke-opacity="1.0" stroke-width="3.0"/>
  </g>
</svg>
