<?xml version="1.0" ?>
<svg height="224" version="1.1" width="224" xmlns="http://www.w3.org/2000/svg">
  <defs/>
  <g>
    <path d="M 69.08452606201172 144.6687774658203 C 109.39370727539062 135.9022979736328 96.03934478759766 145.02227783203125 110.37247467041016 130.05471801757812" fill="none" stroke="rgb(0, 0, 0)" stroke-linecap="round" stroke-linejoin="round" stroke-opacity="1.0" stroke-width="3.0"/>
    <path d="M 156.19090270996094 130.0150146484375 C 34.120201110839844 113.73420715332031 47.5360107421875 113.18635559082031 121.12948608398438 120.8088607788086" fill="none" stroke="rgb(0, 0, 0)" stroke-linecap="round" stroke-linejoin="round" stroke-opacity="1.0" stroke-width="3.0"/>
    <path d="M 107.78401947021484 129.41946411132812 C 114.8031005859375 132.59544372558594 -2.928138017654419 118.66521453857422 124.3257064819336 130.3648223876953" fill="none" stroke="rgb(0, 0, 0)" stroke-linecap="round" stroke-linejoin="round" stroke-opacity="1.0" stroke-width="3.0"/>
    <path d="M 152.85174560546875 90.57391357421875 C 104.5963134765625 76.67083740234375 151.14859008789062 124.74220275878906 133.71206665039062 89.37789916992188" fill="none" stroke="rgb(0, 0, 0)" stroke-linecap="round" stroke-linejoin="round" stroke-opacity="1.0" stroke-width="3.0"/>
    <path d="M 128.77516174316406 85.16767120361328 C 198.57920837402344 90.4259262084961 147.1963653564453 89.26563262939453 162.21018981933594 121.01121520996094" fill="none" stroke="rgb(0, 0, 0)" stroke-linecap="round" stroke-linejoin="round" stroke-opacity="1.0" stroke-width="3.0"/>
    <path d="M 122.13721466064453 94.66400146484375 C 120.21919250488281 107.37962341308594 121.84717559814453 50.61067199707031 120.13896179199219 114.45384216308594" fill="none" stroke="rgb(0, 0, 0)" stroke-linecap="round" stroke-linejoin="round" stroke-opacity="1.0" stroke-width="3.0"/>
    <path d="M 65.1550064086914 128.18057250976562 C 153.17820739746094 132.61920166015625 125.6984634399414 136.18899536132812 95.11915588378906 138.89920043945312" fill="none" stroke="rgb(0, 0, 0)" stroke-linecap="round" stroke-linejoin="round" stroke-opacity="1.0" stroke-width="3.0"/>
    <path d="M 64.61923217773438 102.00599670410156 C 64.79066467285156 61.594764709472656 64.57344818115234 79.61558532714844 64.95466613769531 101.96365356445312" fill="none" stroke="rgb(0, 0, 0)" stroke-linecap="round" stroke-linejoin="round" stroke-opacity="1.0" stroke-width="3.0"/>
    <path d="M 72.04180908203125 135.3465118408203 C 169.03988647460938 128.51846313476562 145.13272094726562 127.47542572021484 67.84374237060547 140.9278564453125" fill="none" stroke="rgb(0, 0, 0)" stroke-linecap="round" stroke-linejoin="round" stroke-opacity="1.0" stroke-width="3.0"/>
    <path d="M 64.19894409179688 85.99315643310547 C 63.32550811767578 165.7075958251953 60.642852783203125 144.6741943359375 100.62075805664062 139.01321411132812" fill="none" stroke="rgb(0, 0, 0)" stroke-linecap="round" stroke-linejoin="round" stroke-opacity="1.0" stroke-width="3.0"/>
    <path d="M 159.53395080566406 128.40049743652344 C 164.6787567138672 121.6872787475586 164.08859252929688 29.37021255493164 164.90750122070312 135.18960571289062" fill="none" stroke="rgb(0, 0, 0)" stroke-linecap="round" stroke-linejoin="round" stroke-opacity="1.0" stroke-width="3.0"/>
    <path d="M 91.00901794433594 137.77523803710938 C 58.83278274536133 115.10844421386719 96.48731231689453 133.5988006591797 93.4335708618164 125.6124496459961" fill="none" stroke="rgb(0, 0, 0)" stroke-linecap="round" stroke-linejoin="round" stroke-opacity="1.0" stroke-width="3.0"/>
    <path d="M 159.40628051757812 110.2289047241211 C 135.56988525390625 71.44197845458984 189.39309692382812 106.56749725341797 143.65406799316406 101.73055267333984" fill="none" stroke="rgb(0, 0, 0)" stroke-linecap="round" stroke-linejoin="round" stroke-opacity="1.0" stroke-width="3.0"/>
    <path d="M 64.32840728759766 142.85000610351562 C 66.41079711914062 78.86430358886719 64.4095458984375 53.82478713989258 64.62106323242188 98.76687622070312" fill="none" stroke="rgb(0, 0, 0)" stroke-linecap="round" stroke-linejoin="round" stroke-opacity="1.0" stroke-width="3.0"/>
    <path d="M 169.7932586669922 135.7225341796875 C 171.64381408691406 55.350345611572266 171.39149475097656 83.32689666748047 170.17909240722656 114.66470336914062" fill="none" stroke="rgb(0, 0, 0)" stroke-linecap="round" stroke-linejoin="round" stroke-opacity="1.0" stroke-width="3.0"/>
    <path d="M 65.27074432373047 132.90594482421875 C 112.2130126953125 134.40286254882812 195.8849639892578 120.0322265625 66.37201690673828 138.57147216796875" fill="none" stroke="rgb(0, 0, 0)" stroke-linecap="round" stroke-linejoin="round" stroke-opacity="1.0" stroke-width="3.0"/>
  </g>
</svg>
