<?xml version="1.0" ?>
<svg height="224" version="1.1" width="224" xmlns="http://www.w3.org/2000/svg">
  <defs/>
  <g>
    <path d="M 121.63683319091797 88.51217651367188 C 80.03014373779297 85.39981079101562 105.00469207763672 81.99455261230469 106.67095184326172 99.38339233398438" fill="none" stroke="rgb(0, 0, 0)" stroke-linecap="round" stroke-linejoin="round" stroke-opacity="1.0" stroke-width="3.0"/>
    <path d="M 121.4628677368164 146.1310272216797 C 118.8674545288086 146.08609008789062 105.29643249511719 140.59628295898438 152.59483337402344 155.4729461669922" fill="none" stroke="rgb(0, 0, 0)" stroke-linecap="round" stroke-linejoin="round" stroke-opacity="1.0" stroke-width="3.0"/>
    <path d="M 120.91110229492188 126.51821899414062 C 64.87236022949219 126.53787231445312 135.4068603515625 136.09913635253906 139.85205078125 125.72394561767578" fill="none" stroke="rgb(0, 0, 0)" stroke-linecap="round" stroke-linejoin="round" stroke-opacity="1.0" stroke-width="3.0"/>
    <path d="M 80.99310302734375 119.01464080810547 C 59.77333450317383 160.83453369140625 69.70394897460938 148.4138641357422 67.61113739013672 150.21389770507812" fill="none" stroke="rgb(0, 0, 0)" stroke-linecap="round" stroke-linejoin="round" stroke-opacity="1.0" stroke-width="3.0"/>
    <path d="M 146.04302978515625 154.995361328125 C 87.1443862915039 158.27908325195312 129.01461791992188 165.08973693847656 79.04753875732422 146.05645751953125" fill="none" stroke="rgb(0, 0, 0)" stroke-linecap="round" stroke-linejoin="round" stroke-opacity="1.0" stroke-width="3.0"/>
    <path d="M 103.08080291748047 121.90682220458984 C 83.96856689453125 151.98866271972656 79.92891693115234 89.72833251953125 93.8502197265625 86.77397918701172" fill="none" stroke="rgb(0, 0, 0)" stroke-linecap="round" stroke-linejoin="round" stroke-opacity="1.0" stroke-width="3.0"/>
    <path d="M 146.1799774169922 122.44792938232422 C 124.2628173828125 130.81301879882812 118.03900909423828 112.8238296508789 115.75794219970703 143.0241241455078" fill="none" stroke="rgb(0, 0, 0)" stroke-linecap="round" stroke-linejoin="round" stroke-opacity="1.0" stroke-width="3.0"/>
    <path d="M 129.06890869140625 89.01905822753906 C 120.0599365234375 103.1067886352539 109.8019790649414 79.09259033203125 139.11904907226562 91.56120300292969" fill="none" stroke="rgb(0, 0, 0)" stroke-linecap="round" stroke-linejoin="round" stroke-opacity="1.0" stroke-width="3.0"/>
    <path d="M 101.06974792480469 121.81983947753906 C 156.94508361816406 120.65692138671875 158.57106018066406 125.466064453125 93.95086669921875 131.45904541015625" fill="none" stroke="rgb(0, 0, 0)" stroke-linecap="round" stroke-linejoin="round" stroke-opacity="1.0" stroke-width="3.0"/>
    <path d="M 91.31248474121094 87.6773910522461 C 99.99575805664062 85.90636444091797 108.76202392578125 115.29830169677734 95.42179870605469 129.98985290527344" fill="none" stroke="rgb(0, 0, 0)" stroke-linecap="round" stroke-linejoin="round" stroke-opacity="1.0" stroke-width="3.0"/>
    <path d="M 129.0908966064453 125.18017578125 C 83.71712493896484 125.97356414794922 110.33747100830078 127.91060638427734 100.02046203613281 128.54983520507812" fill="none" stroke="rgb(0, 0, 0)" stroke-linecap="round" stroke-linejoin="round" stroke-opacity="1.0" stroke-width="3.0"/>
    <path d="M 109.30693054199219 166.58619689941406 C 60.82209014892578 137.17156982421875 82.74735260009766 167.21726989746094 83.85047912597656 100.39736938476562" fill="none" stroke="rgb(0, 0, 0)" stroke-linecap="round" stroke-linejoin="round" stroke-opacity="1.0" stroke-width="3.0"/>
    <path d="M 124.3543472290039 94.06623840332031 C 151.44332885742188 92.79866027832031 128.633056640625 119.9114761352539 121.8527603149414 92.92924499511719" fill="none" stroke="rgb(0, 0, 0)" stroke-linecap="round" stroke-linejoin="round" stroke-opacity="1.0" stroke-width="3.0"/>
    <path d="M 134.02220153808594 89.80400848388672 C 157.39398193359375 85.03797912597656 155.91354370117188 139.974609375 129.98414611816406 125.22503662109375" fill="none" stroke="rgb(0, 0, 0)" stroke-linecap="round" stroke-linejoin="round" stroke-opacity="1.0" stroke-width="3.0"/>
    <path d="M 105.35106658935547 163.66928100585938 C 111.50080108642578 166.80648803710938 99.9984359741211 169.8768768310547 152.4540252685547 158.8081512451172" fill="none" stroke="rgb(0, 0, 0)" stroke-linecap="round" stroke-linejoin="round" stroke-opacity="1.0" stroke-width="3.0"/>
    <path d="M 116.08541107177734 126.32183074951172 C 169.9680633544922 134.9755096435547 138.31251525878906 66.97418975830078 123.40279388427734 97.2479248046875" fill="none" stroke="rgb(0, 0, 0)" stroke-linecap="round" stroke-linejoin="round" stroke-opacity="1.0" stroke-width="3.0"/>
  </g>
</svg>
