<?xml version="1.0" ?>
<svg height="224" version="1.1" width="224" xmlns="http://www.w3.org/2000/svg">
  <defs/>
  <g>
    <path d="M 111.38540649414062 113.69786834716797 C 120.5665283203125 119.8517837524414 178.33511352539062 124.78521728515625 114.95100402832031 113.26094055175781" fill="none" stroke="rgb(0, 0, 0)" stroke-linecap="round" stroke-linejoin="round" stroke-opacity="1.0" stroke-width="3.0"/>
    <path d="M 135.05950927734375 123.2763900756836 C 136.38687133789062 113.83308410644531 109.70347595214844 142.5778045654297 101.26911926269531 147.6275177001953" fill="none" stroke="rgb(0, 0, 0)" stroke-linecap="round" stroke-linejoin="round" stroke-opacity="1.0" stroke-width="3.0"/>
    <path d="M 119.91649627685547 113.41361236572266 C 128.79783630371094 133.63381958007812 104.15779113769531 114.29825592041016 119.0648422241211 130.49057006835938" fill="none" stroke="rgb(0, 0, 0)" stroke-linecap="round" stroke-linejoin="round" stroke-opacity="1.0" stroke-width="3.0"/>
    <path d="M 85.78137969970703 145.15167236328125 C 88.2708969116211 80.93309783935547 75.3043441772461 97.0588150024414 100.72676086425781 94.43584442138672" fill="none" stroke="rgb(0, 0, 0)" stroke-linecap="round" stroke-linejoin="round" stroke-opacity="1.0" stroke-width="3.0"/>
    <path d="M 105.68978118896484 98.98174285888672 C 117.6209945678711 99.10336303710938 82.61451721191406 89.50164031982422 125.1290054321289 102.84168243408203" fill="none" stroke="rgb(0, 0, 0)" stroke-linecap="round" stroke-linejoin="round" stroke-opacity="1.0" stroke-width="3.0"/>
    <path d="M 115.25214385986328 115.0013656616211 C 146.23516845703125 114.78241729736328 68.7054672241211 119.1009750366211 142.49346923828125 114.8041763305664" fill="none" stroke="rgb(0, 0, 0)" stroke-linecap="round" stroke-linejoin="round" stroke-opacity="1.0" stroke-width="3.0"/>
    <path d="M 110.3228988647461 109.68181610107422 C 113.09923553466797 158.50534057617188 117.83299255371094 127.71315002441406 120.9739761352539 113.18936157226562" fill="none" stroke="rgb(0, 0, 0)" stroke-linecap="round" stroke-linejoin="round" stroke-opacity="1.0" stroke-width="3.0"/>
    <path d="M 110.15343475341797 133.17343139648438 C 105.0262680053711 95.55398559570312 115.34823608398438 86.49950408935547 115.01701354980469 136.53738403320312" fill="none" stroke="rgb(0, 0, 0)" stroke-linecap="round" stroke-linejoin="round" stroke-opacity="1.0" stroke-width="3.0"/>
    <path d="M 113.42611694335938 113.81338500976562 C 101.22245788574219 136.1099395751953 140.0464630126953 151.8044891357422 124.65790557861328 102.16632080078125" fill="none" stroke="rgb(0, 0, 0)" stroke-linecap="round" stroke-linejoin="round" stroke-opacity="1.0" stroke-width="3.0"/>
    <path d="M 91.10653686523438 146.5491180419922 C 90.8260269165039 135.45263671875 79.43912506103516 144.67347717285156 96.7296142578125 148.24786376953125" fill="none" stroke="rgb(0, 0, 0)" stroke-linecap="round" stroke-linejoin="round" stroke-opacity="1.0" stroke-width="3.0"/>
    <path d="M 112.29012298583984 113.38973236083984 C 194.9793243408203 112.34575653076172 95.43602752685547 130.8432159423828 126.51510620117188 127.2278823852539" fill="none" stroke="rgb(0, 0, 0)" stroke-linecap="round" stroke-linejoin="round" stroke-opacity="1.0" stroke-width="3.0"/>
    <path d="M 140.25741577148438 122.72978210449219 C 120.27569580078125 115.6784896850586 118.28191375732422 127.25068664550781 142.4959716796875 123.90748596191406" fill="none" stroke="rgb(0, 0, 0)" stroke-linecap="round" stroke-linejoin="round" stroke-opacity="1.0" stroke-width="3.0"/>
    <path d="M 126.91829681396484 111.62093353271484 C 128.07257080078125 124.82551574707031 127.94680786132812 150.4053497314453 108.8765640258789 108.5916976928711" fill="none" stroke="rgb(0, 0, 0)" stroke-linecap="round" stroke-linejoin="round" stroke-opacity="1.0" stroke-width="3.0"/>
    <path d="M 100.86479187011719 100.230224609375 C 113.11036682128906 182.40859985351562 83.6987075805664 138.36524963378906 86.012939453125 132.50205993652344" fill="none" stroke="rgb(0, 0, 0)" stroke-linecap="round" stroke-linejoin="round" stroke-opacity="1.0" stroke-width="3.0"/>
    <path d="M 140.8753204345703 122.74773406982422 C 98.51134490966797 119.71192932128906 130.006591796875 143.56903076171875 125.3952407836914 114.31220245361328" fill="none" stroke="rgb(0, 0, 0)" stroke-linecap="round" stroke-linejoin="round" stroke-opacity="1.0" stroke-width="3.0"/>
    <path d="M 140.51307678222656 119.72541046142578 C 148.96865844726562 128.4872589111328 145.77786254882812 96.6347885131836 145.26577758789062 123.03689575195312" fill="none" stroke="rgb(0, 0, 0)" stroke-linecap="round" stroke-linejoin="round" stroke-opacity="1.0" stroke-width="3.0"/>
  </g>
</svg>
