<?xml version="1.0" ?>
<svg height="224" version="1.1" width="224" xmlns="http://www.w3.org/2000/svg">
  <defs/>
  <g>
    <path d="M 102.1923599243164 100.80926513671875 C 53.16447830200195 105.22282409667969 67.51625061035156 82.59407806396484 64.92050170898438 144.34739685058594" fill="none" stroke="rgb(0, 0, 0)" stroke-linecap="round" stroke-linejoin="round" stroke-opacity="1.0" stroke-width="3.0"/>
    <path d="M 139.6879425048828 108.965576171875 C 141.27696228027344 98.33949279785156 105.57373046875 92.3121566772461 115.28658294677734 99.54291534423828" fill="none" stroke="rgb(0, 0, 0)" stroke-linecap="round" stroke-linejoin="round" stroke-opacity="1.0" stroke-width="3.0"/>
    <path d="M 159.0164031982422 103.36376953125 C 154.31617736816406 154.62892150878906 170.4720458984375 141.15377807617188 140.05523681640625 143.03109741210938" fill="none" stroke="rgb(0, 0, 0)" stroke-linecap="round" stroke-linejoin="round" stroke-opacity="1.0" stroke-width="3.0"/>
    <path d="M 122.78823852539062 148.5888671875 C 137.04647827148438 147.02932739257812 135.3899688720703 141.87460327148438 140.8291778564453 142.06761169433594" fill="none" stroke="rgb(0, 0, 0)" stroke-linecap="round" stroke-linejoin="round" stroke-opacity="1.0" stroke-width="3.0"/>
    <path d="M 158.8768310546875 139.37109375 C 158.73464965820312 95.16991424560547 154.45947265625 101.12551879882812 155.47421264648438 99.69317626953125" fill="none" stroke="rgb(0, 0, 0)" stroke-linecap="round" stroke-linejoin="round" stroke-opacity="1.0" stroke-width="3.0"/>
    <path d="M 105.64044952392578 124.24994659423828 C 109.32056427001953 93.8035888671875 152.69363403320312 110.06475830078125 137.40684509277344 138.54689025878906" fill="none" stroke="rgb(0, 0, 0)" stroke-linecap="round" stroke-linejoin="round" stroke-opacity="1.0" stroke-width="3.0"/>
    <path d="M 141.9051971435547 104.89862823486328 C 168.948974609375 103.62934875488281 149.055908203125 111.26799774169922 148.7725067138672 96.27256774902344" fill="none" stroke="rgb(0, 0, 0)" stroke-linecap="round" stroke-linejoin="round" stroke-opacity="1.0" stroke-width="3.0"/>
    <path d="M 64.37149047851562 143.9178009033203 C 125.93740844726562 143.85047912597656 98.20285034179688 142.9747314453125 119.15933227539062 148.43820190429688" fill="none" stroke="rgb(0, 0, 0)" stroke-linecap="round" stroke-linejoin="round" stroke-opacity="1.0" stroke-width="3.0"/>
    <path d="M 87.55049133300781 101.19302368164062 C 125.24474334716797 83.4729232788086 75.935546875 139.37130737304688 122.17451477050781 148.95111083984375" fill="none" stroke="rgb(0, 0, 0)" stroke-linecap="round" stroke-linejoin="round" stroke-opacity="1.0" stroke-width="3.0"/>
    <path d="M 100.90064239501953 132.69874572753906 C 99.72837829589844 141.5001983642578 122.85526275634766 138.6947784423828 66.54546356201172 139.30577087402344" fill="none" stroke="rgb(0, 0, 0)" stroke-linecap="round" stroke-linejoin="round" stroke-opacity="1.0" stroke-width="3.0"/>
    <path d="M 138.26705932617188 136.8562469482422 C 117.49622344970703 160.39987182617188 88.39733123779297 124.92448425292969 118.77963256835938 106.96366119384766" fill="none" stroke="rgb(0, 0, 0)" stroke-linecap="round" stroke-linejoin="round" stroke-opacity="1.0" stroke-width="3.0"/>
    <path d="M 65.59197235107422 142.75509643554688 C 63.166507720947266 139.3583526611328 65.09666442871094 147.41726684570312 64.9703369140625 143.4618377685547" fill="none" stroke="rgb(0, 0, 0)" stroke-linecap="round" stroke-linejoin="round" stroke-opacity="1.0" stroke-width="3.0"/>
    <path d="M 135.23971557617188 97.66575622558594 C 133.646728515625 94.93851470947266 188.94932556152344 100.75851440429688 130.36843872070312 101.60778045654297" fill="none" stroke="rgb(0, 0, 0)" stroke-linecap="round" stroke-linejoin="round" stroke-opacity="1.0" stroke-width="3.0"/>
    <path d="M 113.03878021240234 100.73528289794922 C 121.76274108886719 115.10453033447266 14.143716812133789 103.69461059570312 101.34917449951172 107.9674301147461" fill="none" stroke="rgb(0, 0, 0)" stroke-linecap="round" stroke-linejoin="round" stroke-opacity="1.0" stroke-width="3.0"/>
    <path d="M 63.64595413208008 104.20086669921875 C 65.75145721435547 163.80841064453125 64.26299285888672 136.6029052734375 66.52717590332031 138.59310913085938" fill="none" stroke="rgb(0, 0, 0)" stroke-linecap="round" stroke-linejoin="round" stroke-opacity="1.0" stroke-width="3.0"/>
    <path d="M 87.97210693359375 98.59800720214844 C 154.47219848632812 112.0740737915039 66.6664047241211 97.67843627929688 63.80607223510742 103.52611541748047" fill="none" stroke="rgb(0, 0, 0)" stroke-linecap="round" stroke-linejoin="round" stroke-opacity="1.0" stroke-width="3.0"/>
  </g>
</svg>
