<?xml version="1.0" ?>
<svg height="224" version="1.1" width="224" xmlns="http://www.w3.org/2000/svg">
  <defs/>
  <g>
    <path d="M 126.96578216552734 85.305908203125 C 128.50192260742188 90.66800689697266 108.42521667480469 91.42546844482422 108.19969940185547 85.8144760131836" fill="none" stroke="rgb(0, 0, 0)" stroke-linecap="round" stroke-linejoin="round" stroke-opacity="1.0" stroke-width="3.0"/>
    <path d="M 96.39749908447266 157.0924072265625 C 91.15428161621094 127.96871948242188 87.18017578125 146.4497833251953 109.59614562988281 130.76785278320312" fill="none" stroke="rgb(0, 0, 0)" stroke-linecap="round" stroke-linejoin="round" stroke-opacity="1.0" stroke-width="3.0"/>
    <path d="M 100.65469360351562 42.887969970703125 C 100.00653839111328 72.63279724121094 101.96646881103516 78.16085052490234 103.93463897705078 47.55263137817383" fill="none" stroke="rgb(0, 0, 0)" stroke-linecap="round" stroke-linejoin="round" stroke-opacity="1.0" stroke-width="3.0"/>
    <path d="M 110.34609985351562 106.6294174194336 C 94.37672424316406 95.99343872070312 99.90162658691406 119.4237289428711 99.02882385253906 83.9356689453125" fill="none" stroke="rgb(0, 0, 0)" stroke-linecap="round" stroke-linejoin="round" stroke-opacity="1.0" stroke-width="3.0"/>
    <path d="M 124.4671859741211 88.41380310058594 C 92.28707885742188 98.06059265136719 99.78413391113281 116.61880493164062 98.7613754272461 58.896331787109375" fill="none" stroke="rgb(0, 0, 0)" stroke-linecap="round" stroke-linejoin="round" stroke-opacity="1.0" stroke-width="3.0"/>
    <path d="M 95.58427429199219 143.03939819335938 C 115.09291076660156 134.66607666015625 115.25143432617188 117.76160430908203 115.97759246826172 149.52609252929688" fill="none" stroke="rgb(0, 0, 0)" stroke-linecap="round" stroke-linejoin="round" stroke-opacity="1.0" stroke-width="3.0"/>
    <path d="M 108.02168273925781 142.37332153320312 C 119.07160186767578 130.18495178222656 121.00619506835938 152.46827697753906 117.10162353515625 130.80995178222656" fill="none" stroke="rgb(0, 0, 0)" stroke-linecap="round" stroke-linejoin="round" stroke-opacity="1.0" stroke-width="3.0"/>
    <path d="M 99.38226318359375 138.49647521972656 C 100.96542358398438 159.91380310058594 99.1104736328125 190.92799377441406 98.71610260009766 160.2200164794922" fill="none" stroke="rgb(0, 0, 0)" stroke-linecap="round" stroke-linejoin="round" stroke-opacity="1.0" stroke-width="3.0"/>
    <path d="M 98.97555541992188 104.74574279785156 C 122.62713623046875 114.99775695800781 109.97286224365234 123.30764770507812 115.49469757080078 90.72064971923828" fill="none" stroke="rgb(0, 0, 0)" stroke-linecap="round" stroke-linejoin="round" stroke-opacity="1.0" stroke-width="3.0"/>
    <path d="M 107.18008422851562 69.71322631835938 C 132.4902801513672 65.8638687133789 124.51294708251953 63.51091003417969 127.06729888916016 87.21324920654297" fill="none" stroke="rgb(0, 0, 0)" stroke-linecap="round" stroke-linejoin="round" stroke-opacity="1.0" stroke-width="3.0"/>
    <path d="M 110.2784652709961 141.06089782714844 C 79.3115234375 160.493408203125 89.53314208984375 150.69944763183594 115.8798599243164 142.25958251953125" fill="none" stroke="rgb(0, 0, 0)" stroke-linecap="round" stroke-linejoin="round" stroke-opacity="1.0" stroke-width="3.0"/>
    <path d="M 114.87549591064453 89.67658996582031 C 110.30398559570312 88.13818359375 119.36483001708984 90.40544128417969 111.0418472290039 92.48233032226562" fill="none" stroke="rgb(0, 0, 0)" stroke-linecap="round" stroke-linejoin="round" stroke-opacity="1.0" stroke-width="3.0"/>
    <path d="M 112.15280151367188 86.5546875 C 108.48040771484375 38.39176559448242 102.10652160644531 14.549882888793945 100.09221649169922 86.6577377319336" fill="none" stroke="rgb(0, 0, 0)" stroke-linecap="round" stroke-linejoin="round" stroke-opacity="1.0" stroke-width="3.0"/>
    <path d="M 114.5666732788086 88.24384307861328 C 116.87437438964844 99.70380401611328 100.9955825805664 113.77110290527344 105.85201263427734 91.55937194824219" fill="none" stroke="rgb(0, 0, 0)" stroke-linecap="round" stroke-linejoin="round" stroke-opacity="1.0" stroke-width="3.0"/>
    <path d="M 110.9817886352539 98.98643493652344 C 100.9825210571289 126.98738861083984 109.94288635253906 151.944580078125 109.14274597167969 121.83191680908203" fill="none" stroke="rgb(0, 0, 0)" stroke-linecap="round" stroke-linejoin="round" stroke-opacity="1.0" stroke-width="3.0"/>
    <path d="M 105.96436309814453 107.27729034423828 C 106.51237487792969 44.48371887207031 109.19413757324219 71.74945831298828 111.12580108642578 103.1368408203125" fill="none" stroke="rgb(0, 0, 0)" stroke-linecap="round" stroke-linejoin="round" stroke-opacity="1.0" stroke-width="3.0"/>
  </g>
</svg>
