<?xml version="1.0" ?>
<svg height="224" version="1.1" width="224" xmlns="http://www.w3.org/2000/svg">
  <defs/>
  <g>
    <path d="M 142.10780334472656 146.07284545898438 C 64.40115356445312 141.01568603515625 90.64480590820312 161.10073852539062 108.24015045166016 143.90740966796875" fill="none" stroke="rgb(0, 0, 0)" stroke-linecap="round" stroke-linejoin="round" stroke-opacity="1.0" stroke-width="3.0"/>
    <path d="M 137.5279083251953 122.76051330566406 C 108.02081298828125 149.73724365234375 126.17214965820312 160.70999145507812 119.48028564453125 99.95925903320312" fill="none" stroke="rgb(0, 0, 0)" stroke-linecap="round" stroke-linejoin="round" stroke-opacity="1.0" stroke-width="3.0"/>
    <path d="M 147.2382049560547 109.18722534179688 C 154.39474487304688 150.7585906982422 132.6138153076172 169.5941619873047 148.4561767578125 109.32989501953125" fill="none" stroke="rgb(0, 0, 0)" stroke-linecap="round" stroke-linejoin="round" stroke-opacity="1.0" stroke-width="3.0"/>
    <path d="M 125.29734802246094 114.29802703857422 C 152.49423217773438 104.09883880615234 146.1397705078125 103.84126281738281 139.44659423828125 144.8123321533203" fill="none" stroke="rgb(0, 0, 0)" stroke-linecap="round" stroke-linejoin="round" stroke-opacity="1.0" stroke-width="3.0"/>
    <path d="M 127.5925521850586 108.00061798095703 C 148.517822265625 104.72015380859375 149.98593139648438 130.6186065673828 140.06646728515625 110.46774291992188" fill="none" stroke="rgb(0, 0, 0)" stroke-linecap="round" stroke-linejoin="round" stroke-opacity="1.0" stroke-width="3.0"/>
    <path d="M 123.64486694335938 146.3829803466797 C 132.95626831054688 -6.27241849899292 131.26597595214844 259.1905517578125 123.60387420654297 94.22539520263672" fill="none" stroke="rgb(0, 0, 0)" stroke-linecap="round" stroke-linejoin="round" stroke-opacity="1.0" stroke-width="3.0"/>
    <path d="M 128.05889892578125 138.81790161132812 C 117.4343490600586 60.50513458251953 103.82923889160156 88.45447540283203 146.50523376464844 127.37105560302734" fill="none" stroke="rgb(0, 0, 0)" stroke-linecap="round" stroke-linejoin="round" stroke-opacity="1.0" stroke-width="3.0"/>
    <path d="M 77.34738159179688 151.64865112304688 C 89.85580444335938 157.53878784179688 118.46162414550781 144.06802368164062 89.15508270263672 143.31002807617188" fill="none" stroke="rgb(0, 0, 0)" stroke-linecap="round" stroke-linejoin="round" stroke-opacity="1.0" stroke-width="3.0"/>
    <path d="M 139.8168487548828 134.3143768310547 C 113.0896224975586 140.61537170410156 163.8797607421875 115.86674499511719 130.17544555664062 116.48793029785156" fill="none" stroke="rgb(0, 0, 0)" stroke-linecap="round" stroke-linejoin="round" stroke-opacity="1.0" stroke-width="3.0"/>
    <path d="M 103.84327697753906 94.0255355834961 C 150.76771545410156 94.01510620117188 80.05697631835938 81.07445526123047 97.65547943115234 97.04814910888672" fill="none" stroke="rgb(0, 0, 0)" stroke-linecap="round" stroke-linejoin="round" stroke-opacity="1.0" stroke-width="3.0"/>
    <path d="M 146.98231506347656 135.14576721191406 C 107.88845825195312 126.58522033691406 156.92620849609375 154.08059692382812 132.3571319580078 122.69961547851562" fill="none" stroke="rgb(0, 0, 0)" stroke-linecap="round" stroke-linejoin="round" stroke-opacity="1.0" stroke-width="3.0"/>
    <path d="M 110.68367767333984 89.14788055419922 C 79.4311752319336 93.90390014648438 90.10954284667969 63.40442657470703 85.63123321533203 150.90933227539062" fill="none" stroke="rgb(0, 0, 0)" stroke-linecap="round" stroke-linejoin="round" stroke-opacity="1.0" stroke-width="3.0"/>
    <path d="M 106.14825439453125 144.22756958007812 C 74.6912841796875 147.87051391601562 94.90711212158203 155.5057830810547 107.47868347167969 143.101318359375" fill="none" stroke="rgb(0, 0, 0)" stroke-linecap="round" stroke-linejoin="round" stroke-opacity="1.0" stroke-width="3.0"/>
    <path d="M 85.7852783203125 91.9296875 C 73.93302917480469 96.20429229736328 78.17105102539062 74.74909210205078 76.79175567626953 150.16796875" fill="none" stroke="rgb(0, 0, 0)" stroke-linecap="round" stroke-linejoin="round" stroke-opacity="1.0" stroke-width="3.0"/>
    <path d="M 135.2201385498047 108.87322235107422 C 148.85110473632812 141.1978302001953 124.64241790771484 167.6321258544922 134.81900024414062 109.25051879882812" fill="none" stroke="rgb(0, 0, 0)" stroke-linecap="round" stroke-linejoin="round" stroke-opacity="1.0" stroke-width="3.0"/>
    <path d="M 138.6685791015625 108.97171020507812 C 154.8251190185547 176.40103149414062 127.13228607177734 141.84710693359375 134.82504272460938 115.14749908447266" fill="none" stroke="rgb(0, 0, 0)" stroke-linecap="round" stroke-linejoin="round" stroke-opacity="1.0" stroke-width="3.0"/>
  </g>
</svg>
