<?xml version="1.0" ?>
<svg height="224" version="1.1" width="224" xmlns="http://www.w3.org/2000/svg">
  <defs/>
  <g>
    <path d="M 111.2130355834961 151.87693786621094 C 135.39341735839844 130.4905548095703 131.03851318359375 144.57669067382812 130.23443603515625 123.93936157226562" fill="none" stroke="rgb(0, 0, 0)" stroke-linecap="round" stroke-linejoin="round" stroke-opacity="1.0" stroke-width="3.0"/>
    <path d="M 108.65093231201172 122.9837646484375 C 101.80905151367188 114.787353515625 81.7430648803711 116.3598861694336 126.1602554321289 109.92575073242188" fill="none" stroke="rgb(0, 0, 0)" stroke-linecap="round" stroke-linejoin="round" stroke-opacity="1.0" stroke-width="3.0"/>
    <path d="M 102.73652648925781 116.8967514038086 C 91.33750915527344 128.06576538085938 89.95284271240234 118.9322509765625 119.20574951171875 119.8063735961914" fill="none" stroke="rgb(0, 0, 0)" stroke-linecap="round" stroke-linejoin="round" stroke-opacity="1.0" stroke-width="3.0"/>
    <path d="M 83.60137939453125 124.2197265625 C 82.29420471191406 153.12730407714844 82.43897247314453 170.9797821044922 85.07417297363281 139.90707397460938" fill="none" stroke="rgb(0, 0, 0)" stroke-linecap="round" stroke-linejoin="round" stroke-opacity="1.0" stroke-width="3.0"/>
    <path d="M 121.25157928466797 97.48068237304688 C 119.7353286743164 114.0140151977539 132.00120544433594 110.91757202148438 123.84490203857422 93.8696060180664" fill="none" stroke="rgb(0, 0, 0)" stroke-linecap="round" stroke-linejoin="round" stroke-opacity="1.0" stroke-width="3.0"/>
    <path d="M 131.05873107910156 126.76934051513672 C 132.8064727783203 110.78665161132812 109.5319595336914 129.42654418945312 113.36022186279297 113.3332748413086" fill="none" stroke="rgb(0, 0, 0)" stroke-linecap="round" stroke-linejoin="round" stroke-opacity="1.0" stroke-width="3.0"/>
    <path d="M 85.46495819091797 81.60826873779297 C 87.01371765136719 120.94184112548828 85.127197265625 118.90299987792969 83.26429748535156 90.5426025390625" fill="none" stroke="rgb(0, 0, 0)" stroke-linecap="round" stroke-linejoin="round" stroke-opacity="1.0" stroke-width="3.0"/>
    <path d="M 103.15008544921875 79.64485931396484 C 75.75955963134766 79.36682891845703 84.43815612792969 76.52642822265625 82.71549987792969 111.63373565673828" fill="none" stroke="rgb(0, 0, 0)" stroke-linecap="round" stroke-linejoin="round" stroke-opacity="1.0" stroke-width="3.0"/>
    <path d="M 102.07693481445312 117.81555938720703 C 98.45130157470703 114.48649597167969 116.48444366455078 129.6500701904297 113.39205169677734 126.5695571899414" fill="none" stroke="rgb(0, 0, 0)" stroke-linecap="round" stroke-linejoin="round" stroke-opacity="1.0" stroke-width="3.0"/>
    <path d="M 108.06920623779297 89.111083984375 C 104.98404693603516 119.63960266113281 117.49192810058594 110.8053970336914 83.9726333618164 111.0781478881836" fill="none" stroke="rgb(0, 0, 0)" stroke-linecap="round" stroke-linejoin="round" stroke-opacity="1.0" stroke-width="3.0"/>
    <path d="M 114.38644409179688 124.52190399169922 C 108.95519256591797 142.67698669433594 107.31658935546875 154.55706787109375 107.10990142822266 151.01988220214844" fill="none" stroke="rgb(0, 0, 0)" stroke-linecap="round" stroke-linejoin="round" stroke-opacity="1.0" stroke-width="3.0"/>
    <path d="M 108.15312957763672 148.60145568847656 C 69.08702850341797 167.20338439941406 87.5197982788086 146.09642028808594 85.16437530517578 145.5197296142578" fill="none" stroke="rgb(0, 0, 0)" stroke-linecap="round" stroke-linejoin="round" stroke-opacity="1.0" stroke-width="3.0"/>
    <path d="M 121.7138442993164 103.84181213378906 C 128.04661560058594 89.33811950683594 123.66751861572266 95.51371002197266 101.56216430664062 79.40748596191406" fill="none" stroke="rgb(0, 0, 0)" stroke-linecap="round" stroke-linejoin="round" stroke-opacity="1.0" stroke-width="3.0"/>
    <path d="M 85.36715698242188 154.1712646484375 C 85.32603454589844 117.70150756835938 75.5540542602539 129.45936584472656 110.38665771484375 119.16529083251953" fill="none" stroke="rgb(0, 0, 0)" stroke-linecap="round" stroke-linejoin="round" stroke-opacity="1.0" stroke-width="3.0"/>
    <path d="M 84.80011749267578 125.07325744628906 C 85.83574676513672 124.93496704101562 84.03385925292969 119.72903442382812 85.39659881591797 155.3463897705078" fill="none" stroke="rgb(0, 0, 0)" stroke-linecap="round" stroke-linejoin="round" stroke-opacity="1.0" stroke-width="3.0"/>
    <path d="M 108.65357208251953 83.95272064208984 C 103.0643081665039 83.84555053710938 101.93636322021484 64.00684356689453 103.1770248413086 120.1724624633789" fill="none" stroke="rgb(0, 0, 0)" stroke-linecap="round" stroke-linejoin="round" stroke-opacity="1.0" stroke-width="3.0"/>
  </g>
</svg>
