<?xml version="1.0" ?>
<svg height="224" version="1.1" width="224" xmlns="http://www.w3.org/2000/svg">
  <defs/>
  <g>
    <path d="M 136.39065551757812 72.10221099853516 C 95.31305694580078 90.17544555664062 104.85879516601562 148.74639892578125 112.72166442871094 76.94719696044922" fill="none" stroke="rgb(0, 0, 0)" stroke-linecap="round" stroke-linejoin="round" stroke-opacity="1.0" stroke-width="3.0"/>
    <path d="M 155.32325744628906 50.008636474609375 C 149.385498046875 71.2109375 154.1156463623047 76.98394775390625 121.8777847290039 68.68602752685547" fill="none" stroke="rgb(0, 0, 0)" stroke-linecap="round" stroke-linejoin="round" stroke-opacity="1.0" stroke-width="3.0"/>
    <path d="M 126.7529067993164 65.06057739257812 C 51.68803405761719 86.03872680664062 122.86402893066406 82.76898193359375 122.52396392822266 96.5785903930664" fill="none" stroke="rgb(0, 0, 0)" stroke-linecap="round" stroke-linejoin="round" stroke-opacity="1.0" stroke-width="3.0"/>
    <path d="M 100.79528045654297 74.51312255859375 C 136.43447875976562 105.10208892822266 105.61856079101562 41.242740631103516 115.38407897949219 126.9849853515625" fill="none" stroke="rgb(0, 0, 0)" stroke-linecap="round" stroke-linejoin="round" stroke-opacity="1.0" stroke-width="3.0"/>
    <path d="M 131.72669982910156 74.1783218383789 C 56.15652084350586 90.3687515258789 98.009033203125 105.96823120117188 99.41887664794922 65.80913543701172" fill="none" stroke="rgb(0, 0, 0)" stroke-linecap="round" stroke-linejoin="round" stroke-opacity="1.0" stroke-width="3.0"/>
    <path d="M 115.8041763305664 96.87803649902344 C 164.11070251464844 99.21730041503906 49.48288345336914 97.89038848876953 128.64747619628906 94.41717529296875" fill="none" stroke="rgb(0, 0, 0)" stroke-linecap="round" stroke-linejoin="round" stroke-opacity="1.0" stroke-width="3.0"/>
    <path d="M 141.69273376464844 44.69976806640625 C 124.0395278930664 46.4925422668457 144.071533203125 46.99020004272461 101.1878890991211 62.32611846923828" fill="none" stroke="rgb(0, 0, 0)" stroke-linecap="round" stroke-linejoin="round" stroke-opacity="1.0" stroke-width="3.0"/>
    <path d="M 143.6486358642578 140.0224609375 C 88.12922668457031 145.92257690429688 100.27288818359375 151.02511596679688 99.66075134277344 134.51573181152344" fill="none" stroke="rgb(0, 0, 0)" stroke-linecap="round" stroke-linejoin="round" stroke-opacity="1.0" stroke-width="3.0"/>
    <path d="M 104.29804992675781 89.78925323486328 C 108.39933776855469 64.54009246826172 70.09026336669922 89.05659484863281 127.68405151367188 67.90379333496094" fill="none" stroke="rgb(0, 0, 0)" stroke-linecap="round" stroke-linejoin="round" stroke-opacity="1.0" stroke-width="3.0"/>
    <path d="M 96.33760833740234 82.2762451171875 C 135.96347045898438 50.336421966552734 123.60440826416016 114.20177459716797 120.51879119873047 71.84210968017578" fill="none" stroke="rgb(0, 0, 0)" stroke-linecap="round" stroke-linejoin="round" stroke-opacity="1.0" stroke-width="3.0"/>
    <path d="M 128.81036376953125 57.75218200683594 C 120.96488189697266 60.757076263427734 66.66455078125 83.17127227783203 126.57113647460938 60.84183120727539" fill="none" stroke="rgb(0, 0, 0)" stroke-linecap="round" stroke-linejoin="round" stroke-opacity="1.0" stroke-width="3.0"/>
    <path d="M 145.78036499023438 69.39706420898438 C 155.31065368652344 35.8778076171875 147.77896118164062 52.98314666748047 150.6583251953125 48.397361755371094" fill="none" stroke="rgb(0, 0, 0)" stroke-linecap="round" stroke-linejoin="round" stroke-opacity="1.0" stroke-width="3.0"/>
    <path d="M 140.43533325195312 45.2894172668457 C 165.6904296875 50.6691780090332 150.28961181640625 50.94255828857422 151.9119110107422 48.33212661743164" fill="none" stroke="rgb(0, 0, 0)" stroke-linecap="round" stroke-linejoin="round" stroke-opacity="1.0" stroke-width="3.0"/>
    <path d="M 124.44182586669922 130.94772338867188 C 78.8371353149414 119.18962860107422 108.6363525390625 195.14703369140625 110.57134246826172 80.49694061279297" fill="none" stroke="rgb(0, 0, 0)" stroke-linecap="round" stroke-linejoin="round" stroke-opacity="1.0" stroke-width="3.0"/>
    <path d="M 148.9308319091797 48.70639419555664 C 129.51341247558594 45.083797454833984 133.67552185058594 40.051937103271484 127.72447204589844 75.66612243652344" fill="none" stroke="rgb(0, 0, 0)" stroke-linecap="round" stroke-linejoin="round" stroke-opacity="1.0" stroke-width="3.0"/>
    <path d="M 108.54552459716797 134.3459930419922 C 147.6636962890625 130.72509765625 142.2379608154297 131.42214965820312 143.1393280029297 139.67974853515625" fill="none" stroke="rgb(0, 0, 0)" stroke-linecap="round" stroke-linejoin="round" stroke-opacity="1.0" stroke-width="3.0"/>
  </g>
</svg>
