<?xml version="1.0" ?>
<svg height="224" version="1.1" width="224" xmlns="http://www.w3.org/2000/svg">
  <defs/>
  <g>
    <path d="M 117.33855438232422 81.90313720703125 C 128.30093383789062 109.35570526123047 129.74510192871094 108.27730560302734 124.64836120605469 79.69931030273438" fill="none" stroke="rgb(0, 0, 0)" stroke-linecap="round" stroke-linejoin="round" stroke-opacity="1.0" stroke-width="3.0"/>
    <path d="M 117.13494110107422 79.7405014038086 C 121.255126953125 166.694580078125 122.95551300048828 165.74588012695312 96.91498565673828 162.16851806640625" fill="none" stroke="rgb(0, 0, 0)" stroke-linecap="round" stroke-linejoin="round" stroke-opacity="1.0" stroke-width="3.0"/>
    <path d="M 123.47415924072266 78.49272918701172 C 87.2710189819336 83.20399475097656 125.51537322998047 89.75042724609375 90.3697280883789 90.04800415039062" fill="none" stroke="rgb(0, 0, 0)" stroke-linecap="round" stroke-linejoin="round" stroke-opacity="1.0" stroke-width="3.0"/>
    <path d="M 123.8412094116211 120.55941772460938 C 153.5435333251953 123.43629455566406 149.6081085205078 109.8404312133789 148.25050354003906 149.34141540527344" fill="none" stroke="rgb(0, 0, 0)" stroke-linecap="round" stroke-linejoin="round" stroke-opacity="1.0" stroke-width="3.0"/>
    <path d="M 86.01695251464844 161.82138061523438 C 86.2525634765625 116.79469299316406 86.5948486328125 89.36940002441406 89.23350524902344 90.74732971191406" fill="none" stroke="rgb(0, 0, 0)" stroke-linecap="round" stroke-linejoin="round" stroke-opacity="1.0" stroke-width="3.0"/>
    <path d="M 106.81289672851562 79.19694519042969 C 140.21823120117188 74.42399597167969 107.4482421875 113.89483642578125 125.64940643310547 87.91757202148438" fill="none" stroke="rgb(0, 0, 0)" stroke-linecap="round" stroke-linejoin="round" stroke-opacity="1.0" stroke-width="3.0"/>
    <path d="M 149.6818389892578 129.13983154296875 C 146.80874633789062 82.05905151367188 147.8535614013672 108.4947509765625 115.45047760009766 98.79853820800781" fill="none" stroke="rgb(0, 0, 0)" stroke-linecap="round" stroke-linejoin="round" stroke-opacity="1.0" stroke-width="3.0"/>
    <path d="M 106.6200180053711 81.4674072265625 C 138.0850830078125 103.2161865234375 101.69023895263672 100.93240356445312 144.78524780273438 99.95153045654297" fill="none" stroke="rgb(0, 0, 0)" stroke-linecap="round" stroke-linejoin="round" stroke-opacity="1.0" stroke-width="3.0"/>
    <path d="M 88.89415740966797 162.934814453125 C 127.20307159423828 164.2216339111328 109.96868133544922 180.39007568359375 115.18523406982422 86.91902923583984" fill="none" stroke="rgb(0, 0, 0)" stroke-linecap="round" stroke-linejoin="round" stroke-opacity="1.0" stroke-width="3.0"/>
    <path d="M 86.35281372070312 155.48602294921875 C 88.80674743652344 166.96751403808594 81.373046875 161.1825408935547 112.29449462890625 160.28746032714844" fill="none" stroke="rgb(0, 0, 0)" stroke-linecap="round" stroke-linejoin="round" stroke-opacity="1.0" stroke-width="3.0"/>
    <path d="M 123.53144836425781 81.05075073242188 C 118.91618347167969 98.31201934814453 117.59738159179688 130.6378631591797 111.47618865966797 81.96907043457031" fill="none" stroke="rgb(0, 0, 0)" stroke-linecap="round" stroke-linejoin="round" stroke-opacity="1.0" stroke-width="3.0"/>
    <path d="M 119.14954376220703 80.09137725830078 C 133.64283752441406 81.09162902832031 114.5975112915039 99.88113403320312 126.7879638671875 94.00013732910156" fill="none" stroke="rgb(0, 0, 0)" stroke-linecap="round" stroke-linejoin="round" stroke-opacity="1.0" stroke-width="3.0"/>
    <path d="M 132.41567993164062 100.32247924804688 C 124.6184310913086 72.65349578857422 121.89579010009766 56.823028564453125 123.30977630615234 150.46829223632812" fill="none" stroke="rgb(0, 0, 0)" stroke-linecap="round" stroke-linejoin="round" stroke-opacity="1.0" stroke-width="3.0"/>
    <path d="M 119.01935577392578 148.61166381835938 C 110.73477172851562 80.68052673339844 118.37330627441406 79.73493957519531 121.42948150634766 85.2033920288086" fill="none" stroke="rgb(0, 0, 0)" stroke-linecap="round" stroke-linejoin="round" stroke-opacity="1.0" stroke-width="3.0"/>
    <path d="M 117.84441375732422 122.29462432861328 C 110.99224853515625 84.2878189086914 128.35531616210938 53.36506271362305 126.37930297851562 125.69631958007812" fill="none" stroke="rgb(0, 0, 0)" stroke-linecap="round" stroke-linejoin="round" stroke-opacity="1.0" stroke-width="3.0"/>
    <path d="M 114.40567779541016 162.35690307617188 C 129.72364807128906 139.93099975585938 120.19249725341797 150.68328857421875 145.2708282470703 150.80276489257812" fill="none" stroke="rgb(0, 0, 0)" stroke-linecap="round" stroke-linejoin="round" stroke-opacity="1.0" stroke-width="3.0"/>
  </g>
</svg>
