<?xml version="1.0" ?>
<svg height="224" version="1.1" width="224" xmlns="http://www.w3.org/2000/svg">
  <defs/>
  <g>
    <path d="M 97.06529235839844 134.2646484375 C 76.34761047363281 114.67321014404297 89.54666900634766 79.02909851074219 121.36900329589844 93.78765106201172" fill="none" stroke="rgb(0, 0, 0)" stroke-linecap="round" stroke-linejoin="round" stroke-opacity="1.0" stroke-width="3.0"/>
    <path d="M 116.76156616210938 95.11286163330078 C 80.05462646484375 106.85093688964844 104.59698486328125 140.78713989257812 121.3612289428711 120.23936462402344" fill="none" stroke="rgb(0, 0, 0)" stroke-linecap="round" stroke-linejoin="round" stroke-opacity="1.0" stroke-width="3.0"/>
    <path d="M 103.94512939453125 102.77140045166016 C 130.85159301757812 97.15917205810547 119.35679626464844 126.25454711914062 121.6661376953125 118.42984008789062" fill="none" stroke="rgb(0, 0, 0)" stroke-linecap="round" stroke-linejoin="round" stroke-opacity="1.0" stroke-width="3.0"/>
    <path d="M 89.38086700439453 125.57659912109375 C 118.8001708984375 143.57687377929688 110.10587310791016 125.89356231689453 145.86888122558594 142.56837463378906" fill="none" stroke="rgb(0, 0, 0)" stroke-linecap="round" stroke-linejoin="round" stroke-opacity="1.0" stroke-width="3.0"/>
    <path d="M 106.5904312133789 131.3095245361328 C 125.62181091308594 126.90364837646484 119.04313659667969 143.12831115722656 91.38737487792969 128.7346649169922" fill="none" stroke="rgb(0, 0, 0)" stroke-linecap="round" stroke-linejoin="round" stroke-opacity="1.0" stroke-width="3.0"/>
    <path d="M 110.90019226074219 93.6603775024414 C 156.72000122070312 109.0792236328125 112.09403991699219 141.82186889648438 127.40052795410156 125.77954864501953" fill="none" stroke="rgb(0, 0, 0)" stroke-linecap="round" stroke-linejoin="round" stroke-opacity="1.0" stroke-width="3.0"/>
    <path d="M 92.65943908691406 127.05571746826172 C 91.48572540283203 139.50216674804688 145.411376953125 141.26768493652344 109.05329132080078 135.4462127685547" fill="none" stroke="rgb(0, 0, 0)" stroke-linecap="round" stroke-linejoin="round" stroke-opacity="1.0" stroke-width="3.0"/>
    <path d="M 88.15052032470703 119.11286163330078 C 96.24701690673828 136.61013793945312 140.50799560546875 136.19998168945312 131.94381713867188 118.87203979492188" fill="none" stroke="rgb(0, 0, 0)" stroke-linecap="round" stroke-linejoin="round" stroke-opacity="1.0" stroke-width="3.0"/>
    <path d="M 114.15441131591797 138.5194549560547 C 145.66641235351562 136.9234619140625 149.64871215820312 89.87879943847656 112.8102798461914 88.25235748291016" fill="none" stroke="rgb(0, 0, 0)" stroke-linecap="round" stroke-linejoin="round" stroke-opacity="1.0" stroke-width="3.0"/>
    <path d="M 108.18987274169922 89.29324340820312 C 104.78892517089844 104.58329010009766 137.15704345703125 93.9175033569336 111.64435577392578 95.613037109375" fill="none" stroke="rgb(0, 0, 0)" stroke-linecap="round" stroke-linejoin="round" stroke-opacity="1.0" stroke-width="3.0"/>
    <path d="M 101.93425750732422 134.20892333984375 C 85.17574310302734 127.69339752197266 121.22932434082031 147.14642333984375 131.6475067138672 121.66956329345703" fill="none" stroke="rgb(0, 0, 0)" stroke-linecap="round" stroke-linejoin="round" stroke-opacity="1.0" stroke-width="3.0"/>
    <path d="M 70.1240234375 149.29608154296875 C 117.41104888916016 123.15884399414062 128.8175048828125 136.50772094726562 132.92352294921875 117.62928771972656" fill="none" stroke="rgb(0, 0, 0)" stroke-linecap="round" stroke-linejoin="round" stroke-opacity="1.0" stroke-width="3.0"/>
    <path d="M 94.44060516357422 133.04669189453125 C 124.56477355957031 151.57403564453125 130.78460693359375 136.00271606445312 132.80860900878906 116.3124008178711" fill="none" stroke="rgb(0, 0, 0)" stroke-linecap="round" stroke-linejoin="round" stroke-opacity="1.0" stroke-width="3.0"/>
    <path d="M 100.31172180175781 138.90606689453125 C 150.09136962890625 148.6435546875 134.89956665039062 84.41410827636719 124.84851837158203 133.7971954345703" fill="none" stroke="rgb(0, 0, 0)" stroke-linecap="round" stroke-linejoin="round" stroke-opacity="1.0" stroke-width="3.0"/>
    <path d="M 119.39386749267578 130.62515258789062 C 177.18731689453125 160.70828247070312 162.40823364257812 141.4593963623047 69.78185272216797 150.04647827148438" fill="none" stroke="rgb(0, 0, 0)" stroke-linecap="round" stroke-linejoin="round" stroke-opacity="1.0" stroke-width="3.0"/>
    <path d="M 127.7983169555664 133.17779541015625 C 78.49153900146484 134.4720001220703 98.2801742553711 147.1632843017578 129.5579833984375 122.41557312011719" fill="none" stroke="rgb(0, 0, 0)" stroke-linecap="round" stroke-linejoin="round" stroke-opacity="1.0" stroke-width="3.0"/>
  </g>
</svg>
