<?xml version="1.0" ?>
<svg height="224" version="1.1" width="224" xmlns="http://www.w3.org/2000/svg">
  <defs/>
  <g>
    <path d="M 99.93284606933594 128.59275817871094 C 110.38042449951172 147.7378387451172 127.74220275878906 137.38536071777344 126.59053802490234 138.5901641845703" fill="none" stroke="rgb(0, 0, 0)" stroke-linecap="round" stroke-linejoin="round" stroke-opacity="1.0" stroke-width="3.0"/>
    <path d="M 96.77288818359375 101.99944305419922 C 33.19826126098633 106.5638656616211 144.546630859375 92.36892700195312 80.7385025024414 95.2451400756836" fill="none" stroke="rgb(0, 0, 0)" stroke-linecap="round" stroke-linejoin="round" stroke-opacity="1.0" stroke-width="3.0"/>
    <path d="M 144.9233856201172 125.30400848388672 C 142.20411682128906 133.9757537841797 114.08219909667969 164.44432067871094 89.63056182861328 131.69476318359375" fill="none" stroke="rgb(0, 0, 0)" stroke-linecap="round" stroke-linejoin="round" stroke-opacity="1.0" stroke-width="3.0"/>
    <path d="M 113.87694549560547 86.73896789550781 C 145.59133911132812 83.36294555664062 88.39961242675781 92.55335998535156 74.624755859375 110.10106658935547" fill="none" stroke="rgb(0, 0, 0)" stroke-linecap="round" stroke-linejoin="round" stroke-opacity="1.0" stroke-width="3.0"/>
    <path d="M 145.7162322998047 134.21234130859375 C 113.25494384765625 143.363525390625 143.0363006591797 146.8866729736328 145.00038146972656 127.21382141113281" fill="none" stroke="rgb(0, 0, 0)" stroke-linecap="round" stroke-linejoin="round" stroke-opacity="1.0" stroke-width="3.0"/>
    <path d="M 80.056396484375 99.64887237548828 C 75.4336929321289 134.21249389648438 71.31460571289062 54.38105010986328 72.28426361083984 135.03887939453125" fill="none" stroke="rgb(0, 0, 0)" stroke-linecap="round" stroke-linejoin="round" stroke-opacity="1.0" stroke-width="3.0"/>
    <path d="M 91.7284164428711 114.99051666259766 C 91.0546875 155.5771026611328 145.74789428710938 150.43601989746094 138.4644317626953 133.68692016601562" fill="none" stroke="rgb(0, 0, 0)" stroke-linecap="round" stroke-linejoin="round" stroke-opacity="1.0" stroke-width="3.0"/>
    <path d="M 96.77777862548828 138.5684814453125 C 102.01016235351562 134.33258056640625 89.0353012084961 138.1266326904297 73.69355010986328 137.4788818359375" fill="none" stroke="rgb(0, 0, 0)" stroke-linecap="round" stroke-linejoin="round" stroke-opacity="1.0" stroke-width="3.0"/>
    <path d="M 88.30146789550781 93.03134155273438 C 70.41160583496094 115.7396469116211 73.57379150390625 91.11027526855469 94.72784423828125 99.9346694946289" fill="none" stroke="rgb(0, 0, 0)" stroke-linecap="round" stroke-linejoin="round" stroke-opacity="1.0" stroke-width="3.0"/>
    <path d="M 100.79354858398438 130.42901611328125 C 80.83980560302734 93.47190856933594 157.2012176513672 75.9171371459961 139.3044891357422 135.62442016601562" fill="none" stroke="rgb(0, 0, 0)" stroke-linecap="round" stroke-linejoin="round" stroke-opacity="1.0" stroke-width="3.0"/>
    <path d="M 99.2738265991211 95.13677978515625 C 37.89638900756836 93.77897644042969 137.2111358642578 94.75798797607422 73.69768524169922 101.37053680419922" fill="none" stroke="rgb(0, 0, 0)" stroke-linecap="round" stroke-linejoin="round" stroke-opacity="1.0" stroke-width="3.0"/>
    <path d="M 120.09304809570312 140.3512725830078 C 151.8999481201172 131.99420166015625 135.12193298339844 87.8829116821289 104.75402069091797 104.8506088256836" fill="none" stroke="rgb(0, 0, 0)" stroke-linecap="round" stroke-linejoin="round" stroke-opacity="1.0" stroke-width="3.0"/>
    <path d="M 92.4809341430664 136.13681030273438 C 79.61598205566406 108.96062469482422 109.0985336303711 86.13802337646484 127.64568328857422 93.81011962890625" fill="none" stroke="rgb(0, 0, 0)" stroke-linecap="round" stroke-linejoin="round" stroke-opacity="1.0" stroke-width="3.0"/>
    <path d="M 136.1544952392578 140.83880615234375 C 106.02307891845703 151.4235382080078 168.4550018310547 125.74872589111328 134.0978546142578 95.43021392822266" fill="none" stroke="rgb(0, 0, 0)" stroke-linecap="round" stroke-linejoin="round" stroke-opacity="1.0" stroke-width="3.0"/>
    <path d="M 145.89378356933594 133.37124633789062 C 146.9785919189453 100.88777923583984 148.22108459472656 75.9971923828125 147.71212768554688 132.8419189453125" fill="none" stroke="rgb(0, 0, 0)" stroke-linecap="round" stroke-linejoin="round" stroke-opacity="1.0" stroke-width="3.0"/>
    <path d="M 144.1837158203125 96.78071594238281 C 112.69735717773438 99.03048706054688 147.6979522705078 85.4676742553711 104.66014099121094 91.03925323486328" fill="none" stroke="rgb(0, 0, 0)" stroke-linecap="round" stroke-linejoin="round" stroke-opacity="1.0" stroke-width="3.0"/>
  </g>
</svg>
