<?xml version="1.0" ?>
<svg height="224" version="1.1" width="224" xmlns="http://www.w3.org/2000/svg">
  <defs/>
  <g>
    <path d="M 136.85887145996094 127.72706604003906 C 107.34671783447266 168.48963928222656 60.149993896484375 106.7804946899414 125.98685455322266 91.02702331542969" fill="none" stroke="rgb(0, 0, 0)" stroke-linecap="round" stroke-linejoin="round" stroke-opacity="1.0" stroke-width="3.0"/>
    <path d="M 90.63019561767578 130.4096221923828 C 121.766357421875 168.72694396972656 148.76158142089844 126.38613891601562 142.2667999267578 134.12889099121094" fill="none" stroke="rgb(0, 0, 0)" stroke-linecap="round" stroke-linejoin="round" stroke-opacity="1.0" stroke-width="3.0"/>
    <path d="M 78.5763168334961 96.80288696289062 C 61.66669845581055 155.9049835205078 104.3924789428711 123.3387222290039 96.55216217041016 136.4924774169922" fill="none" stroke="rgb(0, 0, 0)" stroke-linecap="round" stroke-linejoin="round" stroke-opacity="1.0" stroke-width="3.0"/>
    <path d="M 85.19564056396484 94.3030014038086 C 142.10317993164062 100.02725982666016 33.156532287597656 98.61415100097656 88.46598815917969 101.69580078125" fill="none" stroke="rgb(0, 0, 0)" stroke-linecap="round" stroke-linejoin="round" stroke-opacity="1.0" stroke-width="3.0"/>
    <path d="M 145.9099884033203 127.87539672851562 C 128.05165100097656 148.2122344970703 158.7092742919922 129.18551635742188 139.02452087402344 97.12904357910156" fill="none" stroke="rgb(0, 0, 0)" stroke-linecap="round" stroke-linejoin="round" stroke-opacity="1.0" stroke-width="3.0"/>
    <path d="M 145.06756591796875 102.00968933105469 C 88.45085144042969 86.3346939086914 155.22483825683594 87.96229553222656 137.6281280517578 127.0340805053711" fill="none" stroke="rgb(0, 0, 0)" stroke-linecap="round" stroke-linejoin="round" stroke-opacity="1.0" stroke-width="3.0"/>
    <path d="M 73.14390563964844 128.00408935546875 C 117.07733154296875 86.00605010986328 74.64006805419922 92.26403045654297 77.2924575805664 126.89383697509766" fill="none" stroke="rgb(0, 0, 0)" stroke-linecap="round" stroke-linejoin="round" stroke-opacity="1.0" stroke-width="3.0"/>
    <path d="M 80.11569213867188 115.33853149414062 C 71.02871704101562 121.34751892089844 72.14305114746094 63.21873474121094 71.98804473876953 134.23907470703125" fill="none" stroke="rgb(0, 0, 0)" stroke-linecap="round" stroke-linejoin="round" stroke-opacity="1.0" stroke-width="3.0"/>
    <path d="M 146.28121948242188 134.10513305664062 C 148.32884216308594 80.66486358642578 154.6965789794922 108.28948974609375 105.9195556640625 91.81698608398438" fill="none" stroke="rgb(0, 0, 0)" stroke-linecap="round" stroke-linejoin="round" stroke-opacity="1.0" stroke-width="3.0"/>
    <path d="M 91.802978515625 130.9178924560547 C 71.76494598388672 130.00486755371094 52.7722053527832 136.64508056640625 115.65739440917969 86.2848892211914" fill="none" stroke="rgb(0, 0, 0)" stroke-linecap="round" stroke-linejoin="round" stroke-opacity="1.0" stroke-width="3.0"/>
    <path d="M 85.61456298828125 131.98764038085938 C 61.289398193359375 123.41449737548828 98.82234191894531 59.60975646972656 79.52710723876953 131.63246154785156" fill="none" stroke="rgb(0, 0, 0)" stroke-linecap="round" stroke-linejoin="round" stroke-opacity="1.0" stroke-width="3.0"/>
    <path d="M 85.23963928222656 109.49415588378906 C 129.8643035888672 65.47887420654297 159.2625274658203 121.5529556274414 130.2774200439453 137.18788146972656" fill="none" stroke="rgb(0, 0, 0)" stroke-linecap="round" stroke-linejoin="round" stroke-opacity="1.0" stroke-width="3.0"/>
    <path d="M 84.79356384277344 132.8821258544922 C 70.87747192382812 57.935916900634766 76.7842025756836 133.92251586914062 104.19058227539062 140.42970275878906" fill="none" stroke="rgb(0, 0, 0)" stroke-linecap="round" stroke-linejoin="round" stroke-opacity="1.0" stroke-width="3.0"/>
    <path d="M 109.58039093017578 144.0142059326172 C 74.94800567626953 114.0864028930664 126.01065826416016 78.61380004882812 141.0508575439453 116.29591369628906" fill="none" stroke="rgb(0, 0, 0)" stroke-linecap="round" stroke-linejoin="round" stroke-opacity="1.0" stroke-width="3.0"/>
    <path d="M 106.12722778320312 90.23854064941406 C 141.01205444335938 86.55561065673828 115.08263397216797 92.3213882446289 146.32017517089844 105.91222381591797" fill="none" stroke="rgb(0, 0, 0)" stroke-linecap="round" stroke-linejoin="round" stroke-opacity="1.0" stroke-width="3.0"/>
    <path d="M 86.73381042480469 133.30996704101562 C 87.77839660644531 49.06132125854492 93.62298583984375 143.97784423828125 72.38539123535156 132.8524932861328" fill="none" stroke="rgb(0, 0, 0)" stroke-linecap="round" stroke-linejoin="round" stroke-opacity="1.0" stroke-width="3.0"/>
  </g>
</svg>
