<?xml version="1.0" ?>
<svg height="224" version="1.1" width="224" xmlns="http://www.w3.org/2000/svg">
  <defs/>
  <g>
    <path d="M 74.65966796875 137.46847534179688 C 183.77455139160156 136.8614044189453 114.55682373046875 151.98809814453125 71.8635025024414 144.7133331298828" fill="none" stroke="rgb(0, 0, 0)" stroke-linecap="round" stroke-linejoin="round" stroke-opacity="1.0" stroke-width="3.0"/>
    <path d="M 122.34620666503906 145.20242309570312 C 39.82516098022461 135.15896606445312 66.5313491821289 147.71018981933594 114.10594940185547 143.00433349609375" fill="none" stroke="rgb(0, 0, 0)" stroke-linecap="round" stroke-linejoin="round" stroke-opacity="1.0" stroke-width="3.0"/>
    <path d="M 121.2296371459961 79.18934631347656 C 110.76449584960938 71.26154327392578 120.19743347167969 75.02450561523438 126.06809997558594 82.52794647216797" fill="none" stroke="rgb(0, 0, 0)" stroke-linecap="round" stroke-linejoin="round" stroke-opacity="1.0" stroke-width="3.0"/>
    <path d="M 85.21812438964844 82.82093811035156 C 81.43912506103516 86.6453628540039 73.36528015136719 107.00204467773438 86.24913787841797 115.87339782714844" fill="none" stroke="rgb(0, 0, 0)" stroke-linecap="round" stroke-linejoin="round" stroke-opacity="1.0" stroke-width="3.0"/>
    <path d="M 79.16087341308594 98.93927001953125 C 84.22354888916016 67.74496459960938 115.11424255371094 64.11770629882812 128.755859375 83.55435943603516" fill="none" stroke="rgb(0, 0, 0)" stroke-linecap="round" stroke-linejoin="round" stroke-opacity="1.0" stroke-width="3.0"/>
    <path d="M 142.84507751464844 138.69190979003906 C 133.84158325195312 144.16285705566406 -6.857031345367432 129.9613494873047 131.0208282470703 144.0146026611328" fill="none" stroke="rgb(0, 0, 0)" stroke-linecap="round" stroke-linejoin="round" stroke-opacity="1.0" stroke-width="3.0"/>
    <path d="M 113.05850982666016 126.59697723388672 C 167.63470458984375 136.11343383789062 147.12881469726562 153.54957580566406 81.57444763183594 133.03054809570312" fill="none" stroke="rgb(0, 0, 0)" stroke-linecap="round" stroke-linejoin="round" stroke-opacity="1.0" stroke-width="3.0"/>
    <path d="M 125.90567779541016 142.86724853515625 C 59.295753479003906 150.31240844726562 52.941673278808594 129.10130310058594 131.5747528076172 134.6703643798828" fill="none" stroke="rgb(0, 0, 0)" stroke-linecap="round" stroke-linejoin="round" stroke-opacity="1.0" stroke-width="3.0"/>
    <path d="M 135.33706665039062 111.6962890625 C 104.5000991821289 134.18605041503906 66.33953094482422 123.54039001464844 119.21210479736328 124.7767333984375" fill="none" stroke="rgb(0, 0, 0)" stroke-linecap="round" stroke-linejoin="round" stroke-opacity="1.0" stroke-width="3.0"/>
    <path d="M 140.58460998535156 143.91763305664062 C 46.650001525878906 163.24122619628906 45.62385559082031 115.06570434570312 136.60317993164062 135.2504119873047" fill="none" stroke="rgb(0, 0, 0)" stroke-linecap="round" stroke-linejoin="round" stroke-opacity="1.0" stroke-width="3.0"/>
    <path d="M 133.0403289794922 110.19747924804688 C 134.3994140625 101.72804260253906 130.65318298339844 134.279296875 132.00888061523438 91.49983978271484" fill="none" stroke="rgb(0, 0, 0)" stroke-linecap="round" stroke-linejoin="round" stroke-opacity="1.0" stroke-width="3.0"/>
    <path d="M 118.88855743408203 75.6381607055664 C 133.78749084472656 86.43495178222656 131.00909423828125 88.17645263671875 126.6009292602539 82.71514892578125" fill="none" stroke="rgb(0, 0, 0)" stroke-linecap="round" stroke-linejoin="round" stroke-opacity="1.0" stroke-width="3.0"/>
    <path d="M 139.42283630371094 137.83729553222656 C 96.5367660522461 131.34658813476562 83.17221069335938 114.95793151855469 84.96180725097656 113.19489288330078" fill="none" stroke="rgb(0, 0, 0)" stroke-linecap="round" stroke-linejoin="round" stroke-opacity="1.0" stroke-width="3.0"/>
    <path d="M 134.5332794189453 89.20343780517578 C 130.1685028076172 89.58367156982422 127.51103210449219 72.16047668457031 127.50177001953125 115.37641143798828" fill="none" stroke="rgb(0, 0, 0)" stroke-linecap="round" stroke-linejoin="round" stroke-opacity="1.0" stroke-width="3.0"/>
    <path d="M 109.77423095703125 72.67261505126953 C 117.60220336914062 76.68959045410156 128.73585510253906 86.6893539428711 129.1783447265625 85.935302734375" fill="none" stroke="rgb(0, 0, 0)" stroke-linecap="round" stroke-linejoin="round" stroke-opacity="1.0" stroke-width="3.0"/>
    <path d="M 122.79249572753906 79.96613311767578 C 132.3653564453125 92.54352569580078 135.81423950195312 74.08919525146484 135.04507446289062 111.66368103027344" fill="none" stroke="rgb(0, 0, 0)" stroke-linecap="round" stroke-linejoin="round" stroke-opacity="1.0" stroke-width="3.0"/>
  </g>
</svg>
