<?xml version="1.0" ?>
<svg height="224" version="1.1" width="224" xmlns="http://www.w3.org/2000/svg">
  <defs/>
  <g>
    <path d="M 86.97856140136719 116.22766876220703 C 75.68804168701172 107.54131317138672 81.38978576660156 72.11937713623047 106.09001922607422 76.4785385131836" fill="none" stroke="rgb(0, 0, 0)" stroke-linecap="round" stroke-linejoin="round" stroke-opacity="1.0" stroke-width="3.0"/>
    <path d="M 130.9215087890625 156.35890197753906 C 131.26812744140625 171.40110778808594 130.5850067138672 171.98751831054688 131.04470825195312 159.2071075439453" fill="none" stroke="rgb(0, 0, 0)" stroke-linecap="round" stroke-linejoin="round" stroke-opacity="1.0" stroke-width="3.0"/>
    <path d="M 119.54810333251953 169.2277374267578 C 117.91616821289062 167.2195281982422 91.66146850585938 172.6510009765625 77.4319839477539 160.1343994140625" fill="none" stroke="rgb(0, 0, 0)" stroke-linecap="round" stroke-linejoin="round" stroke-opacity="1.0" stroke-width="3.0"/>
    <path d="M 127.44165802001953 96.33935546875 C 110.92266082763672 70.84483337402344 99.6028060913086 112.86100769042969 123.55462646484375 108.37269592285156" fill="none" stroke="rgb(0, 0, 0)" stroke-linecap="round" stroke-linejoin="round" stroke-opacity="1.0" stroke-width="3.0"/>
    <path d="M 84.5078125 103.3516845703125 C 83.08621978759766 106.04537963867188 83.58128356933594 95.98798370361328 83.71863555908203 109.23181915283203" fill="none" stroke="rgb(0, 0, 0)" stroke-linecap="round" stroke-linejoin="round" stroke-opacity="1.0" stroke-width="3.0"/>
    <path d="M 84.07772827148438 107.99036407470703 C 82.68294525146484 125.80084991455078 122.75511932373047 130.41485595703125 129.07054138183594 104.33138275146484" fill="none" stroke="rgb(0, 0, 0)" stroke-linecap="round" stroke-linejoin="round" stroke-opacity="1.0" stroke-width="3.0"/>
    <path d="M 123.00960540771484 117.29006958007812 C 99.82749938964844 131.2437286376953 134.76962280273438 113.68598175048828 108.50968933105469 125.748779296875" fill="none" stroke="rgb(0, 0, 0)" stroke-linecap="round" stroke-linejoin="round" stroke-opacity="1.0" stroke-width="3.0"/>
    <path d="M 84.14129638671875 101.62675476074219 C 84.19302368164062 92.58084869384766 89.26424407958984 131.37644958496094 124.56121063232422 112.84259796142578" fill="none" stroke="rgb(0, 0, 0)" stroke-linecap="round" stroke-linejoin="round" stroke-opacity="1.0" stroke-width="3.0"/>
    <path d="M 129.9442596435547 156.04647827148438 C 106.9855728149414 145.3941650390625 112.48278045654297 161.54188537597656 106.48738098144531 126.75352478027344" fill="none" stroke="rgb(0, 0, 0)" stroke-linecap="round" stroke-linejoin="round" stroke-opacity="1.0" stroke-width="3.0"/>
    <path d="M 128.64422607421875 98.18604278564453 C 127.53170013427734 111.36956024169922 130.60665893554688 93.656494140625 126.49311065673828 92.3341293334961" fill="none" stroke="rgb(0, 0, 0)" stroke-linecap="round" stroke-linejoin="round" stroke-opacity="1.0" stroke-width="3.0"/>
    <path d="M 77.2448501586914 156.9298858642578 C 102.44575500488281 147.43988037109375 97.41427612304688 165.74349975585938 102.94380187988281 124.25289154052734" fill="none" stroke="rgb(0, 0, 0)" stroke-linecap="round" stroke-linejoin="round" stroke-opacity="1.0" stroke-width="3.0"/>
    <path d="M 108.71614074707031 76.90840911865234 C 103.8017349243164 75.86994171142578 120.7146224975586 77.28834533691406 127.9406967163086 92.64659118652344" fill="none" stroke="rgb(0, 0, 0)" stroke-linecap="round" stroke-linejoin="round" stroke-opacity="1.0" stroke-width="3.0"/>
    <path d="M 83.81202697753906 90.16362762451172 C 82.5431900024414 104.97467803955078 84.97672271728516 123.58940124511719 83.79607391357422 106.8420639038086" fill="none" stroke="rgb(0, 0, 0)" stroke-linecap="round" stroke-linejoin="round" stroke-opacity="1.0" stroke-width="3.0"/>
    <path d="M 127.69058227539062 94.94121551513672 C 126.91026306152344 111.16683959960938 132.4900665283203 91.5910873413086 123.8691177368164 107.75385284423828" fill="none" stroke="rgb(0, 0, 0)" stroke-linecap="round" stroke-linejoin="round" stroke-opacity="1.0" stroke-width="3.0"/>
    <path d="M 84.04743194580078 101.7037582397461 C 83.10721588134766 116.8606948852539 107.2006607055664 132.322021484375 120.939208984375 119.70633697509766" fill="none" stroke="rgb(0, 0, 0)" stroke-linecap="round" stroke-linejoin="round" stroke-opacity="1.0" stroke-width="3.0"/>
    <path d="M 77.20098876953125 162.1324920654297 C 92.93820190429688 187.42323303222656 169.59341430664062 156.3162078857422 106.2253189086914 171.1062469482422" fill="none" stroke="rgb(0, 0, 0)" stroke-linecap="round" stroke-linejoin="round" stroke-opacity="1.0" stroke-width="3.0"/>
  </g>
</svg>
