<?xml version="1.0" ?>
<svg height="224" version="1.1" width="224" xmlns="http://www.w3.org/2000/svg">
  <defs/>
  <g>
    <path d="M 94.67758178710938 71.33728790283203 C 93.8797836303711 123.9032211303711 90.54959869384766 90.17617797851562 116.9700927734375 110.61577606201172" fill="none" stroke="rgb(0, 0, 0)" stroke-linecap="round" stroke-linejoin="round" stroke-opacity="1.0" stroke-width="3.0"/>
    <path d="M 112.49168395996094 86.1502685546875 C 125.49183654785156 88.77449035644531 104.98941802978516 92.68634033203125 114.60374450683594 85.08989715576172" fill="none" stroke="rgb(0, 0, 0)" stroke-linecap="round" stroke-linejoin="round" stroke-opacity="1.0" stroke-width="3.0"/>
    <path d="M 93.98918914794922 99.42477416992188 C 94.28636932373047 62.55425262451172 90.80015563964844 72.28730773925781 104.72928619384766 71.67118835449219" fill="none" stroke="rgb(0, 0, 0)" stroke-linecap="round" stroke-linejoin="round" stroke-opacity="1.0" stroke-width="3.0"/>
    <path d="M 118.97262573242188 106.34315490722656 C 125.4249496459961 193.4334259033203 121.30614471435547 198.36082458496094 123.52154541015625 165.7935028076172" fill="none" stroke="rgb(0, 0, 0)" stroke-linecap="round" stroke-linejoin="round" stroke-opacity="1.0" stroke-width="3.0"/>
    <path d="M 121.93911743164062 124.42555236816406 C 121.12952423095703 157.73509216308594 122.26140594482422 126.44155883789062 121.11235046386719 115.15238952636719" fill="none" stroke="rgb(0, 0, 0)" stroke-linecap="round" stroke-linejoin="round" stroke-opacity="1.0" stroke-width="3.0"/>
    <path d="M 125.47063446044922 113.84479522705078 C 115.26433563232422 208.61712646484375 135.26821899414062 182.10787963867188 106.47354125976562 188.25123596191406" fill="none" stroke="rgb(0, 0, 0)" stroke-linecap="round" stroke-linejoin="round" stroke-opacity="1.0" stroke-width="3.0"/>
    <path d="M 110.16461944580078 117.0937271118164 C 94.53109741210938 109.11475372314453 105.38487243652344 139.13783264160156 105.8215103149414 118.07887268066406" fill="none" stroke="rgb(0, 0, 0)" stroke-linecap="round" stroke-linejoin="round" stroke-opacity="1.0" stroke-width="3.0"/>
    <path d="M 99.91154479980469 70.87889099121094 C 153.1045379638672 71.60480499267578 120.0732421875 70.03529357910156 95.74417114257812 71.4792709350586" fill="none" stroke="rgb(0, 0, 0)" stroke-linecap="round" stroke-linejoin="round" stroke-opacity="1.0" stroke-width="3.0"/>
    <path d="M 121.92597198486328 175.96514892578125 C 122.66683197021484 145.8760986328125 127.7123031616211 91.55143737792969 107.57292175292969 115.68444061279297" fill="none" stroke="rgb(0, 0, 0)" stroke-linecap="round" stroke-linejoin="round" stroke-opacity="1.0" stroke-width="3.0"/>
    <path d="M 103.33984375 115.46624755859375 C 103.56205749511719 189.80271911621094 102.95635986328125 207.3223114013672 103.65309143066406 176.44467163085938" fill="none" stroke="rgb(0, 0, 0)" stroke-linecap="round" stroke-linejoin="round" stroke-opacity="1.0" stroke-width="3.0"/>
    <path d="M 130.15419006347656 103.97098541259766 C 129.7203369140625 58.28527069091797 129.32443237304688 73.79301452636719 128.47427368164062 73.11659240722656" fill="none" stroke="rgb(0, 0, 0)" stroke-linecap="round" stroke-linejoin="round" stroke-opacity="1.0" stroke-width="3.0"/>
    <path d="M 119.95438385009766 117.28484344482422 C 125.59103393554688 105.1942138671875 123.38114929199219 130.33663940429688 121.34986877441406 115.09503173828125" fill="none" stroke="rgb(0, 0, 0)" stroke-linecap="round" stroke-linejoin="round" stroke-opacity="1.0" stroke-width="3.0"/>
    <path d="M 96.90911102294922 103.59622192382812 C 173.27928161621094 105.39439392089844 74.52449798583984 100.00563049316406 123.45504760742188 117.47811889648438" fill="none" stroke="rgb(0, 0, 0)" stroke-linecap="round" stroke-linejoin="round" stroke-opacity="1.0" stroke-width="3.0"/>
    <path d="M 104.0706787109375 188.48931884765625 C 105.15054321289062 192.90135192871094 108.92340087890625 185.9813995361328 106.2518081665039 104.5913314819336" fill="none" stroke="rgb(0, 0, 0)" stroke-linecap="round" stroke-linejoin="round" stroke-opacity="1.0" stroke-width="3.0"/>
    <path d="M 97.45429992675781 101.76114654541016 C 145.60391235351562 105.19525146484375 95.60667419433594 109.07879638671875 112.38640594482422 115.08429718017578" fill="none" stroke="rgb(0, 0, 0)" stroke-linecap="round" stroke-linejoin="round" stroke-opacity="1.0" stroke-width="3.0"/>
    <path d="M 103.3164291381836 187.93128967285156 C 105.31123352050781 74.79718017578125 90.74005889892578 121.44151306152344 117.93435668945312 116.25687408447266" fill="none" stroke="rgb(0, 0, 0)" stroke-linecap="round" stroke-linejoin="round" stroke-opacity="1.0" stroke-width="3.0"/>
  </g>
</svg>
