<?xml version="1.0" ?>
<svg height="224" version="1.1" width="224" xmlns="http://www.w3.org/2000/svg">
  <defs/>
  <g>
    <path d="M 151.18455505371094 137.56417846679688 C 154.81385803222656 135.5873565673828 155.48236083984375 144.9423370361328 154.34979248046875 88.809326171875" fill="none" stroke="rgb(0, 0, 0)" stroke-linecap="round" stroke-linejoin="round" stroke-opacity="1.0" stroke-width="3.0"/>
    <path d="M 62.16373825073242 148.58444213867188 C 57.02919387817383 143.6241455078125 52.86408996582031 147.6707305908203 66.0741195678711 151.34283447265625" fill="none" stroke="rgb(0, 0, 0)" stroke-linecap="round" stroke-linejoin="round" stroke-opacity="1.0" stroke-width="3.0"/>
    <path d="M 96.78173828125 126.0209732055664 C 120.0340347290039 135.97225952148438 97.7877426147461 147.71115112304688 98.05684661865234 124.099365234375" fill="none" stroke="rgb(0, 0, 0)" stroke-linecap="round" stroke-linejoin="round" stroke-opacity="1.0" stroke-width="3.0"/>
    <path d="M 58.289947509765625 144.81396484375 C 56.947383880615234 50.95182800292969 50.38115692138672 83.50550842285156 88.87092590332031 73.82527923583984" fill="none" stroke="rgb(0, 0, 0)" stroke-linecap="round" stroke-linejoin="round" stroke-opacity="1.0" stroke-width="3.0"/>
    <path d="M 109.37506866455078 138.3456268310547 C 79.12109375 146.32302856445312 46.06117248535156 154.17311096191406 72.54124450683594 148.96475219726562" fill="none" stroke="rgb(0, 0, 0)" stroke-linecap="round" stroke-linejoin="round" stroke-opacity="1.0" stroke-width="3.0"/>
    <path d="M 132.9027099609375 96.28046417236328 C 158.0380096435547 102.00901794433594 148.652099609375 136.2124481201172 125.77781677246094 137.30435180664062" fill="none" stroke="rgb(0, 0, 0)" stroke-linecap="round" stroke-linejoin="round" stroke-opacity="1.0" stroke-width="3.0"/>
    <path d="M 150.48651123046875 87.1021499633789 C 87.1126480102539 79.4110336303711 85.48986053466797 76.67693328857422 152.0899658203125 86.67211151123047" fill="none" stroke="rgb(0, 0, 0)" stroke-linecap="round" stroke-linejoin="round" stroke-opacity="1.0" stroke-width="3.0"/>
    <path d="M 101.67278289794922 107.9505844116211 C 110.01288604736328 168.1553955078125 99.4525375366211 117.75828552246094 100.85709381103516 107.99629974365234" fill="none" stroke="rgb(0, 0, 0)" stroke-linecap="round" stroke-linejoin="round" stroke-opacity="1.0" stroke-width="3.0"/>
    <path d="M 98.0738296508789 80.55570983886719 C 78.0779800415039 78.29157257080078 55.25292205810547 75.77789306640625 121.65272521972656 87.05216217041016" fill="none" stroke="rgb(0, 0, 0)" stroke-linecap="round" stroke-linejoin="round" stroke-opacity="1.0" stroke-width="3.0"/>
    <path d="M 128.7995147705078 85.2708511352539 C 120.59798431396484 98.03478240966797 166.6393585205078 86.39552307128906 78.0881576538086 76.32159423828125" fill="none" stroke="rgb(0, 0, 0)" stroke-linecap="round" stroke-linejoin="round" stroke-opacity="1.0" stroke-width="3.0"/>
    <path d="M 102.78733825683594 119.61265563964844 C 114.8199691772461 149.27015686035156 120.10513305664062 142.28460693359375 149.99559020996094 139.01722717285156" fill="none" stroke="rgb(0, 0, 0)" stroke-linecap="round" stroke-linejoin="round" stroke-opacity="1.0" stroke-width="3.0"/>
    <path d="M 90.25247192382812 74.56014251708984 C 91.25812530517578 87.51220703125 144.9464874267578 73.27857208251953 110.29399871826172 89.37763977050781" fill="none" stroke="rgb(0, 0, 0)" stroke-linecap="round" stroke-linejoin="round" stroke-opacity="1.0" stroke-width="3.0"/>
    <path d="M 60.97611618041992 149.1770782470703 C 136.14564514160156 138.69058227539062 159.4456329345703 139.39752197265625 67.02465057373047 151.09925842285156" fill="none" stroke="rgb(0, 0, 0)" stroke-linecap="round" stroke-linejoin="round" stroke-opacity="1.0" stroke-width="3.0"/>
    <path d="M 100.5633316040039 128.4267120361328 C 85.79830169677734 160.54098510742188 125.43792724609375 137.33786010742188 97.47332763671875 134.07061767578125" fill="none" stroke="rgb(0, 0, 0)" stroke-linecap="round" stroke-linejoin="round" stroke-opacity="1.0" stroke-width="3.0"/>
    <path d="M 131.9523468017578 135.11660766601562 C 106.7200927734375 137.41990661621094 106.82744598388672 85.79193878173828 138.08616638183594 98.52308654785156" fill="none" stroke="rgb(0, 0, 0)" stroke-linecap="round" stroke-linejoin="round" stroke-opacity="1.0" stroke-width="3.0"/>
    <path d="M 106.2450942993164 88.01018524169922 C 97.44204711914062 168.01611328125 93.65560913085938 155.6969451904297 98.73126220703125 83.82656860351562" fill="none" stroke="rgb(0, 0, 0)" stroke-linecap="round" stroke-linejoin="round" stroke-opacity="1.0" stroke-width="3.0"/>
  </g>
</svg>
