<?xml version="1.0" ?>
<svg height="224" version="1.1" width="224" xmlns="http://www.w3.org/2000/svg">
  <defs/>
  <g>
    <path d="M 138.7017822265625 128.8496856689453 C 143.1165008544922 134.83323669433594 143.6182098388672 38.70957946777344 142.96397399902344 134.16966247558594" fill="none" stroke="rgb(0, 0, 0)" stroke-linecap="round" stroke-linejoin="round" stroke-opacity="1.0" stroke-width="3.0"/>
    <path d="M 52.49505615234375 80.85147857666016 C 194.26852416992188 95.19573974609375 82.10336303710938 93.68803405761719 72.17674255371094 85.5478744506836" fill="none" stroke="rgb(0, 0, 0)" stroke-linecap="round" stroke-linejoin="round" stroke-opacity="1.0" stroke-width="3.0"/>
    <path d="M 115.28575897216797 124.88713073730469 C 63.10681915283203 151.59091186523438 31.65233039855957 137.14370727539062 59.102294921875 141.8301239013672" fill="none" stroke="rgb(0, 0, 0)" stroke-linecap="round" stroke-linejoin="round" stroke-opacity="1.0" stroke-width="3.0"/>
    <path d="M 139.13037109375 95.56088256835938 C 49.17109680175781 84.3105697631836 148.4187774658203 91.6589584350586 143.4608154296875 92.56977081298828" fill="none" stroke="rgb(0, 0, 0)" stroke-linecap="round" stroke-linejoin="round" stroke-opacity="1.0" stroke-width="3.0"/>
    <path d="M 119.82221984863281 96.95671081542969 C 163.3515625 112.73445892333984 135.8701629638672 92.03507995605469 116.07795715332031 89.42576599121094" fill="none" stroke="rgb(0, 0, 0)" stroke-linecap="round" stroke-linejoin="round" stroke-opacity="1.0" stroke-width="3.0"/>
    <path d="M 50.059669494628906 81.03407287597656 C 51.50808334350586 149.40707397460938 56.44005584716797 50.132633209228516 61.24003219604492 80.14482116699219" fill="none" stroke="rgb(0, 0, 0)" stroke-linecap="round" stroke-linejoin="round" stroke-opacity="1.0" stroke-width="3.0"/>
    <path d="M 95.38304138183594 87.1240463256836 C 106.87055969238281 91.77149200439453 103.65369415283203 88.58097839355469 104.17931365966797 90.18059539794922" fill="none" stroke="rgb(0, 0, 0)" stroke-linecap="round" stroke-linejoin="round" stroke-opacity="1.0" stroke-width="3.0"/>
    <path d="M 112.64341735839844 90.79723358154297 C 111.64881134033203 63.216609954833984 109.8189926147461 93.87152862548828 102.29315948486328 130.05458068847656" fill="none" stroke="rgb(0, 0, 0)" stroke-linecap="round" stroke-linejoin="round" stroke-opacity="1.0" stroke-width="3.0"/>
    <path d="M 50.872528076171875 140.84835815429688 C 45.25562286376953 48.738548278808594 80.31334686279297 62.80828857421875 78.44319152832031 137.95391845703125" fill="none" stroke="rgb(0, 0, 0)" stroke-linecap="round" stroke-linejoin="round" stroke-opacity="1.0" stroke-width="3.0"/>
    <path d="M 107.3252944946289 90.70394897460938 C 103.15576171875 83.81990051269531 119.40655517578125 84.92652893066406 85.95526123046875 82.69152069091797" fill="none" stroke="rgb(0, 0, 0)" stroke-linecap="round" stroke-linejoin="round" stroke-opacity="1.0" stroke-width="3.0"/>
    <path d="M 102.84925842285156 81.72604370117188 C 97.4234848022461 99.32487487792969 154.8411865234375 109.03888702392578 71.80204010009766 84.64122009277344" fill="none" stroke="rgb(0, 0, 0)" stroke-linecap="round" stroke-linejoin="round" stroke-opacity="1.0" stroke-width="3.0"/>
    <path d="M 112.87577819824219 91.11768341064453 C 104.9974594116211 87.8216552734375 98.30758666992188 77.06294250488281 119.52406311035156 95.30120086669922" fill="none" stroke="rgb(0, 0, 0)" stroke-linecap="round" stroke-linejoin="round" stroke-opacity="1.0" stroke-width="3.0"/>
    <path d="M 52.6592903137207 140.7869110107422 C 71.2227554321289 145.5303497314453 34.84096145629883 137.975341796875 140.6338653564453 135.2963409423828" fill="none" stroke="rgb(0, 0, 0)" stroke-linecap="round" stroke-linejoin="round" stroke-opacity="1.0" stroke-width="3.0"/>
    <path d="M 114.59461975097656 127.24193572998047 C 120.24860382080078 89.53936767578125 122.95890808105469 127.41509246826172 114.59095001220703 93.32247924804688" fill="none" stroke="rgb(0, 0, 0)" stroke-linecap="round" stroke-linejoin="round" stroke-opacity="1.0" stroke-width="3.0"/>
    <path d="M 129.09400939941406 99.94165802001953 C 112.39558410644531 95.16340637207031 135.5693817138672 99.69187927246094 142.17263793945312 103.89045715332031" fill="none" stroke="rgb(0, 0, 0)" stroke-linecap="round" stroke-linejoin="round" stroke-opacity="1.0" stroke-width="3.0"/>
    <path d="M 108.0046157836914 131.4683837890625 C 152.97952270507812 109.36311340332031 149.7303924560547 115.53038787841797 126.23881530761719 129.59051513671875" fill="none" stroke="rgb(0, 0, 0)" stroke-linecap="round" stroke-linejoin="round" stroke-opacity="1.0" stroke-width="3.0"/>
  </g>
</svg>
