<?xml version="1.0" ?>
<svg height="224" version="1.1" width="224" xmlns="http://www.w3.org/2000/svg">
  <defs/>
  <g>
    <path d="M 148.97422790527344 127.89842224121094 C 95.18783569335938 120.83370971679688 171.51937866210938 110.5792236328125 109.25520324707031 126.79481506347656" fill="none" stroke="rgb(0, 0, 0)" stroke-linecap="round" stroke-linejoin="round" stroke-opacity="1.0" stroke-width="3.0"/>
    <path d="M 111.69200897216797 127.36660766601562 C 119.30524444580078 117.66801452636719 97.53630065917969 137.41070556640625 147.82679748535156 105.98162078857422" fill="none" stroke="rgb(0, 0, 0)" stroke-linecap="round" stroke-linejoin="round" stroke-opacity="1.0" stroke-width="3.0"/>
    <path d="M 146.64695739746094 109.8685531616211 C 157.25743103027344 45.775657653808594 119.30935668945312 71.13932800292969 152.47303771972656 58.889095306396484" fill="none" stroke="rgb(0, 0, 0)" stroke-linecap="round" stroke-linejoin="round" stroke-opacity="1.0" stroke-width="3.0"/>
    <path d="M 68.53226470947266 56.96267318725586 C 125.29135131835938 70.5132064819336 77.35615539550781 44.81782531738281 79.4623031616211 108.71623992919922" fill="none" stroke="rgb(0, 0, 0)" stroke-linecap="round" stroke-linejoin="round" stroke-opacity="1.0" stroke-width="3.0"/>
    <path d="M 127.36222839355469 122.43204498291016 C 99.18998718261719 130.1758270263672 62.691734313964844 123.14969635009766 122.17005157470703 127.08610534667969" fill="none" stroke="rgb(0, 0, 0)" stroke-linecap="round" stroke-linejoin="round" stroke-opacity="1.0" stroke-width="3.0"/>
    <path d="M 102.01726531982422 125.94558715820312 C 77.75873565673828 87.26519012451172 77.8759536743164 136.1497802734375 78.50016021728516 77.16157531738281" fill="none" stroke="rgb(0, 0, 0)" stroke-linecap="round" stroke-linejoin="round" stroke-opacity="1.0" stroke-width="3.0"/>
    <path d="M 131.98751831054688 115.48115539550781 C 128.87364196777344 138.5821075439453 84.23674011230469 114.89661407470703 94.08848571777344 124.63679504394531" fill="none" stroke="rgb(0, 0, 0)" stroke-linecap="round" stroke-linejoin="round" stroke-opacity="1.0" stroke-width="3.0"/>
    <path d="M 99.7816390991211 123.6989517211914 C 69.00321197509766 106.68830108642578 137.65164184570312 140.95819091796875 128.46475219726562 119.70524597167969" fill="none" stroke="rgb(0, 0, 0)" stroke-linecap="round" stroke-linejoin="round" stroke-opacity="1.0" stroke-width="3.0"/>
    <path d="M 68.83993530273438 125.47217559814453 C 123.4573974609375 116.3307876586914 86.57164764404297 125.58223724365234 101.63921356201172 126.43356323242188" fill="none" stroke="rgb(0, 0, 0)" stroke-linecap="round" stroke-linejoin="round" stroke-opacity="1.0" stroke-width="3.0"/>
    <path d="M 92.00176239013672 116.09303283691406 C 93.88627624511719 104.22392272949219 81.94892883300781 125.4265365600586 109.06639862060547 126.2223129272461" fill="none" stroke="rgb(0, 0, 0)" stroke-linecap="round" stroke-linejoin="round" stroke-opacity="1.0" stroke-width="3.0"/>
    <path d="M 125.65084838867188 123.32190704345703 C 121.23875427246094 127.27934265136719 63.16938781738281 118.93120574951172 113.199951171875 123.4985122680664" fill="none" stroke="rgb(0, 0, 0)" stroke-linecap="round" stroke-linejoin="round" stroke-opacity="1.0" stroke-width="3.0"/>
    <path d="M 80.07131958007812 77.71260833740234 C 73.98870849609375 127.45845794677734 130.16763305664062 123.12751770019531 121.35586547851562 126.28656768798828" fill="none" stroke="rgb(0, 0, 0)" stroke-linecap="round" stroke-linejoin="round" stroke-opacity="1.0" stroke-width="3.0"/>
    <path d="M 102.99051666259766 123.98799133300781 C 76.18537139892578 119.47408294677734 96.5152587890625 125.18856811523438 131.57810974121094 127.87802124023438" fill="none" stroke="rgb(0, 0, 0)" stroke-linecap="round" stroke-linejoin="round" stroke-opacity="1.0" stroke-width="3.0"/>
    <path d="M 133.4437713623047 122.06715393066406 C 102.56689453125 134.70013427734375 95.70811462402344 116.65144348144531 99.326904296875 122.3983154296875" fill="none" stroke="rgb(0, 0, 0)" stroke-linecap="round" stroke-linejoin="round" stroke-opacity="1.0" stroke-width="3.0"/>
    <path d="M 102.64170837402344 122.40635681152344 C 94.49462890625 107.58016204833984 68.22863006591797 131.49713134765625 131.66281127929688 126.60643768310547" fill="none" stroke="rgb(0, 0, 0)" stroke-linecap="round" stroke-linejoin="round" stroke-opacity="1.0" stroke-width="3.0"/>
    <path d="M 153.6342315673828 57.39928436279297 C 48.55912399291992 56.2110595703125 59.89120101928711 57.880271911621094 103.26655578613281 58.53046798706055" fill="none" stroke="rgb(0, 0, 0)" stroke-linecap="round" stroke-linejoin="round" stroke-opacity="1.0" stroke-width="3.0"/>
  </g>
</svg>
