<?xml version="1.0" ?>
<svg height="224" version="1.1" width="224" xmlns="http://www.w3.org/2000/svg">
  <defs/>
  <g>
    <path d="M 119.85688781738281 93.6416244506836 C 151.52830505371094 124.84538269042969 117.04397583007812 132.45425415039062 98.60794830322266 105.87602233886719" fill="none" stroke="rgb(0, 0, 0)" stroke-linecap="round" stroke-linejoin="round" stroke-opacity="1.0" stroke-width="3.0"/>
    <path d="M 133.05165100097656 107.33319091796875 C 115.06554412841797 137.2174530029297 143.23683166503906 118.37677001953125 132.2587127685547 100.61609649658203" fill="none" stroke="rgb(0, 0, 0)" stroke-linecap="round" stroke-linejoin="round" stroke-opacity="1.0" stroke-width="3.0"/>
    <path d="M 98.07537841796875 111.45793914794922 C 104.23217010498047 130.70889282226562 158.34713745117188 134.81533813476562 102.32630920410156 101.73861694335938" fill="none" stroke="rgb(0, 0, 0)" stroke-linecap="round" stroke-linejoin="round" stroke-opacity="1.0" stroke-width="3.0"/>
    <path d="M 127.4528579711914 118.43368530273438 C 141.79931640625 95.123779296875 94.31241607666016 131.96229553222656 133.97958374023438 110.44697570800781" fill="none" stroke="rgb(0, 0, 0)" stroke-linecap="round" stroke-linejoin="round" stroke-opacity="1.0" stroke-width="3.0"/>
    <path d="M 97.68502044677734 103.849365234375 C 93.5182876586914 128.69668579101562 118.34547424316406 140.08847045898438 137.00827026367188 119.20777130126953" fill="none" stroke="rgb(0, 0, 0)" stroke-linecap="round" stroke-linejoin="round" stroke-opacity="1.0" stroke-width="3.0"/>
    <path d="M 132.22491455078125 104.21443939208984 C 136.01486206054688 118.75732421875 130.10806274414062 101.93647003173828 136.23289489746094 102.70777130126953" fill="none" stroke="rgb(0, 0, 0)" stroke-linecap="round" stroke-linejoin="round" stroke-opacity="1.0" stroke-width="3.0"/>
    <path d="M 140.18312072753906 120.96315002441406 C 143.6123504638672 83.2832260131836 128.87469482421875 102.67186737060547 132.19992065429688 109.00049591064453" fill="none" stroke="rgb(0, 0, 0)" stroke-linecap="round" stroke-linejoin="round" stroke-opacity="1.0" stroke-width="3.0"/>
    <path d="M 111.8057861328125 126.74542999267578 C 81.00627136230469 118.57605743408203 114.23922729492188 101.47299194335938 118.31327819824219 133.58905029296875" fill="none" stroke="rgb(0, 0, 0)" stroke-linecap="round" stroke-linejoin="round" stroke-opacity="1.0" stroke-width="3.0"/>
    <path d="M 133.40005493164062 119.056884765625 C 121.33761596679688 122.5091323852539 140.34197998046875 132.50030517578125 134.42698669433594 101.94879913330078" fill="none" stroke="rgb(0, 0, 0)" stroke-linecap="round" stroke-linejoin="round" stroke-opacity="1.0" stroke-width="3.0"/>
    <path d="M 70.8021011352539 124.0340576171875 C 69.44837951660156 126.8407974243164 76.94383239746094 102.32090759277344 106.53948211669922 111.47858428955078" fill="none" stroke="rgb(0, 0, 0)" stroke-linecap="round" stroke-linejoin="round" stroke-opacity="1.0" stroke-width="3.0"/>
    <path d="M 106.11335754394531 103.66288757324219 C 130.7541961669922 117.6773910522461 119.26725006103516 136.20606994628906 134.02462768554688 121.4955825805664" fill="none" stroke="rgb(0, 0, 0)" stroke-linecap="round" stroke-linejoin="round" stroke-opacity="1.0" stroke-width="3.0"/>
    <path d="M 110.30389404296875 103.93783569335938 C 81.25264739990234 127.19425201416016 105.52989196777344 65.83517456054688 135.21600341796875 98.76396179199219" fill="none" stroke="rgb(0, 0, 0)" stroke-linecap="round" stroke-linejoin="round" stroke-opacity="1.0" stroke-width="3.0"/>
    <path d="M 124.97233581542969 123.74698638916016 C 90.84728240966797 121.46558380126953 98.32574462890625 92.4820785522461 98.00220489501953 114.24009704589844" fill="none" stroke="rgb(0, 0, 0)" stroke-linecap="round" stroke-linejoin="round" stroke-opacity="1.0" stroke-width="3.0"/>
    <path d="M 124.2960433959961 128.0279083251953 C 78.146484375 123.17097473144531 108.86489868164062 85.82430267333984 102.86636352539062 104.2193832397461" fill="none" stroke="rgb(0, 0, 0)" stroke-linecap="round" stroke-linejoin="round" stroke-opacity="1.0" stroke-width="3.0"/>
    <path d="M 96.76322937011719 108.75255584716797 C 119.42459106445312 133.78736877441406 131.815673828125 126.04266357421875 99.42300415039062 112.69970703125" fill="none" stroke="rgb(0, 0, 0)" stroke-linecap="round" stroke-linejoin="round" stroke-opacity="1.0" stroke-width="3.0"/>
    <path d="M 40.04616928100586 134.00473022460938 C 59.30401611328125 132.97947692871094 63.07244110107422 138.4375762939453 71.39273834228516 121.85135650634766" fill="none" stroke="rgb(0, 0, 0)" stroke-linecap="round" stroke-linejoin="round" stroke-opacity="1.0" stroke-width="3.0"/>
  </g>
</svg>
