<?xml version="1.0" ?>
<svg height="224" version="1.1" width="224" xmlns="http://www.w3.org/2000/svg">
  <defs/>
  <g>
    <path d="M 170.8682861328125 150.64981079101562 C 36.8371467590332 151.74755859375 76.74431610107422 153.05735778808594 98.76880645751953 142.79470825195312" fill="none" stroke="rgb(0, 0, 0)" stroke-linecap="round" stroke-linejoin="round" stroke-opacity="1.0" stroke-width="3.0"/>
    <path d="M 94.59751892089844 89.93221282958984 C 54.535911560058594 96.00062561035156 67.40430450439453 72.19862365722656 66.3198013305664 140.44334411621094" fill="none" stroke="rgb(0, 0, 0)" stroke-linecap="round" stroke-linejoin="round" stroke-opacity="1.0" stroke-width="3.0"/>
    <path d="M 111.39440155029297 104.04859161376953 C 97.41923522949219 110.46926879882812 101.29344940185547 57.57367706298828 103.1825180053711 150.44476318359375" fill="none" stroke="rgb(0, 0, 0)" stroke-linecap="round" stroke-linejoin="round" stroke-opacity="1.0" stroke-width="3.0"/>
    <path d="M 171.51817321777344 128.329833984375 C 172.57456970214844 102.9061279296875 171.58018493652344 129.7619171142578 172.26925659179688 96.22526550292969" fill="none" stroke="rgb(0, 0, 0)" stroke-linecap="round" stroke-linejoin="round" stroke-opacity="1.0" stroke-width="3.0"/>
    <path d="M 127.89710998535156 138.54055786132812 C 100.06183624267578 99.76882934570312 180.75233459472656 46.904701232910156 171.45321655273438 150.09024047851562" fill="none" stroke="rgb(0, 0, 0)" stroke-linecap="round" stroke-linejoin="round" stroke-opacity="1.0" stroke-width="3.0"/>
    <path d="M 114.22889709472656 107.15129089355469 C 205.46926879882812 101.9809341430664 145.59239196777344 178.2482452392578 121.56635284423828 131.972900390625" fill="none" stroke="rgb(0, 0, 0)" stroke-linecap="round" stroke-linejoin="round" stroke-opacity="1.0" stroke-width="3.0"/>
    <path d="M 133.7069091796875 103.17234802246094 C 173.7394256591797 61.450767517089844 93.07540130615234 112.89864349365234 142.02487182617188 146.52603149414062" fill="none" stroke="rgb(0, 0, 0)" stroke-linecap="round" stroke-linejoin="round" stroke-opacity="1.0" stroke-width="3.0"/>
    <path d="M 143.58187866210938 110.8005142211914 C 32.736568450927734 103.28209686279297 176.26455688476562 107.41975402832031 164.6140594482422 100.73135375976562" fill="none" stroke="rgb(0, 0, 0)" stroke-linecap="round" stroke-linejoin="round" stroke-opacity="1.0" stroke-width="3.0"/>
    <path d="M 142.77490234375 102.54252624511719 C 240.10406494140625 99.14234161376953 8.011919975280762 97.47087097167969 136.6851348876953 99.83248901367188" fill="none" stroke="rgb(0, 0, 0)" stroke-linecap="round" stroke-linejoin="round" stroke-opacity="1.0" stroke-width="3.0"/>
    <path d="M 122.95504760742188 145.14999389648438 C 111.1417007446289 113.73772430419922 116.30652618408203 155.2120361328125 112.82720184326172 106.85993194580078" fill="none" stroke="rgb(0, 0, 0)" stroke-linecap="round" stroke-linejoin="round" stroke-opacity="1.0" stroke-width="3.0"/>
    <path d="M 104.7828598022461 102.02619171142578 C 193.7021942138672 103.23946380615234 183.34266662597656 107.50818634033203 129.1118621826172 104.19972229003906" fill="none" stroke="rgb(0, 0, 0)" stroke-linecap="round" stroke-linejoin="round" stroke-opacity="1.0" stroke-width="3.0"/>
    <path d="M 136.8914337158203 94.41959381103516 C 189.00123596191406 96.38810729980469 148.9778594970703 105.2245864868164 140.2129669189453 98.06013488769531" fill="none" stroke="rgb(0, 0, 0)" stroke-linecap="round" stroke-linejoin="round" stroke-opacity="1.0" stroke-width="3.0"/>
    <path d="M 167.1761474609375 94.57574462890625 C -21.72397804260254 85.56940460205078 119.30802154541016 109.15904235839844 170.43313598632812 96.49317169189453" fill="none" stroke="rgb(0, 0, 0)" stroke-linecap="round" stroke-linejoin="round" stroke-opacity="1.0" stroke-width="3.0"/>
    <path d="M 110.35318756103516 98.1921157836914 C 117.03034973144531 97.16969299316406 49.835784912109375 108.45918273925781 75.26934051513672 100.53750610351562" fill="none" stroke="rgb(0, 0, 0)" stroke-linecap="round" stroke-linejoin="round" stroke-opacity="1.0" stroke-width="3.0"/>
    <path d="M 104.83122253417969 149.0023651123047 C 56.49613571166992 150.5469512939453 104.62806701660156 152.06663513183594 93.37754821777344 148.7456817626953" fill="none" stroke="rgb(0, 0, 0)" stroke-linecap="round" stroke-linejoin="round" stroke-opacity="1.0" stroke-width="3.0"/>
    <path d="M 66.52072143554688 135.15606689453125 C 69.97196197509766 155.6757354736328 52.56856155395508 153.18492126464844 98.6893081665039 151.96597290039062" fill="none" stroke="rgb(0, 0, 0)" stroke-linecap="round" stroke-linejoin="round" stroke-opacity="1.0" stroke-width="3.0"/>
  </g>
</svg>
