<?xml version="1.0" ?>
<svg height="224" version="1.1" width="224" xmlns="http://www.w3.org/2000/svg">
  <defs/>
  <g>
    <path d="M 129.0028533935547 109.07232666015625 C 152.12881469726562 107.89137268066406 134.26080322265625 114.46429443359375 128.26028442382812 109.953369140625" fill="none" stroke="rgb(0, 0, 0)" stroke-linecap="round" stroke-linejoin="round" stroke-opacity="1.0" stroke-width="3.0"/>
    <path d="M 130.86170959472656 102.08008575439453 C 126.33837127685547 103.25599670410156 148.16184997558594 99.94969940185547 168.97557067871094 100.8561019897461" fill="none" stroke="rgb(0, 0, 0)" stroke-linecap="round" stroke-linejoin="round" stroke-opacity="1.0" stroke-width="3.0"/>
    <path d="M 126.93804168701172 114.4233627319336 C 71.38138580322266 118.77764129638672 106.39521789550781 115.31672668457031 98.17449188232422 91.21189880371094" fill="none" stroke="rgb(0, 0, 0)" stroke-linecap="round" stroke-linejoin="round" stroke-opacity="1.0" stroke-width="3.0"/>
    <path d="M 128.59979248046875 88.71625518798828 C 193.64390563964844 91.67443084716797 211.38711547851562 85.7684555053711 137.46670532226562 87.84050750732422" fill="none" stroke="rgb(0, 0, 0)" stroke-linecap="round" stroke-linejoin="round" stroke-opacity="1.0" stroke-width="3.0"/>
    <path d="M 133.41900634765625 88.85968017578125 C 149.19769287109375 91.70728302001953 156.85084533691406 86.15967559814453 120.10926818847656 87.51171112060547" fill="none" stroke="rgb(0, 0, 0)" stroke-linecap="round" stroke-linejoin="round" stroke-opacity="1.0" stroke-width="3.0"/>
    <path d="M 183.6163330078125 87.47666931152344 C 160.233642578125 93.39266967773438 185.1133270263672 87.5130615234375 173.76914978027344 90.74862670898438" fill="none" stroke="rgb(0, 0, 0)" stroke-linecap="round" stroke-linejoin="round" stroke-opacity="1.0" stroke-width="3.0"/>
    <path d="M 113.78277587890625 103.82329559326172 C 144.94041442871094 100.94376373291016 163.43299865722656 99.47189331054688 100.46710968017578 100.79621887207031" fill="none" stroke="rgb(0, 0, 0)" stroke-linecap="round" stroke-linejoin="round" stroke-opacity="1.0" stroke-width="3.0"/>
    <path d="M 123.83136749267578 106.69692993164062 C 148.03883361816406 102.94329071044922 140.0435333251953 110.37954711914062 115.03495025634766 114.23469543457031" fill="none" stroke="rgb(0, 0, 0)" stroke-linecap="round" stroke-linejoin="round" stroke-opacity="1.0" stroke-width="3.0"/>
    <path d="M 110.13619995117188 118.86808776855469 C 125.30439758300781 116.84158325195312 141.473876953125 113.81560516357422 126.54893493652344 102.32060241699219" fill="none" stroke="rgb(0, 0, 0)" stroke-linecap="round" stroke-linejoin="round" stroke-opacity="1.0" stroke-width="3.0"/>
    <path d="M 127.1725845336914 88.56942749023438 C 124.23397064208984 89.30235290527344 138.1688232421875 89.74301147460938 132.03192138671875 89.02474212646484" fill="none" stroke="rgb(0, 0, 0)" stroke-linecap="round" stroke-linejoin="round" stroke-opacity="1.0" stroke-width="3.0"/>
    <path d="M 170.83535766601562 98.36766052246094 C 166.98629760742188 85.04714965820312 194.91079711914062 89.55878448486328 134.50880432128906 89.29835510253906" fill="none" stroke="rgb(0, 0, 0)" stroke-linecap="round" stroke-linejoin="round" stroke-opacity="1.0" stroke-width="3.0"/>
    <path d="M 125.63060760498047 102.7677993774414 C 129.482666015625 125.6834945678711 95.1763687133789 123.96036529541016 110.79883575439453 123.1849136352539" fill="none" stroke="rgb(0, 0, 0)" stroke-linecap="round" stroke-linejoin="round" stroke-opacity="1.0" stroke-width="3.0"/>
    <path d="M 99.02742004394531 87.52896881103516 C 130.0597381591797 87.27587890625 122.74043273925781 88.70636749267578 129.35226440429688 89.33235931396484" fill="none" stroke="rgb(0, 0, 0)" stroke-linecap="round" stroke-linejoin="round" stroke-opacity="1.0" stroke-width="3.0"/>
    <path d="M 135.8269805908203 100.82423400878906 C 120.85897827148438 122.51568603515625 85.27359008789062 127.66740417480469 119.45684814453125 115.98013305664062" fill="none" stroke="rgb(0, 0, 0)" stroke-linecap="round" stroke-linejoin="round" stroke-opacity="1.0" stroke-width="3.0"/>
    <path d="M 99.22241973876953 117.24087524414062 C 110.26454162597656 144.66343688964844 110.31702423095703 125.95249938964844 106.99633026123047 122.42127227783203" fill="none" stroke="rgb(0, 0, 0)" stroke-linecap="round" stroke-linejoin="round" stroke-opacity="1.0" stroke-width="3.0"/>
    <path d="M 140.79598999023438 103.63275909423828 C 133.99844360351562 127.41065979003906 128.1935272216797 100.20684051513672 146.189453125 100.89253997802734" fill="none" stroke="rgb(0, 0, 0)" stroke-linecap="round" stroke-linejoin="round" stroke-opacity="1.0" stroke-width="3.0"/>
  </g>
</svg>
