<?xml version="1.0" ?>
<svg height="224" version="1.1" width="224" xmlns="http://www.w3.org/2000/svg">
  <defs/>
  <g>
    <path d="M 94.78291320800781 104.33586883544922 C 92.0945816040039 135.60833740234375 88.36714172363281 144.88429260253906 94.01132202148438 105.346923828125" fill="none" stroke="rgb(0, 0, 0)" stroke-linecap="round" stroke-linejoin="round" stroke-opacity="1.0" stroke-width="3.0"/>
    <path d="M 121.18814086914062 81.75530242919922 C 111.13443756103516 112.24152374267578 129.46926879882812 99.16363525390625 107.43722534179688 104.29187774658203" fill="none" stroke="rgb(0, 0, 0)" stroke-linecap="round" stroke-linejoin="round" stroke-opacity="1.0" stroke-width="3.0"/>
    <path d="M 120.28014373779297 101.53665924072266 C 118.9858627319336 156.32388305664062 118.75682067871094 124.0192642211914 117.62876892089844 98.74391174316406" fill="none" stroke="rgb(0, 0, 0)" stroke-linecap="round" stroke-linejoin="round" stroke-opacity="1.0" stroke-width="3.0"/>
    <path d="M 115.56842803955078 138.0449676513672 C 125.86030578613281 83.09273529052734 138.213134765625 103.09158325195312 109.22588348388672 99.55288696289062" fill="none" stroke="rgb(0, 0, 0)" stroke-linecap="round" stroke-linejoin="round" stroke-opacity="1.0" stroke-width="3.0"/>
    <path d="M 110.69189453125 103.11795043945312 C 93.05067443847656 108.6698226928711 94.70523071289062 89.8486328125 94.00473022460938 129.1716766357422" fill="none" stroke="rgb(0, 0, 0)" stroke-linecap="round" stroke-linejoin="round" stroke-opacity="1.0" stroke-width="3.0"/>
    <path d="M 109.73685455322266 103.31275939941406 C 126.93436431884766 101.88339233398438 131.0410614013672 99.27115631103516 94.59757995605469 104.00652313232422" fill="none" stroke="rgb(0, 0, 0)" stroke-linecap="round" stroke-linejoin="round" stroke-opacity="1.0" stroke-width="3.0"/>
    <path d="M 125.08728790283203 103.82588958740234 C 121.10318756103516 73.87738037109375 131.93955993652344 115.1264877319336 118.49362182617188 105.7470932006836" fill="none" stroke="rgb(0, 0, 0)" stroke-linecap="round" stroke-linejoin="round" stroke-opacity="1.0" stroke-width="3.0"/>
    <path d="M 98.23382568359375 101.84928894042969 C 139.9415740966797 99.99708557128906 127.6260986328125 105.88439178466797 110.60938262939453 102.63455200195312" fill="none" stroke="rgb(0, 0, 0)" stroke-linecap="round" stroke-linejoin="round" stroke-opacity="1.0" stroke-width="3.0"/>
    <path d="M 120.80628204345703 114.85803985595703 C 114.504150390625 85.16488647460938 124.14285278320312 70.6622543334961 122.55181884765625 116.64797973632812" fill="none" stroke="rgb(0, 0, 0)" stroke-linecap="round" stroke-linejoin="round" stroke-opacity="1.0" stroke-width="3.0"/>
    <path d="M 107.93762969970703 92.66483306884766 C 105.38642883300781 114.8335952758789 125.32120513916016 98.11685943603516 109.76998138427734 104.62437438964844" fill="none" stroke="rgb(0, 0, 0)" stroke-linecap="round" stroke-linejoin="round" stroke-opacity="1.0" stroke-width="3.0"/>
    <path d="M 118.7627944946289 103.29436492919922 C 84.38449096679688 102.17888641357422 92.25221252441406 105.6359634399414 99.15646362304688 100.06092071533203" fill="none" stroke="rgb(0, 0, 0)" stroke-linecap="round" stroke-linejoin="round" stroke-opacity="1.0" stroke-width="3.0"/>
    <path d="M 121.25242614746094 83.9166259765625 C 95.13764953613281 81.99929809570312 133.0171661376953 74.28083038330078 118.63493347167969 84.66870880126953" fill="none" stroke="rgb(0, 0, 0)" stroke-linecap="round" stroke-linejoin="round" stroke-opacity="1.0" stroke-width="3.0"/>
    <path d="M 119.92156982421875 113.0943603515625 C 122.10127258300781 153.95016479492188 98.28690338134766 117.2684326171875 104.60137176513672 136.3623809814453" fill="none" stroke="rgb(0, 0, 0)" stroke-linecap="round" stroke-linejoin="round" stroke-opacity="1.0" stroke-width="3.0"/>
    <path d="M 120.22327423095703 88.1080093383789 C 140.0611114501953 107.46268463134766 110.18744659423828 105.06356048583984 94.69495391845703 103.79305267333984" fill="none" stroke="rgb(0, 0, 0)" stroke-linecap="round" stroke-linejoin="round" stroke-opacity="1.0" stroke-width="3.0"/>
    <path d="M 94.94649505615234 128.6993408203125 C 105.47366333007812 133.8616485595703 148.6551513671875 126.53106689453125 95.07034301757812 129.6810302734375" fill="none" stroke="rgb(0, 0, 0)" stroke-linecap="round" stroke-linejoin="round" stroke-opacity="1.0" stroke-width="3.0"/>
    <path d="M 125.73491668701172 106.98451232910156 C 124.5978775024414 89.61286926269531 126.3955078125 104.50468444824219 120.94486999511719 103.84115600585938" fill="none" stroke="rgb(0, 0, 0)" stroke-linecap="round" stroke-linejoin="round" stroke-opacity="1.0" stroke-width="3.0"/>
  </g>
</svg>
