<?xml version="1.0" ?>
<svg height="224" version="1.1" width="224" xmlns="http://www.w3.org/2000/svg">
  <defs/>
  <g>
    <path d="M 118.35987854003906 133.45872497558594 C 96.47825622558594 63.37004089355469 109.21312713623047 70.22045135498047 106.65106964111328 139.36050415039062" fill="none" stroke="rgb(0, 0, 0)" stroke-linecap="round" stroke-linejoin="round" stroke-opacity="1.0" stroke-width="3.0"/>
    <path d="M 124.4974594116211 94.35441589355469 C 124.68526458740234 128.8391571044922 150.11541748046875 125.6468276977539 82.94727325439453 138.4130096435547" fill="none" stroke="rgb(0, 0, 0)" stroke-linecap="round" stroke-linejoin="round" stroke-opacity="1.0" stroke-width="3.0"/>
    <path d="M 130.46139526367188 127.25493621826172 C 95.46549987792969 157.4744873046875 120.29817962646484 95.6481704711914 109.1727294921875 84.34481048583984" fill="none" stroke="rgb(0, 0, 0)" stroke-linecap="round" stroke-linejoin="round" stroke-opacity="1.0" stroke-width="3.0"/>
    <path d="M 105.82260131835938 101.9966812133789 C 109.4009017944336 153.46458435058594 133.2812042236328 134.69113159179688 115.9378662109375 106.39669036865234" fill="none" stroke="rgb(0, 0, 0)" stroke-linecap="round" stroke-linejoin="round" stroke-opacity="1.0" stroke-width="3.0"/>
    <path d="M 127.55296325683594 126.64142608642578 C 118.67691040039062 74.66062927246094 91.16582489013672 69.92291259765625 131.3321990966797 97.03527069091797" fill="none" stroke="rgb(0, 0, 0)" stroke-linecap="round" stroke-linejoin="round" stroke-opacity="1.0" stroke-width="3.0"/>
    <path d="M 101.46549987792969 83.31959533691406 C 117.6888656616211 74.2352066040039 76.36289978027344 79.86701965332031 81.23402404785156 82.97504425048828" fill="none" stroke="rgb(0, 0, 0)" stroke-linecap="round" stroke-linejoin="round" stroke-opacity="1.0" stroke-width="3.0"/>
    <path d="M 105.19161987304688 137.49813842773438 C 104.28715515136719 69.63556671142578 107.62724304199219 70.01701354980469 108.91358184814453 137.443359375" fill="none" stroke="rgb(0, 0, 0)" stroke-linecap="round" stroke-linejoin="round" stroke-opacity="1.0" stroke-width="3.0"/>
    <path d="M 102.82097625732422 111.9736328125 C 126.89740753173828 126.99319458007812 123.28746795654297 152.43072509765625 117.59324645996094 103.8579330444336" fill="none" stroke="rgb(0, 0, 0)" stroke-linecap="round" stroke-linejoin="round" stroke-opacity="1.0" stroke-width="3.0"/>
    <path d="M 107.0348129272461 86.47464752197266 C 109.46641540527344 128.679443359375 123.6528091430664 172.41249084472656 120.81204986572266 92.2577896118164" fill="none" stroke="rgb(0, 0, 0)" stroke-linecap="round" stroke-linejoin="round" stroke-opacity="1.0" stroke-width="3.0"/>
    <path d="M 124.00678253173828 110.31449127197266 C 102.725341796875 141.91990661621094 136.64926147460938 148.07965087890625 127.17137145996094 98.56372833251953" fill="none" stroke="rgb(0, 0, 0)" stroke-linecap="round" stroke-linejoin="round" stroke-opacity="1.0" stroke-width="3.0"/>
    <path d="M 118.4248046875 89.73548126220703 C 107.89971160888672 141.94313049316406 73.81865692138672 178.2484893798828 79.74380493164062 82.25697326660156" fill="none" stroke="rgb(0, 0, 0)" stroke-linecap="round" stroke-linejoin="round" stroke-opacity="1.0" stroke-width="3.0"/>
    <path d="M 116.11404418945312 128.8450164794922 C 122.88003540039062 91.3485107421875 118.5077896118164 60.403987884521484 114.59252166748047 136.47457885742188" fill="none" stroke="rgb(0, 0, 0)" stroke-linecap="round" stroke-linejoin="round" stroke-opacity="1.0" stroke-width="3.0"/>
    <path d="M 132.71737670898438 100.7575454711914 C 135.905517578125 156.61395263671875 123.1943130493164 115.87313079833984 114.67545318603516 91.88014221191406" fill="none" stroke="rgb(0, 0, 0)" stroke-linecap="round" stroke-linejoin="round" stroke-opacity="1.0" stroke-width="3.0"/>
    <path d="M 102.6297607421875 91.73262786865234 C 122.57660675048828 114.60294342041016 130.02590942382812 102.98464965820312 106.33457946777344 98.13690948486328" fill="none" stroke="rgb(0, 0, 0)" stroke-linecap="round" stroke-linejoin="round" stroke-opacity="1.0" stroke-width="3.0"/>
    <path d="M 124.01676177978516 127.82788848876953 C 94.84683227539062 78.59274291992188 105.73399353027344 49.11259841918945 102.95088195800781 136.8727264404297" fill="none" stroke="rgb(0, 0, 0)" stroke-linecap="round" stroke-linejoin="round" stroke-opacity="1.0" stroke-width="3.0"/>
    <path d="M 114.63397216796875 139.54661560058594 C 91.05795288085938 145.19435119628906 58.728660583496094 141.65347290039062 117.11699676513672 137.15272521972656" fill="none" stroke="rgb(0, 0, 0)" stroke-linecap="round" stroke-linejoin="round" stroke-opacity="1.0" stroke-width="3.0"/>
  </g>
</svg>
