<?xml version="1.0" ?>
<svg height="224" version="1.1" width="224" xmlns="http://www.w3.org/2000/svg">
  <defs/>
  <g>
    <path d="M 103.8909683227539 107.97440338134766 C 76.14144897460938 111.01190948486328 86.02149200439453 103.03153228759766 84.47364807128906 131.37957763671875" fill="none" stroke="rgb(0, 0, 0)" stroke-linecap="round" stroke-linejoin="round" stroke-opacity="1.0" stroke-width="3.0"/>
    <path d="M 110.20650482177734 86.14256286621094 C 119.12767028808594 92.28922271728516 101.91878509521484 54.31873321533203 103.47639465332031 133.0792694091797" fill="none" stroke="rgb(0, 0, 0)" stroke-linecap="round" stroke-linejoin="round" stroke-opacity="1.0" stroke-width="3.0"/>
    <path d="M 140.79225158691406 103.33848571777344 C 114.7745590209961 93.68177032470703 123.3880386352539 66.2903060913086 98.9361343383789 96.31453704833984" fill="none" stroke="rgb(0, 0, 0)" stroke-linecap="round" stroke-linejoin="round" stroke-opacity="1.0" stroke-width="3.0"/>
    <path d="M 121.25080871582031 134.25140380859375 C 83.14691925048828 100.6435546875 139.41217041015625 88.62702178955078 138.9130859375 107.70897674560547" fill="none" stroke="rgb(0, 0, 0)" stroke-linecap="round" stroke-linejoin="round" stroke-opacity="1.0" stroke-width="3.0"/>
    <path d="M 100.64283752441406 91.515380859375 C 95.7309341430664 126.44927215576172 93.296142578125 64.39453887939453 103.43712615966797 106.34122467041016" fill="none" stroke="rgb(0, 0, 0)" stroke-linecap="round" stroke-linejoin="round" stroke-opacity="1.0" stroke-width="3.0"/>
    <path d="M 100.74102783203125 109.69105529785156 C 91.29619598388672 144.0950469970703 156.4390869140625 133.68824768066406 79.89683532714844 137.37327575683594" fill="none" stroke="rgb(0, 0, 0)" stroke-linecap="round" stroke-linejoin="round" stroke-opacity="1.0" stroke-width="3.0"/>
    <path d="M 142.8560028076172 103.5667495727539 C 152.70729064941406 109.24706268310547 143.4133758544922 107.60820007324219 144.8578338623047 130.58424377441406" fill="none" stroke="rgb(0, 0, 0)" stroke-linecap="round" stroke-linejoin="round" stroke-opacity="1.0" stroke-width="3.0"/>
    <path d="M 120.68856811523438 90.94686889648438 C 56.836002349853516 85.2354507446289 81.21002960205078 88.68287658691406 145.1985626220703 98.91582489013672" fill="none" stroke="rgb(0, 0, 0)" stroke-linecap="round" stroke-linejoin="round" stroke-opacity="1.0" stroke-width="3.0"/>
    <path d="M 81.24873352050781 137.2079620361328 C 66.43975067138672 130.7006072998047 72.4040298461914 146.7686004638672 70.69719696044922 95.20760345458984" fill="none" stroke="rgb(0, 0, 0)" stroke-linecap="round" stroke-linejoin="round" stroke-opacity="1.0" stroke-width="3.0"/>
    <path d="M 96.2080078125 106.64759063720703 C 144.5792694091797 90.58353424072266 74.9937744140625 102.3797836303711 117.75239562988281 134.9121856689453" fill="none" stroke="rgb(0, 0, 0)" stroke-linecap="round" stroke-linejoin="round" stroke-opacity="1.0" stroke-width="3.0"/>
    <path d="M 103.95379638671875 100.16883087158203 C 149.4741973876953 80.34371185302734 156.15505981445312 143.99081420898438 129.9851837158203 133.30055236816406" fill="none" stroke="rgb(0, 0, 0)" stroke-linecap="round" stroke-linejoin="round" stroke-opacity="1.0" stroke-width="3.0"/>
    <path d="M 85.69309997558594 87.93384552001953 C 89.67170715332031 111.70189666748047 78.66641998291016 45.98517990112305 80.5782241821289 133.42941284179688" fill="none" stroke="rgb(0, 0, 0)" stroke-linecap="round" stroke-linejoin="round" stroke-opacity="1.0" stroke-width="3.0"/>
    <path d="M 93.27812957763672 87.92453002929688 C 141.98191833496094 92.37567138671875 155.70704650878906 118.78238677978516 138.6722869873047 101.13358306884766" fill="none" stroke="rgb(0, 0, 0)" stroke-linecap="round" stroke-linejoin="round" stroke-opacity="1.0" stroke-width="3.0"/>
    <path d="M 132.87789916992188 132.8838348388672 C 107.76663970947266 132.81854248046875 113.58342742919922 89.39336395263672 142.22425842285156 108.20494079589844" fill="none" stroke="rgb(0, 0, 0)" stroke-linecap="round" stroke-linejoin="round" stroke-opacity="1.0" stroke-width="3.0"/>
    <path d="M 114.43343353271484 86.56836700439453 C 35.11592483520508 96.35894775390625 98.83110046386719 98.8226547241211 71.0617904663086 101.41179656982422" fill="none" stroke="rgb(0, 0, 0)" stroke-linecap="round" stroke-linejoin="round" stroke-opacity="1.0" stroke-width="3.0"/>
    <path d="M 135.4391326904297 95.53096008300781 C 151.87991333007812 98.18612670898438 152.946533203125 148.6748809814453 100.2605209350586 133.46656799316406" fill="none" stroke="rgb(0, 0, 0)" stroke-linecap="round" stroke-linejoin="round" stroke-opacity="1.0" stroke-width="3.0"/>
  </g>
</svg>
