<?xml version="1.0" ?>
<svg height="224" version="1.1" width="224" xmlns="http://www.w3.org/2000/svg">
  <defs/>
  <g>
    <path d="M 90.66146850585938 107.48817443847656 C 67.04735565185547 87.94646453857422 88.8242416381836 76.55624389648438 51.30127716064453 130.26739501953125" fill="none" stroke="rgb(0, 0, 0)" stroke-linecap="round" stroke-linejoin="round" stroke-opacity="1.0" stroke-width="3.0"/>
    <path d="M 130.5218963623047 88.24079132080078 C 76.04899597167969 82.96452331542969 136.1516571044922 85.0306396484375 121.32022857666016 88.21912384033203" fill="none" stroke="rgb(0, 0, 0)" stroke-linecap="round" stroke-linejoin="round" stroke-opacity="1.0" stroke-width="3.0"/>
    <path d="M 111.34717559814453 109.01573944091797 C 86.82130432128906 109.72303771972656 51.3552360534668 102.71736145019531 100.90735626220703 98.08110046386719" fill="none" stroke="rgb(0, 0, 0)" stroke-linecap="round" stroke-linejoin="round" stroke-opacity="1.0" stroke-width="3.0"/>
    <path d="M 143.7642059326172 91.155517578125 C 45.836395263671875 100.22217559814453 73.71074676513672 89.0874252319336 118.32196807861328 95.36006927490234" fill="none" stroke="rgb(0, 0, 0)" stroke-linecap="round" stroke-linejoin="round" stroke-opacity="1.0" stroke-width="3.0"/>
    <path d="M 78.0556411743164 99.11984252929688 C 122.2178955078125 113.24894714355469 98.14601135253906 52.5335578918457 67.42937469482422 121.9223403930664" fill="none" stroke="rgb(0, 0, 0)" stroke-linecap="round" stroke-linejoin="round" stroke-opacity="1.0" stroke-width="3.0"/>
    <path d="M 64.20752716064453 126.7925033569336 C 48.53208923339844 124.1912612915039 25.988306045532227 137.1986083984375 115.27857208251953 112.66350555419922" fill="none" stroke="rgb(0, 0, 0)" stroke-linecap="round" stroke-linejoin="round" stroke-opacity="1.0" stroke-width="3.0"/>
    <path d="M 90.62785339355469 111.18951416015625 C 162.0120849609375 106.10834503173828 43.51783752441406 96.36561584472656 114.07544708251953 89.89386749267578" fill="none" stroke="rgb(0, 0, 0)" stroke-linecap="round" stroke-linejoin="round" stroke-opacity="1.0" stroke-width="3.0"/>
    <path d="M 129.35520935058594 86.25110626220703 C 189.31158447265625 88.73356628417969 120.19366455078125 87.20912170410156 129.22195434570312 91.37401580810547" fill="none" stroke="rgb(0, 0, 0)" stroke-linecap="round" stroke-linejoin="round" stroke-opacity="1.0" stroke-width="3.0"/>
    <path d="M 145.51773071289062 120.98046875 C 127.81101989746094 124.14883422851562 153.63409423828125 122.16539001464844 100.81201934814453 119.13725280761719" fill="none" stroke="rgb(0, 0, 0)" stroke-linecap="round" stroke-linejoin="round" stroke-opacity="1.0" stroke-width="3.0"/>
    <path d="M 126.26742553710938 119.96453094482422 C 94.19166564941406 80.79405975341797 181.17373657226562 87.72404479980469 133.40353393554688 87.48953247070312" fill="none" stroke="rgb(0, 0, 0)" stroke-linecap="round" stroke-linejoin="round" stroke-opacity="1.0" stroke-width="3.0"/>
    <path d="M 120.49055480957031 121.11579895019531 C 57.71953201293945 129.03598022460938 47.89085388183594 130.76023864746094 150.28900146484375 128.62939453125" fill="none" stroke="rgb(0, 0, 0)" stroke-linecap="round" stroke-linejoin="round" stroke-opacity="1.0" stroke-width="3.0"/>
    <path d="M 47.45482635498047 124.76692199707031 C 127.63385772705078 132.13583374023438 157.0158233642578 110.69508361816406 90.13890075683594 129.7482147216797" fill="none" stroke="rgb(0, 0, 0)" stroke-linecap="round" stroke-linejoin="round" stroke-opacity="1.0" stroke-width="3.0"/>
    <path d="M 142.41754150390625 89.64805603027344 C 34.408363342285156 85.28466033935547 89.04780578613281 85.38982391357422 99.4354019165039 92.73529815673828" fill="none" stroke="rgb(0, 0, 0)" stroke-linecap="round" stroke-linejoin="round" stroke-opacity="1.0" stroke-width="3.0"/>
    <path d="M 162.85589599609375 127.62147521972656 C 114.3480453491211 129.39691162109375 181.71934509277344 110.55094909667969 128.83050537109375 88.98854064941406" fill="none" stroke="rgb(0, 0, 0)" stroke-linecap="round" stroke-linejoin="round" stroke-opacity="1.0" stroke-width="3.0"/>
    <path d="M 112.6683578491211 128.99679565429688 C 54.03786087036133 130.84681701660156 14.312305450439453 130.69679260253906 52.2158088684082 127.05261993408203" fill="none" stroke="rgb(0, 0, 0)" stroke-linecap="round" stroke-linejoin="round" stroke-opacity="1.0" stroke-width="3.0"/>
    <path d="M 164.27102661132812 128.17543029785156 C 162.82675170898438 72.77197265625 168.10487365722656 96.33367156982422 152.5587158203125 87.79857635498047" fill="none" stroke="rgb(0, 0, 0)" stroke-linecap="round" stroke-linejoin="round" stroke-opacity="1.0" stroke-width="3.0"/>
  </g>
</svg>
