<?xml version="1.0" ?>
<svg height="224" version="1.1" width="224" xmlns="http://www.w3.org/2000/svg">
  <defs/>
  <g>
    <path d="M 116.20833587646484 92.73612213134766 C 140.044189453125 85.2188720703125 39.33450698852539 101.76339721679688 90.27710723876953 114.00607299804688" fill="none" stroke="rgb(0, 0, 0)" stroke-linecap="round" stroke-linejoin="round" stroke-opacity="1.0" stroke-width="3.0"/>
    <path d="M 162.58944702148438 117.01018524169922 C 10.400766372680664 127.50743103027344 43.367774963378906 128.85052490234375 102.33091735839844 127.48384857177734" fill="none" stroke="rgb(0, 0, 0)" stroke-linecap="round" stroke-linejoin="round" stroke-opacity="1.0" stroke-width="3.0"/>
    <path d="M 81.41845703125 94.08635711669922 C 173.86227416992188 79.5429458618164 159.48638916015625 102.38047790527344 122.97505950927734 89.92467498779297" fill="none" stroke="rgb(0, 0, 0)" stroke-linecap="round" stroke-linejoin="round" stroke-opacity="1.0" stroke-width="3.0"/>
    <path d="M 67.75030517578125 132.26437377929688 C 17.385194778442383 139.5261993408203 40.1083869934082 112.20439910888672 90.88146209716797 131.57566833496094" fill="none" stroke="rgb(0, 0, 0)" stroke-linecap="round" stroke-linejoin="round" stroke-opacity="1.0" stroke-width="3.0"/>
    <path d="M 50.112850189208984 131.94215393066406 C 80.60489654541016 75.83218383789062 85.52240753173828 66.90867614746094 57.20356750488281 119.16903686523438" fill="none" stroke="rgb(0, 0, 0)" stroke-linecap="round" stroke-linejoin="round" stroke-opacity="1.0" stroke-width="3.0"/>
    <path d="M 78.37890625 121.52880096435547 C 36.62113952636719 132.9773406982422 -13.718414306640625 140.647216796875 162.8339080810547 127.42221069335938" fill="none" stroke="rgb(0, 0, 0)" stroke-linecap="round" stroke-linejoin="round" stroke-opacity="1.0" stroke-width="3.0"/>
    <path d="M 81.6526870727539 120.5987548828125 C 140.4488067626953 106.01066589355469 130.6435089111328 120.93319702148438 69.71378326416016 127.88800811767578" fill="none" stroke="rgb(0, 0, 0)" stroke-linecap="round" stroke-linejoin="round" stroke-opacity="1.0" stroke-width="3.0"/>
    <path d="M 161.81736755371094 113.013671875 C 165.78109741210938 87.2400894165039 139.12847900390625 93.81973266601562 147.3049774169922 92.74054718017578" fill="none" stroke="rgb(0, 0, 0)" stroke-linecap="round" stroke-linejoin="round" stroke-opacity="1.0" stroke-width="3.0"/>
    <path d="M 84.7065658569336 116.97390747070312 C 135.06504821777344 111.42884826660156 127.41455841064453 125.82151794433594 54.878868103027344 130.69732666015625" fill="none" stroke="rgb(0, 0, 0)" stroke-linecap="round" stroke-linejoin="round" stroke-opacity="1.0" stroke-width="3.0"/>
    <path d="M 123.6695556640625 93.2210922241211 C 177.95858764648438 113.88179779052734 117.31544494628906 116.98518371582031 162.94036865234375 124.44818878173828" fill="none" stroke="rgb(0, 0, 0)" stroke-linecap="round" stroke-linejoin="round" stroke-opacity="1.0" stroke-width="3.0"/>
    <path d="M 115.80088806152344 95.2607421875 C 71.78208923339844 101.41886138916016 87.58779907226562 79.52934265136719 63.92464065551758 125.8812255859375" fill="none" stroke="rgb(0, 0, 0)" stroke-linecap="round" stroke-linejoin="round" stroke-opacity="1.0" stroke-width="3.0"/>
    <path d="M 131.6410675048828 122.44743347167969 C 95.96826934814453 102.91732025146484 160.18907165527344 85.455322265625 123.68437957763672 98.69110107421875" fill="none" stroke="rgb(0, 0, 0)" stroke-linecap="round" stroke-linejoin="round" stroke-opacity="1.0" stroke-width="3.0"/>
    <path d="M 161.26319885253906 94.98956298828125 C 80.19204711914062 91.53792572021484 11.578506469726562 86.65817260742188 161.55946350097656 88.9482650756836" fill="none" stroke="rgb(0, 0, 0)" stroke-linecap="round" stroke-linejoin="round" stroke-opacity="1.0" stroke-width="3.0"/>
    <path d="M 80.59288787841797 101.1370849609375 C 181.76739501953125 94.23226165771484 136.63465881347656 79.22215270996094 111.02019500732422 98.7853775024414" fill="none" stroke="rgb(0, 0, 0)" stroke-linecap="round" stroke-linejoin="round" stroke-opacity="1.0" stroke-width="3.0"/>
    <path d="M 78.37934112548828 107.93296813964844 C 135.7160186767578 108.33879852294922 119.3010025024414 110.7102279663086 94.02316284179688 91.0307846069336" fill="none" stroke="rgb(0, 0, 0)" stroke-linecap="round" stroke-linejoin="round" stroke-opacity="1.0" stroke-width="3.0"/>
    <path d="M 97.2924575805664 99.57703399658203 C 87.81317138671875 89.53765106201172 80.06684875488281 104.20868682861328 111.79314422607422 104.46273040771484" fill="none" stroke="rgb(0, 0, 0)" stroke-linecap="round" stroke-linejoin="round" stroke-opacity="1.0" stroke-width="3.0"/>
  </g>
</svg>
