<?xml version="1.0" ?>
<svg height="224" version="1.1" width="224" xmlns="http://www.w3.org/2000/svg">
  <defs/>
  <g>
    <path d="M 142.03407287597656 133.05043029785156 C 156.03883361816406 122.34444427490234 134.39244079589844 113.57609558105469 116.77196502685547 132.56747436523438" fill="none" stroke="rgb(0, 0, 0)" stroke-linecap="round" stroke-linejoin="round" stroke-opacity="1.0" stroke-width="3.0"/>
    <path d="M 131.9583282470703 132.401611328125 C 60.65262222290039 128.83380126953125 84.01066589355469 151.70956420898438 78.6724624633789 93.06905364990234" fill="none" stroke="rgb(0, 0, 0)" stroke-linecap="round" stroke-linejoin="round" stroke-opacity="1.0" stroke-width="3.0"/>
    <path d="M 103.90078735351562 102.18958282470703 C 153.65228271484375 104.88813781738281 142.14015197753906 69.59979248046875 141.30206298828125 129.70309448242188" fill="none" stroke="rgb(0, 0, 0)" stroke-linecap="round" stroke-linejoin="round" stroke-opacity="1.0" stroke-width="3.0"/>
    <path d="M 135.46580505371094 113.29259490966797 C 75.09575653076172 98.9283218383789 107.16568756103516 71.12041473388672 90.28337097167969 105.20769500732422" fill="none" stroke="rgb(0, 0, 0)" stroke-linecap="round" stroke-linejoin="round" stroke-opacity="1.0" stroke-width="3.0"/>
    <path d="M 109.96479034423828 89.81587219238281 C 141.05104064941406 123.08445739746094 123.06857299804688 130.81027221679688 113.37889099121094 104.3301010131836" fill="none" stroke="rgb(0, 0, 0)" stroke-linecap="round" stroke-linejoin="round" stroke-opacity="1.0" stroke-width="3.0"/>
    <path d="M 104.3829574584961 95.30757141113281 C 196.5984344482422 95.75279235839844 52.853973388671875 102.35491180419922 96.69981384277344 104.13684844970703" fill="none" stroke="rgb(0, 0, 0)" stroke-linecap="round" stroke-linejoin="round" stroke-opacity="1.0" stroke-width="3.0"/>
    <path d="M 81.32845306396484 99.23809814453125 C 155.4165496826172 108.49946594238281 156.5566864013672 96.67455291748047 96.13317108154297 98.56683349609375" fill="none" stroke="rgb(0, 0, 0)" stroke-linecap="round" stroke-linejoin="round" stroke-opacity="1.0" stroke-width="3.0"/>
    <path d="M 114.45805358886719 128.99514770507812 C 150.12298583984375 104.4906997680664 99.63859558105469 98.81258392333984 145.57688903808594 141.7736053466797" fill="none" stroke="rgb(0, 0, 0)" stroke-linecap="round" stroke-linejoin="round" stroke-opacity="1.0" stroke-width="3.0"/>
    <path d="M 131.6444854736328 106.42601013183594 C 94.24458312988281 141.39109802246094 111.68443298339844 124.30216979980469 140.0909881591797 125.31358337402344" fill="none" stroke="rgb(0, 0, 0)" stroke-linecap="round" stroke-linejoin="round" stroke-opacity="1.0" stroke-width="3.0"/>
    <path d="M 116.78873443603516 98.61931610107422 C 146.34957885742188 121.7334213256836 147.6051025390625 25.916677474975586 148.00704956054688 143.65672302246094" fill="none" stroke="rgb(0, 0, 0)" stroke-linecap="round" stroke-linejoin="round" stroke-opacity="1.0" stroke-width="3.0"/>
    <path d="M 142.6144561767578 123.49669647216797 C 151.7582550048828 49.103668212890625 112.03314971923828 131.6853485107422 130.99063110351562 124.97064971923828" fill="none" stroke="rgb(0, 0, 0)" stroke-linecap="round" stroke-linejoin="round" stroke-opacity="1.0" stroke-width="3.0"/>
    <path d="M 135.9868927001953 100.50627136230469 C 90.88479614257812 110.91748046875 145.4582061767578 166.8336181640625 137.11953735351562 97.88671112060547" fill="none" stroke="rgb(0, 0, 0)" stroke-linecap="round" stroke-linejoin="round" stroke-opacity="1.0" stroke-width="3.0"/>
    <path d="M 137.7042999267578 93.58052825927734 C 98.40489959716797 87.2208023071289 31.720901489257812 90.70862579345703 139.39840698242188 90.0255126953125" fill="none" stroke="rgb(0, 0, 0)" stroke-linecap="round" stroke-linejoin="round" stroke-opacity="1.0" stroke-width="3.0"/>
    <path d="M 89.48707580566406 128.61404418945312 C 152.907958984375 124.52101135253906 156.7276153564453 130.44577026367188 98.68429565429688 133.90310668945312" fill="none" stroke="rgb(0, 0, 0)" stroke-linecap="round" stroke-linejoin="round" stroke-opacity="1.0" stroke-width="3.0"/>
    <path d="M 144.28317260742188 136.63853454589844 C 116.67809295654297 138.0301055908203 8.05250358581543 133.96429443359375 147.01541137695312 129.68524169921875" fill="none" stroke="rgb(0, 0, 0)" stroke-linecap="round" stroke-linejoin="round" stroke-opacity="1.0" stroke-width="3.0"/>
    <path d="M 136.44281005859375 111.0904541015625 C 85.07909393310547 86.5063705444336 79.12676239013672 128.5462646484375 108.95318603515625 128.37718200683594" fill="none" stroke="rgb(0, 0, 0)" stroke-linecap="round" stroke-linejoin="round" stroke-opacity="1.0" stroke-width="3.0"/>
  </g>
</svg>
