<?xml version="1.0" ?>
<svg height="224" version="1.1" width="224" xmlns="http://www.w3.org/2000/svg">
  <defs/>
  <g>
    <path d="M 168.33689880371094 107.50643920898438 C 168.18527221679688 148.7830352783203 167.34523010253906 123.94729614257812 166.17330932617188 134.24305725097656" fill="none" stroke="rgb(0, 0, 0)" stroke-linecap="round" stroke-linejoin="round" stroke-opacity="1.0" stroke-width="3.0"/>
    <path d="M 133.13272094726562 129.25579833984375 C 177.42323303222656 142.9407958984375 166.7533721923828 131.73365783691406 168.50074768066406 96.8272476196289" fill="none" stroke="rgb(0, 0, 0)" stroke-linecap="round" stroke-linejoin="round" stroke-opacity="1.0" stroke-width="3.0"/>
    <path d="M 83.5758285522461 141.30078125 C 146.36871337890625 144.82901000976562 120.94510650634766 149.4085693359375 130.2658233642578 88.77046203613281" fill="none" stroke="rgb(0, 0, 0)" stroke-linecap="round" stroke-linejoin="round" stroke-opacity="1.0" stroke-width="3.0"/>
    <path d="M 91.64445495605469 90.48658752441406 C 150.9280242919922 93.41991424560547 175.33006286621094 97.28204345703125 81.94270324707031 93.30239868164062" fill="none" stroke="rgb(0, 0, 0)" stroke-linecap="round" stroke-linejoin="round" stroke-opacity="1.0" stroke-width="3.0"/>
    <path d="M 126.48699951171875 142.06857299804688 C 130.5432891845703 115.9503402709961 113.03728485107422 145.9731903076172 165.98582458496094 130.6280975341797" fill="none" stroke="rgb(0, 0, 0)" stroke-linecap="round" stroke-linejoin="round" stroke-opacity="1.0" stroke-width="3.0"/>
    <path d="M 141.8822021484375 92.76290130615234 C 134.10531616210938 117.30584716796875 160.91041564941406 105.78450775146484 76.05863952636719 101.94001007080078" fill="none" stroke="rgb(0, 0, 0)" stroke-linecap="round" stroke-linejoin="round" stroke-opacity="1.0" stroke-width="3.0"/>
    <path d="M 78.26605987548828 93.78253936767578 C 185.345703125 107.20242309570312 117.98580169677734 84.87678527832031 76.29235076904297 94.11798095703125" fill="none" stroke="rgb(0, 0, 0)" stroke-linecap="round" stroke-linejoin="round" stroke-opacity="1.0" stroke-width="3.0"/>
    <path d="M 168.52487182617188 111.78667449951172 C 169.07778930664062 178.6690673828125 171.338623046875 87.41497802734375 166.78318786621094 93.59720611572266" fill="none" stroke="rgb(0, 0, 0)" stroke-linecap="round" stroke-linejoin="round" stroke-opacity="1.0" stroke-width="3.0"/>
    <path d="M 74.98422241210938 96.0346450805664 C 75.78123474121094 144.5845184326172 71.4788589477539 139.4143524169922 83.362060546875 141.58251953125" fill="none" stroke="rgb(0, 0, 0)" stroke-linecap="round" stroke-linejoin="round" stroke-opacity="1.0" stroke-width="3.0"/>
    <path d="M 167.67056274414062 94.7626953125 C 121.20863342285156 87.75016784667969 129.0499267578125 117.18635559082031 134.14242553710938 92.64795684814453" fill="none" stroke="rgb(0, 0, 0)" stroke-linecap="round" stroke-linejoin="round" stroke-opacity="1.0" stroke-width="3.0"/>
    <path d="M 126.41132354736328 130.85400390625 C 130.61172485351562 134.9255828857422 160.32835388183594 134.5926513671875 129.89402770996094 135.72622680664062" fill="none" stroke="rgb(0, 0, 0)" stroke-linecap="round" stroke-linejoin="round" stroke-opacity="1.0" stroke-width="3.0"/>
    <path d="M 127.96732330322266 90.84777069091797 C 62.176082611083984 80.74496459960938 112.82294464111328 96.92487335205078 81.84947204589844 96.29489135742188" fill="none" stroke="rgb(0, 0, 0)" stroke-linecap="round" stroke-linejoin="round" stroke-opacity="1.0" stroke-width="3.0"/>
    <path d="M 78.0546646118164 98.80923461914062 C 171.53546142578125 108.53934478759766 120.46244812011719 99.73121643066406 141.2997283935547 94.94789123535156" fill="none" stroke="rgb(0, 0, 0)" stroke-linecap="round" stroke-linejoin="round" stroke-opacity="1.0" stroke-width="3.0"/>
    <path d="M 95.59599304199219 85.65835571289062 C 124.24057006835938 92.25630950927734 130.4788818359375 72.84900665283203 131.57351684570312 102.58049011230469" fill="none" stroke="rgb(0, 0, 0)" stroke-linecap="round" stroke-linejoin="round" stroke-opacity="1.0" stroke-width="3.0"/>
    <path d="M 134.39866638183594 130.81787109375 C 158.3668670654297 141.9768829345703 145.00404357910156 133.92825317382812 150.7057647705078 94.3542709350586" fill="none" stroke="rgb(0, 0, 0)" stroke-linecap="round" stroke-linejoin="round" stroke-opacity="1.0" stroke-width="3.0"/>
    <path d="M 144.87551879882812 92.34522247314453 C 144.91122436523438 140.3228759765625 139.37112426757812 155.72889709472656 140.37136840820312 93.93099975585938" fill="none" stroke="rgb(0, 0, 0)" stroke-linecap="round" stroke-linejoin="round" stroke-opacity="1.0" stroke-width="3.0"/>
  </g>
</svg>
