<?xml version="1.0" ?>
<svg height="224" version="1.1" width="224" xmlns="http://www.w3.org/2000/svg">
  <defs/>
  <g>
    <path d="M 49.178924560546875 146.7766571044922 C 47.082271575927734 148.9017791748047 48.50395202636719 105.20208740234375 48.03166198730469 121.86244201660156" fill="none" stroke="rgb(0, 0, 0)" stroke-linecap="round" stroke-linejoin="round" stroke-opacity="1.0" stroke-width="3.0"/>
    <path d="M 97.93134307861328 83.98908996582031 C 37.47919845581055 102.49310302734375 46.9391975402832 100.6610107421875 56.306068420410156 95.85247802734375" fill="none" stroke="rgb(0, 0, 0)" stroke-linecap="round" stroke-linejoin="round" stroke-opacity="1.0" stroke-width="3.0"/>
    <path d="M 102.36912536621094 89.50291442871094 C 101.63316345214844 160.5634765625 102.72389221191406 159.18846130371094 103.27081298828125 95.20795440673828" fill="none" stroke="rgb(0, 0, 0)" stroke-linecap="round" stroke-linejoin="round" stroke-opacity="1.0" stroke-width="3.0"/>
    <path d="M 146.692138671875 137.09271240234375 C 145.30596923828125 140.84335327148438 145.6820831298828 82.98358917236328 148.18516540527344 108.58003997802734" fill="none" stroke="rgb(0, 0, 0)" stroke-linecap="round" stroke-linejoin="round" stroke-opacity="1.0" stroke-width="3.0"/>
    <path d="M 48.62152862548828 135.87803649902344 C 47.91487121582031 70.34405517578125 49.68384552001953 112.98551940917969 48.60917663574219 97.17002868652344" fill="none" stroke="rgb(0, 0, 0)" stroke-linecap="round" stroke-linejoin="round" stroke-opacity="1.0" stroke-width="3.0"/>
    <path d="M 133.38427734375 141.20388793945312 C 124.7610855102539 158.4307861328125 112.09587097167969 78.89840698242188 146.90281677246094 98.05363464355469" fill="none" stroke="rgb(0, 0, 0)" stroke-linecap="round" stroke-linejoin="round" stroke-opacity="1.0" stroke-width="3.0"/>
    <path d="M 115.03197479248047 94.41205596923828 C 104.28077697753906 140.54794311523438 125.97976684570312 142.18865966796875 103.08615112304688 139.34844970703125" fill="none" stroke="rgb(0, 0, 0)" stroke-linecap="round" stroke-linejoin="round" stroke-opacity="1.0" stroke-width="3.0"/>
    <path d="M 111.91248321533203 88.46378326416016 C 13.319406509399414 100.28472137451172 46.87458419799805 100.34475708007812 110.87785339355469 85.37077331542969" fill="none" stroke="rgb(0, 0, 0)" stroke-linecap="round" stroke-linejoin="round" stroke-opacity="1.0" stroke-width="3.0"/>
    <path d="M 64.91310119628906 90.46080017089844 C 83.37853240966797 93.11190795898438 28.031436920166016 95.03355407714844 96.7969741821289 90.89543914794922" fill="none" stroke="rgb(0, 0, 0)" stroke-linecap="round" stroke-linejoin="round" stroke-opacity="1.0" stroke-width="3.0"/>
    <path d="M 101.17618560791016 94.31998443603516 C 139.35894775390625 53.15763854980469 86.13721466064453 154.91134643554688 135.3314971923828 139.87550354003906" fill="none" stroke="rgb(0, 0, 0)" stroke-linecap="round" stroke-linejoin="round" stroke-opacity="1.0" stroke-width="3.0"/>
    <path d="M 114.2759780883789 84.96693420410156 C 49.98251724243164 83.0446548461914 89.73011779785156 84.52890014648438 63.77076721191406 92.99639892578125" fill="none" stroke="rgb(0, 0, 0)" stroke-linecap="round" stroke-linejoin="round" stroke-opacity="1.0" stroke-width="3.0"/>
    <path d="M 134.0076141357422 139.5797119140625 C 151.45489501953125 142.0419921875 148.63571166992188 142.01516723632812 150.3013916015625 104.33946228027344" fill="none" stroke="rgb(0, 0, 0)" stroke-linecap="round" stroke-linejoin="round" stroke-opacity="1.0" stroke-width="3.0"/>
    <path d="M 111.08928680419922 92.5876693725586 C 25.535404205322266 103.68335723876953 33.614990234375 90.42998504638672 101.6580810546875 95.61299133300781" fill="none" stroke="rgb(0, 0, 0)" stroke-linecap="round" stroke-linejoin="round" stroke-opacity="1.0" stroke-width="3.0"/>
    <path d="M 77.11078643798828 91.12921905517578 C 134.94842529296875 96.12772369384766 122.52482604980469 93.16461181640625 116.81978607177734 96.56462097167969" fill="none" stroke="rgb(0, 0, 0)" stroke-linecap="round" stroke-linejoin="round" stroke-opacity="1.0" stroke-width="3.0"/>
    <path d="M 69.26747131347656 94.11329650878906 C 107.01959991455078 93.21552276611328 136.87429809570312 90.55479431152344 77.98843383789062 88.38926696777344" fill="none" stroke="rgb(0, 0, 0)" stroke-linecap="round" stroke-linejoin="round" stroke-opacity="1.0" stroke-width="3.0"/>
    <path d="M 123.53245544433594 139.8466796875 C 115.56983184814453 132.12034606933594 118.68107604980469 82.53219604492188 134.24432373046875 96.36238098144531" fill="none" stroke="rgb(0, 0, 0)" stroke-linecap="round" stroke-linejoin="round" stroke-opacity="1.0" stroke-width="3.0"/>
  </g>
</svg>
