<?xml version="1.0" ?>
<svg height="224" version="1.1" width="224" xmlns="http://www.w3.org/2000/svg">
  <defs/>
  <g>
    <path d="M 144.62425231933594 103.67761993408203 C 148.0537567138672 134.1966552734375 140.0749053955078 113.42738342285156 131.65106201171875 118.88141632080078" fill="none" stroke="rgb(0, 0, 0)" stroke-linecap="round" stroke-linejoin="round" stroke-opacity="1.0" stroke-width="3.0"/>
    <path d="M 139.70021057128906 120.56443786621094 C 122.8896255493164 125.55667114257812 164.05447387695312 103.2386703491211 131.4359893798828 112.57988739013672" fill="none" stroke="rgb(0, 0, 0)" stroke-linecap="round" stroke-linejoin="round" stroke-opacity="1.0" stroke-width="3.0"/>
    <path d="M 126.49247741699219 101.0499496459961 C 133.29847717285156 128.61795043945312 130.23831176757812 139.83863830566406 136.46304321289062 113.35740661621094" fill="none" stroke="rgb(0, 0, 0)" stroke-linecap="round" stroke-linejoin="round" stroke-opacity="1.0" stroke-width="3.0"/>
    <path d="M 142.31251525878906 113.2095947265625 C 148.29605102539062 96.31963348388672 149.56289672851562 101.85062408447266 86.26769256591797 100.46562194824219" fill="none" stroke="rgb(0, 0, 0)" stroke-linecap="round" stroke-linejoin="round" stroke-opacity="1.0" stroke-width="3.0"/>
    <path d="M 68.50758361816406 97.18099975585938 C 62.69184112548828 105.16162872314453 57.36893081665039 90.88899993896484 56.35391616821289 122.58135986328125" fill="none" stroke="rgb(0, 0, 0)" stroke-linecap="round" stroke-linejoin="round" stroke-opacity="1.0" stroke-width="3.0"/>
    <path d="M 107.8101577758789 101.60914611816406 C 151.2945556640625 105.8480453491211 145.2323760986328 90.42374420166016 143.229248046875 117.38692474365234" fill="none" stroke="rgb(0, 0, 0)" stroke-linecap="round" stroke-linejoin="round" stroke-opacity="1.0" stroke-width="3.0"/>
    <path d="M 139.96762084960938 120.09635925292969 C 132.73402404785156 92.5152587890625 133.98756408691406 118.9454116821289 129.51031494140625 128.32659912109375" fill="none" stroke="rgb(0, 0, 0)" stroke-linecap="round" stroke-linejoin="round" stroke-opacity="1.0" stroke-width="3.0"/>
    <path d="M 122.14710235595703 100.63330841064453 C 84.56370544433594 101.5888900756836 89.92497253417969 100.32417297363281 135.84274291992188 102.23318481445312" fill="none" stroke="rgb(0, 0, 0)" stroke-linecap="round" stroke-linejoin="round" stroke-opacity="1.0" stroke-width="3.0"/>
    <path d="M 128.38583374023438 102.60502624511719 C 108.93042755126953 102.56092071533203 123.275146484375 103.01783752441406 121.73536682128906 103.05657196044922" fill="none" stroke="rgb(0, 0, 0)" stroke-linecap="round" stroke-linejoin="round" stroke-opacity="1.0" stroke-width="3.0"/>
    <path d="M 134.2542724609375 116.43777465820312 C 152.24215698242188 111.14708709716797 123.94374084472656 104.32772064208984 129.7527618408203 122.54851531982422" fill="none" stroke="rgb(0, 0, 0)" stroke-linecap="round" stroke-linejoin="round" stroke-opacity="1.0" stroke-width="3.0"/>
    <path d="M 57.72445297241211 127.18910217285156 C 110.80843353271484 126.87312316894531 117.78496551513672 126.97052764892578 123.88127136230469 127.76557159423828" fill="none" stroke="rgb(0, 0, 0)" stroke-linecap="round" stroke-linejoin="round" stroke-opacity="1.0" stroke-width="3.0"/>
    <path d="M 124.35853576660156 104.24282836914062 C 87.25931549072266 99.18368530273438 99.86788940429688 100.62902069091797 117.7570571899414 101.88922882080078" fill="none" stroke="rgb(0, 0, 0)" stroke-linecap="round" stroke-linejoin="round" stroke-opacity="1.0" stroke-width="3.0"/>
    <path d="M 142.88412475585938 106.2956771850586 C 121.93042755126953 104.38677978515625 128.16175842285156 109.29679107666016 126.24126434326172 128.35223388671875" fill="none" stroke="rgb(0, 0, 0)" stroke-linecap="round" stroke-linejoin="round" stroke-opacity="1.0" stroke-width="3.0"/>
    <path d="M 141.2576141357422 116.29283905029297 C 155.61944580078125 127.44086456298828 125.30018615722656 122.0040054321289 61.81605911254883 121.23916625976562" fill="none" stroke="rgb(0, 0, 0)" stroke-linecap="round" stroke-linejoin="round" stroke-opacity="1.0" stroke-width="3.0"/>
    <path d="M 69.31629180908203 100.27548217773438 C 145.5980224609375 103.75464630126953 113.75086975097656 101.6649398803711 112.04020690917969 102.4406967163086" fill="none" stroke="rgb(0, 0, 0)" stroke-linecap="round" stroke-linejoin="round" stroke-opacity="1.0" stroke-width="3.0"/>
    <path d="M 68.16290283203125 121.30706024169922 C 51.98835754394531 120.48506164550781 55.51871109008789 123.92916870117188 65.76629638671875 126.8042221069336" fill="none" stroke="rgb(0, 0, 0)" stroke-linecap="round" stroke-linejoin="round" stroke-opacity="1.0" stroke-width="3.0"/>
  </g>
</svg>
