<?xml version="1.0" ?>
<svg height="224" version="1.1" width="224" xmlns="http://www.w3.org/2000/svg">
  <defs/>
  <g>
    <path d="M 108.96161651611328 96.89358520507812 C 71.61103057861328 145.94044494628906 183.4573516845703 150.1834259033203 76.98400115966797 147.45596313476562" fill="none" stroke="rgb(0, 0, 0)" stroke-linecap="round" stroke-linejoin="round" stroke-opacity="1.0" stroke-width="3.0"/>
    <path d="M 96.00685119628906 83.23059844970703 C 79.2479019165039 100.3898696899414 84.50788879394531 91.76792907714844 125.73795318603516 98.8656997680664" fill="none" stroke="rgb(0, 0, 0)" stroke-linecap="round" stroke-linejoin="round" stroke-opacity="1.0" stroke-width="3.0"/>
    <path d="M 98.40977478027344 82.63619232177734 C 136.28456115722656 86.92707061767578 120.35777282714844 80.83905029296875 134.1062469482422 98.13707733154297" fill="none" stroke="rgb(0, 0, 0)" stroke-linecap="round" stroke-linejoin="round" stroke-opacity="1.0" stroke-width="3.0"/>
    <path d="M 134.88626098632812 107.59921264648438 C 100.21733093261719 81.21491241455078 185.24424743652344 133.262451171875 124.01921844482422 145.1680145263672" fill="none" stroke="rgb(0, 0, 0)" stroke-linecap="round" stroke-linejoin="round" stroke-opacity="1.0" stroke-width="3.0"/>
    <path d="M 53.83645248413086 142.53524780273438 C 57.54403305053711 88.32303619384766 43.13762283325195 100.87384033203125 79.19539642333984 99.70419311523438" fill="none" stroke="rgb(0, 0, 0)" stroke-linecap="round" stroke-linejoin="round" stroke-opacity="1.0" stroke-width="3.0"/>
    <path d="M 145.83372497558594 104.0083236694336 C 116.73812866210938 96.93277740478516 114.19441223144531 90.91533660888672 136.311767578125 107.34549713134766" fill="none" stroke="rgb(0, 0, 0)" stroke-linecap="round" stroke-linejoin="round" stroke-opacity="1.0" stroke-width="3.0"/>
    <path d="M 143.9710693359375 120.2872314453125 C 133.2017059326172 151.00828552246094 145.89662170410156 148.13697814941406 147.975341796875 104.0748519897461" fill="none" stroke="rgb(0, 0, 0)" stroke-linecap="round" stroke-linejoin="round" stroke-opacity="1.0" stroke-width="3.0"/>
    <path d="M 58.78725051879883 117.04759216308594 C 50.832801818847656 157.58236694335938 60.3731803894043 153.88177490234375 56.04733657836914 104.50706481933594" fill="none" stroke="rgb(0, 0, 0)" stroke-linecap="round" stroke-linejoin="round" stroke-opacity="1.0" stroke-width="3.0"/>
    <path d="M 119.6861343383789 97.23890686035156 C 77.21422576904297 94.88484954833984 69.90827178955078 94.15028381347656 111.84361267089844 98.81502532958984" fill="none" stroke="rgb(0, 0, 0)" stroke-linecap="round" stroke-linejoin="round" stroke-opacity="1.0" stroke-width="3.0"/>
    <path d="M 61.199501037597656 102.31502532958984 C 61.851497650146484 132.31060791015625 54.99269485473633 146.3997344970703 58.531925201416016 138.40286254882812" fill="none" stroke="rgb(0, 0, 0)" stroke-linecap="round" stroke-linejoin="round" stroke-opacity="1.0" stroke-width="3.0"/>
    <path d="M 56.90589904785156 142.2706756591797 C 57.83516311645508 112.55192565917969 60.31095504760742 62.11868667602539 62.69865036010742 143.75680541992188" fill="none" stroke="rgb(0, 0, 0)" stroke-linecap="round" stroke-linejoin="round" stroke-opacity="1.0" stroke-width="3.0"/>
    <path d="M 59.22626876831055 100.8732681274414 C 52.4719352722168 106.20455169677734 59.77423095703125 87.94676208496094 56.68269348144531 144.71224975585938" fill="none" stroke="rgb(0, 0, 0)" stroke-linecap="round" stroke-linejoin="round" stroke-opacity="1.0" stroke-width="3.0"/>
    <path d="M 130.86595153808594 101.34548950195312 C 79.87770080566406 79.93440246582031 70.46977233886719 93.70856475830078 128.4132080078125 97.07686614990234" fill="none" stroke="rgb(0, 0, 0)" stroke-linecap="round" stroke-linejoin="round" stroke-opacity="1.0" stroke-width="3.0"/>
    <path d="M 80.35234069824219 100.40299987792969 C 97.43403625488281 80.22930145263672 81.57099914550781 95.32240295410156 95.5197982788086 92.57283020019531" fill="none" stroke="rgb(0, 0, 0)" stroke-linecap="round" stroke-linejoin="round" stroke-opacity="1.0" stroke-width="3.0"/>
    <path d="M 78.68038940429688 146.8086395263672 C 66.31380462646484 148.79518127441406 49.20643997192383 157.2239990234375 56.40367889404297 117.25944519042969" fill="none" stroke="rgb(0, 0, 0)" stroke-linecap="round" stroke-linejoin="round" stroke-opacity="1.0" stroke-width="3.0"/>
    <path d="M 60.11841583251953 134.97506713867188 C 61.73796463012695 150.17306518554688 53.249027252197266 147.66505432128906 59.227298736572266 132.39706420898438" fill="none" stroke="rgb(0, 0, 0)" stroke-linecap="round" stroke-linejoin="round" stroke-opacity="1.0" stroke-width="3.0"/>
  </g>
</svg>
