<?xml version="1.0" ?>
<svg height="224" version="1.1" width="224" xmlns="http://www.w3.org/2000/svg">
  <defs/>
  <g>
    <path d="M 93.16009521484375 90.86813354492188 C 100.1783218383789 159.47947692871094 107.77265167236328 163.0329132080078 75.71615600585938 151.88192749023438" fill="none" stroke="rgb(0, 0, 0)" stroke-linecap="round" stroke-linejoin="round" stroke-opacity="1.0" stroke-width="3.0"/>
    <path d="M 116.28504180908203 110.16445922851562 C 132.93479919433594 59.8864631652832 136.60838317871094 193.77481079101562 108.19538116455078 129.00718688964844" fill="none" stroke="rgb(0, 0, 0)" stroke-linecap="round" stroke-linejoin="round" stroke-opacity="1.0" stroke-width="3.0"/>
    <path d="M 102.26943969726562 90.81541442871094 C 27.35561752319336 90.74972534179688 137.07005310058594 92.18728637695312 78.19557189941406 90.38323211669922" fill="none" stroke="rgb(0, 0, 0)" stroke-linecap="round" stroke-linejoin="round" stroke-opacity="1.0" stroke-width="3.0"/>
    <path d="M 111.55458068847656 131.80787658691406 C 128.58340454101562 154.03968811035156 132.39773559570312 136.2862548828125 98.25950622558594 154.7503204345703" fill="none" stroke="rgb(0, 0, 0)" stroke-linecap="round" stroke-linejoin="round" stroke-opacity="1.0" stroke-width="3.0"/>
    <path d="M 79.77668762207031 89.08229064941406 C 152.2672119140625 104.90756225585938 106.55543518066406 94.31893920898438 117.15874481201172 103.39823913574219" fill="none" stroke="rgb(0, 0, 0)" stroke-linecap="round" stroke-linejoin="round" stroke-opacity="1.0" stroke-width="3.0"/>
    <path d="M 108.72529602050781 96.79422760009766 C 104.0424575805664 116.61283874511719 129.7662811279297 75.60347747802734 114.23809051513672 122.18772888183594" fill="none" stroke="rgb(0, 0, 0)" stroke-linecap="round" stroke-linejoin="round" stroke-opacity="1.0" stroke-width="3.0"/>
    <path d="M 101.9795150756836 91.5086669921875 C 63.345054626464844 89.5632095336914 75.21467590332031 78.1417236328125 73.51559448242188 139.7052001953125" fill="none" stroke="rgb(0, 0, 0)" stroke-linecap="round" stroke-linejoin="round" stroke-opacity="1.0" stroke-width="3.0"/>
    <path d="M 117.2739028930664 142.47726440429688 C 113.72949981689453 90.28182220458984 123.98662567138672 81.49019622802734 123.50177764892578 137.16017150878906" fill="none" stroke="rgb(0, 0, 0)" stroke-linecap="round" stroke-linejoin="round" stroke-opacity="1.0" stroke-width="3.0"/>
    <path d="M 124.27139282226562 100.34344482421875 C 114.6136703491211 175.9835205078125 134.73037719726562 146.72183227539062 123.52909088134766 101.82842254638672" fill="none" stroke="rgb(0, 0, 0)" stroke-linecap="round" stroke-linejoin="round" stroke-opacity="1.0" stroke-width="3.0"/>
    <path d="M 119.00334930419922 139.43797302246094 C 97.368408203125 77.1785888671875 121.68187713623047 73.99125671386719 109.3873519897461 141.0218963623047" fill="none" stroke="rgb(0, 0, 0)" stroke-linecap="round" stroke-linejoin="round" stroke-opacity="1.0" stroke-width="3.0"/>
    <path d="M 75.02246856689453 92.8299331665039 C 104.13363647460938 89.07091522216797 120.04695129394531 87.13948059082031 82.29199981689453 91.37474060058594" fill="none" stroke="rgb(0, 0, 0)" stroke-linecap="round" stroke-linejoin="round" stroke-opacity="1.0" stroke-width="3.0"/>
    <path d="M 114.46095275878906 108.27447509765625 C 83.85116577148438 74.59058380126953 97.77151489257812 122.71281433105469 105.933349609375 97.860107421875" fill="none" stroke="rgb(0, 0, 0)" stroke-linecap="round" stroke-linejoin="round" stroke-opacity="1.0" stroke-width="3.0"/>
    <path d="M 122.34432983398438 113.15324401855469 C 95.4981689453125 107.95820617675781 120.15791320800781 197.6678009033203 116.56431579589844 102.8210220336914" fill="none" stroke="rgb(0, 0, 0)" stroke-linecap="round" stroke-linejoin="round" stroke-opacity="1.0" stroke-width="3.0"/>
    <path d="M 73.54891967773438 133.9130859375 C 73.28963470458984 139.45701599121094 74.57833862304688 112.75395965576172 74.2289810180664 153.06112670898438" fill="none" stroke="rgb(0, 0, 0)" stroke-linecap="round" stroke-linejoin="round" stroke-opacity="1.0" stroke-width="3.0"/>
    <path d="M 121.7101821899414 105.43992614746094 C 103.31729125976562 188.12832641601562 109.26789093017578 137.514404296875 105.77549743652344 96.8250961303711" fill="none" stroke="rgb(0, 0, 0)" stroke-linecap="round" stroke-linejoin="round" stroke-opacity="1.0" stroke-width="3.0"/>
    <path d="M 104.36090087890625 149.1007843017578 C 103.629150390625 28.668058395385742 108.58435821533203 137.74549865722656 115.6640853881836 136.0230712890625" fill="none" stroke="rgb(0, 0, 0)" stroke-linecap="round" stroke-linejoin="round" stroke-opacity="1.0" stroke-width="3.0"/>
  </g>
</svg>
