<?xml version="1.0" ?>
<svg height="224" version="1.1" width="224" xmlns="http://www.w3.org/2000/svg">
  <defs/>
  <g>
    <path d="M 110.99685668945312 87.54623413085938 C 117.6932601928711 43.015987396240234 105.95946502685547 53.924007415771484 111.37879943847656 125.56370544433594" fill="none" stroke="rgb(0, 0, 0)" stroke-linecap="round" stroke-linejoin="round" stroke-opacity="1.0" stroke-width="3.0"/>
    <path d="M 130.808349609375 79.1784896850586 C 126.89461517333984 151.65377807617188 130.1825408935547 69.73474884033203 126.03816223144531 79.97602081298828" fill="none" stroke="rgb(0, 0, 0)" stroke-linecap="round" stroke-linejoin="round" stroke-opacity="1.0" stroke-width="3.0"/>
    <path d="M 121.9726333618164 75.86602020263672 C 109.1891860961914 152.60354614257812 134.33106994628906 105.48956298828125 117.22357940673828 77.59208679199219" fill="none" stroke="rgb(0, 0, 0)" stroke-linecap="round" stroke-linejoin="round" stroke-opacity="1.0" stroke-width="3.0"/>
    <path d="M 105.79363250732422 88.23290252685547 C 110.57394409179688 138.01402282714844 123.03315734863281 153.7989044189453 123.63381958007812 64.7766342163086" fill="none" stroke="rgb(0, 0, 0)" stroke-linecap="round" stroke-linejoin="round" stroke-opacity="1.0" stroke-width="3.0"/>
    <path d="M 128.72752380371094 74.80065155029297 C 124.2662353515625 132.15737915039062 101.86309051513672 162.0857696533203 128.81382751464844 83.10883331298828" fill="none" stroke="rgb(0, 0, 0)" stroke-linecap="round" stroke-linejoin="round" stroke-opacity="1.0" stroke-width="3.0"/>
    <path d="M 107.02275848388672 64.23670196533203 C 105.08366394042969 105.65257263183594 116.32536315917969 174.724853515625 125.92643737792969 73.9277572631836" fill="none" stroke="rgb(0, 0, 0)" stroke-linecap="round" stroke-linejoin="round" stroke-opacity="1.0" stroke-width="3.0"/>
    <path d="M 116.2406997680664 106.03636169433594 C 118.77446746826172 48.91267776489258 113.23943328857422 51.15745162963867 131.6315155029297 105.39305114746094" fill="none" stroke="rgb(0, 0, 0)" stroke-linecap="round" stroke-linejoin="round" stroke-opacity="1.0" stroke-width="3.0"/>
    <path d="M 125.35830688476562 76.44005584716797 C 140.4042205810547 107.14518737792969 122.13507843017578 135.7046356201172 126.37258911132812 87.88867950439453" fill="none" stroke="rgb(0, 0, 0)" stroke-linecap="round" stroke-linejoin="round" stroke-opacity="1.0" stroke-width="3.0"/>
    <path d="M 109.8395004272461 133.17906188964844 C 89.18152618408203 93.0216293334961 107.84457397460938 30.70311737060547 125.73576354980469 77.08680725097656" fill="none" stroke="rgb(0, 0, 0)" stroke-linecap="round" stroke-linejoin="round" stroke-opacity="1.0" stroke-width="3.0"/>
    <path d="M 83.5716323852539 120.31952667236328 C 128.8836212158203 100.01502227783203 85.58423614501953 98.86292266845703 116.81978607177734 127.08612823486328" fill="none" stroke="rgb(0, 0, 0)" stroke-linecap="round" stroke-linejoin="round" stroke-opacity="1.0" stroke-width="3.0"/>
    <path d="M 107.28681182861328 67.251953125 C 94.52914428710938 122.95394134521484 130.8194122314453 131.3740234375 131.12896728515625 81.31060791015625" fill="none" stroke="rgb(0, 0, 0)" stroke-linecap="round" stroke-linejoin="round" stroke-opacity="1.0" stroke-width="3.0"/>
    <path d="M 143.28738403320312 130.41287231445312 C 76.69863891601562 121.89790344238281 39.628517150878906 136.3341064453125 147.48544311523438 134.0030975341797" fill="none" stroke="rgb(0, 0, 0)" stroke-linecap="round" stroke-linejoin="round" stroke-opacity="1.0" stroke-width="3.0"/>
    <path d="M 129.17906188964844 73.56560516357422 C 125.61509704589844 152.87863159179688 106.79397583007812 126.0712661743164 114.78528594970703 58.87613296508789" fill="none" stroke="rgb(0, 0, 0)" stroke-linecap="round" stroke-linejoin="round" stroke-opacity="1.0" stroke-width="3.0"/>
    <path d="M 80.59799194335938 133.63075256347656 C 135.85218811035156 146.82188415527344 208.60061645507812 124.2896957397461 81.5028305053711 133.30087280273438" fill="none" stroke="rgb(0, 0, 0)" stroke-linecap="round" stroke-linejoin="round" stroke-opacity="1.0" stroke-width="3.0"/>
    <path d="M 122.88291931152344 76.1552963256836 C 128.7604217529297 62.078575134277344 104.2656021118164 42.396331787109375 107.34783172607422 85.49714660644531" fill="none" stroke="rgb(0, 0, 0)" stroke-linecap="round" stroke-linejoin="round" stroke-opacity="1.0" stroke-width="3.0"/>
    <path d="M 131.3735809326172 73.47911834716797 C 141.27484130859375 127.41131591796875 111.6065902709961 126.83392333984375 117.32276916503906 79.79940795898438" fill="none" stroke="rgb(0, 0, 0)" stroke-linecap="round" stroke-linejoin="round" stroke-opacity="1.0" stroke-width="3.0"/>
  </g>
</svg>
