<?xml version="1.0" ?>
<svg height="224" version="1.1" width="224" xmlns="http://www.w3.org/2000/svg">
  <defs/>
  <g>
    <path d="M 147.9374237060547 138.68905639648438 C 174.1571502685547 152.4083709716797 167.4739227294922 146.32325744628906 105.3300552368164 156.6206817626953" fill="none" stroke="rgb(0, 0, 0)" stroke-linecap="round" stroke-linejoin="round" stroke-opacity="1.0" stroke-width="3.0"/>
    <path d="M 150.4126739501953 137.29287719726562 C 153.25357055664062 52.85873794555664 150.36167907714844 64.91734313964844 151.46157836914062 113.70255279541016" fill="none" stroke="rgb(0, 0, 0)" stroke-linecap="round" stroke-linejoin="round" stroke-opacity="1.0" stroke-width="3.0"/>
    <path d="M 83.66287231445312 96.86173248291016 C 89.20264434814453 158.10130310058594 73.45197296142578 137.94805908203125 104.0307846069336 157.4790802001953" fill="none" stroke="rgb(0, 0, 0)" stroke-linecap="round" stroke-linejoin="round" stroke-opacity="1.0" stroke-width="3.0"/>
    <path d="M 107.31250762939453 125.34513092041016 C 155.10122680664062 125.58143615722656 141.41812133789062 119.15475463867188 104.25165557861328 122.98423767089844" fill="none" stroke="rgb(0, 0, 0)" stroke-linecap="round" stroke-linejoin="round" stroke-opacity="1.0" stroke-width="3.0"/>
    <path d="M 85.73271179199219 98.25055694580078 C 82.29447174072266 140.9815673828125 92.387451171875 112.23545837402344 84.90909576416016 116.2353744506836" fill="none" stroke="rgb(0, 0, 0)" stroke-linecap="round" stroke-linejoin="round" stroke-opacity="1.0" stroke-width="3.0"/>
    <path d="M 82.21854400634766 148.23985290527344 C 85.82353210449219 105.0801773071289 85.45557403564453 154.72329711914062 86.31056213378906 95.7191162109375" fill="none" stroke="rgb(0, 0, 0)" stroke-linecap="round" stroke-linejoin="round" stroke-opacity="1.0" stroke-width="3.0"/>
    <path d="M 130.59214782714844 117.02297973632812 C 134.25440979003906 160.06275939941406 140.5875244140625 158.19052124023438 131.48561096191406 117.69248962402344" fill="none" stroke="rgb(0, 0, 0)" stroke-linecap="round" stroke-linejoin="round" stroke-opacity="1.0" stroke-width="3.0"/>
    <path d="M 126.04551696777344 121.88004302978516 C 110.96998596191406 122.02557373046875 48.22047424316406 124.64376831054688 148.8978729248047 114.48828125" fill="none" stroke="rgb(0, 0, 0)" stroke-linecap="round" stroke-linejoin="round" stroke-opacity="1.0" stroke-width="3.0"/>
    <path d="M 97.68096923828125 161.69100952148438 C 86.88758087158203 145.4366455078125 36.8790397644043 129.4495391845703 94.75401306152344 164.912841796875" fill="none" stroke="rgb(0, 0, 0)" stroke-linecap="round" stroke-linejoin="round" stroke-opacity="1.0" stroke-width="3.0"/>
    <path d="M 114.23375701904297 91.47286224365234 C 58.95193099975586 91.99541473388672 98.03233337402344 99.09355926513672 84.321044921875 96.52677917480469" fill="none" stroke="rgb(0, 0, 0)" stroke-linecap="round" stroke-linejoin="round" stroke-opacity="1.0" stroke-width="3.0"/>
    <path d="M 113.5432357788086 125.42412567138672 C 142.55567932128906 128.00279235839844 118.11809539794922 144.25103759765625 112.04695892333984 114.81560516357422" fill="none" stroke="rgb(0, 0, 0)" stroke-linecap="round" stroke-linejoin="round" stroke-opacity="1.0" stroke-width="3.0"/>
    <path d="M 84.88600158691406 126.65380096435547 C 63.11481475830078 141.3336639404297 68.815185546875 131.7128448486328 67.64729309082031 145.95809936523438" fill="none" stroke="rgb(0, 0, 0)" stroke-linecap="round" stroke-linejoin="round" stroke-opacity="1.0" stroke-width="3.0"/>
    <path d="M 105.82660675048828 128.61317443847656 C 140.17710876464844 134.50013732910156 140.98965454101562 156.6764678955078 135.37693786621094 119.76692199707031" fill="none" stroke="rgb(0, 0, 0)" stroke-linecap="round" stroke-linejoin="round" stroke-opacity="1.0" stroke-width="3.0"/>
    <path d="M 125.97843170166016 149.97605895996094 C 64.97337341308594 161.844970703125 82.71781158447266 168.16343688964844 159.049072265625 154.6378173828125" fill="none" stroke="rgb(0, 0, 0)" stroke-linecap="round" stroke-linejoin="round" stroke-opacity="1.0" stroke-width="3.0"/>
    <path d="M 97.14141845703125 162.65435791015625 C 98.22240447998047 167.38330078125 93.49923706054688 158.805419921875 72.65792846679688 145.22586059570312" fill="none" stroke="rgb(0, 0, 0)" stroke-linecap="round" stroke-linejoin="round" stroke-opacity="1.0" stroke-width="3.0"/>
    <path d="M 121.86405181884766 122.7680435180664 C 140.41650390625 141.2354736328125 143.79202270507812 151.38619995117188 115.3074951171875 128.0954132080078" fill="none" stroke="rgb(0, 0, 0)" stroke-linecap="round" stroke-linejoin="round" stroke-opacity="1.0" stroke-width="3.0"/>
  </g>
</svg>
