<?xml version="1.0" ?>
<svg height="224" version="1.1" width="224" xmlns="http://www.w3.org/2000/svg">
  <defs/>
  <g>
    <path d="M 128.73448181152344 108.50645446777344 C 137.09335327148438 87.47960662841797 119.38545989990234 82.94915771484375 125.99384307861328 86.5661849975586" fill="none" stroke="rgb(0, 0, 0)" stroke-linecap="round" stroke-linejoin="round" stroke-opacity="1.0" stroke-width="3.0"/>
    <path d="M 91.95652770996094 111.20500183105469 C 97.97972869873047 130.28720092773438 138.27882385253906 131.81365966796875 96.44355010986328 138.85189819335938" fill="none" stroke="rgb(0, 0, 0)" stroke-linecap="round" stroke-linejoin="round" stroke-opacity="1.0" stroke-width="3.0"/>
    <path d="M 101.87979125976562 117.91980743408203 C 120.23477172851562 128.1649627685547 152.0157470703125 125.26546478271484 122.1183090209961 125.9644546508789" fill="none" stroke="rgb(0, 0, 0)" stroke-linecap="round" stroke-linejoin="round" stroke-opacity="1.0" stroke-width="3.0"/>
    <path d="M 139.67977905273438 128.62445068359375 C 139.80307006835938 141.22222900390625 144.93499755859375 135.6903533935547 82.57408905029297 141.728271484375" fill="none" stroke="rgb(0, 0, 0)" stroke-linecap="round" stroke-linejoin="round" stroke-opacity="1.0" stroke-width="3.0"/>
    <path d="M 110.57716369628906 107.86279296875 C 103.21797180175781 74.93646240234375 140.19078063964844 78.7435531616211 129.9246826171875 106.24772644042969" fill="none" stroke="rgb(0, 0, 0)" stroke-linecap="round" stroke-linejoin="round" stroke-opacity="1.0" stroke-width="3.0"/>
    <path d="M 110.06043243408203 94.58959197998047 C 104.05706024169922 114.74493408203125 126.14091491699219 120.43663024902344 130.38323974609375 104.9351806640625" fill="none" stroke="rgb(0, 0, 0)" stroke-linecap="round" stroke-linejoin="round" stroke-opacity="1.0" stroke-width="3.0"/>
    <path d="M 126.69889831542969 78.46343994140625 C 101.44878387451172 69.34606170654297 93.78185272216797 68.72163391113281 97.18803405761719 110.11058807373047" fill="none" stroke="rgb(0, 0, 0)" stroke-linecap="round" stroke-linejoin="round" stroke-opacity="1.0" stroke-width="3.0"/>
    <path d="M 65.54821014404297 133.3291473388672 C 125.1805419921875 129.3355255126953 154.3770751953125 128.1085205078125 117.69009399414062 127.9002914428711" fill="none" stroke="rgb(0, 0, 0)" stroke-linecap="round" stroke-linejoin="round" stroke-opacity="1.0" stroke-width="3.0"/>
    <path d="M 129.59762573242188 120.21700286865234 C 87.65036010742188 130.3695831298828 28.41738510131836 126.50737762451172 83.33526611328125 141.62448120117188" fill="none" stroke="rgb(0, 0, 0)" stroke-linecap="round" stroke-linejoin="round" stroke-opacity="1.0" stroke-width="3.0"/>
    <path d="M 95.82777404785156 78.62985229492188 C 84.625 75.2672119140625 93.00746154785156 125.15168762207031 90.55358123779297 107.58910369873047" fill="none" stroke="rgb(0, 0, 0)" stroke-linecap="round" stroke-linejoin="round" stroke-opacity="1.0" stroke-width="3.0"/>
    <path d="M 117.96629333496094 126.65726470947266 C 23.47015953063965 140.15757751464844 94.74039459228516 137.24363708496094 131.04722595214844 133.17311096191406" fill="none" stroke="rgb(0, 0, 0)" stroke-linecap="round" stroke-linejoin="round" stroke-opacity="1.0" stroke-width="3.0"/>
    <path d="M 105.1067123413086 72.7822494506836 C 137.27340698242188 79.24560546875 133.27708435058594 81.92203521728516 135.37301635742188 89.6636734008789" fill="none" stroke="rgb(0, 0, 0)" stroke-linecap="round" stroke-linejoin="round" stroke-opacity="1.0" stroke-width="3.0"/>
    <path d="M 102.37223052978516 117.4253158569336 C 118.8038558959961 138.14724731445312 163.87034606933594 132.1893310546875 108.21626281738281 137.68756103515625" fill="none" stroke="rgb(0, 0, 0)" stroke-linecap="round" stroke-linejoin="round" stroke-opacity="1.0" stroke-width="3.0"/>
    <path d="M 67.83198547363281 134.2054901123047 C 118.10665893554688 151.42710876464844 145.98045349121094 120.10234069824219 132.77957153320312 82.36885070800781" fill="none" stroke="rgb(0, 0, 0)" stroke-linecap="round" stroke-linejoin="round" stroke-opacity="1.0" stroke-width="3.0"/>
    <path d="M 97.71266174316406 111.72245025634766 C 138.6751708984375 136.84451293945312 96.18534851074219 122.70377349853516 137.9326934814453 127.17749786376953" fill="none" stroke="rgb(0, 0, 0)" stroke-linecap="round" stroke-linejoin="round" stroke-opacity="1.0" stroke-width="3.0"/>
    <path d="M 133.8495635986328 85.13511657714844 C 146.63131713867188 137.8232879638672 110.7793197631836 109.74755096435547 136.42718505859375 129.5111541748047" fill="none" stroke="rgb(0, 0, 0)" stroke-linecap="round" stroke-linejoin="round" stroke-opacity="1.0" stroke-width="3.0"/>
  </g>
</svg>
