<?xml version="1.0" ?>
<svg height="224" version="1.1" width="224" xmlns="http://www.w3.org/2000/svg">
  <defs/>
  <g>
    <path d="M 89.01620483398438 159.23072814941406 C 89.19146728515625 89.46529388427734 80.95014953613281 112.98442077636719 110.3836669921875 101.80706024169922" fill="none" stroke="rgb(0, 0, 0)" stroke-linecap="round" stroke-linejoin="round" stroke-opacity="1.0" stroke-width="3.0"/>
    <path d="M 129.2256317138672 114.3866195678711 C 126.92061614990234 186.46559143066406 111.77438354492188 127.27738189697266 130.4276885986328 140.41400146484375" fill="none" stroke="rgb(0, 0, 0)" stroke-linecap="round" stroke-linejoin="round" stroke-opacity="1.0" stroke-width="3.0"/>
    <path d="M 131.39141845703125 117.24067687988281 C 128.4300079345703 186.45700073242188 109.51831817626953 148.7290802001953 133.8770294189453 148.88546752929688" fill="none" stroke="rgb(0, 0, 0)" stroke-linecap="round" stroke-linejoin="round" stroke-opacity="1.0" stroke-width="3.0"/>
    <path d="M 91.23095703125 178.7307891845703 C 91.75243377685547 175.5596466064453 89.27989196777344 194.10934448242188 89.15303802490234 144.7392120361328" fill="none" stroke="rgb(0, 0, 0)" stroke-linecap="round" stroke-linejoin="round" stroke-opacity="1.0" stroke-width="3.0"/>
    <path d="M 107.02498626708984 177.23548889160156 C 128.3688201904297 136.22384643554688 126.29715728759766 172.3788299560547 127.70577239990234 114.31015014648438" fill="none" stroke="rgb(0, 0, 0)" stroke-linecap="round" stroke-linejoin="round" stroke-opacity="1.0" stroke-width="3.0"/>
    <path d="M 113.85860443115234 129.84588623046875 C 103.49555969238281 222.8668670654297 102.82530975341797 155.71099853515625 102.40782165527344 109.96729278564453" fill="none" stroke="rgb(0, 0, 0)" stroke-linecap="round" stroke-linejoin="round" stroke-opacity="1.0" stroke-width="3.0"/>
    <path d="M 103.23169708251953 180.15768432617188 C 83.44318389892578 179.87721252441406 88.79440307617188 178.9332733154297 94.15399932861328 180.2275390625" fill="none" stroke="rgb(0, 0, 0)" stroke-linecap="round" stroke-linejoin="round" stroke-opacity="1.0" stroke-width="3.0"/>
    <path d="M 131.49659729003906 147.71250915527344 C 129.45008850097656 109.5711441040039 132.8579559326172 134.10595703125 125.42511749267578 106.11461639404297" fill="none" stroke="rgb(0, 0, 0)" stroke-linecap="round" stroke-linejoin="round" stroke-opacity="1.0" stroke-width="3.0"/>
    <path d="M 109.05755615234375 102.57804870605469 C 104.30304718017578 92.48322296142578 108.2261962890625 150.6637725830078 106.89277648925781 123.20858001708984" fill="none" stroke="rgb(0, 0, 0)" stroke-linecap="round" stroke-linejoin="round" stroke-opacity="1.0" stroke-width="3.0"/>
    <path d="M 119.93456268310547 114.2307357788086 C 129.1176300048828 96.07180786132812 100.32124328613281 104.37908935546875 114.07990264892578 104.17950439453125" fill="none" stroke="rgb(0, 0, 0)" stroke-linecap="round" stroke-linejoin="round" stroke-opacity="1.0" stroke-width="3.0"/>
    <path d="M 124.5412368774414 149.62527465820312 C 125.905029296875 85.87899017333984 123.44629669189453 88.92652893066406 123.00607299804688 157.74359130859375" fill="none" stroke="rgb(0, 0, 0)" stroke-linecap="round" stroke-linejoin="round" stroke-opacity="1.0" stroke-width="3.0"/>
    <path d="M 124.16010284423828 151.11703491210938 C 130.08741760253906 160.5980224609375 109.42784118652344 169.21295166015625 117.88166046142578 134.1547088623047" fill="none" stroke="rgb(0, 0, 0)" stroke-linecap="round" stroke-linejoin="round" stroke-opacity="1.0" stroke-width="3.0"/>
    <path d="M 133.628662109375 148.8670654296875 C 127.79890441894531 110.07086944580078 141.38327026367188 105.757080078125 136.34506225585938 149.34100341796875" fill="none" stroke="rgb(0, 0, 0)" stroke-linecap="round" stroke-linejoin="round" stroke-opacity="1.0" stroke-width="3.0"/>
    <path d="M 118.18230438232422 110.52700805664062 C 111.69940948486328 177.35076904296875 130.8633270263672 166.12899780273438 133.1611785888672 120.89463806152344" fill="none" stroke="rgb(0, 0, 0)" stroke-linecap="round" stroke-linejoin="round" stroke-opacity="1.0" stroke-width="3.0"/>
    <path d="M 106.75341033935547 147.39749145507812 C 103.5798110961914 186.5179443359375 111.39619445800781 181.246337890625 91.9023208618164 178.82981872558594" fill="none" stroke="rgb(0, 0, 0)" stroke-linecap="round" stroke-linejoin="round" stroke-opacity="1.0" stroke-width="3.0"/>
    <path d="M 102.54035949707031 110.15162658691406 C 134.10292053222656 90.57899475097656 116.32889556884766 149.4566192626953 122.96182250976562 140.37449645996094" fill="none" stroke="rgb(0, 0, 0)" stroke-linecap="round" stroke-linejoin="round" stroke-opacity="1.0" stroke-width="3.0"/>
  </g>
</svg>
