<?xml version="1.0" ?>
<svg height="224" version="1.1" width="224" xmlns="http://www.w3.org/2000/svg">
  <defs/>
  <g>
    <path d="M 82.29400634765625 103.44645690917969 C 82.551025390625 94.19670867919922 82.19266510009766 172.21868896484375 81.33265686035156 104.26509857177734" fill="none" stroke="rgb(0, 0, 0)" stroke-linecap="round" stroke-linejoin="round" stroke-opacity="1.0" stroke-width="3.0"/>
    <path d="M 71.78658294677734 113.44481658935547 C 74.75863647460938 118.04399108886719 73.84676361083984 79.80549621582031 76.47180938720703 126.82487487792969" fill="none" stroke="rgb(0, 0, 0)" stroke-linecap="round" stroke-linejoin="round" stroke-opacity="1.0" stroke-width="3.0"/>
    <path d="M 173.78121948242188 82.4336166381836 C 172.50144958496094 114.09759521484375 177.99270629882812 76.35235595703125 170.7113494873047 75.47505187988281" fill="none" stroke="rgb(0, 0, 0)" stroke-linecap="round" stroke-linejoin="round" stroke-opacity="1.0" stroke-width="3.0"/>
    <path d="M 71.49933624267578 87.34291076660156 C 66.70573425292969 129.30003356933594 78.11050415039062 163.3784942626953 75.6986083984375 87.58412170410156" fill="none" stroke="rgb(0, 0, 0)" stroke-linecap="round" stroke-linejoin="round" stroke-opacity="1.0" stroke-width="3.0"/>
    <path d="M 150.92098999023438 77.65870666503906 C 152.7124481201172 82.39329528808594 161.7147216796875 69.09162139892578 93.0726547241211 77.66304016113281" fill="none" stroke="rgb(0, 0, 0)" stroke-linecap="round" stroke-linejoin="round" stroke-opacity="1.0" stroke-width="3.0"/>
    <path d="M 80.66073608398438 110.97419738769531 C 79.45702362060547 98.98026275634766 80.33405303955078 117.45988464355469 81.95138549804688 132.74766540527344" fill="none" stroke="rgb(0, 0, 0)" stroke-linecap="round" stroke-linejoin="round" stroke-opacity="1.0" stroke-width="3.0"/>
    <path d="M 173.44158935546875 85.08786010742188 C 181.46368408203125 201.72305297851562 165.94949340820312 109.57582092285156 172.7947998046875 125.31370544433594" fill="none" stroke="rgb(0, 0, 0)" stroke-linecap="round" stroke-linejoin="round" stroke-opacity="1.0" stroke-width="3.0"/>
    <path d="M 145.2449951171875 77.95757293701172 C 166.193359375 75.92186737060547 200.6754913330078 74.06583404541016 103.86296844482422 75.29778289794922" fill="none" stroke="rgb(0, 0, 0)" stroke-linecap="round" stroke-linejoin="round" stroke-opacity="1.0" stroke-width="3.0"/>
    <path d="M 103.67494201660156 82.37458038330078 C 99.07819366455078 72.99417877197266 14.168105125427246 93.92390441894531 139.58546447753906 87.44734191894531" fill="none" stroke="rgb(0, 0, 0)" stroke-linecap="round" stroke-linejoin="round" stroke-opacity="1.0" stroke-width="3.0"/>
    <path d="M 72.992919921875 113.66276550292969 C 72.61205291748047 66.90992736816406 60.073028564453125 69.79378509521484 107.44708251953125 78.1830825805664" fill="none" stroke="rgb(0, 0, 0)" stroke-linecap="round" stroke-linejoin="round" stroke-opacity="1.0" stroke-width="3.0"/>
    <path d="M 140.1703643798828 136.45703125 C 150.51138305664062 140.6927490234375 173.5773162841797 106.17914581298828 142.43569946289062 84.1209945678711" fill="none" stroke="rgb(0, 0, 0)" stroke-linecap="round" stroke-linejoin="round" stroke-opacity="1.0" stroke-width="3.0"/>
    <path d="M 72.41714477539062 139.25599670410156 C 72.41380310058594 72.21829986572266 75.6580810546875 69.76683044433594 74.20892333984375 112.10723876953125" fill="none" stroke="rgb(0, 0, 0)" stroke-linecap="round" stroke-linejoin="round" stroke-opacity="1.0" stroke-width="3.0"/>
    <path d="M 120.41007995605469 136.13929748535156 C 176.51132202148438 131.5275115966797 53.33388137817383 140.9866943359375 74.62784576416016 128.6475372314453" fill="none" stroke="rgb(0, 0, 0)" stroke-linecap="round" stroke-linejoin="round" stroke-opacity="1.0" stroke-width="3.0"/>
    <path d="M 74.95174407958984 109.5477294921875 C 78.70233917236328 105.49579620361328 42.84065246582031 100.6976089477539 152.63241577148438 103.75492858886719" fill="none" stroke="rgb(0, 0, 0)" stroke-linecap="round" stroke-linejoin="round" stroke-opacity="1.0" stroke-width="3.0"/>
    <path d="M 136.2219696044922 75.63751983642578 C 13.865078926086426 67.7107162475586 108.90164184570312 91.22789001464844 80.71793365478516 79.81080627441406" fill="none" stroke="rgb(0, 0, 0)" stroke-linecap="round" stroke-linejoin="round" stroke-opacity="1.0" stroke-width="3.0"/>
    <path d="M 173.1329803466797 146.0206756591797 C 45.85929870605469 145.46368408203125 76.0860824584961 164.93276977539062 70.60747528076172 116.2520523071289" fill="none" stroke="rgb(0, 0, 0)" stroke-linecap="round" stroke-linejoin="round" stroke-opacity="1.0" stroke-width="3.0"/>
  </g>
</svg>
