<?xml version="1.0" ?>
<svg height="224" version="1.1" width="224" xmlns="http://www.w3.org/2000/svg">
  <defs/>
  <g>
    <path d="M 76.03015899658203 143.86012268066406 C 100.01900482177734 144.8887939453125 78.40352630615234 143.7700653076172 74.81002807617188 143.72386169433594" fill="none" stroke="rgb(0, 0, 0)" stroke-linecap="round" stroke-linejoin="round" stroke-opacity="1.0" stroke-width="3.0"/>
    <path d="M 156.47268676757812 138.92901611328125 C 154.50225830078125 87.27045440673828 159.3617401123047 99.12315368652344 158.8491668701172 99.35934448242188" fill="none" stroke="rgb(0, 0, 0)" stroke-linecap="round" stroke-linejoin="round" stroke-opacity="1.0" stroke-width="3.0"/>
    <path d="M 116.85970306396484 89.37458038330078 C 59.249481201171875 86.6385269165039 62.26736831665039 88.40737915039062 102.98909759521484 86.20944213867188" fill="none" stroke="rgb(0, 0, 0)" stroke-linecap="round" stroke-linejoin="round" stroke-opacity="1.0" stroke-width="3.0"/>
    <path d="M 119.3923568725586 93.91401672363281 C 95.60151672363281 133.91497802734375 133.57008361816406 137.0396270751953 110.56166076660156 135.29530334472656" fill="none" stroke="rgb(0, 0, 0)" stroke-linecap="round" stroke-linejoin="round" stroke-opacity="1.0" stroke-width="3.0"/>
    <path d="M 110.86945343017578 114.29061126708984 C 126.66201782226562 72.5453872680664 124.2199478149414 85.93618774414062 87.32632446289062 83.93373107910156" fill="none" stroke="rgb(0, 0, 0)" stroke-linecap="round" stroke-linejoin="round" stroke-opacity="1.0" stroke-width="3.0"/>
    <path d="M 120.45368957519531 136.45626831054688 C 105.26033020019531 90.95736694335938 144.1883544921875 107.82744598388672 113.56620788574219 87.65834045410156" fill="none" stroke="rgb(0, 0, 0)" stroke-linecap="round" stroke-linejoin="round" stroke-opacity="1.0" stroke-width="3.0"/>
    <path d="M 112.55143737792969 99.01705169677734 C 158.4073486328125 84.51322937011719 26.87459373474121 94.9034423828125 82.45111846923828 91.50300598144531" fill="none" stroke="rgb(0, 0, 0)" stroke-linecap="round" stroke-linejoin="round" stroke-opacity="1.0" stroke-width="3.0"/>
    <path d="M 154.99075317382812 98.88168334960938 C 90.42922973632812 83.81455993652344 105.79056549072266 143.43682861328125 131.27291870117188 137.54769897460938" fill="none" stroke="rgb(0, 0, 0)" stroke-linecap="round" stroke-linejoin="round" stroke-opacity="1.0" stroke-width="3.0"/>
    <path d="M 67.08989715576172 95.07261657714844 C 66.88260650634766 160.00772094726562 59.507965087890625 141.0806884765625 89.2847671508789 145.7234344482422" fill="none" stroke="rgb(0, 0, 0)" stroke-linecap="round" stroke-linejoin="round" stroke-opacity="1.0" stroke-width="3.0"/>
    <path d="M 105.60973358154297 144.06300354003906 C 120.40126037597656 141.17852783203125 102.83666229248047 113.50484466552734 120.94636535644531 94.34645080566406" fill="none" stroke="rgb(0, 0, 0)" stroke-linecap="round" stroke-linejoin="round" stroke-opacity="1.0" stroke-width="3.0"/>
    <path d="M 104.85357666015625 143.5917205810547 C 99.75753021240234 37.13490295410156 119.94821166992188 119.27114868164062 117.30412292480469 89.2911148071289" fill="none" stroke="rgb(0, 0, 0)" stroke-linecap="round" stroke-linejoin="round" stroke-opacity="1.0" stroke-width="3.0"/>
    <path d="M 160.55174255371094 98.48092651367188 C 158.60186767578125 156.2553253173828 174.7325439453125 134.8476104736328 110.55686950683594 137.43968200683594" fill="none" stroke="rgb(0, 0, 0)" stroke-linecap="round" stroke-linejoin="round" stroke-opacity="1.0" stroke-width="3.0"/>
    <path d="M 86.78472137451172 90.59651947021484 C 126.0213394165039 106.72268676757812 69.24749755859375 89.22399139404297 76.11267852783203 87.31896209716797" fill="none" stroke="rgb(0, 0, 0)" stroke-linecap="round" stroke-linejoin="round" stroke-opacity="1.0" stroke-width="3.0"/>
    <path d="M 109.89191436767578 138.28561401367188 C 112.8294448852539 65.017822265625 107.55853271484375 70.63272857666016 108.89142608642578 141.7294921875" fill="none" stroke="rgb(0, 0, 0)" stroke-linecap="round" stroke-linejoin="round" stroke-opacity="1.0" stroke-width="3.0"/>
    <path d="M 95.5600814819336 144.39906311035156 C 46.59161376953125 140.3015594482422 66.98863983154297 143.38478088378906 105.87205505371094 144.97695922851562" fill="none" stroke="rgb(0, 0, 0)" stroke-linecap="round" stroke-linejoin="round" stroke-opacity="1.0" stroke-width="3.0"/>
    <path d="M 131.71255493164062 135.5888671875 C 121.00997161865234 79.47549438476562 166.6912078857422 108.84111022949219 94.56049346923828 92.98519897460938" fill="none" stroke="rgb(0, 0, 0)" stroke-linecap="round" stroke-linejoin="round" stroke-opacity="1.0" stroke-width="3.0"/>
  </g>
</svg>
