<?xml version="1.0" ?>
<svg height="224" version="1.1" width="224" xmlns="http://www.w3.org/2000/svg">
  <defs/>
  <g>
    <path d="M 163.78892517089844 110.12356567382812 C 11.133671760559082 107.08633422851562 163.10536193847656 99.29618072509766 155.1800537109375 103.97334289550781" fill="none" stroke="rgb(0, 0, 0)" stroke-linecap="round" stroke-linejoin="round" stroke-opacity="1.0" stroke-width="3.0"/>
    <path d="M 150.6514434814453 106.77635955810547 C 166.0006103515625 111.64227294921875 164.40972900390625 92.35287475585938 163.96743774414062 130.90782165527344" fill="none" stroke="rgb(0, 0, 0)" stroke-linecap="round" stroke-linejoin="round" stroke-opacity="1.0" stroke-width="3.0"/>
    <path d="M 102.7890625 96.20124053955078 C 149.7449493408203 95.22734069824219 117.66213989257812 97.69227600097656 129.68382263183594 104.81492614746094" fill="none" stroke="rgb(0, 0, 0)" stroke-linecap="round" stroke-linejoin="round" stroke-opacity="1.0" stroke-width="3.0"/>
    <path d="M 95.9081802368164 143.78453063964844 C 98.41451263427734 21.602367401123047 96.03756713867188 224.903564453125 98.45576477050781 107.25105285644531" fill="none" stroke="rgb(0, 0, 0)" stroke-linecap="round" stroke-linejoin="round" stroke-opacity="1.0" stroke-width="3.0"/>
    <path d="M 127.5833511352539 132.69712829589844 C 130.0045166015625 154.65516662597656 75.7415771484375 140.13417053222656 94.59076690673828 143.96482849121094" fill="none" stroke="rgb(0, 0, 0)" stroke-linecap="round" stroke-linejoin="round" stroke-opacity="1.0" stroke-width="3.0"/>
    <path d="M 103.5312271118164 99.69512939453125 C 158.92242431640625 110.97030639648438 197.80821228027344 109.2127685546875 101.9963150024414 98.70720672607422" fill="none" stroke="rgb(0, 0, 0)" stroke-linecap="round" stroke-linejoin="round" stroke-opacity="1.0" stroke-width="3.0"/>
    <path d="M 133.660400390625 106.8510971069336 C 129.98806762695312 85.86766052246094 128.82313537597656 97.7535400390625 107.35758972167969 103.16071319580078" fill="none" stroke="rgb(0, 0, 0)" stroke-linecap="round" stroke-linejoin="round" stroke-opacity="1.0" stroke-width="3.0"/>
    <path d="M 149.09335327148438 107.00363159179688 C 124.53636932373047 101.0191879272461 108.7947998046875 109.3887710571289 114.56810760498047 106.98015594482422" fill="none" stroke="rgb(0, 0, 0)" stroke-linecap="round" stroke-linejoin="round" stroke-opacity="1.0" stroke-width="3.0"/>
    <path d="M 92.8014907836914 105.64834594726562 C 88.78852844238281 174.41000366210938 92.40265655517578 139.989501953125 95.41728973388672 108.36090850830078" fill="none" stroke="rgb(0, 0, 0)" stroke-linecap="round" stroke-linejoin="round" stroke-opacity="1.0" stroke-width="3.0"/>
    <path d="M 102.8797378540039 103.87897491455078 C 138.18336486816406 100.20575714111328 122.4366226196289 104.14924621582031 97.35091400146484 107.51371002197266" fill="none" stroke="rgb(0, 0, 0)" stroke-linecap="round" stroke-linejoin="round" stroke-opacity="1.0" stroke-width="3.0"/>
    <path d="M 119.67398071289062 142.9068603515625 C 121.44263458251953 80.48796844482422 120.51332092285156 97.92742919921875 122.99249267578125 107.22413635253906" fill="none" stroke="rgb(0, 0, 0)" stroke-linecap="round" stroke-linejoin="round" stroke-opacity="1.0" stroke-width="3.0"/>
    <path d="M 136.1166534423828 106.41736602783203 C 118.70853424072266 121.77326965332031 112.91445922851562 99.59903717041016 131.79515075683594 101.78936767578125" fill="none" stroke="rgb(0, 0, 0)" stroke-linecap="round" stroke-linejoin="round" stroke-opacity="1.0" stroke-width="3.0"/>
    <path d="M 128.6845245361328 132.58558654785156 C 178.50424194335938 130.89291381835938 166.7763671875 133.3776092529297 144.14219665527344 134.3118438720703" fill="none" stroke="rgb(0, 0, 0)" stroke-linecap="round" stroke-linejoin="round" stroke-opacity="1.0" stroke-width="3.0"/>
    <path d="M 119.03522491455078 104.64337158203125 C 159.0251922607422 94.48676300048828 91.19953918457031 109.62714385986328 102.64968872070312 100.62056732177734" fill="none" stroke="rgb(0, 0, 0)" stroke-linecap="round" stroke-linejoin="round" stroke-opacity="1.0" stroke-width="3.0"/>
    <path d="M 94.42240905761719 145.8319854736328 C 100.2272720336914 58.64860916137695 85.5894775390625 142.928466796875 101.74881744384766 100.59113311767578" fill="none" stroke="rgb(0, 0, 0)" stroke-linecap="round" stroke-linejoin="round" stroke-opacity="1.0" stroke-width="3.0"/>
    <path d="M 99.31534576416016 106.51416778564453 C 189.38905334472656 107.56875610351562 179.7111358642578 106.83655548095703 98.95874786376953 108.34996795654297" fill="none" stroke="rgb(0, 0, 0)" stroke-linecap="round" stroke-linejoin="round" stroke-opacity="1.0" stroke-width="3.0"/>
  </g>
</svg>
