<?xml version="1.0" ?>
<svg height="224" version="1.1" width="224" xmlns="http://www.w3.org/2000/svg">
  <defs/>
  <g>
    <path d="M 147.18646240234375 157.28433227539062 C 147.55258178710938 107.18516540527344 152.55062866210938 217.15953063964844 151.66366577148438 131.98268127441406" fill="none" stroke="rgb(0, 0, 0)" stroke-linecap="round" stroke-linejoin="round" stroke-opacity="1.0" stroke-width="3.0"/>
    <path d="M 143.68592834472656 112.92460632324219 C 150.26995849609375 121.2311782836914 149.53448486328125 84.6391830444336 130.17221069335938 105.28536987304688" fill="none" stroke="rgb(0, 0, 0)" stroke-linecap="round" stroke-linejoin="round" stroke-opacity="1.0" stroke-width="3.0"/>
    <path d="M 61.9056396484375 134.90904235839844 C 57.746307373046875 156.15945434570312 58.74823760986328 158.4344940185547 60.485107421875 138.4261932373047" fill="none" stroke="rgb(0, 0, 0)" stroke-linecap="round" stroke-linejoin="round" stroke-opacity="1.0" stroke-width="3.0"/>
    <path d="M 52.46511459350586 167.815673828125 C 50.98603057861328 174.19772338867188 54.369529724121094 131.35552978515625 54.73906326293945 102.72328186035156" fill="none" stroke="rgb(0, 0, 0)" stroke-linecap="round" stroke-linejoin="round" stroke-opacity="1.0" stroke-width="3.0"/>
    <path d="M 85.66058349609375 165.85858154296875 C 44.48316955566406 164.21487426757812 57.550621032714844 179.5937957763672 67.23824310302734 101.36151123046875" fill="none" stroke="rgb(0, 0, 0)" stroke-linecap="round" stroke-linejoin="round" stroke-opacity="1.0" stroke-width="3.0"/>
    <path d="M 141.90538024902344 114.1711196899414 C 134.13853454589844 106.85953521728516 165.67904663085938 115.5221939086914 114.75125885009766 107.39070892333984" fill="none" stroke="rgb(0, 0, 0)" stroke-linecap="round" stroke-linejoin="round" stroke-opacity="1.0" stroke-width="3.0"/>
    <path d="M 111.57495880126953 160.71298217773438 C 106.62537384033203 166.1497802734375 140.662353515625 166.0789337158203 56.187950134277344 164.4373779296875" fill="none" stroke="rgb(0, 0, 0)" stroke-linecap="round" stroke-linejoin="round" stroke-opacity="1.0" stroke-width="3.0"/>
    <path d="M 130.9463653564453 105.47452545166016 C 172.23623657226562 110.77420806884766 111.69917297363281 96.7833251953125 155.674560546875 99.92060089111328" fill="none" stroke="rgb(0, 0, 0)" stroke-linecap="round" stroke-linejoin="round" stroke-opacity="1.0" stroke-width="3.0"/>
    <path d="M 148.33546447753906 100.59774780273438 C 143.2574920654297 149.11331176757812 156.38502502441406 112.06083679199219 133.710693359375 159.7062530517578" fill="none" stroke="rgb(0, 0, 0)" stroke-linecap="round" stroke-linejoin="round" stroke-opacity="1.0" stroke-width="3.0"/>
    <path d="M 58.656707763671875 101.25922393798828 C 75.48814392089844 97.81355285644531 28.691221237182617 103.27396392822266 141.2467803955078 101.6531982421875" fill="none" stroke="rgb(0, 0, 0)" stroke-linecap="round" stroke-linejoin="round" stroke-opacity="1.0" stroke-width="3.0"/>
    <path d="M 142.861572265625 136.44476318359375 C 142.10745239257812 145.00717163085938 147.3726806640625 68.55816650390625 143.3890838623047 146.83731079101562" fill="none" stroke="rgb(0, 0, 0)" stroke-linecap="round" stroke-linejoin="round" stroke-opacity="1.0" stroke-width="3.0"/>
    <path d="M 61.379241943359375 140.01622009277344 C 60.88429641723633 123.93067169189453 63.32105255126953 131.0721893310547 61.50735855102539 133.90386962890625" fill="none" stroke="rgb(0, 0, 0)" stroke-linecap="round" stroke-linejoin="round" stroke-opacity="1.0" stroke-width="3.0"/>
    <path d="M 61.037349700927734 133.60446166992188 C 56.5713005065918 163.6779022216797 62.03683090209961 144.01211547851562 61.66817092895508 129.01113891601562" fill="none" stroke="rgb(0, 0, 0)" stroke-linecap="round" stroke-linejoin="round" stroke-opacity="1.0" stroke-width="3.0"/>
    <path d="M 156.5112762451172 100.45094299316406 C 156.57276916503906 112.9837417602539 157.57337951660156 135.57945251464844 155.73373413085938 164.02944946289062" fill="none" stroke="rgb(0, 0, 0)" stroke-linecap="round" stroke-linejoin="round" stroke-opacity="1.0" stroke-width="3.0"/>
    <path d="M 62.342838287353516 104.99018096923828 C 62.545780181884766 99.13872528076172 57.6237907409668 172.97976684570312 61.84545135498047 129.91372680664062" fill="none" stroke="rgb(0, 0, 0)" stroke-linecap="round" stroke-linejoin="round" stroke-opacity="1.0" stroke-width="3.0"/>
    <path d="M 109.74755096435547 164.67449951171875 C 151.92201232910156 165.95944213867188 104.76851654052734 164.08740234375 153.33460998535156 166.04722595214844" fill="none" stroke="rgb(0, 0, 0)" stroke-linecap="round" stroke-linejoin="round" stroke-opacity="1.0" stroke-width="3.0"/>
  </g>
</svg>
