<?xml version="1.0" ?>
<svg height="224" version="1.1" width="224" xmlns="http://www.w3.org/2000/svg">
  <defs/>
  <g>
    <path d="M 128.10614013671875 114.3611831665039 C 7.286835193634033 94.48194885253906 222.5452117919922 119.62986755371094 120.27901458740234 125.65339660644531" fill="none" stroke="rgb(0, 0, 0)" stroke-linecap="round" stroke-linejoin="round" stroke-opacity="1.0" stroke-width="3.0"/>
    <path d="M 94.68569946289062 169.6797332763672 C 42.4869499206543 167.35916137695312 54.51995086669922 171.1682891845703 54.06439208984375 150.46551513671875" fill="none" stroke="rgb(0, 0, 0)" stroke-linecap="round" stroke-linejoin="round" stroke-opacity="1.0" stroke-width="3.0"/>
    <path d="M 133.6997833251953 169.12020874023438 C 36.163169860839844 168.39541625976562 41.199649810791016 159.84390258789062 74.76705932617188 165.54185485839844" fill="none" stroke="rgb(0, 0, 0)" stroke-linecap="round" stroke-linejoin="round" stroke-opacity="1.0" stroke-width="3.0"/>
    <path d="M 150.43540954589844 170.09861755371094 C 97.00244140625 168.99366760253906 43.072723388671875 172.931640625 147.33206176757812 158.79644775390625" fill="none" stroke="rgb(0, 0, 0)" stroke-linecap="round" stroke-linejoin="round" stroke-opacity="1.0" stroke-width="3.0"/>
    <path d="M 154.50662231445312 164.50244140625 C 59.984745025634766 165.42413330078125 102.88945007324219 170.9270477294922 125.23191833496094 162.94647216796875" fill="none" stroke="rgb(0, 0, 0)" stroke-linecap="round" stroke-linejoin="round" stroke-opacity="1.0" stroke-width="3.0"/>
    <path d="M 57.88523483276367 156.3931121826172 C 186.67991638183594 161.73143005371094 192.1958465576172 175.14205932617188 62.46893310546875 162.8663787841797" fill="none" stroke="rgb(0, 0, 0)" stroke-linecap="round" stroke-linejoin="round" stroke-opacity="1.0" stroke-width="3.0"/>
    <path d="M 120.16432189941406 121.18975067138672 C 110.26703643798828 180.7851104736328 192.478759765625 157.44644165039062 61.33903884887695 164.58114624023438" fill="none" stroke="rgb(0, 0, 0)" stroke-linecap="round" stroke-linejoin="round" stroke-opacity="1.0" stroke-width="3.0"/>
    <path d="M 130.62620544433594 102.23432922363281 C 65.59334564208984 108.79471588134766 -4.034747123718262 96.4579849243164 149.1372833251953 103.19668579101562" fill="none" stroke="rgb(0, 0, 0)" stroke-linecap="round" stroke-linejoin="round" stroke-opacity="1.0" stroke-width="3.0"/>
    <path d="M 121.60807037353516 163.96810913085938 C 102.87725067138672 76.62500762939453 221.63363647460938 173.79957580566406 77.90889739990234 168.22433471679688" fill="none" stroke="rgb(0, 0, 0)" stroke-linecap="round" stroke-linejoin="round" stroke-opacity="1.0" stroke-width="3.0"/>
    <path d="M 150.81163024902344 164.0718231201172 C 152.76307678222656 87.02340698242188 147.66363525390625 98.96854400634766 153.83779907226562 99.5199966430664" fill="none" stroke="rgb(0, 0, 0)" stroke-linecap="round" stroke-linejoin="round" stroke-opacity="1.0" stroke-width="3.0"/>
    <path d="M 143.33363342285156 120.25359344482422 C 151.66824340820312 86.34549713134766 95.1117935180664 129.43800354003906 148.92787170410156 125.75909423828125" fill="none" stroke="rgb(0, 0, 0)" stroke-linecap="round" stroke-linejoin="round" stroke-opacity="1.0" stroke-width="3.0"/>
    <path d="M 87.85604095458984 105.85987091064453 C 44.35472869873047 113.34407806396484 45.472530364990234 103.13034057617188 111.44625091552734 109.71224975585938" fill="none" stroke="rgb(0, 0, 0)" stroke-linecap="round" stroke-linejoin="round" stroke-opacity="1.0" stroke-width="3.0"/>
    <path d="M 155.2080078125 100.28652954101562 C 153.99583435058594 93.06830596923828 157.5799102783203 132.37728881835938 156.7193145751953 166.31185913085938" fill="none" stroke="rgb(0, 0, 0)" stroke-linecap="round" stroke-linejoin="round" stroke-opacity="1.0" stroke-width="3.0"/>
    <path d="M 140.14906311035156 97.22721862792969 C 188.8966522216797 98.7948989868164 55.56122970581055 97.54500579833984 57.28703308105469 100.42076110839844" fill="none" stroke="rgb(0, 0, 0)" stroke-linecap="round" stroke-linejoin="round" stroke-opacity="1.0" stroke-width="3.0"/>
    <path d="M 126.67040252685547 111.5465316772461 C 36.48394012451172 121.47997283935547 58.125099182128906 54.797691345214844 53.415157318115234 161.8782196044922" fill="none" stroke="rgb(0, 0, 0)" stroke-linecap="round" stroke-linejoin="round" stroke-opacity="1.0" stroke-width="3.0"/>
    <path d="M 55.73173522949219 110.04324340820312 C 203.80474853515625 111.15669250488281 154.1380157470703 122.0029067993164 84.41517639160156 111.4631576538086" fill="none" stroke="rgb(0, 0, 0)" stroke-linecap="round" stroke-linejoin="round" stroke-opacity="1.0" stroke-width="3.0"/>
  </g>
</svg>
