<?xml version="1.0" ?>
<svg height="224" version="1.1" width="224" xmlns="http://www.w3.org/2000/svg">
  <defs/>
  <g>
    <path d="M 107.54865264892578 115.77851104736328 C 101.11629486083984 139.11456298828125 108.34415435791016 85.43391418457031 143.8558349609375 112.751220703125" fill="none" stroke="rgb(0, 0, 0)" stroke-linecap="round" stroke-linejoin="round" stroke-opacity="1.0" stroke-width="3.0"/>
    <path d="M 130.0591278076172 145.61880493164062 C 102.58045196533203 147.56866455078125 163.0508575439453 151.67698669433594 144.85606384277344 114.72021484375" fill="none" stroke="rgb(0, 0, 0)" stroke-linecap="round" stroke-linejoin="round" stroke-opacity="1.0" stroke-width="3.0"/>
    <path d="M 83.44181060791016 117.22578430175781 C 69.61656188964844 79.92011260986328 95.17204284667969 106.1530990600586 84.17832946777344 112.78495025634766" fill="none" stroke="rgb(0, 0, 0)" stroke-linecap="round" stroke-linejoin="round" stroke-opacity="1.0" stroke-width="3.0"/>
    <path d="M 162.69447326660156 111.5357894897461 C 172.19993591308594 78.7806167602539 60.696598052978516 87.0018310546875 140.4442901611328 87.27174377441406" fill="none" stroke="rgb(0, 0, 0)" stroke-linecap="round" stroke-linejoin="round" stroke-opacity="1.0" stroke-width="3.0"/>
    <path d="M 64.5440902709961 102.30867004394531 C 104.09904479980469 107.3511734008789 108.14854431152344 102.4546127319336 62.052955627441406 110.24410247802734" fill="none" stroke="rgb(0, 0, 0)" stroke-linecap="round" stroke-linejoin="round" stroke-opacity="1.0" stroke-width="3.0"/>
    <path d="M 135.66517639160156 93.37020111083984 C 85.24568176269531 94.06568145751953 136.19198608398438 96.27919006347656 64.11613464355469 104.51884460449219" fill="none" stroke="rgb(0, 0, 0)" stroke-linecap="round" stroke-linejoin="round" stroke-opacity="1.0" stroke-width="3.0"/>
    <path d="M 108.35303497314453 148.74407958984375 C 109.72502136230469 156.63619995117188 144.8458709716797 162.5597381591797 163.15809631347656 138.84725952148438" fill="none" stroke="rgb(0, 0, 0)" stroke-linecap="round" stroke-linejoin="round" stroke-opacity="1.0" stroke-width="3.0"/>
    <path d="M 126.65010833740234 146.3968963623047 C 100.77084350585938 142.76901245117188 106.37489318847656 111.09054565429688 106.15532684326172 124.6794204711914" fill="none" stroke="rgb(0, 0, 0)" stroke-linecap="round" stroke-linejoin="round" stroke-opacity="1.0" stroke-width="3.0"/>
    <path d="M 130.02532958984375 155.40802001953125 C 104.07281494140625 145.7191162109375 93.51826477050781 156.17257690429688 86.05370330810547 145.16311645507812" fill="none" stroke="rgb(0, 0, 0)" stroke-linecap="round" stroke-linejoin="round" stroke-opacity="1.0" stroke-width="3.0"/>
    <path d="M 65.22180938720703 151.7798614501953 C 110.93698120117188 155.2222137451172 94.30113983154297 138.95562744140625 85.91607666015625 149.34164428710938" fill="none" stroke="rgb(0, 0, 0)" stroke-linecap="round" stroke-linejoin="round" stroke-opacity="1.0" stroke-width="3.0"/>
    <path d="M 97.2305679321289 102.02802276611328 C 78.28982543945312 116.56900024414062 84.81991577148438 136.56350708007812 91.3060073852539 147.90769958496094" fill="none" stroke="rgb(0, 0, 0)" stroke-linecap="round" stroke-linejoin="round" stroke-opacity="1.0" stroke-width="3.0"/>
    <path d="M 163.7395782470703 142.63705444335938 C 164.34877014160156 103.52163696289062 168.95706176757812 104.39766693115234 117.82201385498047 90.3409423828125" fill="none" stroke="rgb(0, 0, 0)" stroke-linecap="round" stroke-linejoin="round" stroke-opacity="1.0" stroke-width="3.0"/>
    <path d="M 140.6944122314453 97.33404541015625 C 10.00993537902832 93.81985473632812 76.97865295410156 116.67327117919922 100.46733093261719 102.38819885253906" fill="none" stroke="rgb(0, 0, 0)" stroke-linecap="round" stroke-linejoin="round" stroke-opacity="1.0" stroke-width="3.0"/>
    <path d="M 63.20637130737305 150.86802673339844 C 55.538028717041016 61.09990692138672 86.44927978515625 100.56787872314453 80.19761657714844 152.53363037109375" fill="none" stroke="rgb(0, 0, 0)" stroke-linecap="round" stroke-linejoin="round" stroke-opacity="1.0" stroke-width="3.0"/>
    <path d="M 104.56615447998047 95.3582534790039 C 115.39752197265625 73.3062973022461 119.38536834716797 95.0970687866211 98.8880615234375 102.24778747558594" fill="none" stroke="rgb(0, 0, 0)" stroke-linecap="round" stroke-linejoin="round" stroke-opacity="1.0" stroke-width="3.0"/>
    <path d="M 118.6717529296875 98.37004089355469 C 84.23395538330078 110.0465087890625 93.9488525390625 147.2705535888672 116.06858825683594 151.4054718017578" fill="none" stroke="rgb(0, 0, 0)" stroke-linecap="round" stroke-linejoin="round" stroke-opacity="1.0" stroke-width="3.0"/>
  </g>
</svg>
