<?xml version="1.0" ?>
<svg height="224" version="1.1" width="224" xmlns="http://www.w3.org/2000/svg">
  <defs/>
  <g>
    <path d="M 113.4244155883789 89.09979248046875 C 117.97557067871094 155.5165252685547 130.44439697265625 155.49859619140625 122.6667709350586 100.28766632080078" fill="none" stroke="rgb(0, 0, 0)" stroke-linecap="round" stroke-linejoin="round" stroke-opacity="1.0" stroke-width="3.0"/>
    <path d="M 115.35075378417969 140.33563232421875 C 113.1556167602539 67.42008209228516 104.62905883789062 103.55742645263672 102.07091522216797 81.12550354003906" fill="none" stroke="rgb(0, 0, 0)" stroke-linecap="round" stroke-linejoin="round" stroke-opacity="1.0" stroke-width="3.0"/>
    <path d="M 115.20246887207031 88.6239013671875 C 126.31208038330078 119.76837158203125 131.6179962158203 114.8124771118164 104.79197692871094 119.17503356933594" fill="none" stroke="rgb(0, 0, 0)" stroke-linecap="round" stroke-linejoin="round" stroke-opacity="1.0" stroke-width="3.0"/>
    <path d="M 121.44081115722656 130.10255432128906 C 109.31147003173828 64.2851791381836 105.03726959228516 73.37146759033203 113.38136291503906 144.4359588623047" fill="none" stroke="rgb(0, 0, 0)" stroke-linecap="round" stroke-linejoin="round" stroke-opacity="1.0" stroke-width="3.0"/>
    <path d="M 88.34676361083984 145.46072387695312 C 134.79222106933594 146.12521362304688 129.26644897460938 131.69476318359375 116.91825866699219 133.34681701660156" fill="none" stroke="rgb(0, 0, 0)" stroke-linecap="round" stroke-linejoin="round" stroke-opacity="1.0" stroke-width="3.0"/>
    <path d="M 89.64928436279297 152.85862731933594 C 68.01041412353516 53.54277801513672 62.874942779541016 71.75399780273438 92.00802612304688 65.15283203125" fill="none" stroke="rgb(0, 0, 0)" stroke-linecap="round" stroke-linejoin="round" stroke-opacity="1.0" stroke-width="3.0"/>
    <path d="M 91.82414245605469 77.29188537597656 C 124.24369812011719 89.59801483154297 118.61006927490234 77.43147277832031 114.51319122314453 105.17191314697266" fill="none" stroke="rgb(0, 0, 0)" stroke-linecap="round" stroke-linejoin="round" stroke-opacity="1.0" stroke-width="3.0"/>
    <path d="M 116.21426391601562 99.90896606445312 C 136.6129150390625 106.0783462524414 129.012939453125 129.63052368164062 126.4792709350586 116.51271057128906" fill="none" stroke="rgb(0, 0, 0)" stroke-linecap="round" stroke-linejoin="round" stroke-opacity="1.0" stroke-width="3.0"/>
    <path d="M 116.03977966308594 87.03998565673828 C 103.94818115234375 95.3067626953125 115.26004791259766 70.77434539794922 113.89740753173828 99.79277038574219" fill="none" stroke="rgb(0, 0, 0)" stroke-linecap="round" stroke-linejoin="round" stroke-opacity="1.0" stroke-width="3.0"/>
    <path d="M 88.8973159790039 149.12901306152344 C 128.54754638671875 144.86875915527344 122.09573364257812 128.21044921875 111.58072662353516 146.28665161132812" fill="none" stroke="rgb(0, 0, 0)" stroke-linecap="round" stroke-linejoin="round" stroke-opacity="1.0" stroke-width="3.0"/>
    <path d="M 130.54977416992188 116.26677703857422 C 105.26639556884766 166.98684692382812 110.42798614501953 156.5867156982422 100.73480987548828 78.99089050292969" fill="none" stroke="rgb(0, 0, 0)" stroke-linecap="round" stroke-linejoin="round" stroke-opacity="1.0" stroke-width="3.0"/>
    <path d="M 126.66519165039062 137.720947265625 C 122.71179962158203 69.73794555664062 111.6162338256836 67.1357421875 127.26044464111328 138.29689025878906" fill="none" stroke="rgb(0, 0, 0)" stroke-linecap="round" stroke-linejoin="round" stroke-opacity="1.0" stroke-width="3.0"/>
    <path d="M 90.4647445678711 68.9609603881836 C 101.3916015625 120.39863586425781 112.47911071777344 138.20175170898438 95.96430969238281 79.2043228149414" fill="none" stroke="rgb(0, 0, 0)" stroke-linecap="round" stroke-linejoin="round" stroke-opacity="1.0" stroke-width="3.0"/>
    <path d="M 94.37700653076172 68.88772583007812 C 116.57421112060547 84.5963134765625 123.54365539550781 114.22024536132812 115.10082244873047 89.21607208251953" fill="none" stroke="rgb(0, 0, 0)" stroke-linecap="round" stroke-linejoin="round" stroke-opacity="1.0" stroke-width="3.0"/>
    <path d="M 118.72551727294922 118.15267944335938 C 120.19470977783203 141.2630157470703 129.4456787109375 145.59701538085938 93.03977966308594 145.2755126953125" fill="none" stroke="rgb(0, 0, 0)" stroke-linecap="round" stroke-linejoin="round" stroke-opacity="1.0" stroke-width="3.0"/>
    <path d="M 90.13642120361328 155.54019165039062 C 107.2686538696289 149.2080535888672 118.04188537597656 147.64398193359375 90.53081512451172 150.76710510253906" fill="none" stroke="rgb(0, 0, 0)" stroke-linecap="round" stroke-linejoin="round" stroke-opacity="1.0" stroke-width="3.0"/>
  </g>
</svg>
