<?xml version="1.0" ?>
<svg height="224" version="1.1" width="224" xmlns="http://www.w3.org/2000/svg">
  <defs/>
  <g>
    <path d="M 114.00611114501953 84.02600860595703 C 135.26370239257812 70.7032241821289 78.55274200439453 94.1598129272461 109.03079986572266 138.8183135986328" fill="none" stroke="rgb(0, 0, 0)" stroke-linecap="round" stroke-linejoin="round" stroke-opacity="1.0" stroke-width="3.0"/>
    <path d="M 133.59010314941406 142.9001007080078 C 173.95770263671875 131.5463409423828 163.1595001220703 66.7324447631836 115.9424819946289 83.13091278076172" fill="none" stroke="rgb(0, 0, 0)" stroke-linecap="round" stroke-linejoin="round" stroke-opacity="1.0" stroke-width="3.0"/>
    <path d="M 146.22438049316406 130.92971801757812 C 161.11233520507812 106.17894744873047 135.408935546875 81.80484771728516 123.73502349853516 87.03809356689453" fill="none" stroke="rgb(0, 0, 0)" stroke-linecap="round" stroke-linejoin="round" stroke-opacity="1.0" stroke-width="3.0"/>
    <path d="M 85.24446105957031 94.62753295898438 C 107.80436706542969 96.22547149658203 74.77505493164062 88.67578125 101.52242279052734 141.43377685546875" fill="none" stroke="rgb(0, 0, 0)" stroke-linecap="round" stroke-linejoin="round" stroke-opacity="1.0" stroke-width="3.0"/>
    <path d="M 99.90784454345703 131.0081024169922 C 128.5086212158203 170.81430053710938 181.09239196777344 105.67367553710938 138.12379455566406 88.83992004394531" fill="none" stroke="rgb(0, 0, 0)" stroke-linecap="round" stroke-linejoin="round" stroke-opacity="1.0" stroke-width="3.0"/>
    <path d="M 111.12902069091797 99.72312927246094 C 121.1585464477539 80.24479675292969 142.18585205078125 80.74476623535156 153.29197692871094 99.16830444335938" fill="none" stroke="rgb(0, 0, 0)" stroke-linecap="round" stroke-linejoin="round" stroke-opacity="1.0" stroke-width="3.0"/>
    <path d="M 154.66343688964844 118.06412506103516 C 158.8915557861328 108.92575073242188 155.6166229248047 97.4250717163086 155.9982452392578 111.68042755126953" fill="none" stroke="rgb(0, 0, 0)" stroke-linecap="round" stroke-linejoin="round" stroke-opacity="1.0" stroke-width="3.0"/>
    <path d="M 80.17994689941406 108.16517639160156 C 113.95683288574219 42.974674224853516 70.20182037353516 144.05078125 108.5751953125 140.6720733642578" fill="none" stroke="rgb(0, 0, 0)" stroke-linecap="round" stroke-linejoin="round" stroke-opacity="1.0" stroke-width="3.0"/>
    <path d="M 131.333984375 142.3655548095703 C 90.02562713623047 137.66006469726562 118.02836608886719 80.08857727050781 108.85177612304688 105.45000457763672" fill="none" stroke="rgb(0, 0, 0)" stroke-linecap="round" stroke-linejoin="round" stroke-opacity="1.0" stroke-width="3.0"/>
    <path d="M 157.25405883789062 111.48516845703125 C 158.7812042236328 117.48617553710938 150.4101104736328 139.73577880859375 156.2779998779297 120.00442504882812" fill="none" stroke="rgb(0, 0, 0)" stroke-linecap="round" stroke-linejoin="round" stroke-opacity="1.0" stroke-width="3.0"/>
    <path d="M 103.15553283691406 86.45716094970703 C 39.399993896484375 87.06656646728516 103.81906127929688 183.44664001464844 86.1031265258789 111.76131439208984" fill="none" stroke="rgb(0, 0, 0)" stroke-linecap="round" stroke-linejoin="round" stroke-opacity="1.0" stroke-width="3.0"/>
    <path d="M 98.84222412109375 86.67361450195312 C 73.18561553955078 151.77565002441406 85.6635971069336 134.3312530517578 113.35455322265625 144.7359619140625" fill="none" stroke="rgb(0, 0, 0)" stroke-linecap="round" stroke-linejoin="round" stroke-opacity="1.0" stroke-width="3.0"/>
    <path d="M 91.05050659179688 127.95307922363281 C 56.740684509277344 117.29017639160156 107.08792877197266 65.15343475341797 83.59932708740234 113.95211791992188" fill="none" stroke="rgb(0, 0, 0)" stroke-linecap="round" stroke-linejoin="round" stroke-opacity="1.0" stroke-width="3.0"/>
    <path d="M 76.09413146972656 118.45832824707031 C 89.42742919921875 144.201416015625 102.33148193359375 142.6573944091797 79.72574615478516 112.23915100097656" fill="none" stroke="rgb(0, 0, 0)" stroke-linecap="round" stroke-linejoin="round" stroke-opacity="1.0" stroke-width="3.0"/>
    <path d="M 155.53013610839844 126.80438995361328 C 162.57855224609375 103.01033782958984 148.5169677734375 90.41168212890625 155.7592010498047 108.98735046386719" fill="none" stroke="rgb(0, 0, 0)" stroke-linecap="round" stroke-linejoin="round" stroke-opacity="1.0" stroke-width="3.0"/>
    <path d="M 82.14642333984375 134.3638458251953 C 77.12947845458984 92.76046752929688 101.7203140258789 79.75751495361328 126.29924011230469 80.15550994873047" fill="none" stroke="rgb(0, 0, 0)" stroke-linecap="round" stroke-linejoin="round" stroke-opacity="1.0" stroke-width="3.0"/>
  </g>
</svg>
