<?xml version="1.0" ?>
<svg height="224" version="1.1" width="224" xmlns="http://www.w3.org/2000/svg">
  <defs/>
  <g>
    <path d="M 126.6991195678711 83.67635345458984 C 133.0576171875 93.56070709228516 144.1178436279297 110.36495971679688 116.28752899169922 126.95764923095703" fill="none" stroke="rgb(0, 0, 0)" stroke-linecap="round" stroke-linejoin="round" stroke-opacity="1.0" stroke-width="3.0"/>
    <path d="M 95.00923919677734 171.27243041992188 C 137.89572143554688 156.5559539794922 127.1506576538086 176.8526611328125 130.56658935546875 137.6949005126953" fill="none" stroke="rgb(0, 0, 0)" stroke-linecap="round" stroke-linejoin="round" stroke-opacity="1.0" stroke-width="3.0"/>
    <path d="M 124.42243194580078 94.73330688476562 C 109.6146469116211 102.47509002685547 134.45724487304688 112.25313568115234 126.1313705444336 93.7414321899414" fill="none" stroke="rgb(0, 0, 0)" stroke-linecap="round" stroke-linejoin="round" stroke-opacity="1.0" stroke-width="3.0"/>
    <path d="M 106.01121520996094 123.763427734375 C 63.66282272338867 109.57826232910156 85.18714904785156 68.33980560302734 107.5694351196289 71.37201690673828" fill="none" stroke="rgb(0, 0, 0)" stroke-linecap="round" stroke-linejoin="round" stroke-opacity="1.0" stroke-width="3.0"/>
    <path d="M 88.44808197021484 169.95614624023438 C 88.54227447509766 116.07750701904297 75.7804946899414 154.52291870117188 120.89764404296875 122.50713348388672" fill="none" stroke="rgb(0, 0, 0)" stroke-linecap="round" stroke-linejoin="round" stroke-opacity="1.0" stroke-width="3.0"/>
    <path d="M 128.48463439941406 135.94512939453125 C 83.44561767578125 135.52000427246094 77.88948822021484 137.61392211914062 122.5653305053711 141.88027954101562" fill="none" stroke="rgb(0, 0, 0)" stroke-linecap="round" stroke-linejoin="round" stroke-opacity="1.0" stroke-width="3.0"/>
    <path d="M 97.60565948486328 143.15704345703125 C 132.6113739013672 138.0474853515625 122.91165161132812 133.13706970214844 125.25871276855469 164.2654571533203" fill="none" stroke="rgb(0, 0, 0)" stroke-linecap="round" stroke-linejoin="round" stroke-opacity="1.0" stroke-width="3.0"/>
    <path d="M 85.84599304199219 112.06295013427734 C 99.71987915039062 132.5601806640625 119.79794311523438 142.60047912597656 127.15751647949219 119.26354217529297" fill="none" stroke="rgb(0, 0, 0)" stroke-linecap="round" stroke-linejoin="round" stroke-opacity="1.0" stroke-width="3.0"/>
    <path d="M 103.5639419555664 71.27349090576172 C 128.6447296142578 72.47461700439453 146.9558868408203 102.46488952636719 122.22840881347656 121.61180877685547" fill="none" stroke="rgb(0, 0, 0)" stroke-linecap="round" stroke-linejoin="round" stroke-opacity="1.0" stroke-width="3.0"/>
    <path d="M 95.55828094482422 139.23199462890625 C 97.93563079833984 130.34130859375 91.90735626220703 170.20037841796875 102.86495971679688 165.4564971923828" fill="none" stroke="rgb(0, 0, 0)" stroke-linecap="round" stroke-linejoin="round" stroke-opacity="1.0" stroke-width="3.0"/>
    <path d="M 106.49193572998047 155.1933135986328 C 160.759033203125 140.9422607421875 63.2852783203125 140.83445739746094 100.91851043701172 134.736083984375" fill="none" stroke="rgb(0, 0, 0)" stroke-linecap="round" stroke-linejoin="round" stroke-opacity="1.0" stroke-width="3.0"/>
    <path d="M 126.40611267089844 164.16502380371094 C 90.25733947753906 173.21542358398438 73.08036041259766 176.01626586914062 122.41571807861328 161.1520233154297" fill="none" stroke="rgb(0, 0, 0)" stroke-linecap="round" stroke-linejoin="round" stroke-opacity="1.0" stroke-width="3.0"/>
    <path d="M 84.07878112792969 108.0831527709961 C 89.27992248535156 134.4591522216797 118.23572540283203 133.58367919921875 124.79093170166016 121.62500762939453" fill="none" stroke="rgb(0, 0, 0)" stroke-linecap="round" stroke-linejoin="round" stroke-opacity="1.0" stroke-width="3.0"/>
    <path d="M 108.96591186523438 128.6685791015625 C 69.83494567871094 110.6393814086914 107.83645629882812 129.8367156982422 124.34078216552734 121.02381134033203" fill="none" stroke="rgb(0, 0, 0)" stroke-linecap="round" stroke-linejoin="round" stroke-opacity="1.0" stroke-width="3.0"/>
    <path d="M 132.42166137695312 113.14283752441406 C 129.29373168945312 111.28993225097656 135.2405242919922 114.10179901123047 125.36590576171875 121.50782775878906" fill="none" stroke="rgb(0, 0, 0)" stroke-linecap="round" stroke-linejoin="round" stroke-opacity="1.0" stroke-width="3.0"/>
    <path d="M 117.16820526123047 128.26446533203125 C 53.835304260253906 128.60301208496094 153.86805725097656 118.00592041015625 110.63697052001953 130.84190368652344" fill="none" stroke="rgb(0, 0, 0)" stroke-linecap="round" stroke-linejoin="round" stroke-opacity="1.0" stroke-width="3.0"/>
  </g>
</svg>
