<?xml version="1.0" ?>
<svg height="224" version="1.1" width="224" xmlns="http://www.w3.org/2000/svg">
  <defs/>
  <g>
    <path d="M 77.02632904052734 100.79378509521484 C 168.52874755859375 106.38516235351562 126.49580383300781 116.79613494873047 76.27894592285156 109.50894165039062" fill="none" stroke="rgb(0, 0, 0)" stroke-linecap="round" stroke-linejoin="round" stroke-opacity="1.0" stroke-width="3.0"/>
    <path d="M 110.59871673583984 105.71604919433594 C 23.144062042236328 109.25846099853516 71.61723327636719 105.2984619140625 130.54568481445312 113.63383483886719" fill="none" stroke="rgb(0, 0, 0)" stroke-linecap="round" stroke-linejoin="round" stroke-opacity="1.0" stroke-width="3.0"/>
    <path d="M 122.84799194335938 127.99244689941406 C 124.37220001220703 105.07867431640625 139.88404846191406 77.79517364501953 134.93624877929688 131.56748962402344" fill="none" stroke="rgb(0, 0, 0)" stroke-linecap="round" stroke-linejoin="round" stroke-opacity="1.0" stroke-width="3.0"/>
    <path d="M 115.8062515258789 133.7772979736328 C 113.86865234375 83.68946075439453 136.5132293701172 102.2869644165039 78.32396697998047 99.3243408203125" fill="none" stroke="rgb(0, 0, 0)" stroke-linecap="round" stroke-linejoin="round" stroke-opacity="1.0" stroke-width="3.0"/>
    <path d="M 61.20256042480469 128.61407470703125 C 165.41099548339844 125.20172882080078 147.00425720214844 139.20159912109375 59.334739685058594 135.26608276367188" fill="none" stroke="rgb(0, 0, 0)" stroke-linecap="round" stroke-linejoin="round" stroke-opacity="1.0" stroke-width="3.0"/>
    <path d="M 62.084320068359375 112.9888916015625 C 158.5697021484375 108.14671325683594 119.98087310791016 109.57655334472656 129.66297912597656 127.52210235595703" fill="none" stroke="rgb(0, 0, 0)" stroke-linecap="round" stroke-linejoin="round" stroke-opacity="1.0" stroke-width="3.0"/>
    <path d="M 128.86245727539062 132.0333709716797 C 124.55559539794922 84.67918395996094 118.98229217529297 114.12903594970703 109.77033996582031 110.73507690429688" fill="none" stroke="rgb(0, 0, 0)" stroke-linecap="round" stroke-linejoin="round" stroke-opacity="1.0" stroke-width="3.0"/>
    <path d="M 115.84978485107422 119.8150634765625 C 138.09478759765625 125.96221160888672 130.4850311279297 84.30110931396484 131.6800994873047 128.45440673828125" fill="none" stroke="rgb(0, 0, 0)" stroke-linecap="round" stroke-linejoin="round" stroke-opacity="1.0" stroke-width="3.0"/>
    <path d="M 57.90819549560547 133.01968383789062 C 58.608970642089844 114.74793243408203 59.171905517578125 94.50183868408203 58.17955017089844 127.91874694824219" fill="none" stroke="rgb(0, 0, 0)" stroke-linecap="round" stroke-linejoin="round" stroke-opacity="1.0" stroke-width="3.0"/>
    <path d="M 93.86656188964844 109.48690032958984 C 157.92306518554688 98.33448791503906 139.91912841796875 106.4309310913086 59.70801544189453 110.5809326171875" fill="none" stroke="rgb(0, 0, 0)" stroke-linecap="round" stroke-linejoin="round" stroke-opacity="1.0" stroke-width="3.0"/>
    <path d="M 108.66048431396484 108.05036163330078 C 144.49546813964844 112.15773010253906 129.3045654296875 130.04071044921875 117.49833679199219 120.77286529541016" fill="none" stroke="rgb(0, 0, 0)" stroke-linecap="round" stroke-linejoin="round" stroke-opacity="1.0" stroke-width="3.0"/>
    <path d="M 60.26313781738281 109.19451904296875 C 51.393245697021484 128.3644256591797 61.37876892089844 145.2306671142578 58.170433044433594 120.00538635253906" fill="none" stroke="rgb(0, 0, 0)" stroke-linecap="round" stroke-linejoin="round" stroke-opacity="1.0" stroke-width="3.0"/>
    <path d="M 107.34120178222656 104.44799041748047 C 139.46243286132812 106.16097259521484 135.4681854248047 95.1907730102539 125.05049896240234 112.61631774902344" fill="none" stroke="rgb(0, 0, 0)" stroke-linecap="round" stroke-linejoin="round" stroke-opacity="1.0" stroke-width="3.0"/>
    <path d="M 105.69108581542969 135.25643920898438 C 132.13070678710938 151.3132781982422 128.077392578125 89.39190673828125 127.68861389160156 132.10084533691406" fill="none" stroke="rgb(0, 0, 0)" stroke-linecap="round" stroke-linejoin="round" stroke-opacity="1.0" stroke-width="3.0"/>
    <path d="M 60.76637268066406 132.59634399414062 C 61.526405334472656 102.95348358154297 41.204200744628906 102.57831573486328 115.6708755493164 100.62162780761719" fill="none" stroke="rgb(0, 0, 0)" stroke-linecap="round" stroke-linejoin="round" stroke-opacity="1.0" stroke-width="3.0"/>
    <path d="M 116.81842041015625 122.51274871826172 C 153.10824584960938 149.2598114013672 98.38208770751953 125.0185317993164 126.79731750488281 132.43431091308594" fill="none" stroke="rgb(0, 0, 0)" stroke-linecap="round" stroke-linejoin="round" stroke-opacity="1.0" stroke-width="3.0"/>
  </g>
</svg>
