<?xml version="1.0" ?>
<svg height="224" version="1.1" width="224" xmlns="http://www.w3.org/2000/svg">
  <defs/>
  <g>
    <path d="M 68.37905883789062 148.5810089111328 C 144.21044921875 138.33909606933594 105.61297607421875 152.42208862304688 65.07696533203125 149.0940704345703" fill="none" stroke="rgb(0, 0, 0)" stroke-linecap="round" stroke-linejoin="round" stroke-opacity="1.0" stroke-width="3.0"/>
    <path d="M 111.71222686767578 150.2849884033203 C 112.75993347167969 133.4751739501953 74.5246353149414 157.9001007080078 110.8454818725586 149.64602661132812" fill="none" stroke="rgb(0, 0, 0)" stroke-linecap="round" stroke-linejoin="round" stroke-opacity="1.0" stroke-width="3.0"/>
    <path d="M 73.37437438964844 74.98674774169922 C 72.15029907226562 151.5609588623047 73.6957015991211 117.05181884765625 78.3150634765625 111.55391693115234" fill="none" stroke="rgb(0, 0, 0)" stroke-linecap="round" stroke-linejoin="round" stroke-opacity="1.0" stroke-width="3.0"/>
    <path d="M 84.85519409179688 104.04463958740234 C 83.54413604736328 66.26605224609375 91.22569274902344 76.88926696777344 73.62103271484375 73.6688232421875" fill="none" stroke="rgb(0, 0, 0)" stroke-linecap="round" stroke-linejoin="round" stroke-opacity="1.0" stroke-width="3.0"/>
    <path d="M 110.43587493896484 148.83871459960938 C 85.52547454833984 157.6141357421875 27.154695510864258 146.21759033203125 103.2991943359375 143.78314208984375" fill="none" stroke="rgb(0, 0, 0)" stroke-linecap="round" stroke-linejoin="round" stroke-opacity="1.0" stroke-width="3.0"/>
    <path d="M 111.67658233642578 105.06753540039062 C 104.89236450195312 94.86210632324219 131.05274963378906 106.72852325439453 86.99980163574219 96.7205581665039" fill="none" stroke="rgb(0, 0, 0)" stroke-linecap="round" stroke-linejoin="round" stroke-opacity="1.0" stroke-width="3.0"/>
    <path d="M 110.34616088867188 113.1904296875 C 117.41532135009766 76.28682708740234 123.86656188964844 90.1913833618164 92.69122314453125 74.44695281982422" fill="none" stroke="rgb(0, 0, 0)" stroke-linecap="round" stroke-linejoin="round" stroke-opacity="1.0" stroke-width="3.0"/>
    <path d="M 102.6494369506836 99.65474700927734 C 110.18637084960938 185.64599609375 79.71063995361328 130.1652069091797 127.42601013183594 132.9339599609375" fill="none" stroke="rgb(0, 0, 0)" stroke-linecap="round" stroke-linejoin="round" stroke-opacity="1.0" stroke-width="3.0"/>
    <path d="M 127.90185546875 132.46453857421875 C 133.42335510253906 97.37097930908203 121.6261215209961 118.4037094116211 105.89659881591797 103.43148040771484" fill="none" stroke="rgb(0, 0, 0)" stroke-linecap="round" stroke-linejoin="round" stroke-opacity="1.0" stroke-width="3.0"/>
    <path d="M 89.941162109375 72.80632781982422 C 101.49117279052734 76.43050384521484 116.1002426147461 85.4653549194336 97.6788330078125 75.7378921508789" fill="none" stroke="rgb(0, 0, 0)" stroke-linecap="round" stroke-linejoin="round" stroke-opacity="1.0" stroke-width="3.0"/>
    <path d="M 84.1656494140625 107.79692077636719 C 72.78052520751953 130.0785369873047 88.72102355957031 145.3116912841797 106.81449890136719 140.02880859375" fill="none" stroke="rgb(0, 0, 0)" stroke-linecap="round" stroke-linejoin="round" stroke-opacity="1.0" stroke-width="3.0"/>
    <path d="M 104.2741470336914 145.3929443359375 C 68.4506607055664 141.7219696044922 74.89483642578125 121.82669067382812 77.65001678466797 75.211181640625" fill="none" stroke="rgb(0, 0, 0)" stroke-linecap="round" stroke-linejoin="round" stroke-opacity="1.0" stroke-width="3.0"/>
    <path d="M 121.98603820800781 112.06369018554688 C 104.23624420166016 112.05775451660156 93.7853775024414 104.51427459716797 124.75485229492188 112.57335662841797" fill="none" stroke="rgb(0, 0, 0)" stroke-linecap="round" stroke-linejoin="round" stroke-opacity="1.0" stroke-width="3.0"/>
    <path d="M 126.33673858642578 113.24488067626953 C 107.82865905761719 114.4996109008789 87.92151641845703 115.13908386230469 124.87442779541016 111.70970153808594" fill="none" stroke="rgb(0, 0, 0)" stroke-linecap="round" stroke-linejoin="round" stroke-opacity="1.0" stroke-width="3.0"/>
    <path d="M 110.27566528320312 82.14179992675781 C 80.30857849121094 70.40876770019531 92.49559783935547 69.89370727539062 76.03263854980469 73.30525207519531" fill="none" stroke="rgb(0, 0, 0)" stroke-linecap="round" stroke-linejoin="round" stroke-opacity="1.0" stroke-width="3.0"/>
    <path d="M 104.9780502319336 109.88134002685547 C 116.29425048828125 108.9261474609375 89.3359146118164 111.88188171386719 118.29571533203125 112.52234649658203" fill="none" stroke="rgb(0, 0, 0)" stroke-linecap="round" stroke-linejoin="round" stroke-opacity="1.0" stroke-width="3.0"/>
  </g>
</svg>
