<?xml version="1.0" ?>
<svg height="224" version="1.1" width="224" xmlns="http://www.w3.org/2000/svg">
  <defs/>
  <g>
    <path d="M 96.65707397460938 136.0435333251953 C 90.8154525756836 130.2349090576172 95.50459289550781 94.27674102783203 95.07904815673828 96.71588134765625" fill="none" stroke="rgb(0, 0, 0)" stroke-linecap="round" stroke-linejoin="round" stroke-opacity="1.0" stroke-width="3.0"/>
    <path d="M 122.07308197021484 136.15145874023438 C 82.37645721435547 121.3397445678711 119.63668060302734 70.86763000488281 146.3206024169922 105.87828063964844" fill="none" stroke="rgb(0, 0, 0)" stroke-linecap="round" stroke-linejoin="round" stroke-opacity="1.0" stroke-width="3.0"/>
    <path d="M 68.35804748535156 85.55139923095703 C 87.85556030273438 87.84022521972656 97.6196517944336 88.66134643554688 58.975860595703125 87.12177276611328" fill="none" stroke="rgb(0, 0, 0)" stroke-linecap="round" stroke-linejoin="round" stroke-opacity="1.0" stroke-width="3.0"/>
    <path d="M 87.95729064941406 135.89837646484375 C 91.04772186279297 73.03998565673828 89.71778869628906 86.32587432861328 89.67510986328125 96.12158966064453" fill="none" stroke="rgb(0, 0, 0)" stroke-linecap="round" stroke-linejoin="round" stroke-opacity="1.0" stroke-width="3.0"/>
    <path d="M 146.43408203125 105.97007751464844 C 147.37855529785156 78.3606948852539 148.51412963867188 88.3367919921875 139.94436645507812 83.55233764648438" fill="none" stroke="rgb(0, 0, 0)" stroke-linecap="round" stroke-linejoin="round" stroke-opacity="1.0" stroke-width="3.0"/>
    <path d="M 89.43328857421875 135.71987915039062 C 82.5862045288086 137.61724853515625 92.58769226074219 134.89596557617188 88.43740844726562 134.4406280517578" fill="none" stroke="rgb(0, 0, 0)" stroke-linecap="round" stroke-linejoin="round" stroke-opacity="1.0" stroke-width="3.0"/>
    <path d="M 89.76827239990234 132.78114318847656 C 28.052467346191406 131.45449829101562 65.14210510253906 140.07879638671875 92.81059265136719 135.7312774658203" fill="none" stroke="rgb(0, 0, 0)" stroke-linecap="round" stroke-linejoin="round" stroke-opacity="1.0" stroke-width="3.0"/>
    <path d="M 94.68928527832031 135.85194396972656 C 138.03253173828125 134.7852020263672 112.2431869506836 140.51280212402344 143.28671264648438 135.4649658203125" fill="none" stroke="rgb(0, 0, 0)" stroke-linecap="round" stroke-linejoin="round" stroke-opacity="1.0" stroke-width="3.0"/>
    <path d="M 56.09454345703125 135.34579467773438 C 55.88469314575195 76.8255386352539 57.29282760620117 63.742218017578125 55.56332015991211 131.6602325439453" fill="none" stroke="rgb(0, 0, 0)" stroke-linecap="round" stroke-linejoin="round" stroke-opacity="1.0" stroke-width="3.0"/>
    <path d="M 104.12648010253906 92.74856567382812 C 102.83893585205078 102.1583023071289 93.58720397949219 88.34835052490234 102.86506652832031 90.85621643066406" fill="none" stroke="rgb(0, 0, 0)" stroke-linecap="round" stroke-linejoin="round" stroke-opacity="1.0" stroke-width="3.0"/>
    <path d="M 110.46087646484375 84.00543975830078 C 87.0767593383789 87.79426574707031 68.4854965209961 79.85103607177734 58.02390670776367 86.0174331665039" fill="none" stroke="rgb(0, 0, 0)" stroke-linecap="round" stroke-linejoin="round" stroke-opacity="1.0" stroke-width="3.0"/>
    <path d="M 64.07291412353516 137.06024169921875 C 53.42778015136719 132.61033630371094 59.737770080566406 134.6055145263672 58.45814514160156 135.292236328125" fill="none" stroke="rgb(0, 0, 0)" stroke-linecap="round" stroke-linejoin="round" stroke-opacity="1.0" stroke-width="3.0"/>
    <path d="M 76.8473892211914 83.49949645996094 C 45.74020004272461 87.28858184814453 78.9404296875 81.89490509033203 82.45479583740234 87.41214752197266" fill="none" stroke="rgb(0, 0, 0)" stroke-linecap="round" stroke-linejoin="round" stroke-opacity="1.0" stroke-width="3.0"/>
    <path d="M 111.23551940917969 92.03961944580078 C 111.54752349853516 75.90938568115234 102.90355682373047 76.7603530883789 137.67330932617188 79.90133666992188" fill="none" stroke="rgb(0, 0, 0)" stroke-linecap="round" stroke-linejoin="round" stroke-opacity="1.0" stroke-width="3.0"/>
    <path d="M 123.58673095703125 136.7068634033203 C 148.48196411132812 143.02072143554688 151.60789489746094 117.81218719482422 144.5320281982422 101.5853500366211" fill="none" stroke="rgb(0, 0, 0)" stroke-linecap="round" stroke-linejoin="round" stroke-opacity="1.0" stroke-width="3.0"/>
    <path d="M 62.591163635253906 136.4132843017578 C 71.80901336669922 134.8448028564453 46.676658630371094 126.86836242675781 61.92430877685547 135.71412658691406" fill="none" stroke="rgb(0, 0, 0)" stroke-linecap="round" stroke-linejoin="round" stroke-opacity="1.0" stroke-width="3.0"/>
  </g>
</svg>
