<?xml version="1.0" ?>
<svg height="224" version="1.1" width="224" xmlns="http://www.w3.org/2000/svg">
  <defs/>
  <g>
    <path d="M 158.1848907470703 139.78147888183594 C 129.38438415527344 111.30034637451172 172.0554656982422 118.54347229003906 147.135986328125 110.44285583496094" fill="none" stroke="rgb(0, 0, 0)" stroke-linecap="round" stroke-linejoin="round" stroke-opacity="1.0" stroke-width="3.0"/>
    <path d="M 162.19688415527344 143.69760131835938 C 127.21577453613281 136.83282470703125 129.95606994628906 135.47218322753906 167.6063690185547 142.04071044921875" fill="none" stroke="rgb(0, 0, 0)" stroke-linecap="round" stroke-linejoin="round" stroke-opacity="1.0" stroke-width="3.0"/>
    <path d="M 135.85386657714844 141.95834350585938 C 83.94258117675781 149.88592529296875 94.29168701171875 146.65745544433594 93.08370208740234 112.5368423461914" fill="none" stroke="rgb(0, 0, 0)" stroke-linecap="round" stroke-linejoin="round" stroke-opacity="1.0" stroke-width="3.0"/>
    <path d="M 163.19793701171875 141.60858154296875 C 203.43954467773438 154.35476684570312 200.20262145996094 63.6851806640625 148.05364990234375 104.00296783447266" fill="none" stroke="rgb(0, 0, 0)" stroke-linecap="round" stroke-linejoin="round" stroke-opacity="1.0" stroke-width="3.0"/>
    <path d="M 151.20343017578125 97.94181823730469 C 138.16049194335938 120.8963851928711 150.031982421875 95.491455078125 160.69326782226562 96.14010620117188" fill="none" stroke="rgb(0, 0, 0)" stroke-linecap="round" stroke-linejoin="round" stroke-opacity="1.0" stroke-width="3.0"/>
    <path d="M 136.04832458496094 90.07037353515625 C 189.7789764404297 90.56159210205078 148.1865234375 103.45191955566406 154.6029052734375 108.25994110107422" fill="none" stroke="rgb(0, 0, 0)" stroke-linecap="round" stroke-linejoin="round" stroke-opacity="1.0" stroke-width="3.0"/>
    <path d="M 90.13774871826172 123.13240814208984 C 86.65039825439453 98.49143981933594 89.93498229980469 57.86122512817383 91.47471618652344 121.78787994384766" fill="none" stroke="rgb(0, 0, 0)" stroke-linecap="round" stroke-linejoin="round" stroke-opacity="1.0" stroke-width="3.0"/>
    <path d="M 90.94757080078125 127.34415435791016 C 97.14899444580078 75.29463958740234 86.25983428955078 65.6506576538086 89.5323257446289 143.00575256347656" fill="none" stroke="rgb(0, 0, 0)" stroke-linecap="round" stroke-linejoin="round" stroke-opacity="1.0" stroke-width="3.0"/>
    <path d="M 149.02584838867188 105.19419860839844 C 161.14564514160156 120.36039733886719 124.59244537353516 88.9601821899414 163.0764617919922 140.72830200195312" fill="none" stroke="rgb(0, 0, 0)" stroke-linecap="round" stroke-linejoin="round" stroke-opacity="1.0" stroke-width="3.0"/>
    <path d="M 171.31854248046875 94.12184143066406 C 142.37657165527344 105.21759033203125 148.52767944335938 177.80665588378906 155.44754028320312 102.07686614990234" fill="none" stroke="rgb(0, 0, 0)" stroke-linecap="round" stroke-linejoin="round" stroke-opacity="1.0" stroke-width="3.0"/>
    <path d="M 103.91930389404297 146.46302795410156 C 79.34017944335938 127.78292846679688 88.97760009765625 149.4479522705078 107.51546478271484 145.98251342773438" fill="none" stroke="rgb(0, 0, 0)" stroke-linecap="round" stroke-linejoin="round" stroke-opacity="1.0" stroke-width="3.0"/>
    <path d="M 148.53005981445312 129.16961669921875 C 165.21658325195312 156.0163116455078 122.46064758300781 115.05949401855469 161.37197875976562 99.26644134521484" fill="none" stroke="rgb(0, 0, 0)" stroke-linecap="round" stroke-linejoin="round" stroke-opacity="1.0" stroke-width="3.0"/>
    <path d="M 149.74847412109375 86.1381607055664 C 111.62500762939453 102.89915466308594 151.35140991210938 166.22459411621094 137.51004028320312 130.7932586669922" fill="none" stroke="rgb(0, 0, 0)" stroke-linecap="round" stroke-linejoin="round" stroke-opacity="1.0" stroke-width="3.0"/>
    <path d="M 126.27928924560547 94.45613861083984 C 101.66522979736328 159.84378051757812 176.3419647216797 150.31378173828125 148.40008544921875 116.2607421875" fill="none" stroke="rgb(0, 0, 0)" stroke-linecap="round" stroke-linejoin="round" stroke-opacity="1.0" stroke-width="3.0"/>
    <path d="M 94.635986328125 86.68781280517578 C 210.8859100341797 101.81598663330078 140.6521759033203 74.43494415283203 122.17914581298828 91.3960189819336" fill="none" stroke="rgb(0, 0, 0)" stroke-linecap="round" stroke-linejoin="round" stroke-opacity="1.0" stroke-width="3.0"/>
    <path d="M 91.21525573730469 92.09268951416016 C 92.03536224365234 98.07008361816406 91.71965789794922 112.54984283447266 92.19384765625 95.7333984375" fill="none" stroke="rgb(0, 0, 0)" stroke-linecap="round" stroke-linejoin="round" stroke-opacity="1.0" stroke-width="3.0"/>
  </g>
</svg>
