<?xml version="1.0" ?>
<svg height="224" version="1.1" width="224" xmlns="http://www.w3.org/2000/svg">
  <defs/>
  <g>
    <path d="M 106.06172943115234 76.3930892944336 C 111.24665069580078 142.22064208984375 85.58940124511719 90.20339965820312 109.18514251708984 124.89596557617188" fill="none" stroke="rgb(0, 0, 0)" stroke-linecap="round" stroke-linejoin="round" stroke-opacity="1.0" stroke-width="3.0"/>
    <path d="M 101.9259033203125 121.44769287109375 C 107.3762435913086 89.55548858642578 102.1667709350586 48.78962707519531 101.4448471069336 113.74022674560547" fill="none" stroke="rgb(0, 0, 0)" stroke-linecap="round" stroke-linejoin="round" stroke-opacity="1.0" stroke-width="3.0"/>
    <path d="M 124.6164779663086 172.02001953125 C 110.35555267333984 181.21609497070312 101.5401382446289 176.02833557128906 93.11251831054688 169.67166137695312" fill="none" stroke="rgb(0, 0, 0)" stroke-linecap="round" stroke-linejoin="round" stroke-opacity="1.0" stroke-width="3.0"/>
    <path d="M 110.510986328125 156.65634155273438 C 106.84849548339844 50.047176361083984 104.92119598388672 50.98238754272461 104.52584075927734 122.84196472167969" fill="none" stroke="rgb(0, 0, 0)" stroke-linecap="round" stroke-linejoin="round" stroke-opacity="1.0" stroke-width="3.0"/>
    <path d="M 100.94410705566406 83.4718246459961 C 87.83549499511719 145.70028686523438 116.2803726196289 130.58091735839844 102.86679077148438 76.02667999267578" fill="none" stroke="rgb(0, 0, 0)" stroke-linecap="round" stroke-linejoin="round" stroke-opacity="1.0" stroke-width="3.0"/>
    <path d="M 118.90062713623047 159.01316833496094 C 115.8418197631836 161.34359741210938 110.02971649169922 148.8965301513672 122.9752426147461 159.70748901367188" fill="none" stroke="rgb(0, 0, 0)" stroke-linecap="round" stroke-linejoin="round" stroke-opacity="1.0" stroke-width="3.0"/>
    <path d="M 107.4694595336914 122.92164611816406 C 108.58108520507812 100.95176696777344 113.50048065185547 122.34309387207031 106.84896087646484 75.68781280517578" fill="none" stroke="rgb(0, 0, 0)" stroke-linecap="round" stroke-linejoin="round" stroke-opacity="1.0" stroke-width="3.0"/>
    <path d="M 95.2041015625 119.70674133300781 C 81.89413452148438 56.737640380859375 127.71205139160156 54.25813674926758 118.16837310791016 111.38257598876953" fill="none" stroke="rgb(0, 0, 0)" stroke-linecap="round" stroke-linejoin="round" stroke-opacity="1.0" stroke-width="3.0"/>
    <path d="M 125.05082702636719 176.50277709960938 C 89.84117126464844 192.50994873046875 82.26551055908203 157.73583984375 100.45433044433594 157.75392150878906" fill="none" stroke="rgb(0, 0, 0)" stroke-linecap="round" stroke-linejoin="round" stroke-opacity="1.0" stroke-width="3.0"/>
    <path d="M 121.82149505615234 159.3882293701172 C 102.497802734375 159.42750549316406 129.22280883789062 149.36964416503906 124.30339050292969 175.98216247558594" fill="none" stroke="rgb(0, 0, 0)" stroke-linecap="round" stroke-linejoin="round" stroke-opacity="1.0" stroke-width="3.0"/>
    <path d="M 107.190673828125 95.37760925292969 C 111.49751281738281 127.62602996826172 79.19910430908203 120.6439437866211 112.95792388916016 121.21690368652344" fill="none" stroke="rgb(0, 0, 0)" stroke-linecap="round" stroke-linejoin="round" stroke-opacity="1.0" stroke-width="3.0"/>
    <path d="M 101.37491607666016 97.7520523071289 C 107.82234954833984 152.54043579101562 119.77313995361328 111.05104064941406 118.05293273925781 97.7121353149414" fill="none" stroke="rgb(0, 0, 0)" stroke-linecap="round" stroke-linejoin="round" stroke-opacity="1.0" stroke-width="3.0"/>
    <path d="M 110.65237426757812 121.8429183959961 C 120.88195037841797 15.06606674194336 70.14617919921875 111.82450866699219 106.22268676757812 125.39669036865234" fill="none" stroke="rgb(0, 0, 0)" stroke-linecap="round" stroke-linejoin="round" stroke-opacity="1.0" stroke-width="3.0"/>
    <path d="M 107.05314636230469 107.14910888671875 C 92.18582916259766 130.984130859375 110.22595977783203 139.93893432617188 118.4953384399414 93.04884338378906" fill="none" stroke="rgb(0, 0, 0)" stroke-linecap="round" stroke-linejoin="round" stroke-opacity="1.0" stroke-width="3.0"/>
    <path d="M 114.74369049072266 155.03167724609375 C 104.22077178955078 78.63426208496094 105.63253784179688 166.8328399658203 101.12805938720703 156.32626342773438" fill="none" stroke="rgb(0, 0, 0)" stroke-linecap="round" stroke-linejoin="round" stroke-opacity="1.0" stroke-width="3.0"/>
    <path d="M 98.46855163574219 116.86248016357422 C 98.00721740722656 57.09286117553711 112.0260009765625 62.868343353271484 99.90361785888672 117.37604522705078" fill="none" stroke="rgb(0, 0, 0)" stroke-linecap="round" stroke-linejoin="round" stroke-opacity="1.0" stroke-width="3.0"/>
  </g>
</svg>
