<?xml version="1.0" ?>
<svg height="224" version="1.1" width="224" xmlns="http://www.w3.org/2000/svg">
  <defs/>
  <g>
    <path d="M 118.21101379394531 99.88356018066406 C 101.27666473388672 70.3635482788086 134.8595733642578 82.12677001953125 120.67742156982422 121.59761047363281" fill="none" stroke="rgb(0, 0, 0)" stroke-linecap="round" stroke-linejoin="round" stroke-opacity="1.0" stroke-width="3.0"/>
    <path d="M 117.90644073486328 84.3750991821289 C 117.51827239990234 208.3368682861328 102.22317504882812 175.94728088378906 122.61091613769531 96.94066619873047" fill="none" stroke="rgb(0, 0, 0)" stroke-linecap="round" stroke-linejoin="round" stroke-opacity="1.0" stroke-width="3.0"/>
    <path d="M 123.11031341552734 155.587890625 C 75.06568145751953 149.1931610107422 111.56731414794922 178.37332153320312 131.8343505859375 161.6728515625" fill="none" stroke="rgb(0, 0, 0)" stroke-linecap="round" stroke-linejoin="round" stroke-opacity="1.0" stroke-width="3.0"/>
    <path d="M 122.67398071289062 150.68505859375 C 129.32501220703125 167.2028045654297 116.40447235107422 166.77676391601562 110.53141021728516 160.9552001953125" fill="none" stroke="rgb(0, 0, 0)" stroke-linecap="round" stroke-linejoin="round" stroke-opacity="1.0" stroke-width="3.0"/>
    <path d="M 120.11055755615234 86.96276092529297 C 115.47189331054688 159.3223419189453 134.529296875 85.23487091064453 109.38325500488281 86.50244903564453" fill="none" stroke="rgb(0, 0, 0)" stroke-linecap="round" stroke-linejoin="round" stroke-opacity="1.0" stroke-width="3.0"/>
    <path d="M 115.19022369384766 83.22171020507812 C 125.20645141601562 122.24504852294922 89.95311737060547 125.89730834960938 120.39807891845703 90.68439483642578" fill="none" stroke="rgb(0, 0, 0)" stroke-linecap="round" stroke-linejoin="round" stroke-opacity="1.0" stroke-width="3.0"/>
    <path d="M 128.96385192871094 156.51992797851562 C 82.38296508789062 165.13088989257812 112.64751434326172 161.7294158935547 114.96746063232422 146.4258270263672" fill="none" stroke="rgb(0, 0, 0)" stroke-linecap="round" stroke-linejoin="round" stroke-opacity="1.0" stroke-width="3.0"/>
    <path d="M 126.97071075439453 163.61289978027344 C 103.108642578125 167.86141967773438 126.40679168701172 161.32557678222656 107.04139709472656 156.84002685546875" fill="none" stroke="rgb(0, 0, 0)" stroke-linecap="round" stroke-linejoin="round" stroke-opacity="1.0" stroke-width="3.0"/>
    <path d="M 110.65755462646484 113.29717254638672 C 130.95358276367188 141.35235595703125 133.1106719970703 73.82088470458984 113.35650634765625 78.17093658447266" fill="none" stroke="rgb(0, 0, 0)" stroke-linecap="round" stroke-linejoin="round" stroke-opacity="1.0" stroke-width="3.0"/>
    <path d="M 107.76914978027344 160.0359649658203 C 126.7136459350586 157.30662536621094 100.58984375 170.9298553466797 110.59127044677734 158.98291015625" fill="none" stroke="rgb(0, 0, 0)" stroke-linecap="round" stroke-linejoin="round" stroke-opacity="1.0" stroke-width="3.0"/>
    <path d="M 107.6689682006836 160.3394317626953 C 127.81693267822266 162.13967895507812 71.64681243896484 159.5243682861328 128.1881561279297 159.65457153320312" fill="none" stroke="rgb(0, 0, 0)" stroke-linecap="round" stroke-linejoin="round" stroke-opacity="1.0" stroke-width="3.0"/>
    <path d="M 110.3127212524414 95.17072296142578 C 108.33554077148438 145.35997009277344 117.4905014038086 92.04918670654297 120.26119995117188 162.970703125" fill="none" stroke="rgb(0, 0, 0)" stroke-linecap="round" stroke-linejoin="round" stroke-opacity="1.0" stroke-width="3.0"/>
    <path d="M 113.04122924804688 82.96757507324219 C 123.4708023071289 160.71585083007812 93.79776000976562 102.61793518066406 112.5807113647461 79.1799087524414" fill="none" stroke="rgb(0, 0, 0)" stroke-linecap="round" stroke-linejoin="round" stroke-opacity="1.0" stroke-width="3.0"/>
    <path d="M 104.97510528564453 157.8152618408203 C 134.05319213867188 139.9414520263672 71.36801147460938 165.09971618652344 121.94792938232422 162.7582244873047" fill="none" stroke="rgb(0, 0, 0)" stroke-linecap="round" stroke-linejoin="round" stroke-opacity="1.0" stroke-width="3.0"/>
    <path d="M 107.41883850097656 153.22860717773438 C 74.59471130371094 169.4434051513672 141.47686767578125 181.91734313964844 130.34793090820312 158.0831756591797" fill="none" stroke="rgb(0, 0, 0)" stroke-linecap="round" stroke-linejoin="round" stroke-opacity="1.0" stroke-width="3.0"/>
    <path d="M 123.46842956542969 159.1163330078125 C 119.72345733642578 148.4469451904297 138.51272583007812 170.03717041015625 106.69976043701172 156.95980834960938" fill="none" stroke="rgb(0, 0, 0)" stroke-linecap="round" stroke-linejoin="round" stroke-opacity="1.0" stroke-width="3.0"/>
  </g>
</svg>
