<?xml version="1.0" ?>
<svg height="224" version="1.1" width="224" xmlns="http://www.w3.org/2000/svg">
  <defs/>
  <g>
    <path d="M 90.13301849365234 165.80955505371094 C 79.15730285644531 170.1508331298828 103.82986450195312 182.62548828125 119.04265594482422 171.10853576660156" fill="none" stroke="rgb(0, 0, 0)" stroke-linecap="round" stroke-linejoin="round" stroke-opacity="1.0" stroke-width="3.0"/>
    <path d="M 112.43336486816406 115.598876953125 C 104.35611724853516 59.78773498535156 121.83045959472656 94.09382629394531 119.6297836303711 109.5746841430664" fill="none" stroke="rgb(0, 0, 0)" stroke-linecap="round" stroke-linejoin="round" stroke-opacity="1.0" stroke-width="3.0"/>
    <path d="M 112.47150421142578 82.43397521972656 C 94.01838684082031 158.03622436523438 104.27252197265625 119.27851104736328 110.83108520507812 83.39989471435547" fill="none" stroke="rgb(0, 0, 0)" stroke-linecap="round" stroke-linejoin="round" stroke-opacity="1.0" stroke-width="3.0"/>
    <path d="M 114.09593200683594 95.54316711425781 C 123.80485534667969 101.96664428710938 96.82698822021484 158.17068481445312 97.52204895019531 93.97754669189453" fill="none" stroke="rgb(0, 0, 0)" stroke-linecap="round" stroke-linejoin="round" stroke-opacity="1.0" stroke-width="3.0"/>
    <path d="M 88.56319427490234 166.0188446044922 C 86.08661651611328 142.39846801757812 94.54310607910156 177.3957977294922 115.91026306152344 159.32102966308594" fill="none" stroke="rgb(0, 0, 0)" stroke-linecap="round" stroke-linejoin="round" stroke-opacity="1.0" stroke-width="3.0"/>
    <path d="M 110.69742584228516 80.55673217773438 C 88.24021911621094 52.531497955322266 84.00171661376953 148.0623016357422 109.66131591796875 118.1180191040039" fill="none" stroke="rgb(0, 0, 0)" stroke-linecap="round" stroke-linejoin="round" stroke-opacity="1.0" stroke-width="3.0"/>
    <path d="M 108.21509552001953 119.62316131591797 C 130.8878173828125 71.63898468017578 87.44811248779297 56.69211959838867 97.23687744140625 120.56192016601562" fill="none" stroke="rgb(0, 0, 0)" stroke-linecap="round" stroke-linejoin="round" stroke-opacity="1.0" stroke-width="3.0"/>
    <path d="M 90.70378875732422 158.93959045410156 C 101.33087158203125 164.4636688232422 99.21044921875 172.1021270751953 102.15596771240234 78.26509857177734" fill="none" stroke="rgb(0, 0, 0)" stroke-linecap="round" stroke-linejoin="round" stroke-opacity="1.0" stroke-width="3.0"/>
    <path d="M 119.55521392822266 168.95321655273438 C 121.20040130615234 140.3621063232422 103.5368881225586 169.23739624023438 104.48807525634766 135.74583435058594" fill="none" stroke="rgb(0, 0, 0)" stroke-linecap="round" stroke-linejoin="round" stroke-opacity="1.0" stroke-width="3.0"/>
    <path d="M 100.46173095703125 154.4958038330078 C 73.03288269042969 160.9331512451172 96.2631607055664 184.99472045898438 91.6436996459961 165.42616271972656" fill="none" stroke="rgb(0, 0, 0)" stroke-linecap="round" stroke-linejoin="round" stroke-opacity="1.0" stroke-width="3.0"/>
    <path d="M 111.6652603149414 82.60395812988281 C 125.80475616455078 100.88033294677734 104.12482452392578 141.72647094726562 102.62947082519531 97.94230651855469" fill="none" stroke="rgb(0, 0, 0)" stroke-linecap="round" stroke-linejoin="round" stroke-opacity="1.0" stroke-width="3.0"/>
    <path d="M 91.91649627685547 171.45364379882812 C 80.65604400634766 147.5157470703125 107.35665130615234 155.2390899658203 103.986572265625 171.1318817138672" fill="none" stroke="rgb(0, 0, 0)" stroke-linecap="round" stroke-linejoin="round" stroke-opacity="1.0" stroke-width="3.0"/>
    <path d="M 116.81126403808594 95.53640747070312 C 126.09622192382812 85.28398132324219 113.41773223876953 138.78358459472656 116.69921875 91.2345962524414" fill="none" stroke="rgb(0, 0, 0)" stroke-linecap="round" stroke-linejoin="round" stroke-opacity="1.0" stroke-width="3.0"/>
    <path d="M 96.61568450927734 96.35453796386719 C 105.49675750732422 95.95635223388672 91.22174072265625 46.59098815917969 107.75126647949219 148.80079650878906" fill="none" stroke="rgb(0, 0, 0)" stroke-linecap="round" stroke-linejoin="round" stroke-opacity="1.0" stroke-width="3.0"/>
    <path d="M 112.38884735107422 87.83516693115234 C 109.33868408203125 132.81858825683594 107.94361877441406 119.04537200927734 110.05628967285156 80.10877990722656" fill="none" stroke="rgb(0, 0, 0)" stroke-linecap="round" stroke-linejoin="round" stroke-opacity="1.0" stroke-width="3.0"/>
    <path d="M 100.24650573730469 123.80794525146484 C 99.61557006835938 21.105173110961914 132.9874725341797 117.2861099243164 97.36148834228516 121.41735076904297" fill="none" stroke="rgb(0, 0, 0)" stroke-linecap="round" stroke-linejoin="round" stroke-opacity="1.0" stroke-width="3.0"/>
  </g>
</svg>
