<?xml version="1.0" ?>
<svg height="224" version="1.1" width="224" xmlns="http://www.w3.org/2000/svg">
  <defs/>
  <g>
    <path d="M 56.268341064453125 91.55663299560547 C 57.04292297363281 84.29267120361328 49.32662582397461 81.70738220214844 72.11552429199219 82.90805053710938" fill="none" stroke="rgb(0, 0, 0)" stroke-linecap="round" stroke-linejoin="round" stroke-opacity="1.0" stroke-width="3.0"/>
    <path d="M 151.10032653808594 134.3557586669922 C 77.45149993896484 143.449951171875 122.67439270019531 135.27755737304688 132.5867156982422 134.9691925048828" fill="none" stroke="rgb(0, 0, 0)" stroke-linecap="round" stroke-linejoin="round" stroke-opacity="1.0" stroke-width="3.0"/>
    <path d="M 124.89673614501953 135.49465942382812 C 82.23381042480469 124.060791015625 118.53529357910156 85.42639923095703 115.6521987915039 97.75414276123047" fill="none" stroke="rgb(0, 0, 0)" stroke-linecap="round" stroke-linejoin="round" stroke-opacity="1.0" stroke-width="3.0"/>
    <path d="M 150.83804321289062 132.69940185546875 C 152.10047912597656 65.5785903930664 149.6010284423828 77.03789520263672 150.0963592529297 134.0261993408203" fill="none" stroke="rgb(0, 0, 0)" stroke-linecap="round" stroke-linejoin="round" stroke-opacity="1.0" stroke-width="3.0"/>
    <path d="M 134.60134887695312 105.89495086669922 C 147.80555725097656 139.18218994140625 97.53834533691406 134.15892028808594 135.4669952392578 135.99453735351562" fill="none" stroke="rgb(0, 0, 0)" stroke-linecap="round" stroke-linejoin="round" stroke-opacity="1.0" stroke-width="3.0"/>
    <path d="M 141.1327362060547 86.90513610839844 C 141.5318145751953 88.18296813964844 126.97978210449219 85.36487579345703 149.55972290039062 87.74612426757812" fill="none" stroke="rgb(0, 0, 0)" stroke-linecap="round" stroke-linejoin="round" stroke-opacity="1.0" stroke-width="3.0"/>
    <path d="M 117.49864959716797 86.36211395263672 C 41.7375373840332 85.61347198486328 93.61933135986328 77.3275375366211 62.15007019042969 78.98282623291016" fill="none" stroke="rgb(0, 0, 0)" stroke-linecap="round" stroke-linejoin="round" stroke-opacity="1.0" stroke-width="3.0"/>
    <path d="M 68.43738555908203 93.7247085571289 C 159.15887451171875 91.744384765625 66.97305297851562 77.83745574951172 108.13645935058594 134.95936584472656" fill="none" stroke="rgb(0, 0, 0)" stroke-linecap="round" stroke-linejoin="round" stroke-opacity="1.0" stroke-width="3.0"/>
    <path d="M 77.98177337646484 84.08522033691406 C 83.73934173583984 88.92036437988281 104.65054321289062 83.92279052734375 80.2375259399414 87.3792495727539" fill="none" stroke="rgb(0, 0, 0)" stroke-linecap="round" stroke-linejoin="round" stroke-opacity="1.0" stroke-width="3.0"/>
    <path d="M 135.85545349121094 131.99913024902344 C 130.9513702392578 134.05624389648438 138.75656127929688 134.43310546875 63.77155303955078 143.64352416992188" fill="none" stroke="rgb(0, 0, 0)" stroke-linecap="round" stroke-linejoin="round" stroke-opacity="1.0" stroke-width="3.0"/>
    <path d="M 130.75523376464844 134.65036010742188 C 151.87924194335938 127.39775085449219 168.0369415283203 138.0584716796875 108.48881530761719 136.3349151611328" fill="none" stroke="rgb(0, 0, 0)" stroke-linecap="round" stroke-linejoin="round" stroke-opacity="1.0" stroke-width="3.0"/>
    <path d="M 148.90817260742188 128.1800994873047 C 126.51002502441406 136.01885986328125 138.55038452148438 123.30682373046875 144.7220916748047 132.45713806152344" fill="none" stroke="rgb(0, 0, 0)" stroke-linecap="round" stroke-linejoin="round" stroke-opacity="1.0" stroke-width="3.0"/>
    <path d="M 72.87980651855469 81.94111633300781 C 102.47645568847656 84.9466323852539 112.63749694824219 85.38600158691406 149.15884399414062 87.66403198242188" fill="none" stroke="rgb(0, 0, 0)" stroke-linecap="round" stroke-linejoin="round" stroke-opacity="1.0" stroke-width="3.0"/>
    <path d="M 110.4953384399414 99.70668029785156 C 138.1184844970703 82.5875473022461 143.80459594726562 134.0325469970703 131.75425720214844 109.80313110351562" fill="none" stroke="rgb(0, 0, 0)" stroke-linecap="round" stroke-linejoin="round" stroke-opacity="1.0" stroke-width="3.0"/>
    <path d="M 149.6009979248047 133.74586486816406 C 150.97975158691406 96.80299377441406 150.7477264404297 114.32445526123047 150.27178955078125 129.94342041015625" fill="none" stroke="rgb(0, 0, 0)" stroke-linecap="round" stroke-linejoin="round" stroke-opacity="1.0" stroke-width="3.0"/>
    <path d="M 62.03458786010742 142.86766052246094 C 52.66361999511719 137.68087768554688 57.46063232421875 155.44329833984375 56.02173614501953 90.7779541015625" fill="none" stroke="rgb(0, 0, 0)" stroke-linecap="round" stroke-linejoin="round" stroke-opacity="1.0" stroke-width="3.0"/>
  </g>
</svg>
