<?xml version="1.0" ?>
<svg height="224" version="1.1" width="224" xmlns="http://www.w3.org/2000/svg">
  <defs/>
  <g>
    <path d="M 133.38034057617188 108.76464080810547 C 127.99869537353516 143.3095245361328 152.90106201171875 127.31316375732422 71.16342163085938 128.1345672607422" fill="none" stroke="rgb(0, 0, 0)" stroke-linecap="round" stroke-linejoin="round" stroke-opacity="1.0" stroke-width="3.0"/>
    <path d="M 92.3115463256836 94.87239074707031 C 97.90373992919922 84.22887420654297 81.5848159790039 87.1775131225586 112.26531982421875 89.30763244628906" fill="none" stroke="rgb(0, 0, 0)" stroke-linecap="round" stroke-linejoin="round" stroke-opacity="1.0" stroke-width="3.0"/>
    <path d="M 121.25708770751953 107.62057495117188 C 89.09107971191406 90.33751678466797 113.58436584472656 144.59002685546875 120.87044525146484 110.69657135009766" fill="none" stroke="rgb(0, 0, 0)" stroke-linecap="round" stroke-linejoin="round" stroke-opacity="1.0" stroke-width="3.0"/>
    <path d="M 68.28202819824219 123.92961883544922 C 90.08659362792969 84.1883773803711 27.445423126220703 135.0388946533203 118.90985107421875 130.1111602783203" fill="none" stroke="rgb(0, 0, 0)" stroke-linecap="round" stroke-linejoin="round" stroke-opacity="1.0" stroke-width="3.0"/>
    <path d="M 108.62066650390625 132.7702178955078 C 103.985595703125 217.8512420654297 102.04109191894531 117.15924072265625 110.3488540649414 129.84823608398438" fill="none" stroke="rgb(0, 0, 0)" stroke-linecap="round" stroke-linejoin="round" stroke-opacity="1.0" stroke-width="3.0"/>
    <path d="M 132.0798797607422 164.29232788085938 C 94.01581573486328 157.64285278320312 89.66806030273438 167.58978271484375 136.0067901611328 164.8907012939453" fill="none" stroke="rgb(0, 0, 0)" stroke-linecap="round" stroke-linejoin="round" stroke-opacity="1.0" stroke-width="3.0"/>
    <path d="M 100.29106903076172 165.37965393066406 C 99.88375091552734 68.74247741699219 106.73231506347656 153.32205200195312 101.69163513183594 163.85809326171875" fill="none" stroke="rgb(0, 0, 0)" stroke-linecap="round" stroke-linejoin="round" stroke-opacity="1.0" stroke-width="3.0"/>
    <path d="M 76.87281036376953 177.865966796875 C 151.01551818847656 173.0281524658203 159.52076721191406 160.39990234375 106.76034545898438 160.4666748046875" fill="none" stroke="rgb(0, 0, 0)" stroke-linecap="round" stroke-linejoin="round" stroke-opacity="1.0" stroke-width="3.0"/>
    <path d="M 78.69329071044922 178.5550537109375 C 67.47290802001953 176.31614685058594 46.059837341308594 166.09193420410156 109.53663635253906 159.4617919921875" fill="none" stroke="rgb(0, 0, 0)" stroke-linecap="round" stroke-linejoin="round" stroke-opacity="1.0" stroke-width="3.0"/>
    <path d="M 96.87281799316406 164.65203857421875 C 115.91734313964844 178.9381866455078 148.76905822753906 157.81399536132812 108.41583251953125 163.01397705078125" fill="none" stroke="rgb(0, 0, 0)" stroke-linecap="round" stroke-linejoin="round" stroke-opacity="1.0" stroke-width="3.0"/>
    <path d="M 137.2245635986328 163.85064697265625 C 112.57669830322266 175.80059814453125 73.331787109375 156.06358337402344 120.82501983642578 165.206298828125" fill="none" stroke="rgb(0, 0, 0)" stroke-linecap="round" stroke-linejoin="round" stroke-opacity="1.0" stroke-width="3.0"/>
    <path d="M 108.25611877441406 158.51585388183594 C 148.46173095703125 162.86502075195312 128.72052001953125 167.5668182373047 108.38424682617188 167.19520568847656" fill="none" stroke="rgb(0, 0, 0)" stroke-linecap="round" stroke-linejoin="round" stroke-opacity="1.0" stroke-width="3.0"/>
    <path d="M 112.34777069091797 98.56874084472656 C 102.26553344726562 103.28662109375 88.23368072509766 83.26923370361328 110.02051544189453 166.4145050048828" fill="none" stroke="rgb(0, 0, 0)" stroke-linecap="round" stroke-linejoin="round" stroke-opacity="1.0" stroke-width="3.0"/>
    <path d="M 73.50442504882812 127.41643524169922 C 75.73969268798828 81.99100494384766 63.154258728027344 103.40306854248047 113.5861587524414 96.91461944580078" fill="none" stroke="rgb(0, 0, 0)" stroke-linecap="round" stroke-linejoin="round" stroke-opacity="1.0" stroke-width="3.0"/>
    <path d="M 112.48453521728516 94.01033020019531 C 70.30883026123047 89.73165130615234 158.3997344970703 108.2691650390625 124.48140716552734 103.88691711425781" fill="none" stroke="rgb(0, 0, 0)" stroke-linecap="round" stroke-linejoin="round" stroke-opacity="1.0" stroke-width="3.0"/>
    <path d="M 97.49778747558594 123.29627227783203 C 100.15591430664062 69.5267333984375 99.042724609375 95.80028533935547 99.67364501953125 98.64566040039062" fill="none" stroke="rgb(0, 0, 0)" stroke-linecap="round" stroke-linejoin="round" stroke-opacity="1.0" stroke-width="3.0"/>
  </g>
</svg>
