<?xml version="1.0" ?>
<svg height="224" version="1.1" width="224" xmlns="http://www.w3.org/2000/svg">
  <defs/>
  <g>
    <path d="M 128.81117248535156 67.53250122070312 C 96.92887878417969 47.929325103759766 62.36399459838867 99.64739227294922 86.35539245605469 117.59146118164062" fill="none" stroke="rgb(0, 0, 0)" stroke-linecap="round" stroke-linejoin="round" stroke-opacity="1.0" stroke-width="3.0"/>
    <path d="M 118.24391174316406 82.71953582763672 C 137.39801025390625 90.50276184082031 126.95375061035156 117.61408996582031 111.20220947265625 113.29913330078125" fill="none" stroke="rgb(0, 0, 0)" stroke-linecap="round" stroke-linejoin="round" stroke-opacity="1.0" stroke-width="3.0"/>
    <path d="M 82.09965515136719 96.79753112792969 C 83.28730010986328 88.38992309570312 73.5572738647461 113.10966491699219 99.30326843261719 128.11239624023438" fill="none" stroke="rgb(0, 0, 0)" stroke-linecap="round" stroke-linejoin="round" stroke-opacity="1.0" stroke-width="3.0"/>
    <path d="M 90.89688110351562 148.623291015625 C 52.17729568481445 139.83554077148438 153.199462890625 138.09934997558594 105.89141845703125 143.5042266845703" fill="none" stroke="rgb(0, 0, 0)" stroke-linecap="round" stroke-linejoin="round" stroke-opacity="1.0" stroke-width="3.0"/>
    <path d="M 131.7150115966797 141.85545349121094 C 161.88009643554688 149.7283935546875 90.11241912841797 156.38082885742188 110.73798370361328 148.6169891357422" fill="none" stroke="rgb(0, 0, 0)" stroke-linecap="round" stroke-linejoin="round" stroke-opacity="1.0" stroke-width="3.0"/>
    <path d="M 83.87793731689453 100.01712036132812 C 91.45760345458984 62.51768112182617 71.74381256103516 113.8207778930664 105.42961883544922 122.8453598022461" fill="none" stroke="rgb(0, 0, 0)" stroke-linecap="round" stroke-linejoin="round" stroke-opacity="1.0" stroke-width="3.0"/>
    <path d="M 133.3231201171875 141.82330322265625 C 89.88581848144531 131.7301788330078 69.54342651367188 114.46353149414062 83.08125305175781 88.15665435791016" fill="none" stroke="rgb(0, 0, 0)" stroke-linecap="round" stroke-linejoin="round" stroke-opacity="1.0" stroke-width="3.0"/>
    <path d="M 119.61975860595703 152.28271484375 C 185.2113494873047 143.00775146484375 84.84280395507812 131.9065399169922 110.00509643554688 151.0737762451172" fill="none" stroke="rgb(0, 0, 0)" stroke-linecap="round" stroke-linejoin="round" stroke-opacity="1.0" stroke-width="3.0"/>
    <path d="M 83.956787109375 94.34921264648438 C 85.59809875488281 136.75564575195312 136.42494201660156 133.5668182373047 138.37022399902344 95.71233367919922" fill="none" stroke="rgb(0, 0, 0)" stroke-linecap="round" stroke-linejoin="round" stroke-opacity="1.0" stroke-width="3.0"/>
    <path d="M 116.05728912353516 134.7128448486328 C 101.15848541259766 157.27047729492188 166.3719940185547 146.60243225097656 94.92034149169922 151.05523681640625" fill="none" stroke="rgb(0, 0, 0)" stroke-linecap="round" stroke-linejoin="round" stroke-opacity="1.0" stroke-width="3.0"/>
    <path d="M 108.9284439086914 148.51739501953125 C 105.38569641113281 137.66285705566406 126.39664459228516 158.2158966064453 86.25473022460938 148.4315948486328" fill="none" stroke="rgb(0, 0, 0)" stroke-linecap="round" stroke-linejoin="round" stroke-opacity="1.0" stroke-width="3.0"/>
    <path d="M 100.8479232788086 71.0452651977539 C 148.53170776367188 59.30534362792969 147.33216857910156 123.03450775146484 140.8877716064453 85.58243560791016" fill="none" stroke="rgb(0, 0, 0)" stroke-linecap="round" stroke-linejoin="round" stroke-opacity="1.0" stroke-width="3.0"/>
    <path d="M 112.98059844970703 113.37984466552734 C 86.1769790649414 108.9618148803711 95.05545806884766 68.62103271484375 121.55765533447266 84.81444549560547" fill="none" stroke="rgb(0, 0, 0)" stroke-linecap="round" stroke-linejoin="round" stroke-opacity="1.0" stroke-width="3.0"/>
    <path d="M 114.40928649902344 149.94778442382812 C 112.72876739501953 95.84827423095703 106.91358947753906 182.62074279785156 115.24129486083984 132.86624145507812" fill="none" stroke="rgb(0, 0, 0)" stroke-linecap="round" stroke-linejoin="round" stroke-opacity="1.0" stroke-width="3.0"/>
    <path d="M 138.9049835205078 112.61986541748047 C 152.99798583984375 66.6382827758789 138.65310668945312 142.49172973632812 142.87278747558594 92.25065612792969" fill="none" stroke="rgb(0, 0, 0)" stroke-linecap="round" stroke-linejoin="round" stroke-opacity="1.0" stroke-width="3.0"/>
    <path d="M 135.90765380859375 120.7244644165039 C 152.44850158691406 84.43742370605469 142.11412048339844 143.95176696777344 98.03804779052734 128.5528564453125" fill="none" stroke="rgb(0, 0, 0)" stroke-linecap="round" stroke-linejoin="round" stroke-opacity="1.0" stroke-width="3.0"/>
  </g>
</svg>
