<?xml version="1.0" ?>
<svg height="224" version="1.1" width="224" xmlns="http://www.w3.org/2000/svg">
  <defs/>
  <g>
    <path d="M 149.84893798828125 133.54185485839844 C 78.11957550048828 144.9595489501953 75.04867553710938 146.36590576171875 62.97531509399414 136.40098571777344" fill="none" stroke="rgb(0, 0, 0)" stroke-linecap="round" stroke-linejoin="round" stroke-opacity="1.0" stroke-width="3.0"/>
    <path d="M 142.08877563476562 128.1624755859375 C 116.39804077148438 120.58731842041016 135.67245483398438 77.989013671875 151.77809143066406 102.90594482421875" fill="none" stroke="rgb(0, 0, 0)" stroke-linecap="round" stroke-linejoin="round" stroke-opacity="1.0" stroke-width="3.0"/>
    <path d="M 155.79489135742188 130.78298950195312 C 155.8483123779297 108.15188598632812 172.67660522460938 121.50531768798828 153.37814331054688 89.76341247558594" fill="none" stroke="rgb(0, 0, 0)" stroke-linecap="round" stroke-linejoin="round" stroke-opacity="1.0" stroke-width="3.0"/>
    <path d="M 110.59862518310547 120.7463607788086 C 160.65774536132812 159.2302703857422 97.82649230957031 117.25347900390625 122.33331298828125 92.25410461425781" fill="none" stroke="rgb(0, 0, 0)" stroke-linecap="round" stroke-linejoin="round" stroke-opacity="1.0" stroke-width="3.0"/>
    <path d="M 107.95037078857422 94.42337799072266 C 112.27899932861328 164.6033172607422 103.6153564453125 78.34674072265625 123.72084045410156 135.2481689453125" fill="none" stroke="rgb(0, 0, 0)" stroke-linecap="round" stroke-linejoin="round" stroke-opacity="1.0" stroke-width="3.0"/>
    <path d="M 135.09764099121094 136.40927124023438 C 80.85602569580078 89.32606506347656 151.6819305419922 88.78498840332031 121.50318145751953 88.17822265625" fill="none" stroke="rgb(0, 0, 0)" stroke-linecap="round" stroke-linejoin="round" stroke-opacity="1.0" stroke-width="3.0"/>
    <path d="M 62.056739807128906 132.8960723876953 C 61.72296905517578 75.35460662841797 60.825660705566406 87.99881744384766 61.929168701171875 83.86079406738281" fill="none" stroke="rgb(0, 0, 0)" stroke-linecap="round" stroke-linejoin="round" stroke-opacity="1.0" stroke-width="3.0"/>
    <path d="M 158.5882110595703 95.56649017333984 C 157.5271453857422 88.27565002441406 162.47293090820312 88.12391662597656 105.73150634765625 83.59951782226562" fill="none" stroke="rgb(0, 0, 0)" stroke-linecap="round" stroke-linejoin="round" stroke-opacity="1.0" stroke-width="3.0"/>
    <path d="M 61.57176971435547 97.60049438476562 C 58.2508544921875 79.6249771118164 58.53863525390625 73.03443145751953 115.53466796875 85.66284942626953" fill="none" stroke="rgb(0, 0, 0)" stroke-linecap="round" stroke-linejoin="round" stroke-opacity="1.0" stroke-width="3.0"/>
    <path d="M 103.09461975097656 84.10678100585938 C 112.12535858154297 89.34224700927734 119.87372589111328 84.47180938720703 110.242919921875 83.96115112304688" fill="none" stroke="rgb(0, 0, 0)" stroke-linecap="round" stroke-linejoin="round" stroke-opacity="1.0" stroke-width="3.0"/>
    <path d="M 133.85487365722656 90.31292724609375 C 168.66390991210938 84.91913604736328 156.7706756591797 135.4886474609375 150.66575622558594 131.4241485595703" fill="none" stroke="rgb(0, 0, 0)" stroke-linecap="round" stroke-linejoin="round" stroke-opacity="1.0" stroke-width="3.0"/>
    <path d="M 115.99851989746094 101.89728546142578 C 126.40599822998047 164.4632568359375 106.71784210205078 123.18309783935547 116.79673767089844 115.98699951171875" fill="none" stroke="rgb(0, 0, 0)" stroke-linecap="round" stroke-linejoin="round" stroke-opacity="1.0" stroke-width="3.0"/>
    <path d="M 138.76246643066406 128.10321044921875 C 161.59840393066406 126.69670867919922 147.76593017578125 90.4046630859375 152.2052459716797 111.31419372558594" fill="none" stroke="rgb(0, 0, 0)" stroke-linecap="round" stroke-linejoin="round" stroke-opacity="1.0" stroke-width="3.0"/>
    <path d="M 113.87655639648438 128.88572692871094 C 137.2139892578125 153.98291015625 105.07632446289062 99.87357330322266 131.9110565185547 92.78396606445312" fill="none" stroke="rgb(0, 0, 0)" stroke-linecap="round" stroke-linejoin="round" stroke-opacity="1.0" stroke-width="3.0"/>
    <path d="M 152.8042755126953 88.73747253417969 C 147.87513732910156 86.39897155761719 118.04061126708984 84.34762573242188 141.73800659179688 86.69408416748047" fill="none" stroke="rgb(0, 0, 0)" stroke-linecap="round" stroke-linejoin="round" stroke-opacity="1.0" stroke-width="3.0"/>
    <path d="M 153.24984741210938 131.14697265625 C 117.81561279296875 144.07408142089844 102.54501342773438 118.92681884765625 122.92093658447266 122.1303939819336" fill="none" stroke="rgb(0, 0, 0)" stroke-linecap="round" stroke-linejoin="round" stroke-opacity="1.0" stroke-width="3.0"/>
  </g>
</svg>
