<?xml version="1.0" ?>
<svg height="224" version="1.1" width="224" xmlns="http://www.w3.org/2000/svg">
  <defs/>
  <g>
    <path d="M 87.07501220703125 142.7816619873047 C 126.56731414794922 151.791748046875 104.44226837158203 154.59719848632812 118.86575317382812 105.88957977294922" fill="none" stroke="rgb(0, 0, 0)" stroke-linecap="round" stroke-linejoin="round" stroke-opacity="1.0" stroke-width="3.0"/>
    <path d="M 139.5408477783203 91.16943359375 C 135.73582458496094 122.38099670410156 141.02159118652344 94.94290161132812 137.8682098388672 89.94306945800781" fill="none" stroke="rgb(0, 0, 0)" stroke-linecap="round" stroke-linejoin="round" stroke-opacity="1.0" stroke-width="3.0"/>
    <path d="M 97.69999694824219 103.51995849609375 C 125.59406280517578 96.52293395996094 148.1545867919922 103.43343353271484 106.77847290039062 92.7400894165039" fill="none" stroke="rgb(0, 0, 0)" stroke-linecap="round" stroke-linejoin="round" stroke-opacity="1.0" stroke-width="3.0"/>
    <path d="M 97.47611999511719 111.80823516845703 C 162.23460388183594 102.4540786743164 141.47572326660156 100.39046478271484 99.0321273803711 109.53668212890625" fill="none" stroke="rgb(0, 0, 0)" stroke-linecap="round" stroke-linejoin="round" stroke-opacity="1.0" stroke-width="3.0"/>
    <path d="M 125.74645233154297 117.8400650024414 C 138.2517852783203 73.01171875 133.82211303710938 81.73738098144531 127.9835205078125 132.52175903320312" fill="none" stroke="rgb(0, 0, 0)" stroke-linecap="round" stroke-linejoin="round" stroke-opacity="1.0" stroke-width="3.0"/>
    <path d="M 91.9175033569336 106.23728942871094 C 119.59383392333984 99.77112579345703 118.65979766845703 105.27122497558594 112.72189331054688 92.57386016845703" fill="none" stroke="rgb(0, 0, 0)" stroke-linecap="round" stroke-linejoin="round" stroke-opacity="1.0" stroke-width="3.0"/>
    <path d="M 124.83834075927734 115.70984649658203 C 108.50236511230469 91.13772583007812 134.38165283203125 111.74884033203125 118.8437271118164 105.28791046142578" fill="none" stroke="rgb(0, 0, 0)" stroke-linecap="round" stroke-linejoin="round" stroke-opacity="1.0" stroke-width="3.0"/>
    <path d="M 130.44039916992188 121.94952392578125 C 78.24482727050781 95.18112182617188 79.4192123413086 86.74552917480469 133.27687072753906 96.78245544433594" fill="none" stroke="rgb(0, 0, 0)" stroke-linecap="round" stroke-linejoin="round" stroke-opacity="1.0" stroke-width="3.0"/>
    <path d="M 98.2080078125 110.37126159667969 C 140.0032501220703 112.10867309570312 128.97918701171875 98.2760009765625 94.99433135986328 98.81616973876953" fill="none" stroke="rgb(0, 0, 0)" stroke-linecap="round" stroke-linejoin="round" stroke-opacity="1.0" stroke-width="3.0"/>
    <path d="M 137.79693603515625 104.38679504394531 C 97.90309143066406 110.05290985107422 98.1639175415039 80.7770767211914 116.65531921386719 107.51429748535156" fill="none" stroke="rgb(0, 0, 0)" stroke-linecap="round" stroke-linejoin="round" stroke-opacity="1.0" stroke-width="3.0"/>
    <path d="M 91.6036376953125 90.23265838623047 C 160.8117218017578 88.11763000488281 141.89724731445312 89.98434448242188 115.80014038085938 105.41777801513672" fill="none" stroke="rgb(0, 0, 0)" stroke-linecap="round" stroke-linejoin="round" stroke-opacity="1.0" stroke-width="3.0"/>
    <path d="M 124.52745056152344 95.76814270019531 C 137.91632080078125 133.58018493652344 135.59214782714844 119.55973052978516 111.76551818847656 121.44959259033203" fill="none" stroke="rgb(0, 0, 0)" stroke-linecap="round" stroke-linejoin="round" stroke-opacity="1.0" stroke-width="3.0"/>
    <path d="M 92.08904266357422 155.64285278320312 C 86.5685043334961 134.8404083251953 150.12652587890625 153.71438598632812 90.92900085449219 149.46615600585938" fill="none" stroke="rgb(0, 0, 0)" stroke-linecap="round" stroke-linejoin="round" stroke-opacity="1.0" stroke-width="3.0"/>
    <path d="M 111.85150909423828 124.9906005859375 C 135.87855529785156 100.92911529541016 154.92086791992188 91.00443267822266 95.64452362060547 91.92326354980469" fill="none" stroke="rgb(0, 0, 0)" stroke-linecap="round" stroke-linejoin="round" stroke-opacity="1.0" stroke-width="3.0"/>
    <path d="M 126.36295318603516 116.57321166992188 C 106.6810302734375 122.98096466064453 112.76425170898438 79.79718780517578 110.49554443359375 123.96603393554688" fill="none" stroke="rgb(0, 0, 0)" stroke-linecap="round" stroke-linejoin="round" stroke-opacity="1.0" stroke-width="3.0"/>
    <path d="M 98.99187469482422 107.7850570678711 C 99.09591674804688 103.17023468017578 92.3821792602539 95.4730453491211 97.92648315429688 114.95274353027344" fill="none" stroke="rgb(0, 0, 0)" stroke-linecap="round" stroke-linejoin="round" stroke-opacity="1.0" stroke-width="3.0"/>
  </g>
</svg>
