<?xml version="1.0" ?>
<svg height="224" version="1.1" width="224" xmlns="http://www.w3.org/2000/svg">
  <defs/>
  <g>
    <path d="M 126.42401885986328 110.67737579345703 C 129.38894653320312 76.82564544677734 128.7249755859375 96.78056335449219 106.74812316894531 81.889892578125" fill="none" stroke="rgb(0, 0, 0)" stroke-linecap="round" stroke-linejoin="round" stroke-opacity="1.0" stroke-width="3.0"/>
    <path d="M 124.5341567993164 92.5074462890625 C 93.57691955566406 130.92088317871094 140.3460693359375 98.62127685546875 100.08470153808594 104.88028717041016" fill="none" stroke="rgb(0, 0, 0)" stroke-linecap="round" stroke-linejoin="round" stroke-opacity="1.0" stroke-width="3.0"/>
    <path d="M 99.9081802368164 99.79328155517578 C 123.2779312133789 116.75880432128906 131.88002014160156 120.38998413085938 130.2233428955078 91.61286926269531" fill="none" stroke="rgb(0, 0, 0)" stroke-linecap="round" stroke-linejoin="round" stroke-opacity="1.0" stroke-width="3.0"/>
    <path d="M 109.56616973876953 80.1744384765625 C 111.68439483642578 152.59396362304688 116.54595184326172 158.5720977783203 103.7210922241211 120.83114624023438" fill="none" stroke="rgb(0, 0, 0)" stroke-linecap="round" stroke-linejoin="round" stroke-opacity="1.0" stroke-width="3.0"/>
    <path d="M 101.74279022216797 103.06881713867188 C 79.36161804199219 148.39659118652344 115.40493774414062 110.57485961914062 104.06991577148438 127.85395050048828" fill="none" stroke="rgb(0, 0, 0)" stroke-linecap="round" stroke-linejoin="round" stroke-opacity="1.0" stroke-width="3.0"/>
    <path d="M 124.80551147460938 94.2071533203125 C 127.3643569946289 130.73135375976562 112.12742614746094 116.99325561523438 111.7685775756836 84.84088134765625" fill="none" stroke="rgb(0, 0, 0)" stroke-linecap="round" stroke-linejoin="round" stroke-opacity="1.0" stroke-width="3.0"/>
    <path d="M 103.61890411376953 128.54286193847656 C 97.7509994506836 100.54056549072266 69.70730590820312 106.00100708007812 124.34851837158203 117.36737060546875" fill="none" stroke="rgb(0, 0, 0)" stroke-linecap="round" stroke-linejoin="round" stroke-opacity="1.0" stroke-width="3.0"/>
    <path d="M 106.95380401611328 135.23211669921875 C 128.04925537109375 82.73039245605469 98.44464874267578 81.59710693359375 110.62854766845703 94.71980285644531" fill="none" stroke="rgb(0, 0, 0)" stroke-linecap="round" stroke-linejoin="round" stroke-opacity="1.0" stroke-width="3.0"/>
    <path d="M 93.05834197998047 118.45005798339844 C 84.49331665039062 139.64837646484375 125.5065689086914 125.1957778930664 104.49983978271484 134.32354736328125" fill="none" stroke="rgb(0, 0, 0)" stroke-linecap="round" stroke-linejoin="round" stroke-opacity="1.0" stroke-width="3.0"/>
    <path d="M 114.83578491210938 102.37666320800781 C 108.65933227539062 66.41313934326172 110.04315948486328 59.999534606933594 105.96650695800781 111.2199935913086" fill="none" stroke="rgb(0, 0, 0)" stroke-linecap="round" stroke-linejoin="round" stroke-opacity="1.0" stroke-width="3.0"/>
    <path d="M 101.37969207763672 107.84234619140625 C 128.79473876953125 96.2699966430664 93.09625244140625 154.66311645507812 108.4935073852539 118.81153869628906" fill="none" stroke="rgb(0, 0, 0)" stroke-linecap="round" stroke-linejoin="round" stroke-opacity="1.0" stroke-width="3.0"/>
    <path d="M 96.29277038574219 99.83265686035156 C 112.55236053466797 106.40845489501953 122.39838409423828 67.34388732910156 113.38036346435547 113.30146789550781" fill="none" stroke="rgb(0, 0, 0)" stroke-linecap="round" stroke-linejoin="round" stroke-opacity="1.0" stroke-width="3.0"/>
    <path d="M 120.22959899902344 111.18055725097656 C 125.00823211669922 64.70043182373047 107.03297424316406 112.6447525024414 106.0439682006836 74.68031311035156" fill="none" stroke="rgb(0, 0, 0)" stroke-linecap="round" stroke-linejoin="round" stroke-opacity="1.0" stroke-width="3.0"/>
    <path d="M 95.97293853759766 142.59112548828125 C 98.84806060791016 117.57990264892578 130.6005096435547 152.52523803710938 96.88627624511719 139.79769897460938" fill="none" stroke="rgb(0, 0, 0)" stroke-linecap="round" stroke-linejoin="round" stroke-opacity="1.0" stroke-width="3.0"/>
    <path d="M 103.9538803100586 77.08619689941406 C 111.64351654052734 156.78399658203125 77.3349609375 105.73152923583984 98.65937042236328 77.79883575439453" fill="none" stroke="rgb(0, 0, 0)" stroke-linecap="round" stroke-linejoin="round" stroke-opacity="1.0" stroke-width="3.0"/>
    <path d="M 104.76008605957031 135.60003662109375 C 89.68852996826172 146.78277587890625 107.10452270507812 84.72583770751953 96.35785675048828 123.1421890258789" fill="none" stroke="rgb(0, 0, 0)" stroke-linecap="round" stroke-linejoin="round" stroke-opacity="1.0" stroke-width="3.0"/>
  </g>
</svg>
