<?xml version="1.0" ?>
<svg height="224" version="1.1" width="224" xmlns="http://www.w3.org/2000/svg">
  <defs/>
  <g>
    <path d="M 124.73976135253906 97.53201293945312 C 96.593017578125 75.98140716552734 90.73567199707031 72.24688720703125 123.673095703125 100.27487182617188" fill="none" stroke="rgb(0, 0, 0)" stroke-linecap="round" stroke-linejoin="round" stroke-opacity="1.0" stroke-width="3.0"/>
    <path d="M 118.1734619140625 125.60935974121094 C 109.97486877441406 88.55989074707031 130.6111297607422 97.96514892578125 125.6823959350586 134.9578399658203" fill="none" stroke="rgb(0, 0, 0)" stroke-linecap="round" stroke-linejoin="round" stroke-opacity="1.0" stroke-width="3.0"/>
    <path d="M 103.90809631347656 83.84331512451172 C 85.50829315185547 73.92760467529297 117.25259399414062 79.8648681640625 122.26212310791016 115.94786834716797" fill="none" stroke="rgb(0, 0, 0)" stroke-linecap="round" stroke-linejoin="round" stroke-opacity="1.0" stroke-width="3.0"/>
    <path d="M 101.9360122680664 81.29889678955078 C 110.02195739746094 86.13948822021484 100.09900665283203 144.0140380859375 87.32115173339844 99.62065124511719" fill="none" stroke="rgb(0, 0, 0)" stroke-linecap="round" stroke-linejoin="round" stroke-opacity="1.0" stroke-width="3.0"/>
    <path d="M 128.34414672851562 158.3909912109375 C 91.4462890625 142.05807495117188 142.872802734375 171.72276306152344 129.0570526123047 154.487060546875" fill="none" stroke="rgb(0, 0, 0)" stroke-linecap="round" stroke-linejoin="round" stroke-opacity="1.0" stroke-width="3.0"/>
    <path d="M 90.49830627441406 102.86439514160156 C 97.08158874511719 101.38549041748047 79.61536407470703 127.49388885498047 113.20902252197266 99.64476013183594" fill="none" stroke="rgb(0, 0, 0)" stroke-linecap="round" stroke-linejoin="round" stroke-opacity="1.0" stroke-width="3.0"/>
    <path d="M 126.20001983642578 128.42674255371094 C 116.26139068603516 101.81631469726562 145.78367614746094 121.4316635131836 96.81438446044922 117.15071868896484" fill="none" stroke="rgb(0, 0, 0)" stroke-linecap="round" stroke-linejoin="round" stroke-opacity="1.0" stroke-width="3.0"/>
    <path d="M 135.42657470703125 122.00297546386719 C 135.19241333007812 132.48529052734375 121.6012191772461 195.6246337890625 132.45272827148438 98.68485260009766" fill="none" stroke="rgb(0, 0, 0)" stroke-linecap="round" stroke-linejoin="round" stroke-opacity="1.0" stroke-width="3.0"/>
    <path d="M 101.73787689208984 112.90863800048828 C 85.03689575195312 129.76449584960938 85.08668518066406 70.91633605957031 101.49647521972656 82.24639892578125" fill="none" stroke="rgb(0, 0, 0)" stroke-linecap="round" stroke-linejoin="round" stroke-opacity="1.0" stroke-width="3.0"/>
    <path d="M 112.3758544921875 154.01475524902344 C 113.67167663574219 52.50472640991211 92.7230453491211 98.1738510131836 117.96137237548828 125.31365203857422" fill="none" stroke="rgb(0, 0, 0)" stroke-linecap="round" stroke-linejoin="round" stroke-opacity="1.0" stroke-width="3.0"/>
    <path d="M 132.87643432617188 98.00435638427734 C 116.3018569946289 93.1755142211914 137.9762420654297 113.55430603027344 113.66756439208984 115.73899841308594" fill="none" stroke="rgb(0, 0, 0)" stroke-linecap="round" stroke-linejoin="round" stroke-opacity="1.0" stroke-width="3.0"/>
    <path d="M 122.27344512939453 104.92443084716797 C 127.16939544677734 73.20685577392578 116.71678161621094 191.73455810546875 129.5712890625 117.97335052490234" fill="none" stroke="rgb(0, 0, 0)" stroke-linecap="round" stroke-linejoin="round" stroke-opacity="1.0" stroke-width="3.0"/>
    <path d="M 115.40708923339844 128.83486938476562 C 124.80474853515625 134.36483764648438 128.64508056640625 124.40788269042969 91.03602600097656 101.02088928222656" fill="none" stroke="rgb(0, 0, 0)" stroke-linecap="round" stroke-linejoin="round" stroke-opacity="1.0" stroke-width="3.0"/>
    <path d="M 117.41425323486328 109.40169525146484 C 104.29166412353516 103.28241729736328 70.56880950927734 108.47084045410156 133.01333618164062 116.43358612060547" fill="none" stroke="rgb(0, 0, 0)" stroke-linecap="round" stroke-linejoin="round" stroke-opacity="1.0" stroke-width="3.0"/>
    <path d="M 106.67847442626953 94.79615020751953 C 130.45639038085938 134.5078887939453 119.23666381835938 96.26390838623047 96.97743225097656 80.48271179199219" fill="none" stroke="rgb(0, 0, 0)" stroke-linecap="round" stroke-linejoin="round" stroke-opacity="1.0" stroke-width="3.0"/>
    <path d="M 134.2184295654297 145.87680053710938 C 100.97340393066406 108.2376937866211 123.42134094238281 109.03981018066406 106.42535400390625 101.9713363647461" fill="none" stroke="rgb(0, 0, 0)" stroke-linecap="round" stroke-linejoin="round" stroke-opacity="1.0" stroke-width="3.0"/>
  </g>
</svg>
