<?xml version="1.0" ?>
<svg height="224" version="1.1" width="224" xmlns="http://www.w3.org/2000/svg">
  <defs/>
  <g>
    <path d="M 99.96769714355469 130.88027954101562 C 109.40401458740234 137.1793212890625 109.17630767822266 136.77261352539062 105.51614379882812 134.999267578125" fill="none" stroke="rgb(0, 0, 0)" stroke-linecap="round" stroke-linejoin="round" stroke-opacity="1.0" stroke-width="3.0"/>
    <path d="M 130.66952514648438 96.10319519042969 C 116.54410552978516 94.32807159423828 102.6313247680664 93.77804565429688 125.152099609375 95.08258819580078" fill="none" stroke="rgb(0, 0, 0)" stroke-linecap="round" stroke-linejoin="round" stroke-opacity="1.0" stroke-width="3.0"/>
    <path d="M 74.12395477294922 84.82508087158203 C 46.520076751708984 98.11631774902344 57.619384765625 71.10420989990234 56.958492279052734 136.5758514404297" fill="none" stroke="rgb(0, 0, 0)" stroke-linecap="round" stroke-linejoin="round" stroke-opacity="1.0" stroke-width="3.0"/>
    <path d="M 113.35517120361328 131.55026245117188 C 96.47667694091797 117.64212036132812 104.9066162109375 108.38573455810547 109.95443725585938 102.45475006103516" fill="none" stroke="rgb(0, 0, 0)" stroke-linecap="round" stroke-linejoin="round" stroke-opacity="1.0" stroke-width="3.0"/>
    <path d="M 109.60807800292969 137.85801696777344 C 82.47018432617188 117.58353424072266 105.42950439453125 90.80907440185547 92.66963195800781 109.32988739013672" fill="none" stroke="rgb(0, 0, 0)" stroke-linecap="round" stroke-linejoin="round" stroke-opacity="1.0" stroke-width="3.0"/>
    <path d="M 101.2350845336914 132.61001586914062 C 101.08344268798828 133.65792846679688 106.2490463256836 134.502197265625 110.8708724975586 137.78343200683594" fill="none" stroke="rgb(0, 0, 0)" stroke-linecap="round" stroke-linejoin="round" stroke-opacity="1.0" stroke-width="3.0"/>
    <path d="M 95.49934387207031 105.23433685302734 C 90.5871810913086 118.6602783203125 92.78553771972656 104.05787658691406 107.27837371826172 93.03458404541016" fill="none" stroke="rgb(0, 0, 0)" stroke-linecap="round" stroke-linejoin="round" stroke-opacity="1.0" stroke-width="3.0"/>
    <path d="M 105.2450942993164 135.82485961914062 C 82.7238540649414 128.4357147216797 93.13713073730469 92.49209594726562 92.47010040283203 118.96797180175781" fill="none" stroke="rgb(0, 0, 0)" stroke-linecap="round" stroke-linejoin="round" stroke-opacity="1.0" stroke-width="3.0"/>
    <path d="M 96.94673919677734 139.7931671142578 C 61.43986129760742 145.32101440429688 70.79553985595703 144.62728881835938 59.80371856689453 138.73568725585938" fill="none" stroke="rgb(0, 0, 0)" stroke-linecap="round" stroke-linejoin="round" stroke-opacity="1.0" stroke-width="3.0"/>
    <path d="M 92.15839385986328 116.06461334228516 C 101.36363220214844 137.83340454101562 85.13511657714844 106.75179290771484 101.80459594726562 97.13409423828125" fill="none" stroke="rgb(0, 0, 0)" stroke-linecap="round" stroke-linejoin="round" stroke-opacity="1.0" stroke-width="3.0"/>
    <path d="M 114.25931549072266 94.71293640136719 C 121.90216064453125 93.85763549804688 104.21746063232422 92.02534484863281 85.2577133178711 89.69091796875" fill="none" stroke="rgb(0, 0, 0)" stroke-linecap="round" stroke-linejoin="round" stroke-opacity="1.0" stroke-width="3.0"/>
    <path d="M 148.06259155273438 97.71927642822266 C 94.3358154296875 90.52127838134766 115.33588409423828 89.02452087402344 98.20596313476562 102.32981872558594" fill="none" stroke="rgb(0, 0, 0)" stroke-linecap="round" stroke-linejoin="round" stroke-opacity="1.0" stroke-width="3.0"/>
    <path d="M 74.58487701416016 87.68402099609375 C 145.0914764404297 97.28355407714844 72.58329772949219 86.26848602294922 96.85597229003906 127.80635070800781" fill="none" stroke="rgb(0, 0, 0)" stroke-linecap="round" stroke-linejoin="round" stroke-opacity="1.0" stroke-width="3.0"/>
    <path d="M 93.35131072998047 114.27702331542969 C 99.66891479492188 145.3619842529297 114.44414520263672 137.07858276367188 146.24717712402344 135.2440948486328" fill="none" stroke="rgb(0, 0, 0)" stroke-linecap="round" stroke-linejoin="round" stroke-opacity="1.0" stroke-width="3.0"/>
    <path d="M 64.4427719116211 89.17962646484375 C 63.327327728271484 157.41282653808594 69.71416473388672 143.8917236328125 56.05013656616211 136.67652893066406" fill="none" stroke="rgb(0, 0, 0)" stroke-linecap="round" stroke-linejoin="round" stroke-opacity="1.0" stroke-width="3.0"/>
    <path d="M 101.19131469726562 139.20187377929688 C 96.74918365478516 137.27906799316406 76.78449249267578 143.23046875 120.26839447021484 137.90646362304688" fill="none" stroke="rgb(0, 0, 0)" stroke-linecap="round" stroke-linejoin="round" stroke-opacity="1.0" stroke-width="3.0"/>
  </g>
</svg>
