<?xml version="1.0" ?>
<svg height="224" version="1.1" width="224" xmlns="http://www.w3.org/2000/svg">
  <defs/>
  <g>
    <path d="M 133.2891082763672 105.1656723022461 C 103.56718444824219 79.7742919921875 113.23904418945312 54.55439376831055 114.01915740966797 126.99461364746094" fill="none" stroke="rgb(0, 0, 0)" stroke-linecap="round" stroke-linejoin="round" stroke-opacity="1.0" stroke-width="3.0"/>
    <path d="M 127.24136352539062 147.13473510742188 C 105.24723052978516 163.94044494628906 119.34996795654297 162.07907104492188 99.40750885009766 157.5882110595703" fill="none" stroke="rgb(0, 0, 0)" stroke-linecap="round" stroke-linejoin="round" stroke-opacity="1.0" stroke-width="3.0"/>
    <path d="M 120.00959777832031 94.468994140625 C 112.48716735839844 74.36255645751953 116.21698760986328 76.20940399169922 114.7915267944336 108.59972381591797" fill="none" stroke="rgb(0, 0, 0)" stroke-linecap="round" stroke-linejoin="round" stroke-opacity="1.0" stroke-width="3.0"/>
    <path d="M 117.47886657714844 79.14437866210938 C 120.42188262939453 70.54814910888672 84.38982391357422 72.35063934326172 107.85220336914062 77.63065338134766" fill="none" stroke="rgb(0, 0, 0)" stroke-linecap="round" stroke-linejoin="round" stroke-opacity="1.0" stroke-width="3.0"/>
    <path d="M 124.00767517089844 98.25318908691406 C 131.06871032714844 160.585205078125 146.5159454345703 124.52801513671875 122.90514373779297 135.02685546875" fill="none" stroke="rgb(0, 0, 0)" stroke-linecap="round" stroke-linejoin="round" stroke-opacity="1.0" stroke-width="3.0"/>
    <path d="M 114.16481018066406 147.668701171875 C 135.0948944091797 167.65692138671875 127.4597396850586 71.81744384765625 125.65860748291016 93.02017974853516" fill="none" stroke="rgb(0, 0, 0)" stroke-linecap="round" stroke-linejoin="round" stroke-opacity="1.0" stroke-width="3.0"/>
    <path d="M 98.56163787841797 134.6250762939453 C 103.01366424560547 74.59916687011719 98.11119079589844 20.113767623901367 99.30928802490234 158.74012756347656" fill="none" stroke="rgb(0, 0, 0)" stroke-linecap="round" stroke-linejoin="round" stroke-opacity="1.0" stroke-width="3.0"/>
    <path d="M 113.06996154785156 157.6708984375 C 114.10792541503906 94.27032470703125 122.83172607421875 77.65202331542969 115.06336975097656 84.50679779052734" fill="none" stroke="rgb(0, 0, 0)" stroke-linecap="round" stroke-linejoin="round" stroke-opacity="1.0" stroke-width="3.0"/>
    <path d="M 99.52996826171875 109.90355682373047 C 102.95123291015625 63.21218490600586 91.87633514404297 69.09481811523438 130.24838256835938 88.06932067871094" fill="none" stroke="rgb(0, 0, 0)" stroke-linecap="round" stroke-linejoin="round" stroke-opacity="1.0" stroke-width="3.0"/>
    <path d="M 138.07839965820312 134.5208282470703 C 145.6630859375 74.69564819335938 130.12924194335938 125.63021850585938 127.33570861816406 94.43917083740234" fill="none" stroke="rgb(0, 0, 0)" stroke-linecap="round" stroke-linejoin="round" stroke-opacity="1.0" stroke-width="3.0"/>
    <path d="M 105.80498504638672 74.361572265625 C 114.44474029541016 78.2636489868164 105.18876647949219 67.73149108886719 123.4439468383789 84.87388610839844" fill="none" stroke="rgb(0, 0, 0)" stroke-linecap="round" stroke-linejoin="round" stroke-opacity="1.0" stroke-width="3.0"/>
    <path d="M 131.37417602539062 88.23883056640625 C 145.92962646484375 164.4129638671875 100.22532653808594 165.84739685058594 120.31297302246094 90.26750183105469" fill="none" stroke="rgb(0, 0, 0)" stroke-linecap="round" stroke-linejoin="round" stroke-opacity="1.0" stroke-width="3.0"/>
    <path d="M 115.38043212890625 79.64580535888672 C 112.47476196289062 183.697998046875 124.83006286621094 172.8257598876953 125.5866928100586 92.46955108642578" fill="none" stroke="rgb(0, 0, 0)" stroke-linecap="round" stroke-linejoin="round" stroke-opacity="1.0" stroke-width="3.0"/>
    <path d="M 129.51268005371094 99.85208129882812 C 120.70410919189453 205.29403686523438 118.49190521240234 100.86223602294922 126.24421691894531 89.2926025390625" fill="none" stroke="rgb(0, 0, 0)" stroke-linecap="round" stroke-linejoin="round" stroke-opacity="1.0" stroke-width="3.0"/>
    <path d="M 127.64147186279297 88.92098236083984 C 138.22291564941406 158.0950927734375 127.27610778808594 147.22659301757812 114.46707916259766 154.00851440429688" fill="none" stroke="rgb(0, 0, 0)" stroke-linecap="round" stroke-linejoin="round" stroke-opacity="1.0" stroke-width="3.0"/>
    <path d="M 112.89541625976562 154.5304412841797 C 117.55101776123047 141.14788818359375 129.21897888183594 145.23367309570312 124.25867462158203 92.49371337890625" fill="none" stroke="rgb(0, 0, 0)" stroke-linecap="round" stroke-linejoin="round" stroke-opacity="1.0" stroke-width="3.0"/>
  </g>
</svg>
