<?xml version="1.0" ?>
<svg height="224" version="1.1" width="224" xmlns="http://www.w3.org/2000/svg">
  <defs/>
  <g>
    <path d="M 116.12833404541016 160.66329956054688 C 130.15072631835938 186.0625762939453 98.60285186767578 161.347900390625 97.17332458496094 184.8883056640625" fill="none" stroke="rgb(0, 0, 0)" stroke-linecap="round" stroke-linejoin="round" stroke-opacity="1.0" stroke-width="3.0"/>
    <path d="M 105.19635009765625 124.45320129394531 C 113.89164733886719 107.31937408447266 96.54783630371094 108.71914672851562 114.4144058227539 106.56944274902344" fill="none" stroke="rgb(0, 0, 0)" stroke-linecap="round" stroke-linejoin="round" stroke-opacity="1.0" stroke-width="3.0"/>
    <path d="M 109.27096557617188 97.73310852050781 C 109.35050201416016 99.9203872680664 135.6866455078125 98.01174926757812 111.34195709228516 98.85353088378906" fill="none" stroke="rgb(0, 0, 0)" stroke-linecap="round" stroke-linejoin="round" stroke-opacity="1.0" stroke-width="3.0"/>
    <path d="M 89.03858947753906 177.2574920654297 C 119.73912811279297 171.13980102539062 103.48991394042969 181.6226806640625 91.14704895019531 179.10862731933594" fill="none" stroke="rgb(0, 0, 0)" stroke-linecap="round" stroke-linejoin="round" stroke-opacity="1.0" stroke-width="3.0"/>
    <path d="M 130.01731872558594 130.01641845703125 C 86.82353973388672 118.9286117553711 102.49320983886719 130.05123901367188 113.62325286865234 126.62156677246094" fill="none" stroke="rgb(0, 0, 0)" stroke-linecap="round" stroke-linejoin="round" stroke-opacity="1.0" stroke-width="3.0"/>
    <path d="M 139.17872619628906 177.6620635986328 C 134.585205078125 161.89996337890625 136.88375854492188 194.7261505126953 135.08001708984375 176.4438934326172" fill="none" stroke="rgb(0, 0, 0)" stroke-linecap="round" stroke-linejoin="round" stroke-opacity="1.0" stroke-width="3.0"/>
    <path d="M 107.20980834960938 118.98351287841797 C 116.88571166992188 124.00684356689453 137.28231811523438 99.73574829101562 104.96607208251953 103.46393585205078" fill="none" stroke="rgb(0, 0, 0)" stroke-linecap="round" stroke-linejoin="round" stroke-opacity="1.0" stroke-width="3.0"/>
    <path d="M 137.3291015625 172.82940673828125 C 84.0664291381836 175.5907440185547 114.64175415039062 161.6232147216797 115.3320083618164 169.51365661621094" fill="none" stroke="rgb(0, 0, 0)" stroke-linecap="round" stroke-linejoin="round" stroke-opacity="1.0" stroke-width="3.0"/>
    <path d="M 116.9831771850586 131.2750244140625 C 141.21261596679688 126.6670913696289 92.8233642578125 118.16249084472656 100.25749206542969 126.71669006347656" fill="none" stroke="rgb(0, 0, 0)" stroke-linecap="round" stroke-linejoin="round" stroke-opacity="1.0" stroke-width="3.0"/>
    <path d="M 116.85240936279297 171.1190948486328 C 112.07795715332031 104.72437286376953 117.3773422241211 115.18694305419922 124.7533187866211 128.38523864746094" fill="none" stroke="rgb(0, 0, 0)" stroke-linecap="round" stroke-linejoin="round" stroke-opacity="1.0" stroke-width="3.0"/>
    <path d="M 119.94667053222656 110.98993682861328 C 111.53732299804688 139.23890686035156 136.5495147705078 123.42976379394531 110.1729507446289 124.31874084472656" fill="none" stroke="rgb(0, 0, 0)" stroke-linecap="round" stroke-linejoin="round" stroke-opacity="1.0" stroke-width="3.0"/>
    <path d="M 116.19393920898438 112.07539367675781 C 101.94783020019531 100.36896514892578 104.51197814941406 81.98168182373047 118.52972412109375 85.55526733398438" fill="none" stroke="rgb(0, 0, 0)" stroke-linecap="round" stroke-linejoin="round" stroke-opacity="1.0" stroke-width="3.0"/>
    <path d="M 90.06240844726562 175.822265625 C 116.87849426269531 164.21910095214844 108.06353759765625 184.06143188476562 114.22811126708984 152.54969787597656" fill="none" stroke="rgb(0, 0, 0)" stroke-linecap="round" stroke-linejoin="round" stroke-opacity="1.0" stroke-width="3.0"/>
    <path d="M 112.09458923339844 108.19869995117188 C 116.7679672241211 117.23970031738281 110.3150634765625 124.60930633544922 107.66934204101562 92.95384979248047" fill="none" stroke="rgb(0, 0, 0)" stroke-linecap="round" stroke-linejoin="round" stroke-opacity="1.0" stroke-width="3.0"/>
    <path d="M 115.20648956298828 125.58106231689453 C 122.52989196777344 93.78789520263672 119.05490112304688 76.88788604736328 119.25003051757812 99.6639633178711" fill="none" stroke="rgb(0, 0, 0)" stroke-linecap="round" stroke-linejoin="round" stroke-opacity="1.0" stroke-width="3.0"/>
    <path d="M 116.16283416748047 104.1767349243164 C 117.382568359375 131.92526245117188 119.78361511230469 124.87799072265625 121.82820892333984 93.8638916015625" fill="none" stroke="rgb(0, 0, 0)" stroke-linecap="round" stroke-linejoin="round" stroke-opacity="1.0" stroke-width="3.0"/>
  </g>
</svg>
