<?xml version="1.0" ?>
<svg height="224" version="1.1" width="224" xmlns="http://www.w3.org/2000/svg">
  <defs/>
  <g>
    <path d="M 119.24085998535156 88.3519515991211 C 123.48412322998047 94.545166015625 101.31138610839844 72.36404418945312 106.09264373779297 113.4621353149414" fill="none" stroke="rgb(0, 0, 0)" stroke-linecap="round" stroke-linejoin="round" stroke-opacity="1.0" stroke-width="3.0"/>
    <path d="M 126.7774429321289 98.57503509521484 C 131.97967529296875 110.7567367553711 116.5072250366211 146.8939208984375 119.40974426269531 110.40194702148438" fill="none" stroke="rgb(0, 0, 0)" stroke-linecap="round" stroke-linejoin="round" stroke-opacity="1.0" stroke-width="3.0"/>
    <path d="M 115.4410171508789 76.52690887451172 C 99.93988800048828 82.0364761352539 124.0516128540039 72.93421173095703 119.9310531616211 95.804931640625" fill="none" stroke="rgb(0, 0, 0)" stroke-linecap="round" stroke-linejoin="round" stroke-opacity="1.0" stroke-width="3.0"/>
    <path d="M 105.49815368652344 109.82820892333984 C 105.66563415527344 107.43082427978516 149.111572265625 107.5869140625 100.7231216430664 110.72132873535156" fill="none" stroke="rgb(0, 0, 0)" stroke-linecap="round" stroke-linejoin="round" stroke-opacity="1.0" stroke-width="3.0"/>
    <path d="M 101.98469543457031 111.96565246582031 C 89.76458740234375 53.7440299987793 142.5870819091797 71.55609893798828 122.9572982788086 122.20813751220703" fill="none" stroke="rgb(0, 0, 0)" stroke-linecap="round" stroke-linejoin="round" stroke-opacity="1.0" stroke-width="3.0"/>
    <path d="M 107.30244445800781 118.12700653076172 C 179.0580596923828 137.5735321044922 127.72791290283203 142.95147705078125 105.35196685791016 103.89173889160156" fill="none" stroke="rgb(0, 0, 0)" stroke-linecap="round" stroke-linejoin="round" stroke-opacity="1.0" stroke-width="3.0"/>
    <path d="M 110.4134292602539 115.35306549072266 C 145.59959411621094 111.65310668945312 97.07693481445312 128.14634704589844 99.5174560546875 96.77857971191406" fill="none" stroke="rgb(0, 0, 0)" stroke-linecap="round" stroke-linejoin="round" stroke-opacity="1.0" stroke-width="3.0"/>
    <path d="M 115.86396789550781 119.66780090332031 C 133.7786407470703 83.55516815185547 98.07823181152344 70.52934265136719 108.04977416992188 109.74515533447266" fill="none" stroke="rgb(0, 0, 0)" stroke-linecap="round" stroke-linejoin="round" stroke-opacity="1.0" stroke-width="3.0"/>
    <path d="M 125.7330322265625 103.03060150146484 C 106.68241119384766 117.70233154296875 105.5135726928711 79.13494873046875 124.61351013183594 99.44632720947266" fill="none" stroke="rgb(0, 0, 0)" stroke-linecap="round" stroke-linejoin="round" stroke-opacity="1.0" stroke-width="3.0"/>
    <path d="M 87.6721420288086 131.2172088623047 C 144.1934051513672 126.6896743774414 149.63763427734375 160.97982788085938 145.5654754638672 130.51515197753906" fill="none" stroke="rgb(0, 0, 0)" stroke-linecap="round" stroke-linejoin="round" stroke-opacity="1.0" stroke-width="3.0"/>
    <path d="M 105.8550796508789 131.5657196044922 C 142.2460479736328 113.17084503173828 122.24832153320312 132.51104736328125 102.88119506835938 109.96989440917969" fill="none" stroke="rgb(0, 0, 0)" stroke-linecap="round" stroke-linejoin="round" stroke-opacity="1.0" stroke-width="3.0"/>
    <path d="M 118.89399719238281 111.40648651123047 C 96.9400405883789 152.9388885498047 124.40505981445312 134.85552978515625 119.35379028320312 133.9002227783203" fill="none" stroke="rgb(0, 0, 0)" stroke-linecap="round" stroke-linejoin="round" stroke-opacity="1.0" stroke-width="3.0"/>
    <path d="M 101.50297546386719 83.99037170410156 C 90.5123062133789 131.19259643554688 131.5774383544922 135.79507446289062 124.27263641357422 100.86614990234375" fill="none" stroke="rgb(0, 0, 0)" stroke-linecap="round" stroke-linejoin="round" stroke-opacity="1.0" stroke-width="3.0"/>
    <path d="M 117.5263442993164 113.30315399169922 C 108.2912826538086 155.22265625 102.95722961425781 219.12472534179688 95.14596557617188 133.94715881347656" fill="none" stroke="rgb(0, 0, 0)" stroke-linecap="round" stroke-linejoin="round" stroke-opacity="1.0" stroke-width="3.0"/>
    <path d="M 116.58856964111328 136.41445922851562 C 105.50745391845703 85.15353393554688 94.76175689697266 115.28921508789062 113.31645202636719 123.1055679321289" fill="none" stroke="rgb(0, 0, 0)" stroke-linecap="round" stroke-linejoin="round" stroke-opacity="1.0" stroke-width="3.0"/>
    <path d="M 122.13363647460938 94.13787841796875 C 117.28313446044922 74.97140502929688 96.58300018310547 85.31415557861328 119.2168960571289 85.51704406738281" fill="none" stroke="rgb(0, 0, 0)" stroke-linecap="round" stroke-linejoin="round" stroke-opacity="1.0" stroke-width="3.0"/>
  </g>
</svg>
