<?xml version="1.0" ?>
<svg height="224" version="1.1" width="224" xmlns="http://www.w3.org/2000/svg">
  <defs/>
  <g>
    <path d="M 100.84037017822266 108.03360748291016 C 105.56034088134766 140.16177368164062 92.15914916992188 150.9101104736328 92.35841369628906 104.28466033935547" fill="none" stroke="rgb(0, 0, 0)" stroke-linecap="round" stroke-linejoin="round" stroke-opacity="1.0" stroke-width="3.0"/>
    <path d="M 109.81070709228516 129.73159790039062 C 127.580810546875 95.29348754882812 136.4913787841797 100.03179931640625 99.4992904663086 135.56651306152344" fill="none" stroke="rgb(0, 0, 0)" stroke-linecap="round" stroke-linejoin="round" stroke-opacity="1.0" stroke-width="3.0"/>
    <path d="M 106.5218734741211 115.28103637695312 C 145.20166015625 101.92650604248047 87.46463012695312 129.68406677246094 94.58934020996094 123.26937866210938" fill="none" stroke="rgb(0, 0, 0)" stroke-linecap="round" stroke-linejoin="round" stroke-opacity="1.0" stroke-width="3.0"/>
    <path d="M 90.98464965820312 108.62885284423828 C 90.06979370117188 153.64865112304688 100.33341979980469 136.0912322998047 110.57585906982422 100.2982177734375" fill="none" stroke="rgb(0, 0, 0)" stroke-linecap="round" stroke-linejoin="round" stroke-opacity="1.0" stroke-width="3.0"/>
    <path d="M 95.74146270751953 131.8322296142578 C 118.53410339355469 120.51336669921875 125.74856567382812 109.9413070678711 123.64881896972656 93.0988540649414" fill="none" stroke="rgb(0, 0, 0)" stroke-linecap="round" stroke-linejoin="round" stroke-opacity="1.0" stroke-width="3.0"/>
    <path d="M 108.98184967041016 124.98670196533203 C 106.5662841796875 81.46818542480469 153.25611877441406 107.37578582763672 102.34060668945312 106.45570373535156" fill="none" stroke="rgb(0, 0, 0)" stroke-linecap="round" stroke-linejoin="round" stroke-opacity="1.0" stroke-width="3.0"/>
    <path d="M 119.87422943115234 89.91863250732422 C 119.60369873046875 134.27708435058594 124.9267578125 95.27362060546875 102.09001922607422 107.41770935058594" fill="none" stroke="rgb(0, 0, 0)" stroke-linecap="round" stroke-linejoin="round" stroke-opacity="1.0" stroke-width="3.0"/>
    <path d="M 112.54466247558594 127.3817367553711 C 95.618896484375 57.15711975097656 128.2250518798828 179.250732421875 128.0294189453125 98.04554748535156" fill="none" stroke="rgb(0, 0, 0)" stroke-linecap="round" stroke-linejoin="round" stroke-opacity="1.0" stroke-width="3.0"/>
    <path d="M 91.36395263671875 101.7362060546875 C 120.31602478027344 97.47498321533203 83.31672668457031 110.45893096923828 121.40205383300781 129.2307586669922" fill="none" stroke="rgb(0, 0, 0)" stroke-linecap="round" stroke-linejoin="round" stroke-opacity="1.0" stroke-width="3.0"/>
    <path d="M 117.68289184570312 124.59202575683594 C 124.34498596191406 67.00318908691406 135.49539184570312 93.99848937988281 127.43136596679688 124.47126770019531" fill="none" stroke="rgb(0, 0, 0)" stroke-linecap="round" stroke-linejoin="round" stroke-opacity="1.0" stroke-width="3.0"/>
    <path d="M 116.15560150146484 110.16128540039062 C 116.40473937988281 97.375244140625 133.19351196289062 67.02825927734375 128.61553955078125 110.42717742919922" fill="none" stroke="rgb(0, 0, 0)" stroke-linecap="round" stroke-linejoin="round" stroke-opacity="1.0" stroke-width="3.0"/>
    <path d="M 94.13542938232422 127.69879150390625 C 132.6786346435547 137.11392211914062 132.9832305908203 123.1283950805664 94.93020629882812 129.98068237304688" fill="none" stroke="rgb(0, 0, 0)" stroke-linecap="round" stroke-linejoin="round" stroke-opacity="1.0" stroke-width="3.0"/>
    <path d="M 120.77416229248047 124.46732330322266 C 131.4984130859375 88.47904205322266 107.01294708251953 92.03267669677734 109.19851684570312 116.7107162475586" fill="none" stroke="rgb(0, 0, 0)" stroke-linecap="round" stroke-linejoin="round" stroke-opacity="1.0" stroke-width="3.0"/>
    <path d="M 127.19766998291016 99.93099212646484 C 132.562744140625 82.31029510498047 126.9622573852539 83.89104461669922 120.58487701416016 117.55470275878906" fill="none" stroke="rgb(0, 0, 0)" stroke-linecap="round" stroke-linejoin="round" stroke-opacity="1.0" stroke-width="3.0"/>
    <path d="M 103.96637725830078 126.02176666259766 C 119.35233306884766 62.946876525878906 145.6416778564453 129.1073455810547 105.9931640625 128.5951385498047" fill="none" stroke="rgb(0, 0, 0)" stroke-linecap="round" stroke-linejoin="round" stroke-opacity="1.0" stroke-width="3.0"/>
    <path d="M 114.51686096191406 123.87175750732422 C 114.67002868652344 118.00260162353516 131.17164611816406 73.77055358886719 126.57964324951172 98.27531433105469" fill="none" stroke="rgb(0, 0, 0)" stroke-linecap="round" stroke-linejoin="round" stroke-opacity="1.0" stroke-width="3.0"/>
  </g>
</svg>
