<?xml version="1.0" ?>
<svg height="224" version="1.1" width="224" xmlns="http://www.w3.org/2000/svg">
  <defs/>
  <g>
    <path d="M 75.5184097290039 106.41490173339844 C 80.51963806152344 37.37312698364258 120.71369171142578 144.29229736328125 82.40998077392578 88.45088958740234" fill="none" stroke="rgb(0, 0, 0)" stroke-linecap="round" stroke-linejoin="round" stroke-opacity="1.0" stroke-width="3.0"/>
    <path d="M 106.90605163574219 102.72998809814453 C 101.90791320800781 128.53353881835938 125.49011993408203 130.89291381835938 87.13633728027344 131.0889129638672" fill="none" stroke="rgb(0, 0, 0)" stroke-linecap="round" stroke-linejoin="round" stroke-opacity="1.0" stroke-width="3.0"/>
    <path d="M 86.62405395507812 98.35286712646484 C 64.62458801269531 67.02326202392578 116.66594696044922 174.4761199951172 109.58433532714844 99.33987426757812" fill="none" stroke="rgb(0, 0, 0)" stroke-linecap="round" stroke-linejoin="round" stroke-opacity="1.0" stroke-width="3.0"/>
    <path d="M 78.55268859863281 104.62272644042969 C 168.2478790283203 115.11192321777344 142.674560546875 126.18915557861328 74.9501724243164 109.07762908935547" fill="none" stroke="rgb(0, 0, 0)" stroke-linecap="round" stroke-linejoin="round" stroke-opacity="1.0" stroke-width="3.0"/>
    <path d="M 95.65360260009766 110.40033721923828 C 66.43372344970703 62.76896667480469 119.09900665283203 111.43323516845703 89.75651550292969 125.00273132324219" fill="none" stroke="rgb(0, 0, 0)" stroke-linecap="round" stroke-linejoin="round" stroke-opacity="1.0" stroke-width="3.0"/>
    <path d="M 82.44641876220703 100.21089935302734 C 84.68958282470703 151.91659545898438 85.20722198486328 115.52568817138672 136.81350708007812 111.50847625732422" fill="none" stroke="rgb(0, 0, 0)" stroke-linecap="round" stroke-linejoin="round" stroke-opacity="1.0" stroke-width="3.0"/>
    <path d="M 89.87300109863281 110.99536895751953 C 72.55514526367188 64.6158447265625 76.35884094238281 128.92080688476562 109.47148132324219 131.10508728027344" fill="none" stroke="rgb(0, 0, 0)" stroke-linecap="round" stroke-linejoin="round" stroke-opacity="1.0" stroke-width="3.0"/>
    <path d="M 132.0841064453125 113.89463806152344 C 46.864654541015625 92.21678924560547 78.8421401977539 125.95143127441406 93.23414611816406 121.482666015625" fill="none" stroke="rgb(0, 0, 0)" stroke-linecap="round" stroke-linejoin="round" stroke-opacity="1.0" stroke-width="3.0"/>
    <path d="M 137.68751525878906 99.84790802001953 C 138.7997589111328 157.00143432617188 132.91746520996094 96.03131866455078 135.59841918945312 102.6326675415039" fill="none" stroke="rgb(0, 0, 0)" stroke-linecap="round" stroke-linejoin="round" stroke-opacity="1.0" stroke-width="3.0"/>
    <path d="M 106.4108657836914 128.22567749023438 C 64.87102508544922 28.826831817626953 72.5163345336914 140.13787841796875 79.07515716552734 97.52207946777344" fill="none" stroke="rgb(0, 0, 0)" stroke-linecap="round" stroke-linejoin="round" stroke-opacity="1.0" stroke-width="3.0"/>
    <path d="M 98.54623413085938 121.52010345458984 C 76.42668151855469 109.31238555908203 99.7779769897461 144.82846069335938 108.08683013916016 116.86835479736328" fill="none" stroke="rgb(0, 0, 0)" stroke-linecap="round" stroke-linejoin="round" stroke-opacity="1.0" stroke-width="3.0"/>
    <path d="M 82.3078384399414 114.98979949951172 C 157.37539672851562 114.39196014404297 126.64265441894531 128.41961669921875 125.3658676147461 109.88231658935547" fill="none" stroke="rgb(0, 0, 0)" stroke-linecap="round" stroke-linejoin="round" stroke-opacity="1.0" stroke-width="3.0"/>
    <path d="M 93.98712158203125 98.0560073852539 C 78.64129638671875 63.21897506713867 55.46031951904297 111.25840759277344 136.23789978027344 119.15393829345703" fill="none" stroke="rgb(0, 0, 0)" stroke-linecap="round" stroke-linejoin="round" stroke-opacity="1.0" stroke-width="3.0"/>
    <path d="M 77.17643737792969 93.90604400634766 C 124.61283874511719 129.36624145507812 55.651817321777344 105.98606872558594 87.76853942871094 127.46902465820312" fill="none" stroke="rgb(0, 0, 0)" stroke-linecap="round" stroke-linejoin="round" stroke-opacity="1.0" stroke-width="3.0"/>
    <path d="M 97.19355773925781 117.8084716796875 C 63.85627365112305 93.14796447753906 88.49071502685547 62.65260696411133 76.1231918334961 108.9163589477539" fill="none" stroke="rgb(0, 0, 0)" stroke-linecap="round" stroke-linejoin="round" stroke-opacity="1.0" stroke-width="3.0"/>
    <path d="M 90.30764770507812 124.6086196899414 C 147.85440063476562 97.65657043457031 156.10867309570312 109.18505096435547 78.0833969116211 113.68452453613281" fill="none" stroke="rgb(0, 0, 0)" stroke-linecap="round" stroke-linejoin="round" stroke-opacity="1.0" stroke-width="3.0"/>
  </g>
</svg>
