<?xml version="1.0" ?>
<svg height="224" version="1.1" width="224" xmlns="http://www.w3.org/2000/svg">
  <defs/>
  <g>
    <path d="M 98.63329315185547 125.39494323730469 C 104.43413543701172 130.18544006347656 81.2679214477539 148.4901123046875 112.12554931640625 134.6795654296875" fill="none" stroke="rgb(0, 0, 0)" stroke-linecap="round" stroke-linejoin="round" stroke-opacity="1.0" stroke-width="3.0"/>
    <path d="M 115.9449462890625 99.55008697509766 C 116.77033233642578 154.02015686035156 106.76564025878906 144.02066040039062 105.8871078491211 92.5954818725586" fill="none" stroke="rgb(0, 0, 0)" stroke-linecap="round" stroke-linejoin="round" stroke-opacity="1.0" stroke-width="3.0"/>
    <path d="M 96.6114730834961 86.51811218261719 C 89.63066101074219 156.10618591308594 109.0621337890625 117.92449951171875 104.51118469238281 100.81575012207031" fill="none" stroke="rgb(0, 0, 0)" stroke-linecap="round" stroke-linejoin="round" stroke-opacity="1.0" stroke-width="3.0"/>
    <path d="M 88.08429718017578 74.98175048828125 C 94.78166198730469 76.01139068603516 100.32770538330078 59.21016311645508 111.88615417480469 113.71194458007812" fill="none" stroke="rgb(0, 0, 0)" stroke-linecap="round" stroke-linejoin="round" stroke-opacity="1.0" stroke-width="3.0"/>
    <path d="M 125.44941711425781 124.30653381347656 C 88.50489807128906 128.61920166015625 127.49042510986328 73.83539581298828 99.40234375 139.17703247070312" fill="none" stroke="rgb(0, 0, 0)" stroke-linecap="round" stroke-linejoin="round" stroke-opacity="1.0" stroke-width="3.0"/>
    <path d="M 99.2242202758789 80.44509887695312 C 86.86408996582031 164.23623657226562 103.923095703125 150.62997436523438 102.01254272460938 79.39307403564453" fill="none" stroke="rgb(0, 0, 0)" stroke-linecap="round" stroke-linejoin="round" stroke-opacity="1.0" stroke-width="3.0"/>
    <path d="M 113.29830932617188 116.0635986328125 C 96.78510284423828 152.77081298828125 106.16681671142578 141.262451171875 100.90326690673828 77.77140808105469" fill="none" stroke="rgb(0, 0, 0)" stroke-linecap="round" stroke-linejoin="round" stroke-opacity="1.0" stroke-width="3.0"/>
    <path d="M 89.4926528930664 127.62648010253906 C 117.60908508300781 114.48686981201172 126.12071990966797 123.27042388916016 113.47435760498047 122.48516845703125" fill="none" stroke="rgb(0, 0, 0)" stroke-linecap="round" stroke-linejoin="round" stroke-opacity="1.0" stroke-width="3.0"/>
    <path d="M 95.74793243408203 139.00103759765625 C 107.92906951904297 47.72895812988281 82.15325927734375 62.88021469116211 109.06979370117188 136.03292846679688" fill="none" stroke="rgb(0, 0, 0)" stroke-linecap="round" stroke-linejoin="round" stroke-opacity="1.0" stroke-width="3.0"/>
    <path d="M 106.89566802978516 98.48644256591797 C 132.13726806640625 105.09840393066406 125.5437240600586 89.71823120117188 125.78386688232422 123.5510025024414" fill="none" stroke="rgb(0, 0, 0)" stroke-linecap="round" stroke-linejoin="round" stroke-opacity="1.0" stroke-width="3.0"/>
    <path d="M 105.58927154541016 136.0476837158203 C 111.42102813720703 89.01634979248047 93.16968536376953 52.90944290161133 113.28800964355469 117.74784088134766" fill="none" stroke="rgb(0, 0, 0)" stroke-linecap="round" stroke-linejoin="round" stroke-opacity="1.0" stroke-width="3.0"/>
    <path d="M 90.38841247558594 75.19957733154297 C 75.65383911132812 72.8074951171875 75.56024932861328 139.246826171875 98.20780944824219 130.37741088867188" fill="none" stroke="rgb(0, 0, 0)" stroke-linecap="round" stroke-linejoin="round" stroke-opacity="1.0" stroke-width="3.0"/>
    <path d="M 98.4160385131836 87.12266540527344 C 99.60476684570312 163.7925262451172 75.59081268310547 110.48696899414062 99.28654479980469 128.30697631835938" fill="none" stroke="rgb(0, 0, 0)" stroke-linecap="round" stroke-linejoin="round" stroke-opacity="1.0" stroke-width="3.0"/>
    <path d="M 86.24850463867188 124.229736328125 C 131.24395751953125 125.8192367553711 104.54812622070312 66.8284912109375 111.96336364746094 135.77574157714844" fill="none" stroke="rgb(0, 0, 0)" stroke-linecap="round" stroke-linejoin="round" stroke-opacity="1.0" stroke-width="3.0"/>
    <path d="M 109.78994750976562 107.15974426269531 C 88.83196258544922 139.75289916992188 120.75199890136719 142.9499053955078 114.788330078125 120.55615997314453" fill="none" stroke="rgb(0, 0, 0)" stroke-linecap="round" stroke-linejoin="round" stroke-opacity="1.0" stroke-width="3.0"/>
    <path d="M 112.99247741699219 132.40855407714844 C 119.03856658935547 69.08599853515625 114.2565689086914 104.06932830810547 99.43002319335938 135.06326293945312" fill="none" stroke="rgb(0, 0, 0)" stroke-linecap="round" stroke-linejoin="round" stroke-opacity="1.0" stroke-width="3.0"/>
  </g>
</svg>
