<?xml version="1.0" ?>
<svg height="224" version="1.1" width="224" xmlns="http://www.w3.org/2000/svg">
  <defs/>
  <g>
    <path d="M 101.8439712524414 102.49163055419922 C 134.25616455078125 99.55310821533203 129.2814483642578 112.01876068115234 102.45887756347656 104.26966857910156" fill="none" stroke="rgb(0, 0, 0)" stroke-linecap="round" stroke-linejoin="round" stroke-opacity="1.0" stroke-width="3.0"/>
    <path d="M 101.19832611083984 103.81510162353516 C 110.5325927734375 53.60384750366211 93.72806549072266 66.95406341552734 102.24417114257812 112.51969146728516" fill="none" stroke="rgb(0, 0, 0)" stroke-linecap="round" stroke-linejoin="round" stroke-opacity="1.0" stroke-width="3.0"/>
    <path d="M 96.0229263305664 119.97972106933594 C 117.65626525878906 95.13297271728516 106.4041976928711 60.54266357421875 102.18000793457031 101.86536407470703" fill="none" stroke="rgb(0, 0, 0)" stroke-linecap="round" stroke-linejoin="round" stroke-opacity="1.0" stroke-width="3.0"/>
    <path d="M 120.929443359375 95.89015197753906 C 111.1651382446289 63.719547271728516 127.1817398071289 72.75979614257812 100.4786148071289 71.84635162353516" fill="none" stroke="rgb(0, 0, 0)" stroke-linecap="round" stroke-linejoin="round" stroke-opacity="1.0" stroke-width="3.0"/>
    <path d="M 117.20612335205078 71.24964141845703 C 103.5211181640625 92.05230712890625 127.27379608154297 125.3545913696289 122.42414855957031 77.07862091064453" fill="none" stroke="rgb(0, 0, 0)" stroke-linecap="round" stroke-linejoin="round" stroke-opacity="1.0" stroke-width="3.0"/>
    <path d="M 124.57591247558594 150.83787536621094 C 65.16290283203125 131.11993408203125 110.57453918457031 179.58663940429688 111.65815734863281 112.78860473632812" fill="none" stroke="rgb(0, 0, 0)" stroke-linecap="round" stroke-linejoin="round" stroke-opacity="1.0" stroke-width="3.0"/>
    <path d="M 102.07512664794922 84.82762145996094 C 108.2301025390625 67.33747863769531 127.81633758544922 88.97200775146484 106.59390258789062 98.53948974609375" fill="none" stroke="rgb(0, 0, 0)" stroke-linecap="round" stroke-linejoin="round" stroke-opacity="1.0" stroke-width="3.0"/>
    <path d="M 118.13819885253906 95.82516479492188 C 106.83958435058594 85.2303237915039 137.82586669921875 100.37796783447266 107.8315200805664 97.5767593383789" fill="none" stroke="rgb(0, 0, 0)" stroke-linecap="round" stroke-linejoin="round" stroke-opacity="1.0" stroke-width="3.0"/>
    <path d="M 115.22537994384766 75.02610778808594 C 86.51160430908203 75.01366424560547 119.4234848022461 97.95459747314453 116.87728881835938 78.45204162597656" fill="none" stroke="rgb(0, 0, 0)" stroke-linecap="round" stroke-linejoin="round" stroke-opacity="1.0" stroke-width="3.0"/>
    <path d="M 114.26434326171875 119.68608856201172 C 120.51617431640625 75.07666015625 95.86001586914062 101.30055236816406 99.93751525878906 107.71226501464844" fill="none" stroke="rgb(0, 0, 0)" stroke-linecap="round" stroke-linejoin="round" stroke-opacity="1.0" stroke-width="3.0"/>
    <path d="M 111.19638061523438 102.5091781616211 C 125.5788803100586 109.20494842529297 99.18180847167969 99.01467895507812 121.78775787353516 154.62757873535156" fill="none" stroke="rgb(0, 0, 0)" stroke-linecap="round" stroke-linejoin="round" stroke-opacity="1.0" stroke-width="3.0"/>
    <path d="M 104.53514862060547 114.55823516845703 C 154.0650634765625 117.98407745361328 119.72525787353516 125.29409790039062 121.48509979248047 106.68745422363281" fill="none" stroke="rgb(0, 0, 0)" stroke-linecap="round" stroke-linejoin="round" stroke-opacity="1.0" stroke-width="3.0"/>
    <path d="M 110.72625732421875 94.27136993408203 C 113.57083129882812 61.47628402709961 97.2715835571289 70.75070190429688 101.70059967041016 93.9602279663086" fill="none" stroke="rgb(0, 0, 0)" stroke-linecap="round" stroke-linejoin="round" stroke-opacity="1.0" stroke-width="3.0"/>
    <path d="M 106.0807113647461 100.07733154296875 C 105.26252746582031 61.106544494628906 118.51263427734375 70.7049331665039 116.34882354736328 114.95975494384766" fill="none" stroke="rgb(0, 0, 0)" stroke-linecap="round" stroke-linejoin="round" stroke-opacity="1.0" stroke-width="3.0"/>
    <path d="M 119.20919799804688 75.67749786376953 C 126.30433654785156 113.73395538330078 118.0941162109375 110.19947814941406 108.08744812011719 83.84797668457031" fill="none" stroke="rgb(0, 0, 0)" stroke-linecap="round" stroke-linejoin="round" stroke-opacity="1.0" stroke-width="3.0"/>
    <path d="M 115.02816009521484 101.83204650878906 C 132.62106323242188 26.324588775634766 101.1416244506836 119.1079330444336 119.67882537841797 75.70915222167969" fill="none" stroke="rgb(0, 0, 0)" stroke-linecap="round" stroke-linejoin="round" stroke-opacity="1.0" stroke-width="3.0"/>
  </g>
</svg>
