<?xml version="1.0" ?>
<svg height="224" version="1.1" width="224" xmlns="http://www.w3.org/2000/svg">
  <defs/>
  <g>
    <path d="M 90.37097930908203 86.17236328125 C 109.2047348022461 87.97023010253906 122.91912078857422 91.49528503417969 84.64189910888672 89.0049057006836" fill="none" stroke="rgb(0, 0, 0)" stroke-linecap="round" stroke-linejoin="round" stroke-opacity="1.0" stroke-width="3.0"/>
    <path d="M 146.09146118164062 90.23805236816406 C 133.26100158691406 91.24677276611328 153.11495971679688 89.0011978149414 151.6319580078125 90.70207214355469" fill="none" stroke="rgb(0, 0, 0)" stroke-linecap="round" stroke-linejoin="round" stroke-opacity="1.0" stroke-width="3.0"/>
    <path d="M 98.58723449707031 87.47065734863281 C 124.76343536376953 88.42298889160156 119.82615661621094 81.09931945800781 90.25902557373047 89.0229721069336" fill="none" stroke="rgb(0, 0, 0)" stroke-linecap="round" stroke-linejoin="round" stroke-opacity="1.0" stroke-width="3.0"/>
    <path d="M 101.98993682861328 112.39354705810547 C 101.63172149658203 112.12273406982422 99.4751968383789 115.98783874511719 104.31697082519531 127.96411895751953" fill="none" stroke="rgb(0, 0, 0)" stroke-linecap="round" stroke-linejoin="round" stroke-opacity="1.0" stroke-width="3.0"/>
    <path d="M 124.29743957519531 84.10781860351562 C 89.4237289428711 85.45655822753906 93.88223266601562 88.53945922851562 102.29774475097656 86.29829406738281" fill="none" stroke="rgb(0, 0, 0)" stroke-linecap="round" stroke-linejoin="round" stroke-opacity="1.0" stroke-width="3.0"/>
    <path d="M 78.34733581542969 139.0895233154297 C 81.29563903808594 124.0857925415039 82.8422622680664 86.69789123535156 80.27143096923828 91.89443969726562" fill="none" stroke="rgb(0, 0, 0)" stroke-linecap="round" stroke-linejoin="round" stroke-opacity="1.0" stroke-width="3.0"/>
    <path d="M 95.11228942871094 89.36068725585938 C 100.12464904785156 101.5665512084961 88.8187484741211 83.5457534790039 134.88168334960938 88.46710968017578" fill="none" stroke="rgb(0, 0, 0)" stroke-linecap="round" stroke-linejoin="round" stroke-opacity="1.0" stroke-width="3.0"/>
    <path d="M 142.7731475830078 120.2876968383789 C 140.48818969726562 151.9212188720703 142.56488037109375 136.9252166748047 141.4667205810547 138.31553649902344" fill="none" stroke="rgb(0, 0, 0)" stroke-linecap="round" stroke-linejoin="round" stroke-opacity="1.0" stroke-width="3.0"/>
    <path d="M 123.29779815673828 132.08189392089844 C 131.8463897705078 120.73414611816406 126.2686767578125 111.71846008300781 119.69640350341797 106.4942398071289" fill="none" stroke="rgb(0, 0, 0)" stroke-linecap="round" stroke-linejoin="round" stroke-opacity="1.0" stroke-width="3.0"/>
    <path d="M 145.75230407714844 88.85636138916016 C 106.9404525756836 91.48228454589844 121.8460464477539 89.21636962890625 147.60020446777344 90.7787857055664" fill="none" stroke="rgb(0, 0, 0)" stroke-linecap="round" stroke-linejoin="round" stroke-opacity="1.0" stroke-width="3.0"/>
    <path d="M 81.36620330810547 112.61007690429688 C 79.614990234375 138.07412719726562 85.18739318847656 178.615966796875 86.44808197021484 93.28018188476562" fill="none" stroke="rgb(0, 0, 0)" stroke-linecap="round" stroke-linejoin="round" stroke-opacity="1.0" stroke-width="3.0"/>
    <path d="M 149.42404174804688 89.56893157958984 C 110.59345245361328 85.98652648925781 142.4560089111328 89.5440902709961 137.46517944335938 88.78246307373047" fill="none" stroke="rgb(0, 0, 0)" stroke-linecap="round" stroke-linejoin="round" stroke-opacity="1.0" stroke-width="3.0"/>
    <path d="M 107.5403060913086 103.65576171875 C 101.84587097167969 104.54092407226562 96.12356567382812 128.9303741455078 105.27571105957031 136.62350463867188" fill="none" stroke="rgb(0, 0, 0)" stroke-linecap="round" stroke-linejoin="round" stroke-opacity="1.0" stroke-width="3.0"/>
    <path d="M 77.12539672851562 128.61488342285156 C 82.15191650390625 77.02085876464844 70.82323455810547 94.72937774658203 102.42919921875 86.91033172607422" fill="none" stroke="rgb(0, 0, 0)" stroke-linecap="round" stroke-linejoin="round" stroke-opacity="1.0" stroke-width="3.0"/>
    <path d="M 152.20155334472656 138.3455047607422 C 151.67100524902344 116.34278869628906 151.9107208251953 113.9928970336914 151.8703155517578 90.6351547241211" fill="none" stroke="rgb(0, 0, 0)" stroke-linecap="round" stroke-linejoin="round" stroke-opacity="1.0" stroke-width="3.0"/>
    <path d="M 116.74186706542969 86.48129272460938 C 70.99618530273438 88.58218383789062 78.51007080078125 81.43247985839844 148.04116821289062 89.19950866699219" fill="none" stroke="rgb(0, 0, 0)" stroke-linecap="round" stroke-linejoin="round" stroke-opacity="1.0" stroke-width="3.0"/>
  </g>
</svg>
