<?xml version="1.0" ?>
<svg height="224" version="1.1" width="224" xmlns="http://www.w3.org/2000/svg">
  <defs/>
  <g>
    <path d="M 90.11756896972656 136.1421661376953 C 86.37596893310547 139.68319702148438 96.8909683227539 162.70201110839844 74.69757080078125 147.5899658203125" fill="none" stroke="rgb(0, 0, 0)" stroke-linecap="round" stroke-linejoin="round" stroke-opacity="1.0" stroke-width="3.0"/>
    <path d="M 84.57054901123047 152.38385009765625 C 56.61724090576172 148.35418701171875 82.03214263916016 114.37773895263672 72.1745834350586 116.13441467285156" fill="none" stroke="rgb(0, 0, 0)" stroke-linecap="round" stroke-linejoin="round" stroke-opacity="1.0" stroke-width="3.0"/>
    <path d="M 160.05987548828125 119.89501953125 C 158.6145782470703 65.62146759033203 155.51280212402344 120.80865478515625 164.07046508789062 98.87078857421875" fill="none" stroke="rgb(0, 0, 0)" stroke-linecap="round" stroke-linejoin="round" stroke-opacity="1.0" stroke-width="3.0"/>
    <path d="M 71.6883544921875 137.88204956054688 C 84.7237319946289 66.57009887695312 91.08619689941406 45.0482063293457 78.4473876953125 95.48104858398438" fill="none" stroke="rgb(0, 0, 0)" stroke-linecap="round" stroke-linejoin="round" stroke-opacity="1.0" stroke-width="3.0"/>
    <path d="M 85.59906768798828 152.6482391357422 C 142.42933654785156 143.71694946289062 106.35130310058594 149.499267578125 133.99473571777344 145.61871337890625" fill="none" stroke="rgb(0, 0, 0)" stroke-linecap="round" stroke-linejoin="round" stroke-opacity="1.0" stroke-width="3.0"/>
    <path d="M 118.86174011230469 125.7650375366211 C 114.9405288696289 74.36140441894531 158.33509826660156 102.05150604248047 153.87803649902344 91.98954772949219" fill="none" stroke="rgb(0, 0, 0)" stroke-linecap="round" stroke-linejoin="round" stroke-opacity="1.0" stroke-width="3.0"/>
    <path d="M 139.7543182373047 102.23810577392578 C 113.35514831542969 116.87373352050781 141.74891662597656 166.16802978515625 160.51312255859375 121.90432739257812" fill="none" stroke="rgb(0, 0, 0)" stroke-linecap="round" stroke-linejoin="round" stroke-opacity="1.0" stroke-width="3.0"/>
    <path d="M 96.92159271240234 134.59591674804688 C 97.22976684570312 135.74374389648438 97.8253402709961 130.1372528076172 96.64212036132812 138.73768615722656" fill="none" stroke="rgb(0, 0, 0)" stroke-linecap="round" stroke-linejoin="round" stroke-opacity="1.0" stroke-width="3.0"/>
    <path d="M 73.92666625976562 87.48681640625 C 68.6042709350586 86.02368927001953 68.59432983398438 134.34671020507812 65.94412231445312 121.52457427978516" fill="none" stroke="rgb(0, 0, 0)" stroke-linecap="round" stroke-linejoin="round" stroke-opacity="1.0" stroke-width="3.0"/>
    <path d="M 94.33473205566406 83.76615142822266 C 89.35698699951172 142.0589141845703 89.19033813476562 159.93800354003906 92.0553970336914 106.70872497558594" fill="none" stroke="rgb(0, 0, 0)" stroke-linecap="round" stroke-linejoin="round" stroke-opacity="1.0" stroke-width="3.0"/>
    <path d="M 122.7291259765625 122.22659301757812 C 120.55997467041016 129.84902954101562 139.17971801757812 147.81153869628906 119.50347137451172 125.37028503417969" fill="none" stroke="rgb(0, 0, 0)" stroke-linecap="round" stroke-linejoin="round" stroke-opacity="1.0" stroke-width="3.0"/>
    <path d="M 163.52630615234375 142.0070037841797 C 112.5414047241211 151.04730224609375 133.42648315429688 137.34210205078125 123.13813018798828 146.259765625" fill="none" stroke="rgb(0, 0, 0)" stroke-linecap="round" stroke-linejoin="round" stroke-opacity="1.0" stroke-width="3.0"/>
    <path d="M 138.51913452148438 133.07516479492188 C 127.30915069580078 78.22587585449219 181.52284240722656 124.55916595458984 161.0367431640625 98.82621002197266" fill="none" stroke="rgb(0, 0, 0)" stroke-linecap="round" stroke-linejoin="round" stroke-opacity="1.0" stroke-width="3.0"/>
    <path d="M 128.01287841796875 97.37810516357422 C 146.73045349121094 99.3626708984375 116.62413787841797 79.1930923461914 126.0855484008789 97.5552749633789" fill="none" stroke="rgb(0, 0, 0)" stroke-linecap="round" stroke-linejoin="round" stroke-opacity="1.0" stroke-width="3.0"/>
    <path d="M 165.34994506835938 92.05977630615234 C 174.24241638183594 149.0465087890625 167.3592987060547 104.60709381103516 164.66810607910156 140.2411346435547" fill="none" stroke="rgb(0, 0, 0)" stroke-linecap="round" stroke-linejoin="round" stroke-opacity="1.0" stroke-width="3.0"/>
    <path d="M 94.36023712158203 81.89812469482422 C 126.38618469238281 83.43915557861328 72.66974639892578 78.159423828125 163.7862548828125 91.49671173095703" fill="none" stroke="rgb(0, 0, 0)" stroke-linecap="round" stroke-linejoin="round" stroke-opacity="1.0" stroke-width="3.0"/>
  </g>
</svg>
