<?xml version="1.0" ?>
<svg height="224" version="1.1" width="224" xmlns="http://www.w3.org/2000/svg">
  <defs/>
  <g>
    <path d="M 125.0880126953125 142.807861328125 C 158.94578552246094 145.86424255371094 146.6119842529297 150.9954071044922 135.5643768310547 153.79286193847656" fill="none" stroke="rgb(0, 0, 0)" stroke-linecap="round" stroke-linejoin="round" stroke-opacity="1.0" stroke-width="3.0"/>
    <path d="M 80.2203369140625 128.24700927734375 C 85.57317352294922 133.674560546875 77.4296646118164 127.58705139160156 78.20670318603516 124.55401611328125" fill="none" stroke="rgb(0, 0, 0)" stroke-linecap="round" stroke-linejoin="round" stroke-opacity="1.0" stroke-width="3.0"/>
    <path d="M 132.20008850097656 92.92469024658203 C 138.4906768798828 110.71144104003906 98.36705017089844 84.08582305908203 126.3711166381836 81.71073913574219" fill="none" stroke="rgb(0, 0, 0)" stroke-linecap="round" stroke-linejoin="round" stroke-opacity="1.0" stroke-width="3.0"/>
    <path d="M 78.81682586669922 96.80435943603516 C 72.75910949707031 102.6040267944336 69.77281188964844 123.02301788330078 97.9297103881836 143.59515380859375" fill="none" stroke="rgb(0, 0, 0)" stroke-linecap="round" stroke-linejoin="round" stroke-opacity="1.0" stroke-width="3.0"/>
    <path d="M 130.13807678222656 83.19061279296875 C 129.44284057617188 87.7381362915039 142.678955078125 101.13041687011719 128.16441345214844 83.42587280273438" fill="none" stroke="rgb(0, 0, 0)" stroke-linecap="round" stroke-linejoin="round" stroke-opacity="1.0" stroke-width="3.0"/>
    <path d="M 125.45378112792969 80.44068908691406 C 151.0684356689453 91.7319107055664 116.52352142333984 105.79930114746094 118.45457458496094 83.70930480957031" fill="none" stroke="rgb(0, 0, 0)" stroke-linecap="round" stroke-linejoin="round" stroke-opacity="1.0" stroke-width="3.0"/>
    <path d="M 81.14846801757812 129.84548950195312 C 98.9245376586914 145.57522583007812 105.79328918457031 148.5733642578125 82.8971176147461 131.22952270507812" fill="none" stroke="rgb(0, 0, 0)" stroke-linecap="round" stroke-linejoin="round" stroke-opacity="1.0" stroke-width="3.0"/>
    <path d="M 93.00276947021484 139.53628540039062 C 75.70082092285156 125.4857177734375 75.88504791259766 119.05486297607422 81.32478332519531 130.6289825439453" fill="none" stroke="rgb(0, 0, 0)" stroke-linecap="round" stroke-linejoin="round" stroke-opacity="1.0" stroke-width="3.0"/>
    <path d="M 93.36106872558594 140.50379943847656 C 72.54650115966797 128.87774658203125 70.7082290649414 107.11799621582031 80.8747787475586 92.0721664428711" fill="none" stroke="rgb(0, 0, 0)" stroke-linecap="round" stroke-linejoin="round" stroke-opacity="1.0" stroke-width="3.0"/>
    <path d="M 87.32792663574219 140.05535888671875 C 89.1417465209961 138.4912109375 124.52472686767578 153.62005615234375 87.9192123413086 141.45730590820312" fill="none" stroke="rgb(0, 0, 0)" stroke-linecap="round" stroke-linejoin="round" stroke-opacity="1.0" stroke-width="3.0"/>
    <path d="M 75.65097045898438 101.82098388671875 C 85.48246002197266 77.58301544189453 106.63253784179688 71.78520202636719 120.73542785644531 77.77554321289062" fill="none" stroke="rgb(0, 0, 0)" stroke-linecap="round" stroke-linejoin="round" stroke-opacity="1.0" stroke-width="3.0"/>
    <path d="M 124.99028778076172 81.73075866699219 C 139.60301208496094 90.28852081298828 122.24896240234375 72.98604583740234 105.32630920410156 76.32064819335938" fill="none" stroke="rgb(0, 0, 0)" stroke-linecap="round" stroke-linejoin="round" stroke-opacity="1.0" stroke-width="3.0"/>
    <path d="M 86.3717041015625 133.76678466796875 C 120.2424087524414 169.2965850830078 152.91062927246094 121.56321716308594 141.87539672851562 102.96327209472656" fill="none" stroke="rgb(0, 0, 0)" stroke-linecap="round" stroke-linejoin="round" stroke-opacity="1.0" stroke-width="3.0"/>
    <path d="M 78.49894714355469 126.90641784667969 C 86.0079345703125 136.64059448242188 77.95498657226562 127.17317962646484 79.87692260742188 124.88818359375" fill="none" stroke="rgb(0, 0, 0)" stroke-linecap="round" stroke-linejoin="round" stroke-opacity="1.0" stroke-width="3.0"/>
    <path d="M 89.39229583740234 140.13427734375 C 49.135032653808594 146.32516479492188 94.08482360839844 165.55270385742188 139.29969787597656 152.51722717285156" fill="none" stroke="rgb(0, 0, 0)" stroke-linecap="round" stroke-linejoin="round" stroke-opacity="1.0" stroke-width="3.0"/>
    <path d="M 131.7060089111328 95.90453338623047 C 129.67755126953125 81.91561126708984 142.8496856689453 101.14291381835938 143.1686553955078 105.37606811523438" fill="none" stroke="rgb(0, 0, 0)" stroke-linecap="round" stroke-linejoin="round" stroke-opacity="1.0" stroke-width="3.0"/>
  </g>
</svg>
