<?xml version="1.0" ?>
<svg height="224" version="1.1" width="224" xmlns="http://www.w3.org/2000/svg">
  <defs/>
  <g>
    <path d="M 116.9131851196289 121.3527603149414 C 99.30093383789062 104.2521743774414 91.15837097167969 110.82662200927734 124.17719268798828 99.25999450683594" fill="none" stroke="rgb(0, 0, 0)" stroke-linecap="round" stroke-linejoin="round" stroke-opacity="1.0" stroke-width="3.0"/>
    <path d="M 121.69657135009766 120.04938507080078 C 96.52505493164062 100.533935546875 99.91358947753906 109.11759185791016 126.52564239501953 106.25667572021484" fill="none" stroke="rgb(0, 0, 0)" stroke-linecap="round" stroke-linejoin="round" stroke-opacity="1.0" stroke-width="3.0"/>
    <path d="M 119.28544616699219 106.4834213256836 C 95.55354309082031 124.08818817138672 141.94802856445312 87.15038299560547 100.28866577148438 93.51457214355469" fill="none" stroke="rgb(0, 0, 0)" stroke-linecap="round" stroke-linejoin="round" stroke-opacity="1.0" stroke-width="3.0"/>
    <path d="M 114.51654052734375 105.26966094970703 C 109.03510284423828 109.41109466552734 100.76549530029297 108.3970718383789 101.7109146118164 97.6888427734375" fill="none" stroke="rgb(0, 0, 0)" stroke-linecap="round" stroke-linejoin="round" stroke-opacity="1.0" stroke-width="3.0"/>
    <path d="M 113.16969299316406 96.87487030029297 C 93.32795715332031 124.47896575927734 74.38248443603516 104.39710998535156 113.94898223876953 119.44770050048828" fill="none" stroke="rgb(0, 0, 0)" stroke-linecap="round" stroke-linejoin="round" stroke-opacity="1.0" stroke-width="3.0"/>
    <path d="M 149.51707458496094 121.54751586914062 C 124.3190689086914 123.99556732177734 127.43477630615234 102.22575378417969 103.00823211669922 101.28959655761719" fill="none" stroke="rgb(0, 0, 0)" stroke-linecap="round" stroke-linejoin="round" stroke-opacity="1.0" stroke-width="3.0"/>
    <path d="M 108.88481140136719 101.62973022460938 C 127.24227142333984 99.1983642578125 138.80072021484375 100.8917236328125 100.29689025878906 94.47565460205078" fill="none" stroke="rgb(0, 0, 0)" stroke-linecap="round" stroke-linejoin="round" stroke-opacity="1.0" stroke-width="3.0"/>
    <path d="M 105.59526062011719 91.91167449951172 C 126.77316284179688 90.2389144897461 109.50794219970703 110.99605560302734 80.85167694091797 117.7652359008789" fill="none" stroke="rgb(0, 0, 0)" stroke-linecap="round" stroke-linejoin="round" stroke-opacity="1.0" stroke-width="3.0"/>
    <path d="M 118.69852447509766 106.27552795410156 C 118.90757751464844 98.00205993652344 130.0253143310547 81.28559112548828 126.0143814086914 104.29331970214844" fill="none" stroke="rgb(0, 0, 0)" stroke-linecap="round" stroke-linejoin="round" stroke-opacity="1.0" stroke-width="3.0"/>
    <path d="M 123.58126831054688 103.81004333496094 C 93.71771240234375 90.55196380615234 105.56895446777344 114.22238159179688 115.79289245605469 101.43595886230469" fill="none" stroke="rgb(0, 0, 0)" stroke-linecap="round" stroke-linejoin="round" stroke-opacity="1.0" stroke-width="3.0"/>
    <path d="M 58.081886291503906 114.70106506347656 C 79.27352142333984 91.69269561767578 108.45874786376953 101.3495101928711 95.4625015258789 98.49412536621094" fill="none" stroke="rgb(0, 0, 0)" stroke-linecap="round" stroke-linejoin="round" stroke-opacity="1.0" stroke-width="3.0"/>
    <path d="M 145.0120391845703 119.1107406616211 C 106.76839447021484 121.68777465820312 142.0615692138672 126.92723846435547 67.7840576171875 110.27989196777344" fill="none" stroke="rgb(0, 0, 0)" stroke-linecap="round" stroke-linejoin="round" stroke-opacity="1.0" stroke-width="3.0"/>
    <path d="M 126.169189453125 100.93568420410156 C 93.61541748046875 76.33638000488281 105.56288146972656 122.14108276367188 110.29573822021484 103.31169128417969" fill="none" stroke="rgb(0, 0, 0)" stroke-linecap="round" stroke-linejoin="round" stroke-opacity="1.0" stroke-width="3.0"/>
    <path d="M 101.13914489746094 91.44285583496094 C 114.32110595703125 86.5679931640625 127.69278717041016 101.64226531982422 107.79930114746094 92.76905059814453" fill="none" stroke="rgb(0, 0, 0)" stroke-linecap="round" stroke-linejoin="round" stroke-opacity="1.0" stroke-width="3.0"/>
    <path d="M 103.9419937133789 108.61873626708984 C 92.2738037109375 97.05113220214844 105.27455139160156 77.13505554199219 123.57185363769531 93.85350036621094" fill="none" stroke="rgb(0, 0, 0)" stroke-linecap="round" stroke-linejoin="round" stroke-opacity="1.0" stroke-width="3.0"/>
    <path d="M 112.99317932128906 95.09232330322266 C 104.13565063476562 84.64952850341797 113.70545196533203 95.2178955078125 105.94685363769531 117.06461334228516" fill="none" stroke="rgb(0, 0, 0)" stroke-linecap="round" stroke-linejoin="round" stroke-opacity="1.0" stroke-width="3.0"/>
  </g>
</svg>
