<?xml version="1.0" ?>
<svg height="224" version="1.1" width="224" xmlns="http://www.w3.org/2000/svg">
  <defs/>
  <g>
    <path d="M 96.33822631835938 108.96485900878906 C 42.6240348815918 97.77367401123047 138.4754638671875 100.30150604248047 88.53750610351562 107.70529174804688" fill="none" stroke="rgb(0, 0, 0)" stroke-linecap="round" stroke-linejoin="round" stroke-opacity="1.0" stroke-width="3.0"/>
    <path d="M 138.54298400878906 111.70287322998047 C 125.04098510742188 116.45532989501953 120.73067474365234 87.32548522949219 87.47142791748047 120.38060760498047" fill="none" stroke="rgb(0, 0, 0)" stroke-linecap="round" stroke-linejoin="round" stroke-opacity="1.0" stroke-width="3.0"/>
    <path d="M 93.97642517089844 136.79055786132812 C 74.56094360351562 128.27645874023438 81.67560577392578 149.83934020996094 78.71065521240234 104.82843017578125" fill="none" stroke="rgb(0, 0, 0)" stroke-linecap="round" stroke-linejoin="round" stroke-opacity="1.0" stroke-width="3.0"/>
    <path d="M 132.7996826171875 141.6767120361328 C 93.49400329589844 165.6702423095703 88.98129272460938 128.3579559326172 103.18696594238281 148.1630096435547" fill="none" stroke="rgb(0, 0, 0)" stroke-linecap="round" stroke-linejoin="round" stroke-opacity="1.0" stroke-width="3.0"/>
    <path d="M 100.04198455810547 101.6049575805664 C 98.63880157470703 130.3322296142578 77.7291259765625 81.92498779296875 86.74932098388672 133.539794921875" fill="none" stroke="rgb(0, 0, 0)" stroke-linecap="round" stroke-linejoin="round" stroke-opacity="1.0" stroke-width="3.0"/>
    <path d="M 94.46111297607422 139.5210418701172 C 108.3827133178711 155.76937866210938 96.64974212646484 145.5899658203125 108.90171813964844 149.74330139160156" fill="none" stroke="rgb(0, 0, 0)" stroke-linecap="round" stroke-linejoin="round" stroke-opacity="1.0" stroke-width="3.0"/>
    <path d="M 109.07911682128906 105.4283676147461 C 122.22991943359375 101.78334045410156 148.2036590576172 118.40621185302734 132.42135620117188 142.70513916015625" fill="none" stroke="rgb(0, 0, 0)" stroke-linecap="round" stroke-linejoin="round" stroke-opacity="1.0" stroke-width="3.0"/>
    <path d="M 95.63444519042969 107.1784896850586 C 88.3007583618164 96.93450927734375 88.35921478271484 149.4883575439453 106.58587646484375 147.42156982421875" fill="none" stroke="rgb(0, 0, 0)" stroke-linecap="round" stroke-linejoin="round" stroke-opacity="1.0" stroke-width="3.0"/>
    <path d="M 118.23745727539062 96.44598388671875 C 117.87445068359375 94.19192504882812 95.33796691894531 93.24201965332031 128.7095184326172 102.57760620117188" fill="none" stroke="rgb(0, 0, 0)" stroke-linecap="round" stroke-linejoin="round" stroke-opacity="1.0" stroke-width="3.0"/>
    <path d="M 119.97938537597656 148.76658630371094 C 99.84880065917969 152.84237670898438 101.25545501708984 141.89170837402344 105.5581283569336 148.06497192382812" fill="none" stroke="rgb(0, 0, 0)" stroke-linecap="round" stroke-linejoin="round" stroke-opacity="1.0" stroke-width="3.0"/>
    <path d="M 88.56504821777344 133.55368041992188 C 81.80726623535156 96.35591888427734 96.65160369873047 120.4891357421875 108.37791442871094 95.59992218017578" fill="none" stroke="rgb(0, 0, 0)" stroke-linecap="round" stroke-linejoin="round" stroke-opacity="1.0" stroke-width="3.0"/>
    <path d="M 138.51437377929688 134.6287078857422 C 116.5124740600586 170.57537841796875 72.56541442871094 134.2976531982422 100.95614624023438 109.43565368652344" fill="none" stroke="rgb(0, 0, 0)" stroke-linecap="round" stroke-linejoin="round" stroke-opacity="1.0" stroke-width="3.0"/>
    <path d="M 80.21668243408203 135.44879150390625 C 101.61254119873047 138.29319763183594 74.68340301513672 148.39540100097656 89.12484741210938 97.09580993652344" fill="none" stroke="rgb(0, 0, 0)" stroke-linecap="round" stroke-linejoin="round" stroke-opacity="1.0" stroke-width="3.0"/>
    <path d="M 118.79810333251953 99.13529968261719 C 147.60252380371094 106.35182189941406 140.8831787109375 82.99893951416016 141.6524658203125 134.91854858398438" fill="none" stroke="rgb(0, 0, 0)" stroke-linecap="round" stroke-linejoin="round" stroke-opacity="1.0" stroke-width="3.0"/>
    <path d="M 107.94245147705078 99.28399658203125 C 136.34144592285156 101.66606140136719 132.04055786132812 94.93895721435547 132.09262084960938 105.23103332519531" fill="none" stroke="rgb(0, 0, 0)" stroke-linecap="round" stroke-linejoin="round" stroke-opacity="1.0" stroke-width="3.0"/>
    <path d="M 101.6970443725586 147.8243408203125 C 118.41175079345703 151.6157989501953 84.21903991699219 156.74659729003906 88.48932647705078 109.69155883789062" fill="none" stroke="rgb(0, 0, 0)" stroke-linecap="round" stroke-linejoin="round" stroke-opacity="1.0" stroke-width="3.0"/>
  </g>
</svg>
