<?xml version="1.0" ?>
<svg height="224" version="1.1" width="224" xmlns="http://www.w3.org/2000/svg">
  <defs/>
  <g>
    <path d="M 101.78271484375 107.87681579589844 C 109.42092895507812 94.28311157226562 91.44867706298828 115.99037170410156 103.05558776855469 108.85665893554688" fill="none" stroke="rgb(0, 0, 0)" stroke-linecap="round" stroke-linejoin="round" stroke-opacity="1.0" stroke-width="3.0"/>
    <path d="M 102.68218994140625 107.14086151123047 C 68.62583923339844 94.77120208740234 80.69971466064453 120.80921936035156 112.33049011230469 95.85135650634766" fill="none" stroke="rgb(0, 0, 0)" stroke-linecap="round" stroke-linejoin="round" stroke-opacity="1.0" stroke-width="3.0"/>
    <path d="M 133.45079040527344 139.2300567626953 C 137.19935607910156 108.75323486328125 133.6316680908203 87.8875961303711 140.3383331298828 100.50785827636719" fill="none" stroke="rgb(0, 0, 0)" stroke-linecap="round" stroke-linejoin="round" stroke-opacity="1.0" stroke-width="3.0"/>
    <path d="M 114.97201538085938 95.11251068115234 C 138.1873016357422 109.69584655761719 133.65457153320312 99.99311065673828 108.38841247558594 95.9925765991211" fill="none" stroke="rgb(0, 0, 0)" stroke-linecap="round" stroke-linejoin="round" stroke-opacity="1.0" stroke-width="3.0"/>
    <path d="M 139.94993591308594 130.98037719726562 C 126.8168716430664 133.63462829589844 138.97544860839844 137.00791931152344 127.15254974365234 145.04428100585938" fill="none" stroke="rgb(0, 0, 0)" stroke-linecap="round" stroke-linejoin="round" stroke-opacity="1.0" stroke-width="3.0"/>
    <path d="M 136.70266723632812 107.22405242919922 C 119.11119079589844 111.8075180053711 135.46080017089844 102.22370147705078 100.1638412475586 107.08253479003906" fill="none" stroke="rgb(0, 0, 0)" stroke-linecap="round" stroke-linejoin="round" stroke-opacity="1.0" stroke-width="3.0"/>
    <path d="M 79.87718200683594 127.86102294921875 C 91.6737289428711 138.59397888183594 96.56513214111328 139.25177001953125 82.4837417602539 134.72402954101562" fill="none" stroke="rgb(0, 0, 0)" stroke-linecap="round" stroke-linejoin="round" stroke-opacity="1.0" stroke-width="3.0"/>
    <path d="M 79.33149719238281 110.15077209472656 C 117.73880004882812 110.6752700805664 83.63956451416016 106.27259063720703 90.40851593017578 135.89065551757812" fill="none" stroke="rgb(0, 0, 0)" stroke-linecap="round" stroke-linejoin="round" stroke-opacity="1.0" stroke-width="3.0"/>
    <path d="M 133.4274444580078 122.64645385742188 C 134.4019317626953 108.01590728759766 111.92481231689453 100.54431915283203 134.1965789794922 103.6942138671875" fill="none" stroke="rgb(0, 0, 0)" stroke-linecap="round" stroke-linejoin="round" stroke-opacity="1.0" stroke-width="3.0"/>
    <path d="M 77.17803192138672 135.5642852783203 C 79.02603912353516 89.7139892578125 67.5082015991211 104.89100646972656 111.00017547607422 100.60584259033203" fill="none" stroke="rgb(0, 0, 0)" stroke-linecap="round" stroke-linejoin="round" stroke-opacity="1.0" stroke-width="3.0"/>
    <path d="M 105.57257843017578 148.6763916015625 C 126.08326721191406 151.0982666015625 128.5435028076172 139.47210693359375 130.33212280273438 143.84326171875" fill="none" stroke="rgb(0, 0, 0)" stroke-linecap="round" stroke-linejoin="round" stroke-opacity="1.0" stroke-width="3.0"/>
    <path d="M 134.45703125 140.77442932128906 C 137.39541625976562 130.80718994140625 134.810546875 148.6906280517578 117.6225814819336 149.34689331054688" fill="none" stroke="rgb(0, 0, 0)" stroke-linecap="round" stroke-linejoin="round" stroke-opacity="1.0" stroke-width="3.0"/>
    <path d="M 142.0230255126953 135.72361755371094 C 143.02244567871094 80.02374267578125 137.4669647216797 89.0694580078125 137.73130798339844 127.32190704345703" fill="none" stroke="rgb(0, 0, 0)" stroke-linecap="round" stroke-linejoin="round" stroke-opacity="1.0" stroke-width="3.0"/>
    <path d="M 115.69844818115234 148.9669952392578 C 101.15129852294922 151.7867431640625 93.0352554321289 141.7986602783203 101.67015838623047 148.09671020507812" fill="none" stroke="rgb(0, 0, 0)" stroke-linecap="round" stroke-linejoin="round" stroke-opacity="1.0" stroke-width="3.0"/>
    <path d="M 99.20138549804688 145.9298858642578 C 83.9934310913086 134.89593505859375 91.40333557128906 126.00881958007812 81.949951171875 131.80490112304688" fill="none" stroke="rgb(0, 0, 0)" stroke-linecap="round" stroke-linejoin="round" stroke-opacity="1.0" stroke-width="3.0"/>
    <path d="M 129.54351806640625 143.57969665527344 C 115.0914535522461 152.25440979003906 123.41165161132812 148.7711181640625 132.22991943359375 138.05799865722656" fill="none" stroke="rgb(0, 0, 0)" stroke-linecap="round" stroke-linejoin="round" stroke-opacity="1.0" stroke-width="3.0"/>
  </g>
</svg>
