<?xml version="1.0" ?>
<svg height="224" version="1.1" width="224" xmlns="http://www.w3.org/2000/svg">
  <defs/>
  <g>
    <path d="M 132.79676818847656 97.27110290527344 C 75.37513732910156 99.12804412841797 87.61638641357422 84.21588134765625 88.06967163085938 125.53421783447266" fill="none" stroke="rgb(0, 0, 0)" stroke-linecap="round" stroke-linejoin="round" stroke-opacity="1.0" stroke-width="3.0"/>
    <path d="M 89.35445404052734 141.55599975585938 C 86.58763885498047 141.7214813232422 91.20951080322266 143.80848693847656 97.6789779663086 144.67657470703125" fill="none" stroke="rgb(0, 0, 0)" stroke-linecap="round" stroke-linejoin="round" stroke-opacity="1.0" stroke-width="3.0"/>
    <path d="M 118.90033721923828 150.015869140625 C 82.08637237548828 140.10089111328125 86.67200469970703 140.73193359375 99.87684631347656 144.66360473632812" fill="none" stroke="rgb(0, 0, 0)" stroke-linecap="round" stroke-linejoin="round" stroke-opacity="1.0" stroke-width="3.0"/>
    <path d="M 138.17404174804688 131.94329833984375 C 139.3230743408203 141.3507537841797 138.19871520996094 135.466552734375 139.02633666992188 117.00846099853516" fill="none" stroke="rgb(0, 0, 0)" stroke-linecap="round" stroke-linejoin="round" stroke-opacity="1.0" stroke-width="3.0"/>
    <path d="M 138.2631072998047 151.02664184570312 C 138.44790649414062 89.26970672607422 140.17330932617188 89.89288330078125 138.44020080566406 122.82559967041016" fill="none" stroke="rgb(0, 0, 0)" stroke-linecap="round" stroke-linejoin="round" stroke-opacity="1.0" stroke-width="3.0"/>
    <path d="M 92.3108139038086 103.29009246826172 C 85.55819702148438 112.61692810058594 87.35454559326172 91.81997680664062 88.18505859375 142.24014282226562" fill="none" stroke="rgb(0, 0, 0)" stroke-linecap="round" stroke-linejoin="round" stroke-opacity="1.0" stroke-width="3.0"/>
    <path d="M 90.3555679321289 142.3992919921875 C 108.1069107055664 147.25575256347656 99.952880859375 146.2462158203125 89.59439086914062 141.74737548828125" fill="none" stroke="rgb(0, 0, 0)" stroke-linecap="round" stroke-linejoin="round" stroke-opacity="1.0" stroke-width="3.0"/>
    <path d="M 92.00830841064453 107.18876647949219 C 120.01673889160156 105.54508972167969 97.4716567993164 114.2039794921875 104.57601165771484 109.78595733642578" fill="none" stroke="rgb(0, 0, 0)" stroke-linecap="round" stroke-linejoin="round" stroke-opacity="1.0" stroke-width="3.0"/>
    <path d="M 138.3011932373047 151.0941162109375 C 132.89869689941406 156.44375610351562 102.20670318603516 144.32786560058594 113.51729583740234 148.85305786132812" fill="none" stroke="rgb(0, 0, 0)" stroke-linecap="round" stroke-linejoin="round" stroke-opacity="1.0" stroke-width="3.0"/>
    <path d="M 101.81392669677734 92.54845428466797 C 80.91903686523438 122.60132598876953 142.23452758789062 94.50658416748047 137.5749969482422 101.08196258544922" fill="none" stroke="rgb(0, 0, 0)" stroke-linecap="round" stroke-linejoin="round" stroke-opacity="1.0" stroke-width="3.0"/>
    <path d="M 122.00245666503906 99.58708190917969 C 121.56156158447266 76.01869201660156 121.3732681274414 93.23887634277344 117.2750473022461 102.88841247558594" fill="none" stroke="rgb(0, 0, 0)" stroke-linecap="round" stroke-linejoin="round" stroke-opacity="1.0" stroke-width="3.0"/>
    <path d="M 110.0686264038086 100.75507354736328 C 145.05258178710938 93.96419525146484 138.65603637695312 105.9448013305664 133.1451873779297 99.4483413696289" fill="none" stroke="rgb(0, 0, 0)" stroke-linecap="round" stroke-linejoin="round" stroke-opacity="1.0" stroke-width="3.0"/>
    <path d="M 91.3152847290039 142.34384155273438 C 110.86460876464844 147.66806030273438 104.43327331542969 146.72589111328125 89.37787628173828 141.77142333984375" fill="none" stroke="rgb(0, 0, 0)" stroke-linecap="round" stroke-linejoin="round" stroke-opacity="1.0" stroke-width="3.0"/>
    <path d="M 137.6945037841797 116.66482543945312 C 138.5757293701172 110.2449951171875 136.99114990234375 112.36824798583984 138.48138427734375 146.0742950439453" fill="none" stroke="rgb(0, 0, 0)" stroke-linecap="round" stroke-linejoin="round" stroke-opacity="1.0" stroke-width="3.0"/>
    <path d="M 121.80238342285156 101.53414154052734 C 106.56627655029297 106.8046646118164 112.25054931640625 106.77385711669922 105.9561996459961 95.0123291015625" fill="none" stroke="rgb(0, 0, 0)" stroke-linecap="round" stroke-linejoin="round" stroke-opacity="1.0" stroke-width="3.0"/>
    <path d="M 138.781982421875 127.93424224853516 C 135.6886749267578 96.23755645751953 147.42088317871094 97.62242889404297 117.81349182128906 101.83071899414062" fill="none" stroke="rgb(0, 0, 0)" stroke-linecap="round" stroke-linejoin="round" stroke-opacity="1.0" stroke-width="3.0"/>
  </g>
</svg>
