<?xml version="1.0" ?>
<svg height="224" version="1.1" width="224" xmlns="http://www.w3.org/2000/svg">
  <defs/>
  <g>
    <path d="M 108.52349853515625 110.12993621826172 C 122.09329223632812 109.8619613647461 114.52201080322266 114.04804992675781 113.20262908935547 136.967529296875" fill="none" stroke="rgb(0, 0, 0)" stroke-linecap="round" stroke-linejoin="round" stroke-opacity="1.0" stroke-width="3.0"/>
    <path d="M 108.9405517578125 113.14706420898438 C 110.42930603027344 146.67970275878906 89.22564697265625 127.55462646484375 115.17057037353516 129.93995666503906" fill="none" stroke="rgb(0, 0, 0)" stroke-linecap="round" stroke-linejoin="round" stroke-opacity="1.0" stroke-width="3.0"/>
    <path d="M 130.33094787597656 113.65552520751953 C 133.5933380126953 137.11160278320312 121.51398468017578 174.6947784423828 125.61331939697266 106.61509704589844" fill="none" stroke="rgb(0, 0, 0)" stroke-linecap="round" stroke-linejoin="round" stroke-opacity="1.0" stroke-width="3.0"/>
    <path d="M 115.46975708007812 99.10570526123047 C 122.75525665283203 145.7638702392578 120.19357299804688 133.29420471191406 103.07061004638672 131.6952667236328" fill="none" stroke="rgb(0, 0, 0)" stroke-linecap="round" stroke-linejoin="round" stroke-opacity="1.0" stroke-width="3.0"/>
    <path d="M 128.0491485595703 141.7339630126953 C 125.62220001220703 150.1333770751953 130.31150817871094 99.66199493408203 119.43441772460938 98.33674621582031" fill="none" stroke="rgb(0, 0, 0)" stroke-linecap="round" stroke-linejoin="round" stroke-opacity="1.0" stroke-width="3.0"/>
    <path d="M 98.77001953125 105.72232818603516 C 110.58917999267578 96.85171508789062 98.69986724853516 111.05654907226562 102.32757568359375 151.68576049804688" fill="none" stroke="rgb(0, 0, 0)" stroke-linecap="round" stroke-linejoin="round" stroke-opacity="1.0" stroke-width="3.0"/>
    <path d="M 102.506591796875 112.47998809814453 C 106.36089324951172 130.041748046875 114.43504333496094 135.05142211914062 114.14777374267578 103.18330383300781" fill="none" stroke="rgb(0, 0, 0)" stroke-linecap="round" stroke-linejoin="round" stroke-opacity="1.0" stroke-width="3.0"/>
    <path d="M 123.78901672363281 138.63818359375 C 93.06034088134766 141.77633666992188 99.01556396484375 175.72508239746094 97.7389907836914 116.18754577636719" fill="none" stroke="rgb(0, 0, 0)" stroke-linecap="round" stroke-linejoin="round" stroke-opacity="1.0" stroke-width="3.0"/>
    <path d="M 99.8961181640625 131.74642944335938 C 99.0836410522461 97.3193359375 103.49713897705078 102.39468383789062 105.220458984375 143.55880737304688" fill="none" stroke="rgb(0, 0, 0)" stroke-linecap="round" stroke-linejoin="round" stroke-opacity="1.0" stroke-width="3.0"/>
    <path d="M 98.77490997314453 100.42282104492188 C 98.18792724609375 132.50982666015625 110.78286743164062 126.23519897460938 106.86058044433594 98.60140991210938" fill="none" stroke="rgb(0, 0, 0)" stroke-linecap="round" stroke-linejoin="round" stroke-opacity="1.0" stroke-width="3.0"/>
    <path d="M 117.44133758544922 137.8998565673828 C 116.29653930664062 114.88062286376953 119.99542999267578 121.42728424072266 99.50833892822266 106.46600341796875" fill="none" stroke="rgb(0, 0, 0)" stroke-linecap="round" stroke-linejoin="round" stroke-opacity="1.0" stroke-width="3.0"/>
    <path d="M 114.04695892333984 121.48223114013672 C 93.68360900878906 106.7516098022461 102.41822052001953 131.92013549804688 103.38004302978516 130.19593811035156" fill="none" stroke="rgb(0, 0, 0)" stroke-linecap="round" stroke-linejoin="round" stroke-opacity="1.0" stroke-width="3.0"/>
    <path d="M 111.53854370117188 123.04463958740234 C 121.09795379638672 142.88888549804688 91.57816314697266 145.92236328125 114.14508819580078 144.72164916992188" fill="none" stroke="rgb(0, 0, 0)" stroke-linecap="round" stroke-linejoin="round" stroke-opacity="1.0" stroke-width="3.0"/>
    <path d="M 103.96842193603516 95.39421844482422 C 145.8750457763672 112.70452117919922 87.60696411132812 96.45545196533203 104.87287139892578 97.24304962158203" fill="none" stroke="rgb(0, 0, 0)" stroke-linecap="round" stroke-linejoin="round" stroke-opacity="1.0" stroke-width="3.0"/>
    <path d="M 115.59972381591797 114.9541244506836 C 100.28640747070312 123.27650451660156 95.02223205566406 124.53535461425781 117.03753662109375 125.4182357788086" fill="none" stroke="rgb(0, 0, 0)" stroke-linecap="round" stroke-linejoin="round" stroke-opacity="1.0" stroke-width="3.0"/>
    <path d="M 115.68948364257812 145.34344482421875 C 114.66606903076172 141.1059112548828 118.05561065673828 136.12109375 98.27531433105469 140.31968688964844" fill="none" stroke="rgb(0, 0, 0)" stroke-linecap="round" stroke-linejoin="round" stroke-opacity="1.0" stroke-width="3.0"/>
  </g>
</svg>
