<?xml version="1.0" ?>
<svg height="224" version="1.1" width="224" xmlns="http://www.w3.org/2000/svg">
  <defs/>
  <g>
    <path d="M 92.9947509765625 138.06004333496094 C 150.30581665039062 146.24473571777344 135.29940795898438 162.6771697998047 133.93540954589844 108.33851623535156" fill="none" stroke="rgb(0, 0, 0)" stroke-linecap="round" stroke-linejoin="round" stroke-opacity="1.0" stroke-width="3.0"/>
    <path d="M 136.2191619873047 134.6102752685547 C 138.8498077392578 113.79105377197266 95.96855163574219 142.18199157714844 137.70179748535156 107.37203216552734" fill="none" stroke="rgb(0, 0, 0)" stroke-linecap="round" stroke-linejoin="round" stroke-opacity="1.0" stroke-width="3.0"/>
    <path d="M 139.1449737548828 117.97149658203125 C 139.0845489501953 44.258480072021484 138.95492553710938 67.8583755493164 138.91622924804688 146.20957946777344" fill="none" stroke="rgb(0, 0, 0)" stroke-linecap="round" stroke-linejoin="round" stroke-opacity="1.0" stroke-width="3.0"/>
    <path d="M 103.84549713134766 101.80559539794922 C 130.93344116210938 137.62281799316406 96.44096374511719 153.05613708496094 96.98885345458984 131.95172119140625" fill="none" stroke="rgb(0, 0, 0)" stroke-linecap="round" stroke-linejoin="round" stroke-opacity="1.0" stroke-width="3.0"/>
    <path d="M 102.7280044555664 141.313232421875 C 85.2156753540039 83.55109405517578 160.65542602539062 136.6133575439453 96.82189178466797 100.52175903320312" fill="none" stroke="rgb(0, 0, 0)" stroke-linecap="round" stroke-linejoin="round" stroke-opacity="1.0" stroke-width="3.0"/>
    <path d="M 133.29959106445312 140.10813903808594 C 115.60736083984375 96.48845672607422 139.35491943359375 96.12368774414062 121.92399597167969 130.8934783935547" fill="none" stroke="rgb(0, 0, 0)" stroke-linecap="round" stroke-linejoin="round" stroke-opacity="1.0" stroke-width="3.0"/>
    <path d="M 137.75567626953125 106.34172058105469 C 85.48028564453125 99.23530578613281 98.6487808227539 126.84696960449219 94.51760864257812 111.36800384521484" fill="none" stroke="rgb(0, 0, 0)" stroke-linecap="round" stroke-linejoin="round" stroke-opacity="1.0" stroke-width="3.0"/>
    <path d="M 130.29348754882812 116.19255828857422 C 142.3821258544922 162.79129028320312 118.0843276977539 145.03292846679688 126.73612213134766 126.08557891845703" fill="none" stroke="rgb(0, 0, 0)" stroke-linecap="round" stroke-linejoin="round" stroke-opacity="1.0" stroke-width="3.0"/>
    <path d="M 92.78388977050781 134.8542938232422 C 94.567626953125 65.36444091796875 102.8226318359375 123.5009765625 99.31258392333984 110.81886291503906" fill="none" stroke="rgb(0, 0, 0)" stroke-linecap="round" stroke-linejoin="round" stroke-opacity="1.0" stroke-width="3.0"/>
    <path d="M 135.8916473388672 139.8171844482422 C 92.36678314208984 120.80396270751953 135.37258911132812 165.7720489501953 114.34331512451172 107.81697845458984" fill="none" stroke="rgb(0, 0, 0)" stroke-linecap="round" stroke-linejoin="round" stroke-opacity="1.0" stroke-width="3.0"/>
    <path d="M 114.1441421508789 95.18672180175781 C 126.38395690917969 149.88995361328125 130.61094665527344 158.47499084472656 135.328857421875 97.33186340332031" fill="none" stroke="rgb(0, 0, 0)" stroke-linecap="round" stroke-linejoin="round" stroke-opacity="1.0" stroke-width="3.0"/>
    <path d="M 100.87726593017578 100.33844757080078 C 147.59129333496094 97.25175476074219 102.69527435302734 112.75701904296875 112.85362243652344 94.38888549804688" fill="none" stroke="rgb(0, 0, 0)" stroke-linecap="round" stroke-linejoin="round" stroke-opacity="1.0" stroke-width="3.0"/>
    <path d="M 103.39175415039062 141.98992919921875 C 99.4247055053711 159.3583984375 142.0453338623047 122.03954315185547 104.8434066772461 144.24844360351562" fill="none" stroke="rgb(0, 0, 0)" stroke-linecap="round" stroke-linejoin="round" stroke-opacity="1.0" stroke-width="3.0"/>
    <path d="M 124.29676818847656 142.70388793945312 C 128.90487670898438 115.85336303710938 167.6348114013672 109.405029296875 98.18073272705078 106.6484146118164" fill="none" stroke="rgb(0, 0, 0)" stroke-linecap="round" stroke-linejoin="round" stroke-opacity="1.0" stroke-width="3.0"/>
    <path d="M 114.63050079345703 98.87989044189453 C 110.7175064086914 140.91517639160156 165.45440673828125 126.77543640136719 117.98526763916016 106.56353759765625" fill="none" stroke="rgb(0, 0, 0)" stroke-linecap="round" stroke-linejoin="round" stroke-opacity="1.0" stroke-width="3.0"/>
    <path d="M 136.50497436523438 142.54502868652344 C 96.46865844726562 152.0488739013672 138.4026336669922 77.2494888305664 122.93658447265625 141.76995849609375" fill="none" stroke="rgb(0, 0, 0)" stroke-linecap="round" stroke-linejoin="round" stroke-opacity="1.0" stroke-width="3.0"/>
  </g>
</svg>
