<?xml version="1.0" ?>
<svg height="224" version="1.1" width="224" xmlns="http://www.w3.org/2000/svg">
  <defs/>
  <g>
    <path d="M 138.41781616210938 77.02420043945312 C 125.30962371826172 108.48035430908203 127.62251281738281 101.79056549072266 115.04975128173828 137.365966796875" fill="none" stroke="rgb(0, 0, 0)" stroke-linecap="round" stroke-linejoin="round" stroke-opacity="1.0" stroke-width="3.0"/>
    <path d="M 118.72064208984375 139.58731079101562 C 121.82533264160156 150.18490600585938 143.5957794189453 151.84385681152344 112.59921264648438 153.873291015625" fill="none" stroke="rgb(0, 0, 0)" stroke-linecap="round" stroke-linejoin="round" stroke-opacity="1.0" stroke-width="3.0"/>
    <path d="M 101.30510711669922 119.98919677734375 C 73.55965423583984 55.937313079833984 76.31900787353516 64.92560577392578 76.30348205566406 63.97629928588867" fill="none" stroke="rgb(0, 0, 0)" stroke-linecap="round" stroke-linejoin="round" stroke-opacity="1.0" stroke-width="3.0"/>
    <path d="M 107.388427734375 99.43605041503906 C 106.41092681884766 81.69403076171875 104.30828094482422 111.98153686523438 124.10186004638672 91.36029815673828" fill="none" stroke="rgb(0, 0, 0)" stroke-linecap="round" stroke-linejoin="round" stroke-opacity="1.0" stroke-width="3.0"/>
    <path d="M 105.87430572509766 138.7837371826172 C 107.78401947021484 118.43431091308594 90.09918212890625 111.14971923828125 110.94525146484375 133.55958557128906" fill="none" stroke="rgb(0, 0, 0)" stroke-linecap="round" stroke-linejoin="round" stroke-opacity="1.0" stroke-width="3.0"/>
    <path d="M 119.96320343017578 97.1830825805664 C 97.15150451660156 92.47293853759766 110.88416290283203 59.68791580200195 102.04932403564453 86.60597229003906" fill="none" stroke="rgb(0, 0, 0)" stroke-linecap="round" stroke-linejoin="round" stroke-opacity="1.0" stroke-width="3.0"/>
    <path d="M 76.48246002197266 65.23577117919922 C 74.00672149658203 64.82394409179688 81.1439437866211 62.95379638671875 77.2785415649414 64.51597595214844" fill="none" stroke="rgb(0, 0, 0)" stroke-linecap="round" stroke-linejoin="round" stroke-opacity="1.0" stroke-width="3.0"/>
    <path d="M 133.34539794921875 84.68832397460938 C 116.14981079101562 53.38214874267578 143.26412963867188 96.26265716552734 134.3878936767578 75.43128967285156" fill="none" stroke="rgb(0, 0, 0)" stroke-linecap="round" stroke-linejoin="round" stroke-opacity="1.0" stroke-width="3.0"/>
    <path d="M 114.27318572998047 153.82659912109375 C 84.0375747680664 151.86122131347656 92.5365982055664 152.16372680664062 101.98628997802734 138.6243133544922" fill="none" stroke="rgb(0, 0, 0)" stroke-linecap="round" stroke-linejoin="round" stroke-opacity="1.0" stroke-width="3.0"/>
    <path d="M 124.14546966552734 85.17488861083984 C 128.67152404785156 102.89789581298828 96.02291107177734 109.1980209350586 101.26656341552734 81.68937683105469" fill="none" stroke="rgb(0, 0, 0)" stroke-linecap="round" stroke-linejoin="round" stroke-opacity="1.0" stroke-width="3.0"/>
    <path d="M 77.38402557373047 63.36494064331055 C 142.65330505371094 72.8434066772461 108.71289825439453 67.56388854980469 113.85359191894531 68.7192611694336" fill="none" stroke="rgb(0, 0, 0)" stroke-linecap="round" stroke-linejoin="round" stroke-opacity="1.0" stroke-width="3.0"/>
    <path d="M 107.76283264160156 97.88385772705078 C 93.73326110839844 84.5976333618164 129.42567443847656 117.7340087890625 127.24874114990234 82.7261962890625" fill="none" stroke="rgb(0, 0, 0)" stroke-linecap="round" stroke-linejoin="round" stroke-opacity="1.0" stroke-width="3.0"/>
    <path d="M 75.0625228881836 66.11225891113281 C 73.00410461425781 66.6522216796875 73.3970947265625 62.69748306274414 77.78623962402344 67.90872192382812" fill="none" stroke="rgb(0, 0, 0)" stroke-linecap="round" stroke-linejoin="round" stroke-opacity="1.0" stroke-width="3.0"/>
    <path d="M 115.93013000488281 98.30997467041016 C 73.99052429199219 79.98223114013672 133.86021423339844 56.0822639465332 124.97099304199219 92.95323944091797" fill="none" stroke="rgb(0, 0, 0)" stroke-linecap="round" stroke-linejoin="round" stroke-opacity="1.0" stroke-width="3.0"/>
    <path d="M 106.29362487792969 131.24722290039062 C 88.05016326904297 90.74530792236328 83.351806640625 84.17308044433594 74.51496887207031 66.93781280517578" fill="none" stroke="rgb(0, 0, 0)" stroke-linecap="round" stroke-linejoin="round" stroke-opacity="1.0" stroke-width="3.0"/>
    <path d="M 111.58858489990234 68.50643920898438 C 111.39376068115234 68.94023895263672 159.15269470214844 76.8073501586914 130.8545684814453 75.15792846679688" fill="none" stroke="rgb(0, 0, 0)" stroke-linecap="round" stroke-linejoin="round" stroke-opacity="1.0" stroke-width="3.0"/>
  </g>
</svg>
