<?xml version="1.0" ?>
<svg height="224" version="1.1" width="224" xmlns="http://www.w3.org/2000/svg">
  <defs/>
  <g>
    <path d="M 112.10417175292969 81.48930358886719 C 98.60745239257812 189.00509643554688 135.6668243408203 103.64691162109375 121.3116226196289 102.21961975097656" fill="none" stroke="rgb(0, 0, 0)" stroke-linecap="round" stroke-linejoin="round" stroke-opacity="1.0" stroke-width="3.0"/>
    <path d="M 92.53669738769531 112.90953063964844 C 129.4364471435547 104.65555572509766 69.71082305908203 116.38855743408203 73.68010711669922 114.55461120605469" fill="none" stroke="rgb(0, 0, 0)" stroke-linecap="round" stroke-linejoin="round" stroke-opacity="1.0" stroke-width="3.0"/>
    <path d="M 93.0351333618164 186.40084838867188 C 100.55960845947266 189.42926025390625 57.1578254699707 187.77920532226562 74.34278106689453 182.94674682617188" fill="none" stroke="rgb(0, 0, 0)" stroke-linecap="round" stroke-linejoin="round" stroke-opacity="1.0" stroke-width="3.0"/>
    <path d="M 73.64981842041016 117.31788635253906 C 76.77949523925781 201.7259521484375 71.0433578491211 177.9232635498047 74.15943145751953 180.6187744140625" fill="none" stroke="rgb(0, 0, 0)" stroke-linecap="round" stroke-linejoin="round" stroke-opacity="1.0" stroke-width="3.0"/>
    <path d="M 112.55419921875 134.25880432128906 C 113.16673278808594 68.54137420654297 120.23353576660156 71.29584503173828 118.29041290283203 129.25193786621094" fill="none" stroke="rgb(0, 0, 0)" stroke-linecap="round" stroke-linejoin="round" stroke-opacity="1.0" stroke-width="3.0"/>
    <path d="M 111.73750305175781 134.9822540283203 C 119.20671844482422 128.46414184570312 115.04703521728516 47.73569107055664 118.02496337890625 130.50030517578125" fill="none" stroke="rgb(0, 0, 0)" stroke-linecap="round" stroke-linejoin="round" stroke-opacity="1.0" stroke-width="3.0"/>
    <path d="M 72.02747344970703 182.88165283203125 C 105.97966766357422 195.18092346191406 85.0518798828125 184.299072265625 86.92932891845703 185.3550262451172" fill="none" stroke="rgb(0, 0, 0)" stroke-linecap="round" stroke-linejoin="round" stroke-opacity="1.0" stroke-width="3.0"/>
    <path d="M 120.85704803466797 126.01888275146484 C 118.5871353149414 78.09331512451172 122.2410659790039 87.98160552978516 121.99908447265625 122.15897369384766" fill="none" stroke="rgb(0, 0, 0)" stroke-linecap="round" stroke-linejoin="round" stroke-opacity="1.0" stroke-width="3.0"/>
    <path d="M 99.840087890625 156.03521728515625 C 104.21932983398438 136.96279907226562 93.76032257080078 235.10169982910156 98.2818832397461 113.33058166503906" fill="none" stroke="rgb(0, 0, 0)" stroke-linecap="round" stroke-linejoin="round" stroke-opacity="1.0" stroke-width="3.0"/>
    <path d="M 104.95421600341797 166.2152557373047 C 89.80377960205078 202.14219665527344 83.87642669677734 173.16973876953125 76.56603240966797 185.33702087402344" fill="none" stroke="rgb(0, 0, 0)" stroke-linecap="round" stroke-linejoin="round" stroke-opacity="1.0" stroke-width="3.0"/>
    <path d="M 72.63897705078125 181.41854858398438 C 104.15082550048828 179.92880249023438 103.66395568847656 188.12852478027344 73.13127136230469 182.93946838378906" fill="none" stroke="rgb(0, 0, 0)" stroke-linecap="round" stroke-linejoin="round" stroke-opacity="1.0" stroke-width="3.0"/>
    <path d="M 125.81645965576172 108.06825256347656 C 120.72883605957031 81.10197448730469 97.01141357421875 52.772457122802734 101.08253479003906 145.28854370117188" fill="none" stroke="rgb(0, 0, 0)" stroke-linecap="round" stroke-linejoin="round" stroke-opacity="1.0" stroke-width="3.0"/>
    <path d="M 103.4110107421875 146.29153442382812 C 102.59490203857422 36.136871337890625 106.72819519042969 272.91943359375 94.18903350830078 113.55490112304688" fill="none" stroke="rgb(0, 0, 0)" stroke-linecap="round" stroke-linejoin="round" stroke-opacity="1.0" stroke-width="3.0"/>
    <path d="M 74.43539428710938 174.82925415039062 C 105.94083404541016 179.9343719482422 100.16645050048828 174.19285583496094 90.25655364990234 184.9233856201172" fill="none" stroke="rgb(0, 0, 0)" stroke-linecap="round" stroke-linejoin="round" stroke-opacity="1.0" stroke-width="3.0"/>
    <path d="M 93.21683502197266 183.73228454589844 C 56.45225143432617 179.036376953125 70.06806182861328 177.7074737548828 94.28246307373047 181.27223205566406" fill="none" stroke="rgb(0, 0, 0)" stroke-linecap="round" stroke-linejoin="round" stroke-opacity="1.0" stroke-width="3.0"/>
    <path d="M 122.89425659179688 108.51089477539062 C 104.84494018554688 182.0561981201172 100.37689208984375 100.25155639648438 106.4946060180664 85.88876342773438" fill="none" stroke="rgb(0, 0, 0)" stroke-linecap="round" stroke-linejoin="round" stroke-opacity="1.0" stroke-width="3.0"/>
  </g>
</svg>
