<?xml version="1.0" ?>
<svg height="224" version="1.1" width="224" xmlns="http://www.w3.org/2000/svg">
  <defs/>
  <g>
    <path d="M 97.3391342163086 94.84063720703125 C 84.2104721069336 105.26740264892578 155.8933868408203 107.86884307861328 103.07131958007812 93.72626495361328" fill="none" stroke="rgb(0, 0, 0)" stroke-linecap="round" stroke-linejoin="round" stroke-opacity="1.0" stroke-width="3.0"/>
    <path d="M 99.07083129882812 159.8972930908203 C 92.93976593017578 173.56871032714844 91.49465942382812 172.0964813232422 107.06367492675781 148.3268280029297" fill="none" stroke="rgb(0, 0, 0)" stroke-linecap="round" stroke-linejoin="round" stroke-opacity="1.0" stroke-width="3.0"/>
    <path d="M 123.14102935791016 149.73681640625 C 99.45848846435547 171.66574096679688 109.41555786132812 161.06756591796875 98.70073699951172 170.9840545654297" fill="none" stroke="rgb(0, 0, 0)" stroke-linecap="round" stroke-linejoin="round" stroke-opacity="1.0" stroke-width="3.0"/>
    <path d="M 127.3014907836914 112.67729949951172 C 129.86880493164062 129.02162170410156 121.49901580810547 144.31211853027344 134.7698516845703 134.85986328125" fill="none" stroke="rgb(0, 0, 0)" stroke-linecap="round" stroke-linejoin="round" stroke-opacity="1.0" stroke-width="3.0"/>
    <path d="M 76.06349182128906 133.90130615234375 C 75.2421875 132.2914581298828 75.7974853515625 125.51802062988281 76.09671783447266 161.61387634277344" fill="none" stroke="rgb(0, 0, 0)" stroke-linecap="round" stroke-linejoin="round" stroke-opacity="1.0" stroke-width="3.0"/>
    <path d="M 137.6507110595703 139.12005615234375 C 123.39420318603516 143.79930114746094 139.44473266601562 144.08387756347656 113.31834411621094 149.99899291992188" fill="none" stroke="rgb(0, 0, 0)" stroke-linecap="round" stroke-linejoin="round" stroke-opacity="1.0" stroke-width="3.0"/>
    <path d="M 96.48011016845703 174.30032348632812 C 72.04532623291016 169.90786743164062 76.17691040039062 170.63648986816406 74.81287384033203 163.45941162109375" fill="none" stroke="rgb(0, 0, 0)" stroke-linecap="round" stroke-linejoin="round" stroke-opacity="1.0" stroke-width="3.0"/>
    <path d="M 127.32606506347656 128.80032348632812 C 132.65658569335938 126.0250244140625 118.11739349365234 125.70767211914062 136.02735900878906 128.23435974121094" fill="none" stroke="rgb(0, 0, 0)" stroke-linecap="round" stroke-linejoin="round" stroke-opacity="1.0" stroke-width="3.0"/>
    <path d="M 76.68370819091797 95.75154113769531 C 75.53728485107422 118.2584228515625 76.14768981933594 149.7689208984375 75.79912567138672 140.147216796875" fill="none" stroke="rgb(0, 0, 0)" stroke-linecap="round" stroke-linejoin="round" stroke-opacity="1.0" stroke-width="3.0"/>
    <path d="M 133.85098266601562 139.73109436035156 C 135.48883056640625 103.11123657226562 130.71783447265625 118.79923248291016 128.75643920898438 146.5928497314453" fill="none" stroke="rgb(0, 0, 0)" stroke-linecap="round" stroke-linejoin="round" stroke-opacity="1.0" stroke-width="3.0"/>
    <path d="M 96.60047912597656 173.91534423828125 C 105.33138275146484 167.11231994628906 99.80699157714844 172.0502166748047 100.83439636230469 169.7987518310547" fill="none" stroke="rgb(0, 0, 0)" stroke-linecap="round" stroke-linejoin="round" stroke-opacity="1.0" stroke-width="3.0"/>
    <path d="M 112.32266235351562 158.48843383789062 C 104.8448257446289 81.97422790527344 129.33460998535156 80.26152038574219 121.23101806640625 150.5680389404297" fill="none" stroke="rgb(0, 0, 0)" stroke-linecap="round" stroke-linejoin="round" stroke-opacity="1.0" stroke-width="3.0"/>
    <path d="M 128.6158447265625 132.38714599609375 C 139.99911499023438 123.1607666015625 138.56671142578125 155.0073699951172 137.74249267578125 121.98982238769531" fill="none" stroke="rgb(0, 0, 0)" stroke-linecap="round" stroke-linejoin="round" stroke-opacity="1.0" stroke-width="3.0"/>
    <path d="M 78.48988342285156 92.85275268554688 C 80.05577087402344 93.73748016357422 105.96957397460938 81.3788070678711 106.80348205566406 102.96195220947266" fill="none" stroke="rgb(0, 0, 0)" stroke-linecap="round" stroke-linejoin="round" stroke-opacity="1.0" stroke-width="3.0"/>
    <path d="M 109.20704650878906 96.96791076660156 C 132.35348510742188 106.01374053955078 115.18943786621094 92.459716796875 118.25752258300781 152.04710388183594" fill="none" stroke="rgb(0, 0, 0)" stroke-linecap="round" stroke-linejoin="round" stroke-opacity="1.0" stroke-width="3.0"/>
    <path d="M 129.53826904296875 116.99396514892578 C 109.4267807006836 91.7850112915039 88.25902557373047 99.23837280273438 121.36878204345703 110.02592468261719" fill="none" stroke="rgb(0, 0, 0)" stroke-linecap="round" stroke-linejoin="round" stroke-opacity="1.0" stroke-width="3.0"/>
  </g>
</svg>
