<?xml version="1.0" ?>
<svg height="224" version="1.1" width="224" xmlns="http://www.w3.org/2000/svg">
  <defs/>
  <g>
    <path d="M 170.58729553222656 83.7252426147461 C 67.36383819580078 83.28084564208984 71.84669494628906 83.98299407958984 75.1456069946289 85.696533203125" fill="none" stroke="rgb(0, 0, 0)" stroke-linecap="round" stroke-linejoin="round" stroke-opacity="1.0" stroke-width="3.0"/>
    <path d="M 71.27278137207031 123.21110534667969 C 66.32907104492188 121.70555114746094 89.82086181640625 124.62568664550781 88.81915283203125 122.37194061279297" fill="none" stroke="rgb(0, 0, 0)" stroke-linecap="round" stroke-linejoin="round" stroke-opacity="1.0" stroke-width="3.0"/>
    <path d="M 60.97989273071289 146.46627807617188 C 77.1142578125 146.5435333251953 103.92891693115234 146.6761016845703 161.41119384765625 144.7500762939453" fill="none" stroke="rgb(0, 0, 0)" stroke-linecap="round" stroke-linejoin="round" stroke-opacity="1.0" stroke-width="3.0"/>
    <path d="M 150.4073944091797 154.02650451660156 C 24.865074157714844 154.9275665283203 56.33632278442383 174.85867309570312 60.42268753051758 117.51300811767578" fill="none" stroke="rgb(0, 0, 0)" stroke-linecap="round" stroke-linejoin="round" stroke-opacity="1.0" stroke-width="3.0"/>
    <path d="M 152.81065368652344 143.04649353027344 C 162.04164123535156 142.37893676757812 175.9780731201172 116.76141357421875 152.08453369140625 93.64236450195312" fill="none" stroke="rgb(0, 0, 0)" stroke-linecap="round" stroke-linejoin="round" stroke-opacity="1.0" stroke-width="3.0"/>
    <path d="M 170.63217163085938 91.27652740478516 C 170.3815155029297 73.72589111328125 169.41549682617188 97.9132308959961 170.8447723388672 119.23777770996094" fill="none" stroke="rgb(0, 0, 0)" stroke-linecap="round" stroke-linejoin="round" stroke-opacity="1.0" stroke-width="3.0"/>
    <path d="M 170.3278350830078 88.85250854492188 C 170.90232849121094 127.6900863647461 170.1516876220703 127.69681549072266 170.75927734375 149.7357635498047" fill="none" stroke="rgb(0, 0, 0)" stroke-linecap="round" stroke-linejoin="round" stroke-opacity="1.0" stroke-width="3.0"/>
    <path d="M 170.2739715576172 85.80270385742188 C 170.65609741210938 79.79996490478516 170.53750610351562 97.73221588134766 170.56068420410156 150.78475952148438" fill="none" stroke="rgb(0, 0, 0)" stroke-linecap="round" stroke-linejoin="round" stroke-opacity="1.0" stroke-width="3.0"/>
    <path d="M 121.90486145019531 90.10270690917969 C 80.07040405273438 77.13460540771484 89.81249237060547 89.04390716552734 82.57162475585938 85.96744537353516" fill="none" stroke="rgb(0, 0, 0)" stroke-linecap="round" stroke-linejoin="round" stroke-opacity="1.0" stroke-width="3.0"/>
    <path d="M 152.3076171875 93.29730987548828 C 147.38540649414062 85.57795715332031 144.28076171875 90.60030364990234 99.45763397216797 92.85430908203125" fill="none" stroke="rgb(0, 0, 0)" stroke-linecap="round" stroke-linejoin="round" stroke-opacity="1.0" stroke-width="3.0"/>
    <path d="M 87.62487030029297 146.0449981689453 C 82.96135711669922 147.22010803222656 69.42059326171875 145.81405639648438 72.81920623779297 146.33485412597656" fill="none" stroke="rgb(0, 0, 0)" stroke-linecap="round" stroke-linejoin="round" stroke-opacity="1.0" stroke-width="3.0"/>
    <path d="M 154.37173461914062 153.66952514648438 C 175.5884552001953 152.63397216796875 176.0716552734375 152.3191375732422 139.92678833007812 153.57943725585938" fill="none" stroke="rgb(0, 0, 0)" stroke-linecap="round" stroke-linejoin="round" stroke-opacity="1.0" stroke-width="3.0"/>
    <path d="M 88.67887878417969 85.4224624633789 C 96.83296203613281 81.33301544189453 40.168800354003906 84.37543487548828 92.03070831298828 83.83172607421875" fill="none" stroke="rgb(0, 0, 0)" stroke-linecap="round" stroke-linejoin="round" stroke-opacity="1.0" stroke-width="3.0"/>
    <path d="M 60.253597259521484 123.8984603881836 C 61.54843521118164 117.84819793701172 55.70175552368164 134.94696044921875 67.35186004638672 83.8525161743164" fill="none" stroke="rgb(0, 0, 0)" stroke-linecap="round" stroke-linejoin="round" stroke-opacity="1.0" stroke-width="3.0"/>
    <path d="M 100.09539031982422 84.05152893066406 C 56.81277847290039 83.70006561279297 87.05304718017578 81.54541015625 87.29752349853516 87.01021575927734" fill="none" stroke="rgb(0, 0, 0)" stroke-linecap="round" stroke-linejoin="round" stroke-opacity="1.0" stroke-width="3.0"/>
    <path d="M 69.9603500366211 118.3261489868164 C 76.11444091796875 90.92367553710938 65.54578399658203 94.74351501464844 91.46778869628906 94.15298461914062" fill="none" stroke="rgb(0, 0, 0)" stroke-linecap="round" stroke-linejoin="round" stroke-opacity="1.0" stroke-width="3.0"/>
  </g>
</svg>
