<?xml version="1.0" ?>
<svg height="224" version="1.1" width="224" xmlns="http://www.w3.org/2000/svg">
  <defs/>
  <g>
    <path d="M 97.79155731201172 94.33123016357422 C 138.12905883789062 96.65190887451172 111.30462646484375 87.26367950439453 109.49925994873047 95.26594543457031" fill="none" stroke="rgb(0, 0, 0)" stroke-linecap="round" stroke-linejoin="round" stroke-opacity="1.0" stroke-width="3.0"/>
    <path d="M 60.419219970703125 87.3554916381836 C 58.72724914550781 161.41986083984375 59.26087951660156 139.85964965820312 59.500022888183594 132.8795928955078" fill="none" stroke="rgb(0, 0, 0)" stroke-linecap="round" stroke-linejoin="round" stroke-opacity="1.0" stroke-width="3.0"/>
    <path d="M 121.65721893310547 87.74351501464844 C 188.75096130371094 84.40373229980469 166.8404083251953 87.90251922607422 158.48599243164062 86.7847671508789" fill="none" stroke="rgb(0, 0, 0)" stroke-linecap="round" stroke-linejoin="round" stroke-opacity="1.0" stroke-width="3.0"/>
    <path d="M 112.98554992675781 120.07940673828125 C 111.3652114868164 93.38964080810547 106.61044311523438 124.44697570800781 122.94804382324219 97.58460235595703" fill="none" stroke="rgb(0, 0, 0)" stroke-linecap="round" stroke-linejoin="round" stroke-opacity="1.0" stroke-width="3.0"/>
    <path d="M 171.02200317382812 87.68650817871094 C 169.44677734375 127.76231384277344 170.5561981201172 114.67098999023438 166.94412231445312 146.67819213867188" fill="none" stroke="rgb(0, 0, 0)" stroke-linecap="round" stroke-linejoin="round" stroke-opacity="1.0" stroke-width="3.0"/>
    <path d="M 165.56732177734375 137.7390899658203 C 169.51547241210938 107.36251068115234 166.06735229492188 202.89456176757812 171.00823974609375 93.34656524658203" fill="none" stroke="rgb(0, 0, 0)" stroke-linecap="round" stroke-linejoin="round" stroke-opacity="1.0" stroke-width="3.0"/>
    <path d="M 159.2533721923828 125.60807800292969 C 148.66586303710938 139.04031372070312 177.74363708496094 111.8121337890625 147.81837463378906 98.9092788696289" fill="none" stroke="rgb(0, 0, 0)" stroke-linecap="round" stroke-linejoin="round" stroke-opacity="1.0" stroke-width="3.0"/>
    <path d="M 167.0981903076172 148.21328735351562 C 89.98660278320312 151.79910278320312 118.5035171508789 152.2547607421875 92.19576263427734 151.76502990722656" fill="none" stroke="rgb(0, 0, 0)" stroke-linecap="round" stroke-linejoin="round" stroke-opacity="1.0" stroke-width="3.0"/>
    <path d="M 58.700706481933594 151.78497314453125 C 59.333396911621094 128.77230834960938 60.39855194091797 142.1193389892578 59.791481018066406 139.49130249023438" fill="none" stroke="rgb(0, 0, 0)" stroke-linecap="round" stroke-linejoin="round" stroke-opacity="1.0" stroke-width="3.0"/>
    <path d="M 125.08055877685547 90.72693634033203 C 77.05950927734375 94.8558120727539 69.74483489990234 92.0753402709961 115.92781829833984 91.65962982177734" fill="none" stroke="rgb(0, 0, 0)" stroke-linecap="round" stroke-linejoin="round" stroke-opacity="1.0" stroke-width="3.0"/>
    <path d="M 59.2766227722168 152.04116821289062 C 241.9215545654297 153.76223754882812 156.1913604736328 144.03773498535156 59.81862258911133 143.5131072998047" fill="none" stroke="rgb(0, 0, 0)" stroke-linecap="round" stroke-linejoin="round" stroke-opacity="1.0" stroke-width="3.0"/>
    <path d="M 116.4453353881836 130.7725830078125 C 50.323760986328125 129.8936309814453 18.575624465942383 136.1077880859375 153.87225341796875 131.4209747314453" fill="none" stroke="rgb(0, 0, 0)" stroke-linecap="round" stroke-linejoin="round" stroke-opacity="1.0" stroke-width="3.0"/>
    <path d="M 60.46068572998047 85.37643432617188 C 150.1649627685547 85.54875183105469 135.2942657470703 86.58167266845703 137.5317840576172 90.49990844726562" fill="none" stroke="rgb(0, 0, 0)" stroke-linecap="round" stroke-linejoin="round" stroke-opacity="1.0" stroke-width="3.0"/>
    <path d="M 101.52068328857422 91.028076171875 C 139.6710205078125 80.4031753540039 95.20843505859375 125.49266815185547 135.34901428222656 133.61212158203125" fill="none" stroke="rgb(0, 0, 0)" stroke-linecap="round" stroke-linejoin="round" stroke-opacity="1.0" stroke-width="3.0"/>
    <path d="M 115.47923278808594 128.51760864257812 C 44.77348709106445 134.8599395751953 57.91576385498047 135.92787170410156 86.28112030029297 134.81781005859375" fill="none" stroke="rgb(0, 0, 0)" stroke-linecap="round" stroke-linejoin="round" stroke-opacity="1.0" stroke-width="3.0"/>
    <path d="M 65.42253875732422 97.98116302490234 C 116.92529296875 96.38850402832031 28.3595027923584 103.0570068359375 148.16390991210938 98.16165161132812" fill="none" stroke="rgb(0, 0, 0)" stroke-linecap="round" stroke-linejoin="round" stroke-opacity="1.0" stroke-width="3.0"/>
  </g>
</svg>
