<?xml version="1.0" ?>
<svg height="224" version="1.1" width="224" xmlns="http://www.w3.org/2000/svg">
  <defs/>
  <g>
    <path d="M 113.62289428710938 98.45722198486328 C 128.53179931640625 120.2694091796875 145.5823211669922 102.90821075439453 100.92520141601562 101.38832092285156" fill="none" stroke="rgb(0, 0, 0)" stroke-linecap="round" stroke-linejoin="round" stroke-opacity="1.0" stroke-width="3.0"/>
    <path d="M 109.19670104980469 102.1740493774414 C 133.02658081054688 94.20823669433594 123.21946716308594 145.2963104248047 130.25338745117188 118.04959869384766" fill="none" stroke="rgb(0, 0, 0)" stroke-linecap="round" stroke-linejoin="round" stroke-opacity="1.0" stroke-width="3.0"/>
    <path d="M 126.52337646484375 117.82152557373047 C 111.01061248779297 150.2323760986328 76.91658020019531 91.67867279052734 130.73570251464844 104.89339447021484" fill="none" stroke="rgb(0, 0, 0)" stroke-linecap="round" stroke-linejoin="round" stroke-opacity="1.0" stroke-width="3.0"/>
    <path d="M 104.02730560302734 120.9857406616211 C 132.11044311523438 135.9790496826172 147.09791564941406 102.70925903320312 88.78135681152344 106.78746032714844" fill="none" stroke="rgb(0, 0, 0)" stroke-linecap="round" stroke-linejoin="round" stroke-opacity="1.0" stroke-width="3.0"/>
    <path d="M 112.2114028930664 101.43193054199219 C 114.61772918701172 112.06132507324219 93.1969985961914 77.78959655761719 99.24685668945312 124.29830169677734" fill="none" stroke="rgb(0, 0, 0)" stroke-linecap="round" stroke-linejoin="round" stroke-opacity="1.0" stroke-width="3.0"/>
    <path d="M 102.10401916503906 120.88873291015625 C 115.72469329833984 104.69536590576172 91.00912475585938 82.62759399414062 103.82237243652344 122.66607666015625" fill="none" stroke="rgb(0, 0, 0)" stroke-linecap="round" stroke-linejoin="round" stroke-opacity="1.0" stroke-width="3.0"/>
    <path d="M 107.68449401855469 105.39337921142578 C 103.54928588867188 144.9507598876953 97.83927154541016 113.07289123535156 103.09580993652344 103.31974792480469" fill="none" stroke="rgb(0, 0, 0)" stroke-linecap="round" stroke-linejoin="round" stroke-opacity="1.0" stroke-width="3.0"/>
    <path d="M 108.28330993652344 108.34662628173828 C 96.38817596435547 132.03921508789062 130.0247039794922 131.25257873535156 123.1351318359375 107.0" fill="none" stroke="rgb(0, 0, 0)" stroke-linecap="round" stroke-linejoin="round" stroke-opacity="1.0" stroke-width="3.0"/>
    <path d="M 88.02727508544922 108.61749267578125 C 92.36241912841797 134.4171142578125 77.4527816772461 121.34430694580078 127.97623443603516 125.13732147216797" fill="none" stroke="rgb(0, 0, 0)" stroke-linecap="round" stroke-linejoin="round" stroke-opacity="1.0" stroke-width="3.0"/>
    <path d="M 97.49869537353516 122.46493530273438 C 96.708251953125 97.26956176757812 99.49219512939453 90.33631896972656 126.90272521972656 109.31073760986328" fill="none" stroke="rgb(0, 0, 0)" stroke-linecap="round" stroke-linejoin="round" stroke-opacity="1.0" stroke-width="3.0"/>
    <path d="M 110.29344940185547 102.51495361328125 C 95.07833862304688 131.3962860107422 102.49415588378906 130.7526092529297 105.53218841552734 102.48187255859375" fill="none" stroke="rgb(0, 0, 0)" stroke-linecap="round" stroke-linejoin="round" stroke-opacity="1.0" stroke-width="3.0"/>
    <path d="M 115.79397583007812 101.2410888671875 C 92.5821533203125 101.3199234008789 92.83349609375 101.9581527709961 118.00804138183594 100.35441589355469" fill="none" stroke="rgb(0, 0, 0)" stroke-linecap="round" stroke-linejoin="round" stroke-opacity="1.0" stroke-width="3.0"/>
    <path d="M 115.98384857177734 107.79694366455078 C 120.90017700195312 88.56210327148438 100.41072845458984 114.66043853759766 107.43624877929688 120.6032943725586" fill="none" stroke="rgb(0, 0, 0)" stroke-linecap="round" stroke-linejoin="round" stroke-opacity="1.0" stroke-width="3.0"/>
    <path d="M 100.60106658935547 125.25091552734375 C 139.82452392578125 125.44834899902344 129.20233154296875 130.16038513183594 130.3368682861328 105.3714828491211" fill="none" stroke="rgb(0, 0, 0)" stroke-linecap="round" stroke-linejoin="round" stroke-opacity="1.0" stroke-width="3.0"/>
    <path d="M 130.88299560546875 116.54473114013672 C 98.950927734375 64.4767074584961 116.61651611328125 123.49120330810547 130.5797576904297 111.28752136230469" fill="none" stroke="rgb(0, 0, 0)" stroke-linecap="round" stroke-linejoin="round" stroke-opacity="1.0" stroke-width="3.0"/>
    <path d="M 99.31462860107422 117.93989562988281 C 132.40768432617188 83.28840637207031 128.3671417236328 149.93812561035156 105.21504974365234 118.2776107788086" fill="none" stroke="rgb(0, 0, 0)" stroke-linecap="round" stroke-linejoin="round" stroke-opacity="1.0" stroke-width="3.0"/>
  </g>
</svg>
