<?xml version="1.0" ?>
<svg height="224" version="1.1" width="224" xmlns="http://www.w3.org/2000/svg">
  <defs/>
  <g>
    <path d="M 68.78348541259766 82.60691833496094 C 93.0363998413086 80.40604400634766 63.89336013793945 77.22669219970703 105.499755859375 87.34628295898438" fill="none" stroke="rgb(0, 0, 0)" stroke-linecap="round" stroke-linejoin="round" stroke-opacity="1.0" stroke-width="3.0"/>
    <path d="M 149.17506408691406 126.5466079711914 C 111.74869537353516 123.91504669189453 102.77205657958984 121.16832733154297 105.08377075195312 126.66304779052734" fill="none" stroke="rgb(0, 0, 0)" stroke-linecap="round" stroke-linejoin="round" stroke-opacity="1.0" stroke-width="3.0"/>
    <path d="M 154.22903442382812 126.20951080322266 C 60.15129470825195 120.61539459228516 136.14242553710938 141.93482971191406 102.87285614013672 120.49877166748047" fill="none" stroke="rgb(0, 0, 0)" stroke-linecap="round" stroke-linejoin="round" stroke-opacity="1.0" stroke-width="3.0"/>
    <path d="M 101.09954071044922 127.8056640625 C 96.92774963378906 136.28469848632812 128.1576385498047 129.1153564453125 116.9599838256836 126.65970611572266" fill="none" stroke="rgb(0, 0, 0)" stroke-linecap="round" stroke-linejoin="round" stroke-opacity="1.0" stroke-width="3.0"/>
    <path d="M 119.8769760131836 99.35958862304688 C 123.77943420410156 95.00712585449219 89.56219482421875 77.85176086425781 102.8148422241211 136.90716552734375" fill="none" stroke="rgb(0, 0, 0)" stroke-linecap="round" stroke-linejoin="round" stroke-opacity="1.0" stroke-width="3.0"/>
    <path d="M 100.3064193725586 130.5640411376953 C 107.5693359375 132.58181762695312 90.51521301269531 145.23147583007812 109.49128723144531 127.80343627929688" fill="none" stroke="rgb(0, 0, 0)" stroke-linecap="round" stroke-linejoin="round" stroke-opacity="1.0" stroke-width="3.0"/>
    <path d="M 154.04449462890625 124.55108642578125 C 151.71788024902344 81.99687194824219 167.64659118652344 104.33936309814453 101.54029083251953 97.71953582763672" fill="none" stroke="rgb(0, 0, 0)" stroke-linecap="round" stroke-linejoin="round" stroke-opacity="1.0" stroke-width="3.0"/>
    <path d="M 90.90181732177734 143.93243408203125 C 57.84085464477539 141.32843017578125 69.19036865234375 159.02626037597656 68.61062622070312 83.28053283691406" fill="none" stroke="rgb(0, 0, 0)" stroke-linecap="round" stroke-linejoin="round" stroke-opacity="1.0" stroke-width="3.0"/>
    <path d="M 93.91345977783203 126.32776641845703 C 93.1635513305664 133.04998779296875 90.2585220336914 175.22305297851562 95.13814544677734 83.5052490234375" fill="none" stroke="rgb(0, 0, 0)" stroke-linecap="round" stroke-linejoin="round" stroke-opacity="1.0" stroke-width="3.0"/>
    <path d="M 117.47018432617188 119.99057006835938 C 133.87020874023438 134.9261016845703 100.59583282470703 121.13333129882812 105.99183654785156 133.5266571044922" fill="none" stroke="rgb(0, 0, 0)" stroke-linecap="round" stroke-linejoin="round" stroke-opacity="1.0" stroke-width="3.0"/>
    <path d="M 99.36294555664062 90.78817749023438 C 112.80866241455078 195.69113159179688 85.85954284667969 91.77869415283203 114.76014709472656 96.60059356689453" fill="none" stroke="rgb(0, 0, 0)" stroke-linecap="round" stroke-linejoin="round" stroke-opacity="1.0" stroke-width="3.0"/>
    <path d="M 92.50287628173828 141.86325073242188 C 86.82669830322266 143.60452270507812 122.11144256591797 135.55557250976562 100.9082260131836 132.80780029296875" fill="none" stroke="rgb(0, 0, 0)" stroke-linecap="round" stroke-linejoin="round" stroke-opacity="1.0" stroke-width="3.0"/>
    <path d="M 102.74236297607422 89.47769927978516 C 135.12091064453125 91.74462890625 96.70743560791016 101.556884765625 132.96153259277344 97.38050842285156" fill="none" stroke="rgb(0, 0, 0)" stroke-linecap="round" stroke-linejoin="round" stroke-opacity="1.0" stroke-width="3.0"/>
    <path d="M 100.06466674804688 124.02603912353516 C 109.94437408447266 124.7569351196289 181.23304748535156 127.16040802001953 137.08612060546875 124.27062225341797" fill="none" stroke="rgb(0, 0, 0)" stroke-linecap="round" stroke-linejoin="round" stroke-opacity="1.0" stroke-width="3.0"/>
    <path d="M 119.74168395996094 130.71002197265625 C 106.3865737915039 85.92987060546875 149.23828125 101.95028686523438 120.00077819824219 98.16729736328125" fill="none" stroke="rgb(0, 0, 0)" stroke-linecap="round" stroke-linejoin="round" stroke-opacity="1.0" stroke-width="3.0"/>
    <path d="M 98.595458984375 135.4327850341797 C 94.3245620727539 43.885250091552734 116.2003402709961 105.47209930419922 108.28158569335938 82.51278686523438" fill="none" stroke="rgb(0, 0, 0)" stroke-linecap="round" stroke-linejoin="round" stroke-opacity="1.0" stroke-width="3.0"/>
  </g>
</svg>
