<?xml version="1.0" ?>
<svg height="224" version="1.1" width="224" xmlns="http://www.w3.org/2000/svg">
  <defs/>
  <g>
    <path d="M 133.38363647460938 110.32577514648438 C 119.1580581665039 123.26880645751953 127.3784408569336 103.57595825195312 124.00343322753906 142.2777862548828" fill="none" stroke="rgb(0, 0, 0)" stroke-linecap="round" stroke-linejoin="round" stroke-opacity="1.0" stroke-width="3.0"/>
    <path d="M 115.83338928222656 66.61515045166016 C 93.98297119140625 77.16801452636719 139.81614685058594 49.74887466430664 127.80233001708984 98.18099975585938" fill="none" stroke="rgb(0, 0, 0)" stroke-linecap="round" stroke-linejoin="round" stroke-opacity="1.0" stroke-width="3.0"/>
    <path d="M 118.88556671142578 66.2359619140625 C 147.84683227539062 67.41470336914062 142.06932067871094 112.87936401367188 125.40414428710938 116.38526153564453" fill="none" stroke="rgb(0, 0, 0)" stroke-linecap="round" stroke-linejoin="round" stroke-opacity="1.0" stroke-width="3.0"/>
    <path d="M 135.61997985839844 82.28079986572266 C 133.92245483398438 127.54244995117188 87.15992736816406 113.12602233886719 110.05496978759766 69.72116088867188" fill="none" stroke="rgb(0, 0, 0)" stroke-linecap="round" stroke-linejoin="round" stroke-opacity="1.0" stroke-width="3.0"/>
    <path d="M 106.6600570678711 113.13311767578125 C 139.38909912109375 118.5641098022461 135.43028259277344 108.17845916748047 129.6407012939453 115.69376373291016" fill="none" stroke="rgb(0, 0, 0)" stroke-linecap="round" stroke-linejoin="round" stroke-opacity="1.0" stroke-width="3.0"/>
    <path d="M 124.40934753417969 141.72300720214844 C 124.12223815917969 137.40472412109375 122.84991455078125 152.7453155517578 124.93301391601562 122.45123291015625" fill="none" stroke="rgb(0, 0, 0)" stroke-linecap="round" stroke-linejoin="round" stroke-opacity="1.0" stroke-width="3.0"/>
    <path d="M 107.84231567382812 75.16405487060547 C 117.71136474609375 61.461578369140625 138.4057159423828 72.22756958007812 134.1894989013672 99.50041198730469" fill="none" stroke="rgb(0, 0, 0)" stroke-linecap="round" stroke-linejoin="round" stroke-opacity="1.0" stroke-width="3.0"/>
    <path d="M 130.42552185058594 115.168212890625 C 115.5483627319336 124.54910278320312 144.619873046875 118.55149841308594 140.61834716796875 88.4834213256836" fill="none" stroke="rgb(0, 0, 0)" stroke-linecap="round" stroke-linejoin="round" stroke-opacity="1.0" stroke-width="3.0"/>
    <path d="M 97.81739044189453 127.43834686279297 C 97.23619079589844 122.08567810058594 98.49602508544922 160.83016967773438 97.8301010131836 117.93953704833984" fill="none" stroke="rgb(0, 0, 0)" stroke-linecap="round" stroke-linejoin="round" stroke-opacity="1.0" stroke-width="3.0"/>
    <path d="M 104.79357147216797 117.80982208251953 C 75.6927490234375 119.96748352050781 74.61917114257812 75.51030731201172 93.93537139892578 70.52137756347656" fill="none" stroke="rgb(0, 0, 0)" stroke-linecap="round" stroke-linejoin="round" stroke-opacity="1.0" stroke-width="3.0"/>
    <path d="M 104.3563232421875 160.11534118652344 C 76.62149047851562 148.15777587890625 85.75645446777344 157.0733184814453 83.63615417480469 138.53903198242188" fill="none" stroke="rgb(0, 0, 0)" stroke-linecap="round" stroke-linejoin="round" stroke-opacity="1.0" stroke-width="3.0"/>
    <path d="M 111.67481994628906 91.72123718261719 C 124.2070541381836 130.22174072265625 138.8252716064453 57.11041259765625 139.6893310546875 95.8509521484375" fill="none" stroke="rgb(0, 0, 0)" stroke-linecap="round" stroke-linejoin="round" stroke-opacity="1.0" stroke-width="3.0"/>
    <path d="M 115.12128448486328 110.64371490478516 C 155.9834747314453 112.7162857055664 116.38350677490234 51.748802185058594 114.07685852050781 92.44126892089844" fill="none" stroke="rgb(0, 0, 0)" stroke-linecap="round" stroke-linejoin="round" stroke-opacity="1.0" stroke-width="3.0"/>
    <path d="M 143.1829071044922 150.65060424804688 C 87.11991882324219 163.33509826660156 112.7908706665039 160.37948608398438 94.4666976928711 156.83154296875" fill="none" stroke="rgb(0, 0, 0)" stroke-linecap="round" stroke-linejoin="round" stroke-opacity="1.0" stroke-width="3.0"/>
    <path d="M 140.91729736328125 92.6515884399414 C 129.15309143066406 52.74285125732422 118.34451293945312 62.0007209777832 91.93852996826172 71.35855865478516" fill="none" stroke="rgb(0, 0, 0)" stroke-linecap="round" stroke-linejoin="round" stroke-opacity="1.0" stroke-width="3.0"/>
    <path d="M 142.37930297851562 146.20681762695312 C 106.3178939819336 136.4578094482422 145.2362518310547 151.3466339111328 85.4273681640625 138.3669891357422" fill="none" stroke="rgb(0, 0, 0)" stroke-linecap="round" stroke-linejoin="round" stroke-opacity="1.0" stroke-width="3.0"/>
  </g>
</svg>
