<?xml version="1.0" ?>
<svg height="224" version="1.1" width="224" xmlns="http://www.w3.org/2000/svg">
  <defs/>
  <g>
    <path d="M 60.120967864990234 93.91852569580078 C 59.01799774169922 93.7347183227539 49.31876754760742 90.08422088623047 111.53522491455078 93.41763305664062" fill="none" stroke="rgb(0, 0, 0)" stroke-linecap="round" stroke-linejoin="round" stroke-opacity="1.0" stroke-width="3.0"/>
    <path d="M 162.31179809570312 149.5621795654297 C 165.4774627685547 153.2475128173828 161.84654235839844 139.5235595703125 162.5460662841797 147.61521911621094" fill="none" stroke="rgb(0, 0, 0)" stroke-linecap="round" stroke-linejoin="round" stroke-opacity="1.0" stroke-width="3.0"/>
    <path d="M 59.353302001953125 93.8724136352539 C 54.27433395385742 97.01937103271484 57.38853454589844 87.417724609375 56.305999755859375 146.563232421875" fill="none" stroke="rgb(0, 0, 0)" stroke-linecap="round" stroke-linejoin="round" stroke-opacity="1.0" stroke-width="3.0"/>
    <path d="M 94.0583724975586 105.25875854492188 C 97.80389404296875 116.82893371582031 69.54499053955078 85.59740447998047 74.78193664550781 104.20369720458984" fill="none" stroke="rgb(0, 0, 0)" stroke-linecap="round" stroke-linejoin="round" stroke-opacity="1.0" stroke-width="3.0"/>
    <path d="M 126.15116882324219 142.4552764892578 C 46.98530197143555 134.04116821289062 77.53290557861328 127.64118194580078 129.96273803710938 149.38714599609375" fill="none" stroke="rgb(0, 0, 0)" stroke-linecap="round" stroke-linejoin="round" stroke-opacity="1.0" stroke-width="3.0"/>
    <path d="M 112.73614501953125 141.06967163085938 C 148.2218780517578 144.4150848388672 145.4285888671875 158.29458618164062 81.13639831542969 141.8189239501953" fill="none" stroke="rgb(0, 0, 0)" stroke-linecap="round" stroke-linejoin="round" stroke-opacity="1.0" stroke-width="3.0"/>
    <path d="M 104.67852783203125 146.7876434326172 C 133.91183471679688 103.85521697998047 73.5121841430664 167.27439880371094 76.26278686523438 138.0374755859375" fill="none" stroke="rgb(0, 0, 0)" stroke-linecap="round" stroke-linejoin="round" stroke-opacity="1.0" stroke-width="3.0"/>
    <path d="M 133.00244140625 150.56932067871094 C 98.82608032226562 133.42161560058594 118.30850982666016 154.1583709716797 162.6595458984375 150.253173828125" fill="none" stroke="rgb(0, 0, 0)" stroke-linecap="round" stroke-linejoin="round" stroke-opacity="1.0" stroke-width="3.0"/>
    <path d="M 73.54071807861328 148.07373046875 C 77.59416198730469 129.3996124267578 131.00848388671875 139.2574005126953 112.22321319580078 139.24099731445312" fill="none" stroke="rgb(0, 0, 0)" stroke-linecap="round" stroke-linejoin="round" stroke-opacity="1.0" stroke-width="3.0"/>
    <path d="M 162.9285125732422 110.11384582519531 C -98.16876983642578 103.2079849243164 239.65011596679688 109.4346694946289 111.25865173339844 97.90901184082031" fill="none" stroke="rgb(0, 0, 0)" stroke-linecap="round" stroke-linejoin="round" stroke-opacity="1.0" stroke-width="3.0"/>
    <path d="M 61.749481201171875 105.70680236816406 C 105.3101577758789 100.52517700195312 225.92062377929688 109.85831451416016 124.79706573486328 97.28086853027344" fill="none" stroke="rgb(0, 0, 0)" stroke-linecap="round" stroke-linejoin="round" stroke-opacity="1.0" stroke-width="3.0"/>
    <path d="M 55.713836669921875 148.14501953125 C 57.86935043334961 154.02549743652344 44.633453369140625 150.26312255859375 158.40052795410156 151.79937744140625" fill="none" stroke="rgb(0, 0, 0)" stroke-linecap="round" stroke-linejoin="round" stroke-opacity="1.0" stroke-width="3.0"/>
    <path d="M 162.9434051513672 150.18235778808594 C 162.31094360351562 81.53697204589844 171.60922241210938 110.15116882324219 125.01132202148438 100.53132629394531" fill="none" stroke="rgb(0, 0, 0)" stroke-linecap="round" stroke-linejoin="round" stroke-opacity="1.0" stroke-width="3.0"/>
    <path d="M 83.38148498535156 147.8819122314453 C 157.85496520996094 140.49119567871094 134.08816528320312 156.73245239257812 122.06239318847656 148.12327575683594" fill="none" stroke="rgb(0, 0, 0)" stroke-linecap="round" stroke-linejoin="round" stroke-opacity="1.0" stroke-width="3.0"/>
    <path d="M 120.23471069335938 149.131103515625 C 109.6268539428711 114.94921875 129.56422424316406 180.29090881347656 86.92003631591797 132.85150146484375" fill="none" stroke="rgb(0, 0, 0)" stroke-linecap="round" stroke-linejoin="round" stroke-opacity="1.0" stroke-width="3.0"/>
    <path d="M 101.93390655517578 131.5978240966797 C 150.92005920410156 162.12982177734375 105.66446685791016 147.2943878173828 133.65963745117188 150.50621032714844" fill="none" stroke="rgb(0, 0, 0)" stroke-linecap="round" stroke-linejoin="round" stroke-opacity="1.0" stroke-width="3.0"/>
  </g>
</svg>
