<?xml version="1.0" ?>
<svg height="224" version="1.1" width="224" xmlns="http://www.w3.org/2000/svg">
  <defs/>
  <g>
    <path d="M 101.8532943725586 115.63723754882812 C 74.45731353759766 131.06497192382812 158.56622314453125 153.7010498046875 85.18859100341797 138.34051513671875" fill="none" stroke="rgb(0, 0, 0)" stroke-linecap="round" stroke-linejoin="round" stroke-opacity="1.0" stroke-width="3.0"/>
    <path d="M 90.516845703125 131.92330932617188 C 88.05868530273438 157.22125244140625 78.91873168945312 155.86373901367188 123.31388092041016 150.4187774658203" fill="none" stroke="rgb(0, 0, 0)" stroke-linecap="round" stroke-linejoin="round" stroke-opacity="1.0" stroke-width="3.0"/>
    <path d="M 134.6231231689453 97.37938690185547 C 17.995824813842773 93.007080078125 137.74159240722656 95.9303207397461 115.66814422607422 99.56497192382812" fill="none" stroke="rgb(0, 0, 0)" stroke-linecap="round" stroke-linejoin="round" stroke-opacity="1.0" stroke-width="3.0"/>
    <path d="M 121.07725524902344 94.87480926513672 C 174.48374938964844 97.38230895996094 50.982765197753906 97.4798812866211 163.94261169433594 101.14277648925781" fill="none" stroke="rgb(0, 0, 0)" stroke-linecap="round" stroke-linejoin="round" stroke-opacity="1.0" stroke-width="3.0"/>
    <path d="M 126.25773620605469 113.70925903320312 C 58.788002014160156 108.32217407226562 89.68154907226562 116.2716293334961 85.14020538330078 115.7124252319336" fill="none" stroke="rgb(0, 0, 0)" stroke-linecap="round" stroke-linejoin="round" stroke-opacity="1.0" stroke-width="3.0"/>
    <path d="M 164.04177856445312 133.65130615234375 C 165.20706176757812 94.55902862548828 164.05877685546875 89.2957992553711 165.23715209960938 123.43766784667969" fill="none" stroke="rgb(0, 0, 0)" stroke-linecap="round" stroke-linejoin="round" stroke-opacity="1.0" stroke-width="3.0"/>
    <path d="M 99.43922424316406 150.2158203125 C 78.06755065917969 141.15516662597656 71.00386810302734 169.96900939941406 88.20407104492188 139.5203399658203" fill="none" stroke="rgb(0, 0, 0)" stroke-linecap="round" stroke-linejoin="round" stroke-opacity="1.0" stroke-width="3.0"/>
    <path d="M 162.75445556640625 151.20716857910156 C 58.57955551147461 163.30667114257812 113.7774658203125 106.5337905883789 105.9192123413086 144.41024780273438" fill="none" stroke="rgb(0, 0, 0)" stroke-linecap="round" stroke-linejoin="round" stroke-opacity="1.0" stroke-width="3.0"/>
    <path d="M 85.7992935180664 128.12579345703125 C 79.09465026855469 97.75711059570312 81.59129333496094 154.9342803955078 78.87950897216797 122.98960876464844" fill="none" stroke="rgb(0, 0, 0)" stroke-linecap="round" stroke-linejoin="round" stroke-opacity="1.0" stroke-width="3.0"/>
    <path d="M 114.96460723876953 148.72483825683594 C 61.63205337524414 113.5909652709961 145.99851989746094 115.38579559326172 63.23219680786133 107.02127838134766" fill="none" stroke="rgb(0, 0, 0)" stroke-linecap="round" stroke-linejoin="round" stroke-opacity="1.0" stroke-width="3.0"/>
    <path d="M 97.22358703613281 136.60401916503906 C 84.67294311523438 161.8829345703125 15.298107147216797 144.0896759033203 111.8498306274414 149.9114990234375" fill="none" stroke="rgb(0, 0, 0)" stroke-linecap="round" stroke-linejoin="round" stroke-opacity="1.0" stroke-width="3.0"/>
    <path d="M 164.84677124023438 101.59598541259766 C 164.6446075439453 168.12045288085938 165.32977294921875 150.81192016601562 163.7901611328125 138.55970764160156" fill="none" stroke="rgb(0, 0, 0)" stroke-linecap="round" stroke-linejoin="round" stroke-opacity="1.0" stroke-width="3.0"/>
    <path d="M 58.80853271484375 108.48255157470703 C 56.33274459838867 92.89144897460938 58.43476867675781 48.13850402832031 57.717411041259766 153.0404052734375" fill="none" stroke="rgb(0, 0, 0)" stroke-linecap="round" stroke-linejoin="round" stroke-opacity="1.0" stroke-width="3.0"/>
    <path d="M 114.04154968261719 150.31817626953125 C 45.05890655517578 153.40399169921875 32.58970642089844 154.70855712890625 142.80548095703125 153.0570526123047" fill="none" stroke="rgb(0, 0, 0)" stroke-linecap="round" stroke-linejoin="round" stroke-opacity="1.0" stroke-width="3.0"/>
    <path d="M 165.216064453125 104.44701385498047 C 163.9748992919922 106.2076644897461 164.0796356201172 92.78980255126953 163.91310119628906 144.145751953125" fill="none" stroke="rgb(0, 0, 0)" stroke-linecap="round" stroke-linejoin="round" stroke-opacity="1.0" stroke-width="3.0"/>
    <path d="M 163.9474639892578 145.85946655273438 C 164.39907836914062 100.11007690429688 166.1907196044922 115.50553894042969 164.42918395996094 100.98792266845703" fill="none" stroke="rgb(0, 0, 0)" stroke-linecap="round" stroke-linejoin="round" stroke-opacity="1.0" stroke-width="3.0"/>
  </g>
</svg>
