<?xml version="1.0" ?>
<svg height="224" version="1.1" width="224" xmlns="http://www.w3.org/2000/svg">
  <defs/>
  <g>
    <path d="M 112.74515533447266 102.44095611572266 C 108.15705871582031 96.4307861328125 117.90955352783203 88.5772476196289 113.55799865722656 113.55863952636719" fill="none" stroke="rgb(0, 0, 0)" stroke-linecap="round" stroke-linejoin="round" stroke-opacity="1.0" stroke-width="3.0"/>
    <path d="M 97.23054504394531 110.93317413330078 C 58.87862777709961 121.2418441772461 64.29876708984375 120.14385223388672 98.02796173095703 113.71412658691406" fill="none" stroke="rgb(0, 0, 0)" stroke-linecap="round" stroke-linejoin="round" stroke-opacity="1.0" stroke-width="3.0"/>
    <path d="M 65.44756317138672 124.3004379272461 C 64.35057067871094 110.2059555053711 60.69635772705078 121.35344696044922 85.39606475830078 115.18742370605469" fill="none" stroke="rgb(0, 0, 0)" stroke-linecap="round" stroke-linejoin="round" stroke-opacity="1.0" stroke-width="3.0"/>
    <path d="M 99.95178985595703 130.1257781982422 C 46.48999786376953 127.47595977783203 53.47581481933594 123.7705078125 101.07076263427734 122.83538055419922" fill="none" stroke="rgb(0, 0, 0)" stroke-linecap="round" stroke-linejoin="round" stroke-opacity="1.0" stroke-width="3.0"/>
    <path d="M 74.77579498291016 94.03353881835938 C 115.8771743774414 87.64531707763672 103.15274810791016 101.43566131591797 102.86642456054688 95.52290344238281" fill="none" stroke="rgb(0, 0, 0)" stroke-linecap="round" stroke-linejoin="round" stroke-opacity="1.0" stroke-width="3.0"/>
    <path d="M 102.54689025878906 125.32398986816406 C 99.31168365478516 103.84212493896484 98.70201110839844 87.77661895751953 102.51508331298828 93.72036743164062" fill="none" stroke="rgb(0, 0, 0)" stroke-linecap="round" stroke-linejoin="round" stroke-opacity="1.0" stroke-width="3.0"/>
    <path d="M 107.09838104248047 103.78608703613281 C 107.61781311035156 114.06575012207031 132.92843627929688 110.2633285522461 106.74150085449219 105.3422622680664" fill="none" stroke="rgb(0, 0, 0)" stroke-linecap="round" stroke-linejoin="round" stroke-opacity="1.0" stroke-width="3.0"/>
    <path d="M 69.18392944335938 115.51445007324219 C 106.64675903320312 106.05607604980469 112.35362243652344 111.19877624511719 82.7450942993164 115.08102416992188" fill="none" stroke="rgb(0, 0, 0)" stroke-linecap="round" stroke-linejoin="round" stroke-opacity="1.0" stroke-width="3.0"/>
    <path d="M 64.20956420898438 93.09141540527344 C 87.29025268554688 93.13121032714844 68.42815399169922 93.595947265625 66.56394958496094 92.80818939208984" fill="none" stroke="rgb(0, 0, 0)" stroke-linecap="round" stroke-linejoin="round" stroke-opacity="1.0" stroke-width="3.0"/>
    <path d="M 108.0596923828125 95.16521453857422 C 111.19396209716797 146.42733764648438 102.19863891601562 122.478759765625 105.55899810791016 99.76871490478516" fill="none" stroke="rgb(0, 0, 0)" stroke-linecap="round" stroke-linejoin="round" stroke-opacity="1.0" stroke-width="3.0"/>
    <path d="M 103.82813262939453 126.95450592041016 C 74.21282958984375 123.39793395996094 57.62478256225586 126.9098129272461 100.23117065429688 118.62226867675781" fill="none" stroke="rgb(0, 0, 0)" stroke-linecap="round" stroke-linejoin="round" stroke-opacity="1.0" stroke-width="3.0"/>
    <path d="M 121.59225463867188 109.32870483398438 C 124.45101165771484 127.73464965820312 110.99871063232422 119.42228698730469 110.65424346923828 102.41508483886719" fill="none" stroke="rgb(0, 0, 0)" stroke-linecap="round" stroke-linejoin="round" stroke-opacity="1.0" stroke-width="3.0"/>
    <path d="M 99.02005767822266 121.38717651367188 C 53.442142486572266 123.5472183227539 64.88166809082031 143.53350830078125 62.81191635131836 92.72810363769531" fill="none" stroke="rgb(0, 0, 0)" stroke-linecap="round" stroke-linejoin="round" stroke-opacity="1.0" stroke-width="3.0"/>
    <path d="M 66.79640197753906 93.1375732421875 C 89.6756362915039 92.75141143798828 58.603397369384766 93.51386260986328 64.39122009277344 93.66521453857422" fill="none" stroke="rgb(0, 0, 0)" stroke-linecap="round" stroke-linejoin="round" stroke-opacity="1.0" stroke-width="3.0"/>
    <path d="M 113.55995178222656 122.22042846679688 C 130.09564208984375 112.42355346679688 110.4632797241211 124.48966979980469 109.79471588134766 102.30238342285156" fill="none" stroke="rgb(0, 0, 0)" stroke-linecap="round" stroke-linejoin="round" stroke-opacity="1.0" stroke-width="3.0"/>
    <path d="M 110.52290344238281 118.40909576416016 C 125.98564147949219 100.559326171875 112.9652328491211 134.0543975830078 111.62313079833984 112.61811065673828" fill="none" stroke="rgb(0, 0, 0)" stroke-linecap="round" stroke-linejoin="round" stroke-opacity="1.0" stroke-width="3.0"/>
  </g>
</svg>
