<?xml version="1.0" ?>
<svg height="224" version="1.1" width="224" xmlns="http://www.w3.org/2000/svg">
  <defs/>
  <g>
    <path d="M 82.05426025390625 125.53150177001953 C 93.14514923095703 104.1301498413086 88.11135864257812 123.62454986572266 121.05419158935547 127.7858657836914" fill="none" stroke="rgb(0, 0, 0)" stroke-linecap="round" stroke-linejoin="round" stroke-opacity="1.0" stroke-width="3.0"/>
    <path d="M 102.8323974609375 120.00994873046875 C 96.36035919189453 91.26371002197266 56.60419464111328 115.98786163330078 114.06575775146484 130.07827758789062" fill="none" stroke="rgb(0, 0, 0)" stroke-linecap="round" stroke-linejoin="round" stroke-opacity="1.0" stroke-width="3.0"/>
    <path d="M 117.1285629272461 122.91410827636719 C 114.21772766113281 101.52313232421875 120.15345764160156 89.96820068359375 122.71025085449219 122.72740173339844" fill="none" stroke="rgb(0, 0, 0)" stroke-linecap="round" stroke-linejoin="round" stroke-opacity="1.0" stroke-width="3.0"/>
    <path d="M 94.99042510986328 120.7896957397461 C 100.46406555175781 135.09339904785156 90.81422424316406 129.970458984375 80.33159637451172 125.19149780273438" fill="none" stroke="rgb(0, 0, 0)" stroke-linecap="round" stroke-linejoin="round" stroke-opacity="1.0" stroke-width="3.0"/>
    <path d="M 90.17725372314453 129.8333282470703 C 100.87342834472656 269.3150939941406 90.899169921875 159.91127014160156 102.00205993652344 154.5335235595703" fill="none" stroke="rgb(0, 0, 0)" stroke-linecap="round" stroke-linejoin="round" stroke-opacity="1.0" stroke-width="3.0"/>
    <path d="M 86.12199401855469 118.88194274902344 C 113.59942626953125 132.9488067626953 127.66079711914062 120.30547332763672 83.19046020507812 117.51054382324219" fill="none" stroke="rgb(0, 0, 0)" stroke-linecap="round" stroke-linejoin="round" stroke-opacity="1.0" stroke-width="3.0"/>
    <path d="M 115.97704315185547 112.12966918945312 C 68.69230651855469 109.0448989868164 79.54894256591797 113.54033660888672 101.29554748535156 102.63230895996094" fill="none" stroke="rgb(0, 0, 0)" stroke-linecap="round" stroke-linejoin="round" stroke-opacity="1.0" stroke-width="3.0"/>
    <path d="M 123.71697998046875 109.49038696289062 C 126.82313537597656 129.49853515625 111.8051986694336 127.9653549194336 122.94625854492188 108.90546417236328" fill="none" stroke="rgb(0, 0, 0)" stroke-linecap="round" stroke-linejoin="round" stroke-opacity="1.0" stroke-width="3.0"/>
    <path d="M 81.90896606445312 104.61348724365234 C 80.51567077636719 139.01185607910156 75.90693664550781 119.83578491210938 94.21419525146484 130.18711853027344" fill="none" stroke="rgb(0, 0, 0)" stroke-linecap="round" stroke-linejoin="round" stroke-opacity="1.0" stroke-width="3.0"/>
    <path d="M 120.72595977783203 106.14337921142578 C 96.38429260253906 106.62118530273438 110.21487426757812 102.34513854980469 83.12351989746094 105.30988311767578" fill="none" stroke="rgb(0, 0, 0)" stroke-linecap="round" stroke-linejoin="round" stroke-opacity="1.0" stroke-width="3.0"/>
    <path d="M 90.2835693359375 146.697998046875 C 84.86986541748047 186.0060272216797 101.57884979248047 128.04055786132812 100.14820861816406 191.6435546875" fill="none" stroke="rgb(0, 0, 0)" stroke-linecap="round" stroke-linejoin="round" stroke-opacity="1.0" stroke-width="3.0"/>
    <path d="M 95.64073181152344 123.9489974975586 C 90.14075469970703 83.44413757324219 104.52809143066406 79.09846496582031 98.3912353515625 122.11653900146484" fill="none" stroke="rgb(0, 0, 0)" stroke-linecap="round" stroke-linejoin="round" stroke-opacity="1.0" stroke-width="3.0"/>
    <path d="M 108.60446166992188 133.30331420898438 C 101.03225708007812 146.22836303710938 122.07243347167969 158.60269165039062 91.70825958251953 154.0347442626953" fill="none" stroke="rgb(0, 0, 0)" stroke-linecap="round" stroke-linejoin="round" stroke-opacity="1.0" stroke-width="3.0"/>
    <path d="M 99.83116912841797 118.65481567382812 C 135.9225311279297 134.01976013183594 133.32180786132812 104.04994201660156 116.79513549804688 103.90462493896484" fill="none" stroke="rgb(0, 0, 0)" stroke-linecap="round" stroke-linejoin="round" stroke-opacity="1.0" stroke-width="3.0"/>
    <path d="M 83.18511962890625 120.0659408569336 C 105.21247863769531 129.29458618164062 92.14998626708984 129.31353759765625 89.71603393554688 111.0880126953125" fill="none" stroke="rgb(0, 0, 0)" stroke-linecap="round" stroke-linejoin="round" stroke-opacity="1.0" stroke-width="3.0"/>
    <path d="M 114.18859100341797 131.85818481445312 C 67.74285888671875 124.93244171142578 87.5444564819336 121.15222930908203 106.78121185302734 99.82390594482422" fill="none" stroke="rgb(0, 0, 0)" stroke-linecap="round" stroke-linejoin="round" stroke-opacity="1.0" stroke-width="3.0"/>
  </g>
</svg>
