<?xml version="1.0" ?>
<svg height="224" version="1.1" width="224" xmlns="http://www.w3.org/2000/svg">
  <defs/>
  <g>
    <path d="M 101.25110626220703 130.28050231933594 C 96.1339340209961 86.51522064208984 153.49986267089844 115.96452331542969 111.1561279296875 98.1731185913086" fill="none" stroke="rgb(0, 0, 0)" stroke-linecap="round" stroke-linejoin="round" stroke-opacity="1.0" stroke-width="3.0"/>
    <path d="M 108.96126556396484 150.1272735595703 C 111.14419555664062 141.52243041992188 104.64308166503906 153.2957000732422 106.8282470703125 144.06552124023438" fill="none" stroke="rgb(0, 0, 0)" stroke-linecap="round" stroke-linejoin="round" stroke-opacity="1.0" stroke-width="3.0"/>
    <path d="M 112.36183166503906 85.82646942138672 C 168.45286560058594 93.13573455810547 59.46385192871094 92.39942932128906 139.92755126953125 92.84367370605469" fill="none" stroke="rgb(0, 0, 0)" stroke-linecap="round" stroke-linejoin="round" stroke-opacity="1.0" stroke-width="3.0"/>
    <path d="M 137.7233428955078 124.33967590332031 C 133.65916442871094 172.648681640625 58.489044189453125 129.3485870361328 110.11697387695312 100.25328826904297" fill="none" stroke="rgb(0, 0, 0)" stroke-linecap="round" stroke-linejoin="round" stroke-opacity="1.0" stroke-width="3.0"/>
    <path d="M 95.05049896240234 140.82177734375 C 71.95333099365234 151.20077514648438 61.40476989746094 133.72178649902344 95.90660095214844 141.5677947998047" fill="none" stroke="rgb(0, 0, 0)" stroke-linecap="round" stroke-linejoin="round" stroke-opacity="1.0" stroke-width="3.0"/>
    <path d="M 123.60243225097656 86.40774536132812 C 153.0881805419922 123.0641098022461 147.4483184814453 86.93130493164062 110.04702758789062 90.0642318725586" fill="none" stroke="rgb(0, 0, 0)" stroke-linecap="round" stroke-linejoin="round" stroke-opacity="1.0" stroke-width="3.0"/>
    <path d="M 89.85240173339844 101.52180480957031 C 149.81285095214844 80.80316162109375 161.77880859375 150.6179962158203 113.27104949951172 149.9488983154297" fill="none" stroke="rgb(0, 0, 0)" stroke-linecap="round" stroke-linejoin="round" stroke-opacity="1.0" stroke-width="3.0"/>
    <path d="M 125.01627349853516 147.17005920410156 C 126.2801513671875 159.9981231689453 112.3216552734375 143.80838012695312 113.14725494384766 152.19725036621094" fill="none" stroke="rgb(0, 0, 0)" stroke-linecap="round" stroke-linejoin="round" stroke-opacity="1.0" stroke-width="3.0"/>
    <path d="M 98.26009368896484 125.41162872314453 C 110.10009002685547 167.2859649658203 149.8215789794922 156.03106689453125 77.6733169555664 136.7156524658203" fill="none" stroke="rgb(0, 0, 0)" stroke-linecap="round" stroke-linejoin="round" stroke-opacity="1.0" stroke-width="3.0"/>
    <path d="M 74.49347686767578 102.17607879638672 C 73.50407409667969 159.85092163085938 72.00419616699219 138.2755889892578 88.94451904296875 143.80160522460938" fill="none" stroke="rgb(0, 0, 0)" stroke-linecap="round" stroke-linejoin="round" stroke-opacity="1.0" stroke-width="3.0"/>
    <path d="M 89.03639221191406 107.33909606933594 C 87.90479278564453 77.97309112548828 92.6675033569336 123.3122329711914 109.4618148803711 86.81121826171875" fill="none" stroke="rgb(0, 0, 0)" stroke-linecap="round" stroke-linejoin="round" stroke-opacity="1.0" stroke-width="3.0"/>
    <path d="M 142.5753173828125 132.3786163330078 C 125.00337982177734 185.42156982421875 55.29603576660156 123.1973876953125 104.9068832397461 99.65489196777344" fill="none" stroke="rgb(0, 0, 0)" stroke-linecap="round" stroke-linejoin="round" stroke-opacity="1.0" stroke-width="3.0"/>
    <path d="M 146.5930938720703 130.06246948242188 C 140.05294799804688 88.17605590820312 161.5830078125 158.4630584716797 117.04235076904297 152.89552307128906" fill="none" stroke="rgb(0, 0, 0)" stroke-linecap="round" stroke-linejoin="round" stroke-opacity="1.0" stroke-width="3.0"/>
    <path d="M 142.39028930664062 142.0270233154297 C 157.4498748779297 109.67176055908203 141.20912170410156 118.0998764038086 127.65583801269531 85.56681823730469" fill="none" stroke="rgb(0, 0, 0)" stroke-linecap="round" stroke-linejoin="round" stroke-opacity="1.0" stroke-width="3.0"/>
    <path d="M 134.40396118164062 137.7228240966797 C 152.635498046875 101.06104278564453 89.84309387207031 89.68392944335938 74.72515869140625 100.76720428466797" fill="none" stroke="rgb(0, 0, 0)" stroke-linecap="round" stroke-linejoin="round" stroke-opacity="1.0" stroke-width="3.0"/>
    <path d="M 144.13717651367188 118.04666137695312 C 133.94725036621094 94.61459350585938 146.80638122558594 80.17167663574219 142.05149841308594 111.35888671875" fill="none" stroke="rgb(0, 0, 0)" stroke-linecap="round" stroke-linejoin="round" stroke-opacity="1.0" stroke-width="3.0"/>
  </g>
</svg>
