<?xml version="1.0" ?>
<svg height="224" version="1.1" width="224" xmlns="http://www.w3.org/2000/svg">
  <defs/>
  <g>
    <path d="M 82.58179473876953 87.30431365966797 C 146.25927734375 93.70377349853516 61.37039566040039 79.48651123046875 66.7088623046875 89.9591293334961" fill="none" stroke="rgb(0, 0, 0)" stroke-linecap="round" stroke-linejoin="round" stroke-opacity="1.0" stroke-width="3.0"/>
    <path d="M 153.21975708007812 109.01255798339844 C 150.19058227539062 94.1512451171875 158.38150024414062 141.7168426513672 141.4990234375 138.8108673095703" fill="none" stroke="rgb(0, 0, 0)" stroke-linecap="round" stroke-linejoin="round" stroke-opacity="1.0" stroke-width="3.0"/>
    <path d="M 144.2712860107422 95.3918685913086 C 119.53565216064453 78.1816635131836 8.02648639678955 85.89775085449219 129.67977905273438 92.98713684082031" fill="none" stroke="rgb(0, 0, 0)" stroke-linecap="round" stroke-linejoin="round" stroke-opacity="1.0" stroke-width="3.0"/>
    <path d="M 100.4786376953125 80.7870864868164 C 131.15679931640625 87.8410873413086 128.8168182373047 79.33394622802734 130.72059631347656 89.16763305664062" fill="none" stroke="rgb(0, 0, 0)" stroke-linecap="round" stroke-linejoin="round" stroke-opacity="1.0" stroke-width="3.0"/>
    <path d="M 87.61949157714844 145.6302032470703 C 88.38445281982422 150.06192016601562 89.53144073486328 50.961509704589844 97.15325927734375 87.99385833740234" fill="none" stroke="rgb(0, 0, 0)" stroke-linecap="round" stroke-linejoin="round" stroke-opacity="1.0" stroke-width="3.0"/>
    <path d="M 150.77828979492188 109.03618621826172 C 141.91314697265625 96.13612365722656 153.4144744873047 93.89286041259766 131.11477661132812 90.59453582763672" fill="none" stroke="rgb(0, 0, 0)" stroke-linecap="round" stroke-linejoin="round" stroke-opacity="1.0" stroke-width="3.0"/>
    <path d="M 153.306640625 114.58863067626953 C 150.21923828125 103.8491439819336 153.63462829589844 117.98832702636719 151.28712463378906 112.08573150634766" fill="none" stroke="rgb(0, 0, 0)" stroke-linecap="round" stroke-linejoin="round" stroke-opacity="1.0" stroke-width="3.0"/>
    <path d="M 80.6239242553711 79.3292236328125 C 100.5111312866211 80.25173950195312 96.01988220214844 73.49974822998047 100.38505554199219 83.63565063476562" fill="none" stroke="rgb(0, 0, 0)" stroke-linecap="round" stroke-linejoin="round" stroke-opacity="1.0" stroke-width="3.0"/>
    <path d="M 122.06959533691406 125.9854965209961 C 125.41522979736328 143.31207275390625 192.76473999023438 142.54425048828125 94.08325958251953 144.64129638671875" fill="none" stroke="rgb(0, 0, 0)" stroke-linecap="round" stroke-linejoin="round" stroke-opacity="1.0" stroke-width="3.0"/>
    <path d="M 152.38223266601562 119.5053482055664 C 149.33132934570312 119.58661651611328 162.6417236328125 114.12394714355469 144.33204650878906 98.6777572631836" fill="none" stroke="rgb(0, 0, 0)" stroke-linecap="round" stroke-linejoin="round" stroke-opacity="1.0" stroke-width="3.0"/>
    <path d="M 121.51555633544922 125.32657623291016 C 113.12747192382812 88.07049560546875 144.9556427001953 84.09674835205078 153.08811950683594 119.14974975585938" fill="none" stroke="rgb(0, 0, 0)" stroke-linecap="round" stroke-linejoin="round" stroke-opacity="1.0" stroke-width="3.0"/>
    <path d="M 89.64115142822266 93.07208251953125 C 73.71678924560547 68.44438934326172 74.28527069091797 90.16404724121094 85.11693572998047 87.72940063476562" fill="none" stroke="rgb(0, 0, 0)" stroke-linecap="round" stroke-linejoin="round" stroke-opacity="1.0" stroke-width="3.0"/>
    <path d="M 76.66584777832031 152.3527374267578 C 200.37403869628906 145.73631286621094 114.27728271484375 138.9942169189453 117.74893188476562 153.73089599609375" fill="none" stroke="rgb(0, 0, 0)" stroke-linecap="round" stroke-linejoin="round" stroke-opacity="1.0" stroke-width="3.0"/>
    <path d="M 153.4322967529297 116.58647155761719 C 145.52626037597656 96.67558288574219 148.1458282470703 100.46853637695312 151.85560607910156 118.42476654052734" fill="none" stroke="rgb(0, 0, 0)" stroke-linecap="round" stroke-linejoin="round" stroke-opacity="1.0" stroke-width="3.0"/>
    <path d="M 74.05181884765625 151.3628692626953 C 66.3736343383789 130.4346466064453 66.44403839111328 163.31558227539062 67.02342224121094 90.43582916259766" fill="none" stroke="rgb(0, 0, 0)" stroke-linecap="round" stroke-linejoin="round" stroke-opacity="1.0" stroke-width="3.0"/>
    <path d="M 146.5816650390625 102.48780822753906 C 139.60269165039062 85.46741485595703 133.81240844726562 100.01976776123047 125.43009948730469 85.3529052734375" fill="none" stroke="rgb(0, 0, 0)" stroke-linecap="round" stroke-linejoin="round" stroke-opacity="1.0" stroke-width="3.0"/>
  </g>
</svg>
