<?xml version="1.0" ?>
<svg height="224" version="1.1" width="224" xmlns="http://www.w3.org/2000/svg">
  <defs/>
  <g>
    <path d="M 101.36332702636719 129.2515411376953 C 75.6688232421875 96.48381805419922 135.6309051513672 93.27474975585938 91.49042510986328 101.05147552490234" fill="none" stroke="rgb(0, 0, 0)" stroke-linecap="round" stroke-linejoin="round" stroke-opacity="1.0" stroke-width="3.0"/>
    <path d="M 91.25357818603516 89.88951873779297 C 119.87664031982422 92.41532135009766 128.6033477783203 97.59384155273438 94.3887939453125 93.81513214111328" fill="none" stroke="rgb(0, 0, 0)" stroke-linecap="round" stroke-linejoin="round" stroke-opacity="1.0" stroke-width="3.0"/>
    <path d="M 76.86872863769531 132.35006713867188 C 96.74468231201172 125.4555892944336 84.59461212158203 109.19804382324219 85.99751281738281 130.5646209716797" fill="none" stroke="rgb(0, 0, 0)" stroke-linecap="round" stroke-linejoin="round" stroke-opacity="1.0" stroke-width="3.0"/>
    <path d="M 87.93975067138672 129.4955596923828 C 86.66962432861328 58.737220764160156 93.62391662597656 108.26244354248047 102.66566467285156 96.86895751953125" fill="none" stroke="rgb(0, 0, 0)" stroke-linecap="round" stroke-linejoin="round" stroke-opacity="1.0" stroke-width="3.0"/>
    <path d="M 112.32413482666016 132.30484008789062 C 78.81157684326172 124.72872924804688 44.31947708129883 137.29913330078125 91.39822387695312 123.45708465576172" fill="none" stroke="rgb(0, 0, 0)" stroke-linecap="round" stroke-linejoin="round" stroke-opacity="1.0" stroke-width="3.0"/>
    <path d="M 56.22352600097656 104.9997329711914 C 61.57674789428711 141.1524658203125 47.14388656616211 139.02696228027344 92.07174682617188 126.63819885253906" fill="none" stroke="rgb(0, 0, 0)" stroke-linecap="round" stroke-linejoin="round" stroke-opacity="1.0" stroke-width="3.0"/>
    <path d="M 114.97115325927734 120.06277465820312 C 131.76516723632812 157.0152130126953 164.73387145996094 91.85797882080078 117.82640075683594 97.19158172607422" fill="none" stroke="rgb(0, 0, 0)" stroke-linecap="round" stroke-linejoin="round" stroke-opacity="1.0" stroke-width="3.0"/>
    <path d="M 140.592529296875 102.97209930419922 C 119.3491439819336 90.40434265136719 163.746826171875 105.41102600097656 141.46127319335938 130.78604125976562" fill="none" stroke="rgb(0, 0, 0)" stroke-linecap="round" stroke-linejoin="round" stroke-opacity="1.0" stroke-width="3.0"/>
    <path d="M 88.5757827758789 93.29116821289062 C 112.68856048583984 96.04304504394531 116.82780456542969 89.46591186523438 97.54871368408203 98.49797821044922" fill="none" stroke="rgb(0, 0, 0)" stroke-linecap="round" stroke-linejoin="round" stroke-opacity="1.0" stroke-width="3.0"/>
    <path d="M 92.239990234375 102.72815704345703 C 78.58615112304688 145.72500610351562 138.4217529296875 126.53881072998047 66.88024139404297 133.98526000976562" fill="none" stroke="rgb(0, 0, 0)" stroke-linecap="round" stroke-linejoin="round" stroke-opacity="1.0" stroke-width="3.0"/>
    <path d="M 141.21469116210938 110.30271911621094 C 146.93060302734375 92.64720916748047 147.8702392578125 156.29356384277344 119.10890197753906 128.400634765625" fill="none" stroke="rgb(0, 0, 0)" stroke-linecap="round" stroke-linejoin="round" stroke-opacity="1.0" stroke-width="3.0"/>
    <path d="M 91.66722869873047 94.02831268310547 C 116.64154052734375 107.86872863769531 58.250205993652344 86.89322662353516 57.16415023803711 102.60797119140625" fill="none" stroke="rgb(0, 0, 0)" stroke-linecap="round" stroke-linejoin="round" stroke-opacity="1.0" stroke-width="3.0"/>
    <path d="M 104.40413665771484 103.73429870605469 C 144.30958557128906 80.03956604003906 82.28211212158203 96.50497436523438 95.15006256103516 90.65546417236328" fill="none" stroke="rgb(0, 0, 0)" stroke-linecap="round" stroke-linejoin="round" stroke-opacity="1.0" stroke-width="3.0"/>
    <path d="M 95.75321197509766 98.72916412353516 C 62.18231964111328 108.68902587890625 114.15409851074219 75.7388916015625 85.84165954589844 101.7767562866211" fill="none" stroke="rgb(0, 0, 0)" stroke-linecap="round" stroke-linejoin="round" stroke-opacity="1.0" stroke-width="3.0"/>
    <path d="M 136.11256408691406 126.45144653320312 C 149.84739685058594 94.72486877441406 106.59449005126953 91.43624114990234 117.61072540283203 125.31591796875" fill="none" stroke="rgb(0, 0, 0)" stroke-linecap="round" stroke-linejoin="round" stroke-opacity="1.0" stroke-width="3.0"/>
    <path d="M 117.30158233642578 94.62107849121094 C 80.92515563964844 122.21729278564453 125.31455993652344 152.56199645996094 143.21487426757812 126.28173065185547" fill="none" stroke="rgb(0, 0, 0)" stroke-linecap="round" stroke-linejoin="round" stroke-opacity="1.0" stroke-width="3.0"/>
  </g>
</svg>
