<?xml version="1.0" ?>
<svg height="224" version="1.1" width="224" xmlns="http://www.w3.org/2000/svg">
  <defs/>
  <g>
    <path d="M 87.84766387939453 134.6567840576172 C 123.84178924560547 126.33621215820312 105.9788589477539 138.60504150390625 87.80109405517578 134.2915802001953" fill="none" stroke="rgb(0, 0, 0)" stroke-linecap="round" stroke-linejoin="round" stroke-opacity="1.0" stroke-width="3.0"/>
    <path d="M 148.30926513671875 147.54786682128906 C 151.7610321044922 131.9189453125 112.59037780761719 133.4265899658203 77.87059020996094 134.0810089111328" fill="none" stroke="rgb(0, 0, 0)" stroke-linecap="round" stroke-linejoin="round" stroke-opacity="1.0" stroke-width="3.0"/>
    <path d="M 106.40249633789062 113.03572082519531 C 98.24507141113281 91.6404800415039 102.07453918457031 59.66965103149414 104.43093872070312 110.5712890625" fill="none" stroke="rgb(0, 0, 0)" stroke-linecap="round" stroke-linejoin="round" stroke-opacity="1.0" stroke-width="3.0"/>
    <path d="M 107.50485229492188 59.672176361083984 C 85.1458969116211 80.66415405273438 120.8033676147461 174.81280517578125 115.45587921142578 80.39266967773438" fill="none" stroke="rgb(0, 0, 0)" stroke-linecap="round" stroke-linejoin="round" stroke-opacity="1.0" stroke-width="3.0"/>
    <path d="M 102.05658721923828 80.88143157958984 C 117.06138610839844 46.06230926513672 105.12447357177734 54.641780853271484 108.61560821533203 133.4209442138672" fill="none" stroke="rgb(0, 0, 0)" stroke-linecap="round" stroke-linejoin="round" stroke-opacity="1.0" stroke-width="3.0"/>
    <path d="M 110.31272888183594 129.25363159179688 C 137.0540313720703 131.29034423828125 152.9427947998047 133.01194763183594 151.4634246826172 141.27105712890625" fill="none" stroke="rgb(0, 0, 0)" stroke-linecap="round" stroke-linejoin="round" stroke-opacity="1.0" stroke-width="3.0"/>
    <path d="M 84.96290588378906 134.2133331298828 C 158.15374755859375 143.6011505126953 126.74066162109375 121.2880630493164 81.11763763427734 136.5382537841797" fill="none" stroke="rgb(0, 0, 0)" stroke-linecap="round" stroke-linejoin="round" stroke-opacity="1.0" stroke-width="3.0"/>
    <path d="M 108.57575988769531 133.67474365234375 C 146.69786071777344 131.60635375976562 149.79368591308594 132.4217529296875 152.060546875 139.75799560546875" fill="none" stroke="rgb(0, 0, 0)" stroke-linecap="round" stroke-linejoin="round" stroke-opacity="1.0" stroke-width="3.0"/>
    <path d="M 106.22120666503906 62.013851165771484 C 105.65802001953125 127.6096420288086 111.97418975830078 94.90574645996094 105.57256317138672 132.70375061035156" fill="none" stroke="rgb(0, 0, 0)" stroke-linecap="round" stroke-linejoin="round" stroke-opacity="1.0" stroke-width="3.0"/>
    <path d="M 109.5105209350586 117.21720886230469 C 89.16789245605469 80.80325317382812 113.27485656738281 19.433977127075195 118.35980224609375 100.59052276611328" fill="none" stroke="rgb(0, 0, 0)" stroke-linecap="round" stroke-linejoin="round" stroke-opacity="1.0" stroke-width="3.0"/>
    <path d="M 120.71993255615234 85.25077056884766 C 104.85596466064453 59.05244445800781 115.26780700683594 140.33226013183594 112.18386840820312 83.95233154296875" fill="none" stroke="rgb(0, 0, 0)" stroke-linecap="round" stroke-linejoin="round" stroke-opacity="1.0" stroke-width="3.0"/>
    <path d="M 119.7466049194336 131.13961791992188 C 64.74746704101562 138.3211212158203 79.09647369384766 135.21588134765625 141.06936645507812 138.43731689453125" fill="none" stroke="rgb(0, 0, 0)" stroke-linecap="round" stroke-linejoin="round" stroke-opacity="1.0" stroke-width="3.0"/>
    <path d="M 79.10505676269531 134.15623474121094 C 104.48202514648438 132.9430694580078 129.67233276367188 128.85671997070312 76.73096466064453 133.9768829345703" fill="none" stroke="rgb(0, 0, 0)" stroke-linecap="round" stroke-linejoin="round" stroke-opacity="1.0" stroke-width="3.0"/>
    <path d="M 103.69307708740234 66.7642822265625 C 104.43966674804688 151.0143585205078 123.55855560302734 122.16056823730469 114.20305633544922 83.12623596191406" fill="none" stroke="rgb(0, 0, 0)" stroke-linecap="round" stroke-linejoin="round" stroke-opacity="1.0" stroke-width="3.0"/>
    <path d="M 134.46578979492188 151.9675750732422 C 146.74510192871094 158.5612335205078 155.62448120117188 150.786865234375 77.55735778808594 134.6078338623047" fill="none" stroke="rgb(0, 0, 0)" stroke-linecap="round" stroke-linejoin="round" stroke-opacity="1.0" stroke-width="3.0"/>
    <path d="M 138.53407287597656 152.93214416503906 C 61.48819351196289 132.73251342773438 56.61812210083008 136.8992919921875 107.2637710571289 129.19032287597656" fill="none" stroke="rgb(0, 0, 0)" stroke-linecap="round" stroke-linejoin="round" stroke-opacity="1.0" stroke-width="3.0"/>
  </g>
</svg>
