<?xml version="1.0" ?>
<svg height="224" version="1.1" width="224" xmlns="http://www.w3.org/2000/svg">
  <defs/>
  <g>
    <path d="M 88.34929656982422 115.20989990234375 C 119.80290985107422 122.82919311523438 88.10838317871094 87.75691986083984 95.90801239013672 151.69943237304688" fill="none" stroke="rgb(0, 0, 0)" stroke-linecap="round" stroke-linejoin="round" stroke-opacity="1.0" stroke-width="3.0"/>
    <path d="M 152.18478393554688 94.67231750488281 C 178.49636840820312 105.17837524414062 148.4161376953125 109.04314422607422 92.77244567871094 114.71119689941406" fill="none" stroke="rgb(0, 0, 0)" stroke-linecap="round" stroke-linejoin="round" stroke-opacity="1.0" stroke-width="3.0"/>
    <path d="M 111.52608489990234 83.81885528564453 C 133.06704711914062 83.39382934570312 162.58567810058594 100.21949768066406 153.249755859375 94.99037170410156" fill="none" stroke="rgb(0, 0, 0)" stroke-linecap="round" stroke-linejoin="round" stroke-opacity="1.0" stroke-width="3.0"/>
    <path d="M 86.44234466552734 127.57410430908203 C 155.6787567138672 129.42088317871094 140.79806518554688 113.16909790039062 143.3723907470703 147.86175537109375" fill="none" stroke="rgb(0, 0, 0)" stroke-linecap="round" stroke-linejoin="round" stroke-opacity="1.0" stroke-width="3.0"/>
    <path d="M 116.53050994873047 121.15898895263672 C 117.08856964111328 103.62806701660156 128.89328002929688 116.98846435546875 100.44206237792969 112.35851287841797" fill="none" stroke="rgb(0, 0, 0)" stroke-linecap="round" stroke-linejoin="round" stroke-opacity="1.0" stroke-width="3.0"/>
    <path d="M 94.1156234741211 111.97490692138672 C 131.17080688476562 110.60359191894531 144.42100524902344 110.76836395263672 95.26981353759766 115.38412475585938" fill="none" stroke="rgb(0, 0, 0)" stroke-linecap="round" stroke-linejoin="round" stroke-opacity="1.0" stroke-width="3.0"/>
    <path d="M 81.93605041503906 88.35453796386719 C 51.84725570678711 93.68251037597656 63.042240142822266 119.15386962890625 131.638427734375 110.80010986328125" fill="none" stroke="rgb(0, 0, 0)" stroke-linecap="round" stroke-linejoin="round" stroke-opacity="1.0" stroke-width="3.0"/>
    <path d="M 112.41742706298828 122.71121215820312 C 109.1465835571289 99.41072082519531 88.49327850341797 121.33544158935547 109.34148406982422 125.38081359863281" fill="none" stroke="rgb(0, 0, 0)" stroke-linecap="round" stroke-linejoin="round" stroke-opacity="1.0" stroke-width="3.0"/>
    <path d="M 114.30023193359375 112.63191986083984 C 120.7153091430664 133.64564514160156 81.35135650634766 121.74666595458984 127.22213745117188 124.24398803710938" fill="none" stroke="rgb(0, 0, 0)" stroke-linecap="round" stroke-linejoin="round" stroke-opacity="1.0" stroke-width="3.0"/>
    <path d="M 78.61903381347656 96.78238677978516 C 72.41045379638672 136.17379760742188 153.28964233398438 114.411865234375 86.86759185791016 112.61260986328125" fill="none" stroke="rgb(0, 0, 0)" stroke-linecap="round" stroke-linejoin="round" stroke-opacity="1.0" stroke-width="3.0"/>
    <path d="M 129.2939910888672 86.3336181640625 C 100.29785919189453 81.91468811035156 95.53871154785156 81.61810302734375 80.24632263183594 89.75294494628906" fill="none" stroke="rgb(0, 0, 0)" stroke-linecap="round" stroke-linejoin="round" stroke-opacity="1.0" stroke-width="3.0"/>
    <path d="M 94.38220977783203 146.55096435546875 C 81.60096740722656 143.85256958007812 85.11334228515625 155.4373321533203 83.89568328857422 128.73318481445312" fill="none" stroke="rgb(0, 0, 0)" stroke-linecap="round" stroke-linejoin="round" stroke-opacity="1.0" stroke-width="3.0"/>
    <path d="M 85.94248962402344 88.12905883789062 C 65.0248794555664 129.67062377929688 154.36453247070312 124.75109100341797 98.75521850585938 119.92092895507812" fill="none" stroke="rgb(0, 0, 0)" stroke-linecap="round" stroke-linejoin="round" stroke-opacity="1.0" stroke-width="3.0"/>
    <path d="M 98.89200592041016 130.1267852783203 C 184.33551025390625 116.51991271972656 37.771671295166016 134.3323516845703 117.97276306152344 118.15585327148438" fill="none" stroke="rgb(0, 0, 0)" stroke-linecap="round" stroke-linejoin="round" stroke-opacity="1.0" stroke-width="3.0"/>
    <path d="M 92.72801971435547 148.96261596679688 C 97.64138793945312 154.71897888183594 78.0569076538086 155.7602996826172 140.5837860107422 149.0302276611328" fill="none" stroke="rgb(0, 0, 0)" stroke-linecap="round" stroke-linejoin="round" stroke-opacity="1.0" stroke-width="3.0"/>
    <path d="M 69.76396942138672 101.67339324951172 C 73.60713958740234 111.91958618164062 88.1283950805664 112.19923400878906 108.08232116699219 125.06222534179688" fill="none" stroke="rgb(0, 0, 0)" stroke-linecap="round" stroke-linejoin="round" stroke-opacity="1.0" stroke-width="3.0"/>
  </g>
</svg>
