<?xml version="1.0" ?>
<svg height="224" version="1.1" width="224" xmlns="http://www.w3.org/2000/svg">
  <defs/>
  <g>
    <path d="M 160.61749267578125 112.19609832763672 C 90.6898193359375 104.59286499023438 171.3978729248047 135.7829132080078 118.5573959350586 84.29176330566406" fill="none" stroke="rgb(0, 0, 0)" stroke-linecap="round" stroke-linejoin="round" stroke-opacity="1.0" stroke-width="3.0"/>
    <path d="M 94.83795166015625 127.36870574951172 C 121.09043884277344 38.435665130615234 70.91593170166016 124.48223876953125 76.851806640625 92.34258270263672" fill="none" stroke="rgb(0, 0, 0)" stroke-linecap="round" stroke-linejoin="round" stroke-opacity="1.0" stroke-width="3.0"/>
    <path d="M 153.5252685546875 144.80172729492188 C 28.122970581054688 152.3492889404297 67.22884368896484 153.83795166015625 123.9180908203125 149.63682556152344" fill="none" stroke="rgb(0, 0, 0)" stroke-linecap="round" stroke-linejoin="round" stroke-opacity="1.0" stroke-width="3.0"/>
    <path d="M 108.84879302978516 102.36650085449219 C 74.0536880493164 130.3753662109375 95.73933410644531 50.751861572265625 98.92399597167969 119.87789916992188" fill="none" stroke="rgb(0, 0, 0)" stroke-linecap="round" stroke-linejoin="round" stroke-opacity="1.0" stroke-width="3.0"/>
    <path d="M 97.45194244384766 107.67760467529297 C 97.27830505371094 123.36442565917969 105.84918975830078 149.53883361816406 134.65029907226562 135.80380249023438" fill="none" stroke="rgb(0, 0, 0)" stroke-linecap="round" stroke-linejoin="round" stroke-opacity="1.0" stroke-width="3.0"/>
    <path d="M 73.53612518310547 151.25999450683594 C 99.18875885009766 152.9829559326172 170.97988891601562 144.6082763671875 73.99995422363281 143.13563537597656" fill="none" stroke="rgb(0, 0, 0)" stroke-linecap="round" stroke-linejoin="round" stroke-opacity="1.0" stroke-width="3.0"/>
    <path d="M 152.22557067871094 89.03999328613281 C 46.62962341308594 93.4701919555664 45.674644470214844 92.08538818359375 154.2440185546875 91.89104461669922" fill="none" stroke="rgb(0, 0, 0)" stroke-linecap="round" stroke-linejoin="round" stroke-opacity="1.0" stroke-width="3.0"/>
    <path d="M 121.58863830566406 132.90872192382812 C 86.41238403320312 119.072265625 129.9712371826172 94.62565612792969 110.30516052246094 95.97660064697266" fill="none" stroke="rgb(0, 0, 0)" stroke-linecap="round" stroke-linejoin="round" stroke-opacity="1.0" stroke-width="3.0"/>
    <path d="M 130.275634765625 92.43648529052734 C 24.47702407836914 110.95098114013672 76.07530975341797 101.95817565917969 153.14646911621094 96.3277359008789" fill="none" stroke="rgb(0, 0, 0)" stroke-linecap="round" stroke-linejoin="round" stroke-opacity="1.0" stroke-width="3.0"/>
    <path d="M 92.57889556884766 129.2338409423828 C 122.3487548828125 169.9956817626953 60.19779586791992 101.5881118774414 126.33504486083984 95.22303009033203" fill="none" stroke="rgb(0, 0, 0)" stroke-linecap="round" stroke-linejoin="round" stroke-opacity="1.0" stroke-width="3.0"/>
    <path d="M 134.4080047607422 140.40481567382812 C 78.76402282714844 161.47769165039062 171.84376525878906 130.11907958984375 115.6473617553711 104.76441192626953" fill="none" stroke="rgb(0, 0, 0)" stroke-linecap="round" stroke-linejoin="round" stroke-opacity="1.0" stroke-width="3.0"/>
    <path d="M 158.70021057128906 99.80825805664062 C 155.31373596191406 92.22903442382812 172.75228881835938 92.3199234008789 95.96773529052734 95.7082290649414" fill="none" stroke="rgb(0, 0, 0)" stroke-linecap="round" stroke-linejoin="round" stroke-opacity="1.0" stroke-width="3.0"/>
    <path d="M 103.16190338134766 117.49622344970703 C 104.22882080078125 101.66921997070312 152.27105712890625 104.1610336303711 101.6732406616211 105.79846954345703" fill="none" stroke="rgb(0, 0, 0)" stroke-linecap="round" stroke-linejoin="round" stroke-opacity="1.0" stroke-width="3.0"/>
    <path d="M 163.550048828125 102.31580352783203 C 160.0081329345703 159.09075927734375 174.77076721191406 135.4168243408203 126.97785186767578 145.98739624023438" fill="none" stroke="rgb(0, 0, 0)" stroke-linecap="round" stroke-linejoin="round" stroke-opacity="1.0" stroke-width="3.0"/>
    <path d="M 70.10987854003906 95.1240234375 C 69.98977661132812 205.20977783203125 70.36137390136719 110.94831848144531 69.79522705078125 115.35800170898438" fill="none" stroke="rgb(0, 0, 0)" stroke-linecap="round" stroke-linejoin="round" stroke-opacity="1.0" stroke-width="3.0"/>
    <path d="M 161.04254150390625 100.61538696289062 C 36.433929443359375 99.15576171875 61.2919921875 90.70883178710938 150.64479064941406 86.79113006591797" fill="none" stroke="rgb(0, 0, 0)" stroke-linecap="round" stroke-linejoin="round" stroke-opacity="1.0" stroke-width="3.0"/>
  </g>
</svg>
