<?xml version="1.0" ?>
<svg height="224" version="1.1" width="224" xmlns="http://www.w3.org/2000/svg">
  <defs/>
  <g>
    <path d="M 114.70661926269531 107.89779663085938 C 112.5474853515625 127.66328430175781 113.27593994140625 127.12105560302734 110.40673828125 93.82051086425781" fill="none" stroke="rgb(0, 0, 0)" stroke-linecap="round" stroke-linejoin="round" stroke-opacity="1.0" stroke-width="3.0"/>
    <path d="M 97.02991485595703 118.79513549804688 C 101.71073913574219 87.71539306640625 122.72954559326172 132.1459503173828 108.46100616455078 107.49884796142578" fill="none" stroke="rgb(0, 0, 0)" stroke-linecap="round" stroke-linejoin="round" stroke-opacity="1.0" stroke-width="3.0"/>
    <path d="M 106.12074279785156 123.8411865234375 C 116.09864044189453 105.82040405273438 118.17523193359375 101.98120880126953 104.25535583496094 123.18500518798828" fill="none" stroke="rgb(0, 0, 0)" stroke-linecap="round" stroke-linejoin="round" stroke-opacity="1.0" stroke-width="3.0"/>
    <path d="M 110.04271697998047 107.94332885742188 C 137.9340057373047 124.05122375488281 98.93598175048828 98.7044906616211 96.3134765625 109.4151611328125" fill="none" stroke="rgb(0, 0, 0)" stroke-linecap="round" stroke-linejoin="round" stroke-opacity="1.0" stroke-width="3.0"/>
    <path d="M 97.59479522705078 90.1426010131836 C 133.1006622314453 98.28916931152344 108.45020294189453 87.12840270996094 109.82080078125 114.55591583251953" fill="none" stroke="rgb(0, 0, 0)" stroke-linecap="round" stroke-linejoin="round" stroke-opacity="1.0" stroke-width="3.0"/>
    <path d="M 99.43327331542969 96.17230224609375 C 131.0111083984375 123.68883514404297 121.65229797363281 94.10302734375 130.14910888671875 136.45143127441406" fill="none" stroke="rgb(0, 0, 0)" stroke-linecap="round" stroke-linejoin="round" stroke-opacity="1.0" stroke-width="3.0"/>
    <path d="M 96.19832611083984 90.17398834228516 C 90.64418029785156 128.91249084472656 86.796142578125 121.87075805664062 116.85391998291016 128.25985717773438" fill="none" stroke="rgb(0, 0, 0)" stroke-linecap="round" stroke-linejoin="round" stroke-opacity="1.0" stroke-width="3.0"/>
    <path d="M 115.01746368408203 103.51093292236328 C 95.15038299560547 90.59840393066406 79.4267807006836 125.00662231445312 114.87633514404297 124.45013427734375" fill="none" stroke="rgb(0, 0, 0)" stroke-linecap="round" stroke-linejoin="round" stroke-opacity="1.0" stroke-width="3.0"/>
    <path d="M 129.94686889648438 138.76959228515625 C 113.09461212158203 134.2512969970703 118.0378646850586 146.06118774414062 122.21702575683594 115.25557708740234" fill="none" stroke="rgb(0, 0, 0)" stroke-linecap="round" stroke-linejoin="round" stroke-opacity="1.0" stroke-width="3.0"/>
    <path d="M 114.30154418945312 99.2873764038086 C 63.87373352050781 85.78483581542969 126.35296630859375 147.0841827392578 95.18896484375 110.08722686767578" fill="none" stroke="rgb(0, 0, 0)" stroke-linecap="round" stroke-linejoin="round" stroke-opacity="1.0" stroke-width="3.0"/>
    <path d="M 103.25202941894531 122.1826400756836 C 82.05859375 95.44047546386719 104.93265533447266 153.0358428955078 97.60222625732422 97.28508758544922" fill="none" stroke="rgb(0, 0, 0)" stroke-linecap="round" stroke-linejoin="round" stroke-opacity="1.0" stroke-width="3.0"/>
    <path d="M 108.51203918457031 124.02129364013672 C 119.86683654785156 104.03812408447266 98.09016418457031 110.10240173339844 115.127197265625 105.84284210205078" fill="none" stroke="rgb(0, 0, 0)" stroke-linecap="round" stroke-linejoin="round" stroke-opacity="1.0" stroke-width="3.0"/>
    <path d="M 103.39632415771484 101.22451782226562 C 98.66478729248047 113.34896850585938 135.69749450683594 92.75375366210938 97.15609741210938 107.95289611816406" fill="none" stroke="rgb(0, 0, 0)" stroke-linecap="round" stroke-linejoin="round" stroke-opacity="1.0" stroke-width="3.0"/>
    <path d="M 118.47786712646484 126.54553985595703 C 86.13265228271484 104.72420501708984 86.69768524169922 135.62924194335938 100.36475372314453 114.88243865966797" fill="none" stroke="rgb(0, 0, 0)" stroke-linecap="round" stroke-linejoin="round" stroke-opacity="1.0" stroke-width="3.0"/>
    <path d="M 99.90525817871094 99.65866088867188 C 112.61710357666016 95.97322845458984 74.84122467041016 120.64466094970703 120.25362396240234 116.52995300292969" fill="none" stroke="rgb(0, 0, 0)" stroke-linecap="round" stroke-linejoin="round" stroke-opacity="1.0" stroke-width="3.0"/>
    <path d="M 108.3717269897461 117.1241683959961 C 106.3312759399414 107.53231048583984 124.27184295654297 97.01031494140625 97.1534194946289 95.55343627929688" fill="none" stroke="rgb(0, 0, 0)" stroke-linecap="round" stroke-linejoin="round" stroke-opacity="1.0" stroke-width="3.0"/>
  </g>
</svg>
