<?xml version="1.0" ?>
<svg height="224" version="1.1" width="224" xmlns="http://www.w3.org/2000/svg">
  <defs/>
  <g>
    <path d="M 84.28772735595703 132.3250274658203 C 81.67938232421875 108.29249572753906 91.08126831054688 97.97676086425781 86.49937438964844 145.67938232421875" fill="none" stroke="rgb(0, 0, 0)" stroke-linecap="round" stroke-linejoin="round" stroke-opacity="1.0" stroke-width="3.0"/>
    <path d="M 94.5323715209961 123.89462280273438 C 142.33929443359375 138.29075622558594 131.8675537109375 140.04884338378906 140.17666625976562 96.67525482177734" fill="none" stroke="rgb(0, 0, 0)" stroke-linecap="round" stroke-linejoin="round" stroke-opacity="1.0" stroke-width="3.0"/>
    <path d="M 96.1734619140625 91.0396499633789 C 132.81390380859375 84.0975570678711 170.27694702148438 69.08528900146484 139.25656127929688 119.0524673461914" fill="none" stroke="rgb(0, 0, 0)" stroke-linecap="round" stroke-linejoin="round" stroke-opacity="1.0" stroke-width="3.0"/>
    <path d="M 98.66758728027344 122.0238037109375 C 90.97644805908203 108.00407409667969 111.01968383789062 119.8617935180664 68.09783172607422 114.51823425292969" fill="none" stroke="rgb(0, 0, 0)" stroke-linecap="round" stroke-linejoin="round" stroke-opacity="1.0" stroke-width="3.0"/>
    <path d="M 88.83443450927734 112.709716796875 C 82.7284927368164 157.35292053222656 96.14463806152344 154.82424926757812 82.02686309814453 113.7016830444336" fill="none" stroke="rgb(0, 0, 0)" stroke-linecap="round" stroke-linejoin="round" stroke-opacity="1.0" stroke-width="3.0"/>
    <path d="M 65.65558624267578 141.8743896484375 C 133.35768127441406 135.0269775390625 55.667945861816406 162.53335571289062 60.14235305786133 129.38287353515625" fill="none" stroke="rgb(0, 0, 0)" stroke-linecap="round" stroke-linejoin="round" stroke-opacity="1.0" stroke-width="3.0"/>
    <path d="M 80.24024963378906 115.7108154296875 C 85.80126190185547 155.23611450195312 61.04396057128906 149.82839965820312 95.52131652832031 144.22872924804688" fill="none" stroke="rgb(0, 0, 0)" stroke-linecap="round" stroke-linejoin="round" stroke-opacity="1.0" stroke-width="3.0"/>
    <path d="M 66.70130920410156 102.33277893066406 C 70.37188720703125 97.29006958007812 64.15835571289062 98.4901123046875 66.73125457763672 114.00936126708984" fill="none" stroke="rgb(0, 0, 0)" stroke-linecap="round" stroke-linejoin="round" stroke-opacity="1.0" stroke-width="3.0"/>
    <path d="M 156.7071990966797 96.2716064453125 C 74.30491638183594 101.77042388916016 77.08001708984375 120.47186279296875 148.72796630859375 96.39632415771484" fill="none" stroke="rgb(0, 0, 0)" stroke-linecap="round" stroke-linejoin="round" stroke-opacity="1.0" stroke-width="3.0"/>
    <path d="M 60.28696060180664 141.9399871826172 C 113.16081237792969 146.56747436523438 87.57288360595703 140.25120544433594 59.89156723022461 138.9880828857422" fill="none" stroke="rgb(0, 0, 0)" stroke-linecap="round" stroke-linejoin="round" stroke-opacity="1.0" stroke-width="3.0"/>
    <path d="M 151.5892791748047 78.48902893066406 C 181.10174560546875 104.67810821533203 123.17280578613281 102.95233917236328 149.79229736328125 98.2940444946289" fill="none" stroke="rgb(0, 0, 0)" stroke-linecap="round" stroke-linejoin="round" stroke-opacity="1.0" stroke-width="3.0"/>
    <path d="M 68.42645263671875 103.30370330810547 C 168.36683654785156 108.9011001586914 198.69955444335938 84.05940246582031 94.01976776123047 99.46566772460938" fill="none" stroke="rgb(0, 0, 0)" stroke-linecap="round" stroke-linejoin="round" stroke-opacity="1.0" stroke-width="3.0"/>
    <path d="M 149.4250030517578 98.56182861328125 C 75.7501220703125 105.70938110351562 65.22625732421875 98.51740264892578 149.7296142578125 78.97857666015625" fill="none" stroke="rgb(0, 0, 0)" stroke-linecap="round" stroke-linejoin="round" stroke-opacity="1.0" stroke-width="3.0"/>
    <path d="M 94.13870239257812 91.7053451538086 C 74.02580261230469 118.70126342773438 159.174072265625 100.4503173828125 66.13898468017578 101.77481079101562" fill="none" stroke="rgb(0, 0, 0)" stroke-linecap="round" stroke-linejoin="round" stroke-opacity="1.0" stroke-width="3.0"/>
    <path d="M 100.3022232055664 113.7160415649414 C 29.69219970703125 106.54058074951172 58.241668701171875 115.46788787841797 75.54236602783203 109.86912536621094" fill="none" stroke="rgb(0, 0, 0)" stroke-linecap="round" stroke-linejoin="round" stroke-opacity="1.0" stroke-width="3.0"/>
    <path d="M 90.62371063232422 126.72762298583984 C 82.99598693847656 85.25209045410156 103.55882263183594 137.22752380371094 104.96453857421875 107.0794906616211" fill="none" stroke="rgb(0, 0, 0)" stroke-linecap="round" stroke-linejoin="round" stroke-opacity="1.0" stroke-width="3.0"/>
  </g>
</svg>
