<?xml version="1.0" ?>
<svg height="224" version="1.1" width="224" xmlns="http://www.w3.org/2000/svg">
  <defs/>
  <g>
    <path d="M 97.2925796508789 81.7841567993164 C 78.31461334228516 141.2327880859375 132.39385986328125 124.73405456542969 119.14434051513672 84.42417907714844" fill="none" stroke="rgb(0, 0, 0)" stroke-linecap="round" stroke-linejoin="round" stroke-opacity="1.0" stroke-width="3.0"/>
    <path d="M 96.22793579101562 84.073486328125 C 105.58514404296875 58.2094612121582 120.03543090820312 78.296630859375 118.80708312988281 85.96603393554688" fill="none" stroke="rgb(0, 0, 0)" stroke-linecap="round" stroke-linejoin="round" stroke-opacity="1.0" stroke-width="3.0"/>
    <path d="M 101.4527587890625 82.36016845703125 C 101.1871566772461 82.83480072021484 105.48301696777344 64.88111114501953 97.49342346191406 80.82195281982422" fill="none" stroke="rgb(0, 0, 0)" stroke-linecap="round" stroke-linejoin="round" stroke-opacity="1.0" stroke-width="3.0"/>
    <path d="M 100.98689270019531 76.5707015991211 C 92.47232818603516 91.43865203857422 110.36095428466797 75.91471099853516 96.06336212158203 85.71265411376953" fill="none" stroke="rgb(0, 0, 0)" stroke-linecap="round" stroke-linejoin="round" stroke-opacity="1.0" stroke-width="3.0"/>
    <path d="M 108.06290435791016 157.11477661132812 C 107.92219543457031 68.7780990600586 100.88119506835938 174.1139678955078 120.85520935058594 108.26307678222656" fill="none" stroke="rgb(0, 0, 0)" stroke-linecap="round" stroke-linejoin="round" stroke-opacity="1.0" stroke-width="3.0"/>
    <path d="M 95.5827407836914 90.11758422851562 C 108.39087677001953 65.10226440429688 97.23654174804688 88.57221221923828 97.22833251953125 84.2662582397461" fill="none" stroke="rgb(0, 0, 0)" stroke-linecap="round" stroke-linejoin="round" stroke-opacity="1.0" stroke-width="3.0"/>
    <path d="M 125.39879608154297 176.04962158203125 C 93.71935272216797 191.65432739257812 70.72272491455078 166.9617156982422 100.17523956298828 157.80255126953125" fill="none" stroke="rgb(0, 0, 0)" stroke-linecap="round" stroke-linejoin="round" stroke-opacity="1.0" stroke-width="3.0"/>
    <path d="M 124.23015594482422 175.1492919921875 C 128.41357421875 149.98863220214844 119.13634490966797 168.57325744628906 103.2948226928711 154.17308044433594" fill="none" stroke="rgb(0, 0, 0)" stroke-linecap="round" stroke-linejoin="round" stroke-opacity="1.0" stroke-width="3.0"/>
  </g>
</svg>
