<?xml version="1.0" ?>
<svg height="224" version="1.1" width="224" xmlns="http://www.w3.org/2000/svg">
  <defs/>
  <g>
    <path d="M 106.91761779785156 122.78488159179688 C 95.55744934082031 131.98072814941406 86.43812561035156 103.81329345703125 92.53356170654297 85.82164001464844" fill="none" stroke="rgb(0, 0, 0)" stroke-linecap="round" stroke-linejoin="round" stroke-opacity="1.0" stroke-width="3.0"/>
    <path d="M 107.695556640625 113.30581665039062 C 114.85770416259766 151.18614196777344 111.72550201416016 42.076595306396484 119.08080291748047 107.74903869628906" fill="none" stroke="rgb(0, 0, 0)" stroke-linecap="round" stroke-linejoin="round" stroke-opacity="1.0" stroke-width="3.0"/>
    <path d="M 115.12569427490234 85.09758758544922 C 101.32023620605469 56.0698127746582 88.78803253173828 88.6965103149414 90.77544403076172 103.45547485351562" fill="none" stroke="rgb(0, 0, 0)" stroke-linecap="round" stroke-linejoin="round" stroke-opacity="1.0" stroke-width="3.0"/>
    <path d="M 111.12994384765625 155.28857421875 C 150.86851501464844 174.1949005126953 73.98255157470703 189.50283813476562 87.70886993408203 161.0878143310547" fill="none" stroke="rgb(0, 0, 0)" stroke-linecap="round" stroke-linejoin="round" stroke-opacity="1.0" stroke-width="3.0"/>
    <path d="M 118.80411529541016 91.03929901123047 C 119.31024169921875 77.7338638305664 116.61322021484375 128.5586395263672 106.70743560791016 120.5414810180664" fill="none" stroke="rgb(0, 0, 0)" stroke-linecap="round" stroke-linejoin="round" stroke-opacity="1.0" stroke-width="3.0"/>
    <path d="M 91.13116455078125 158.57676696777344 C 130.3765869140625 165.12518310546875 100.29093170166016 153.95179748535156 109.662353515625 100.47795104980469" fill="none" stroke="rgb(0, 0, 0)" stroke-linecap="round" stroke-linejoin="round" stroke-opacity="1.0" stroke-width="3.0"/>
    <path d="M 101.75404357910156 159.47073364257812 C 107.0776138305664 79.43546295166016 113.96260833740234 80.18998718261719 109.90167999267578 119.010009765625" fill="none" stroke="rgb(0, 0, 0)" stroke-linecap="round" stroke-linejoin="round" stroke-opacity="1.0" stroke-width="3.0"/>
    <path d="M 112.29447937011719 81.30821990966797 C 103.3804702758789 128.1697235107422 87.43476104736328 145.4526824951172 109.92996215820312 78.66508483886719" fill="none" stroke="rgb(0, 0, 0)" stroke-linecap="round" stroke-linejoin="round" stroke-opacity="1.0" stroke-width="3.0"/>
  </g>
</svg>
