<?xml version="1.0" ?>
<svg height="224" version="1.1" width="224" xmlns="http://www.w3.org/2000/svg">
  <defs/>
  <g>
    <path d="M 101.98487091064453 163.01637268066406 C 181.90863037109375 164.3450469970703 105.95166015625 176.94427490234375 101.2527084350586 166.7899627685547" fill="none" stroke="rgb(0, 0, 0)" stroke-linecap="round" stroke-linejoin="round" stroke-opacity="1.0" stroke-width="3.0"/>
    <path d="M 121.7701644897461 95.26516723632812 C 95.24060821533203 41.44813537597656 103.0205307006836 168.4583282470703 118.67864990234375 92.04096984863281" fill="none" stroke="rgb(0, 0, 0)" stroke-linecap="round" stroke-linejoin="round" stroke-opacity="1.0" stroke-width="3.0"/>
    <path d="M 122.2136001586914 117.38273620605469 C 114.03372192382812 41.00092315673828 132.22613525390625 142.45556640625 116.34613037109375 107.0642318725586" fill="none" stroke="rgb(0, 0, 0)" stroke-linecap="round" stroke-linejoin="round" stroke-opacity="1.0" stroke-width="3.0"/>
    <path d="M 112.05120849609375 78.25564575195312 C 132.83203125 69.97444152832031 135.4913330078125 143.01876831054688 108.78321075439453 116.5822525024414" fill="none" stroke="rgb(0, 0, 0)" stroke-linecap="round" stroke-linejoin="round" stroke-opacity="1.0" stroke-width="3.0"/>
    <path d="M 112.55364227294922 119.13249969482422 C 148.4635467529297 79.77999114990234 81.28650665283203 63.48634719848633 125.00313568115234 97.49060821533203" fill="none" stroke="rgb(0, 0, 0)" stroke-linecap="round" stroke-linejoin="round" stroke-opacity="1.0" stroke-width="3.0"/>
    <path d="M 117.24144744873047 87.11030578613281 C 150.87445068359375 134.19467163085938 90.40563201904297 99.64567565917969 112.24371337890625 123.74285125732422" fill="none" stroke="rgb(0, 0, 0)" stroke-linecap="round" stroke-linejoin="round" stroke-opacity="1.0" stroke-width="3.0"/>
    <path d="M 110.83383178710938 158.63526916503906 C 112.92144775390625 116.57730865478516 119.1646957397461 235.7296142578125 114.2973403930664 86.43983459472656" fill="none" stroke="rgb(0, 0, 0)" stroke-linecap="round" stroke-linejoin="round" stroke-opacity="1.0" stroke-width="3.0"/>
    <path d="M 126.55361938476562 103.1332778930664 C 104.88642883300781 152.2639617919922 143.66818237304688 100.17356872558594 114.9092025756836 80.57390594482422" fill="none" stroke="rgb(0, 0, 0)" stroke-linecap="round" stroke-linejoin="round" stroke-opacity="1.0" stroke-width="3.0"/>
  </g>
</svg>
