<?xml version="1.0" ?>
<svg height="224" version="1.1" width="224" xmlns="http://www.w3.org/2000/svg">
  <defs/>
  <g>
    <path d="M 104.3841781616211 120.08016204833984 C 85.74496459960938 87.46855163574219 123.73756408691406 136.2088623046875 127.60737609863281 108.2400131225586" fill="none" stroke="rgb(0, 0, 0)" stroke-linecap="round" stroke-linejoin="round" stroke-opacity="1.0" stroke-width="3.0"/>
    <path d="M 113.64176940917969 140.8146209716797 C 66.10356140136719 134.82391357421875 110.7826156616211 141.38214111328125 94.99364471435547 113.07710266113281" fill="none" stroke="rgb(0, 0, 0)" stroke-linecap="round" stroke-linejoin="round" stroke-opacity="1.0" stroke-width="3.0"/>
    <path d="M 129.5081329345703 106.54730224609375 C 130.9646453857422 83.26103210449219 132.64231872558594 94.00757598876953 106.06092071533203 77.03826904296875" fill="none" stroke="rgb(0, 0, 0)" stroke-linecap="round" stroke-linejoin="round" stroke-opacity="1.0" stroke-width="3.0"/>
    <path d="M 128.065673828125 102.88395690917969 C 105.60543823242188 99.9817886352539 66.37641906738281 89.47901916503906 129.49658203125 105.07621765136719" fill="none" stroke="rgb(0, 0, 0)" stroke-linecap="round" stroke-linejoin="round" stroke-opacity="1.0" stroke-width="3.0"/>
    <path d="M 115.4984359741211 141.0928192138672 C 122.171142578125 77.57249450683594 98.42180633544922 152.6533203125 102.7768783569336 90.68580627441406" fill="none" stroke="rgb(0, 0, 0)" stroke-linecap="round" stroke-linejoin="round" stroke-opacity="1.0" stroke-width="3.0"/>
    <path d="M 109.6980972290039 110.98570251464844 C 111.31649017333984 53.902584075927734 87.60867309570312 76.54563903808594 97.31616973876953 100.20189666748047" fill="none" stroke="rgb(0, 0, 0)" stroke-linecap="round" stroke-linejoin="round" stroke-opacity="1.0" stroke-width="3.0"/>
    <path d="M 102.14141845703125 79.04592895507812 C 115.4120101928711 138.8941650390625 92.17736053466797 168.1500244140625 93.23894500732422 97.19813537597656" fill="none" stroke="rgb(0, 0, 0)" stroke-linecap="round" stroke-linejoin="round" stroke-opacity="1.0" stroke-width="3.0"/>
    <path d="M 109.69609069824219 114.65778350830078 C 93.16565704345703 86.42666625976562 124.06002807617188 126.34319305419922 108.47720336914062 80.20954132080078" fill="none" stroke="rgb(0, 0, 0)" stroke-linecap="round" stroke-linejoin="round" stroke-opacity="1.0" stroke-width="3.0"/>
  </g>
</svg>
