<?xml version="1.0" ?>
<svg height="224" version="1.1" width="224" xmlns="http://www.w3.org/2000/svg">
  <defs/>
  <g>
    <path d="M 131.88832092285156 121.8302230834961 C 134.2106475830078 89.55530548095703 127.77188110351562 108.66523742675781 101.3194808959961 112.08404541015625" fill="none" stroke="rgb(0, 0, 0)" stroke-linecap="round" stroke-linejoin="round" stroke-opacity="1.0" stroke-width="3.0"/>
    <path d="M 139.44757080078125 87.75363159179688 C 154.62945556640625 115.86283874511719 56.54172134399414 98.4855728149414 131.2964324951172 103.07980346679688" fill="none" stroke="rgb(0, 0, 0)" stroke-linecap="round" stroke-linejoin="round" stroke-opacity="1.0" stroke-width="3.0"/>
    <path d="M 95.6974105834961 87.0248031616211 C 167.25135803222656 84.09689331054688 140.9345245361328 85.08611297607422 97.36978912353516 87.21636962890625" fill="none" stroke="rgb(0, 0, 0)" stroke-linecap="round" stroke-linejoin="round" stroke-opacity="1.0" stroke-width="3.0"/>
    <path d="M 123.99980163574219 136.59999084472656 C 123.26680755615234 105.45789337158203 117.80412292480469 118.34565734863281 131.9593048095703 114.03119659423828" fill="none" stroke="rgb(0, 0, 0)" stroke-linecap="round" stroke-linejoin="round" stroke-opacity="1.0" stroke-width="3.0"/>
    <path d="M 105.04241943359375 144.03250122070312 C 123.1826171875 142.24859619140625 107.7117691040039 160.7654266357422 118.01483917236328 96.18573760986328" fill="none" stroke="rgb(0, 0, 0)" stroke-linecap="round" stroke-linejoin="round" stroke-opacity="1.0" stroke-width="3.0"/>
    <path d="M 119.88451385498047 118.09857177734375 C 75.44091796875 71.79627227783203 103.61161041259766 137.06890869140625 94.95097351074219 88.85358428955078" fill="none" stroke="rgb(0, 0, 0)" stroke-linecap="round" stroke-linejoin="round" stroke-opacity="1.0" stroke-width="3.0"/>
    <path d="M 122.67180633544922 135.58615112304688 C 78.74050903320312 159.68673706054688 94.51207733154297 138.2606201171875 88.44924926757812 160.4348602294922" fill="none" stroke="rgb(0, 0, 0)" stroke-linecap="round" stroke-linejoin="round" stroke-opacity="1.0" stroke-width="3.0"/>
    <path d="M 92.27147674560547 100.18225860595703 C 175.08010864257812 99.04818725585938 128.43280029296875 97.36156463623047 99.9897232055664 109.97217559814453" fill="none" stroke="rgb(0, 0, 0)" stroke-linecap="round" stroke-linejoin="round" stroke-opacity="1.0" stroke-width="3.0"/>
  </g>
</svg>
