<?xml version="1.0" ?>
<svg height="224" version="1.1" width="224" xmlns="http://www.w3.org/2000/svg">
  <defs/>
  <g>
    <path d="M 101.30245208740234 112.46658325195312 C 75.1268310546875 109.04925537109375 107.21294403076172 93.75428771972656 96.00184631347656 109.83819580078125" fill="none" stroke="rgb(0, 0, 0)" stroke-linecap="round" stroke-linejoin="round" stroke-opacity="1.0" stroke-width="3.0"/>
    <path d="M 138.11961364746094 115.11370849609375 C 137.33734130859375 83.5771484375 148.0758056640625 109.64594268798828 105.95551300048828 93.60636901855469" fill="none" stroke="rgb(0, 0, 0)" stroke-linecap="round" stroke-linejoin="round" stroke-opacity="1.0" stroke-width="3.0"/>
    <path d="M 103.55950164794922 100.25502014160156 C 98.0094223022461 123.11701965332031 120.36610412597656 131.4521026611328 117.4395523071289 97.73918151855469" fill="none" stroke="rgb(0, 0, 0)" stroke-linecap="round" stroke-linejoin="round" stroke-opacity="1.0" stroke-width="3.0"/>
    <path d="M 124.75479888916016 96.46817016601562 C 89.24700164794922 71.78486633300781 84.87367248535156 76.68255615234375 93.11225891113281 108.79925537109375" fill="none" stroke="rgb(0, 0, 0)" stroke-linecap="round" stroke-linejoin="round" stroke-opacity="1.0" stroke-width="3.0"/>
    <path d="M 98.67894744873047 110.71015930175781 C 126.94087219238281 125.09156036376953 102.34002685546875 105.79158782958984 136.01129150390625 112.74819946289062" fill="none" stroke="rgb(0, 0, 0)" stroke-linecap="round" stroke-linejoin="round" stroke-opacity="1.0" stroke-width="3.0"/>
    <path d="M 124.93697357177734 97.46675109863281 C 96.76957702636719 81.40680694580078 104.17254638671875 75.95353698730469 103.38783264160156 96.10275268554688" fill="none" stroke="rgb(0, 0, 0)" stroke-linecap="round" stroke-linejoin="round" stroke-opacity="1.0" stroke-width="3.0"/>
    <path d="M 114.60331726074219 153.3708953857422 C 127.69783782958984 78.72535705566406 134.5469512939453 117.94512176513672 122.21250915527344 157.8673858642578" fill="none" stroke="rgb(0, 0, 0)" stroke-linecap="round" stroke-linejoin="round" stroke-opacity="1.0" stroke-width="3.0"/>
    <path d="M 131.4459991455078 143.0799102783203 C 119.6681900024414 154.6986846923828 138.3404541015625 86.83555603027344 132.3270263671875 125.52433013916016" fill="none" stroke="rgb(0, 0, 0)" stroke-linecap="round" stroke-linejoin="round" stroke-opacity="1.0" stroke-width="3.0"/>
  </g>
</svg>
