<?xml version="1.0" ?>
<svg height="224" version="1.1" width="224" xmlns="http://www.w3.org/2000/svg">
  <defs/>
  <g>
    <path d="M 125.00613403320312 123.06214141845703 C 33.0633544921875 149.02049255371094 175.3989715576172 121.84650421142578 89.4776840209961 128.990478515625" fill="none" stroke="rgb(0, 0, 0)" stroke-linecap="round" stroke-linejoin="round" stroke-opacity="1.0" stroke-width="3.0"/>
    <path d="M 102.95454406738281 77.27940368652344 C 45.550899505615234 62.0831298828125 114.75984954833984 219.5261993408203 103.58072662353516 79.04991149902344" fill="none" stroke="rgb(0, 0, 0)" stroke-linecap="round" stroke-linejoin="round" stroke-opacity="1.0" stroke-width="3.0"/>
    <path d="M 106.72479248046875 104.9578857421875 C 159.40274047851562 99.26451873779297 90.4015884399414 154.6754608154297 110.50059509277344 127.99127197265625" fill="none" stroke="rgb(0, 0, 0)" stroke-linecap="round" stroke-linejoin="round" stroke-opacity="1.0" stroke-width="3.0"/>
    <path d="M 116.09288787841797 127.81603240966797 C 122.40447998046875 79.48340606689453 115.33805084228516 98.62278747558594 115.72612762451172 131.1436004638672" fill="none" stroke="rgb(0, 0, 0)" stroke-linecap="round" stroke-linejoin="round" stroke-opacity="1.0" stroke-width="3.0"/>
    <path d="M 109.53484344482422 111.01040649414062 C 103.83695983886719 145.87432861328125 143.34205627441406 112.17289733886719 109.40090942382812 98.81126403808594" fill="none" stroke="rgb(0, 0, 0)" stroke-linecap="round" stroke-linejoin="round" stroke-opacity="1.0" stroke-width="3.0"/>
    <path d="M 119.08197021484375 132.81423950195312 C 130.9441680908203 67.6238784790039 115.47361755371094 126.0765380859375 104.57230377197266 80.55391693115234" fill="none" stroke="rgb(0, 0, 0)" stroke-linecap="round" stroke-linejoin="round" stroke-opacity="1.0" stroke-width="3.0"/>
    <path d="M 124.77440643310547 117.09039306640625 C 111.54476165771484 91.32666778564453 131.9636993408203 90.74031066894531 126.73038482666016 123.66014862060547" fill="none" stroke="rgb(0, 0, 0)" stroke-linecap="round" stroke-linejoin="round" stroke-opacity="1.0" stroke-width="3.0"/>
    <path d="M 106.29519653320312 106.71640014648438 C 113.51366424560547 65.85484313964844 112.27043151855469 110.04917907714844 104.56230163574219 136.50997924804688" fill="none" stroke="rgb(0, 0, 0)" stroke-linecap="round" stroke-linejoin="round" stroke-opacity="1.0" stroke-width="3.0"/>
  </g>
</svg>
