<?xml version="1.0" ?>
<svg height="224" version="1.1" width="224" xmlns="http://www.w3.org/2000/svg">
  <defs/>
  <g>
    <path d="M 126.38814544677734 125.7024917602539 C 135.11900329589844 74.68412780761719 117.70230865478516 98.55720520019531 119.90033721923828 130.64114379882812" fill="none" stroke="rgb(0, 0, 0)" stroke-linecap="round" stroke-linejoin="round" stroke-opacity="1.0" stroke-width="3.0"/>
    <path d="M 125.49446105957031 120.99824523925781 C 134.21234130859375 80.67896270751953 115.91290283203125 88.2256851196289 125.17383575439453 97.50530242919922" fill="none" stroke="rgb(0, 0, 0)" stroke-linecap="round" stroke-linejoin="round" stroke-opacity="1.0" stroke-width="3.0"/>
    <path d="M 93.22503662109375 99.83448028564453 C 136.31993103027344 88.96023559570312 133.33599853515625 95.11730194091797 104.5313949584961 102.04166412353516" fill="none" stroke="rgb(0, 0, 0)" stroke-linecap="round" stroke-linejoin="round" stroke-opacity="1.0" stroke-width="3.0"/>
    <path d="M 103.84496307373047 117.67263793945312 C 111.83368682861328 130.7998046875 85.53500366210938 150.37359619140625 91.29764556884766 101.22473907470703" fill="none" stroke="rgb(0, 0, 0)" stroke-linecap="round" stroke-linejoin="round" stroke-opacity="1.0" stroke-width="3.0"/>
    <path d="M 121.9572982788086 125.91690826416016 C 134.2134246826172 30.713911056518555 110.99506378173828 168.1840362548828 119.6985092163086 90.31904602050781" fill="none" stroke="rgb(0, 0, 0)" stroke-linecap="round" stroke-linejoin="round" stroke-opacity="1.0" stroke-width="3.0"/>
    <path d="M 127.03231048583984 103.77545166015625 C 102.70584869384766 107.97029113769531 103.64241027832031 84.20896911621094 102.02947998046875 134.4177703857422" fill="none" stroke="rgb(0, 0, 0)" stroke-linecap="round" stroke-linejoin="round" stroke-opacity="1.0" stroke-width="3.0"/>
    <path d="M 121.02758026123047 105.24884796142578 C 113.05198669433594 99.69302368164062 107.14306640625 84.20751190185547 101.78221893310547 105.2652359008789" fill="none" stroke="rgb(0, 0, 0)" stroke-linecap="round" stroke-linejoin="round" stroke-opacity="1.0" stroke-width="3.0"/>
    <path d="M 127.24651336669922 104.03645324707031 C 118.54850769042969 135.85321044921875 133.0718536376953 125.36394500732422 95.81929779052734 128.60072326660156" fill="none" stroke="rgb(0, 0, 0)" stroke-linecap="round" stroke-linejoin="round" stroke-opacity="1.0" stroke-width="3.0"/>
  </g>
</svg>
