<?xml version="1.0" ?>
<svg height="224" version="1.1" width="224" xmlns="http://www.w3.org/2000/svg">
  <defs/>
  <g>
    <path d="M 134.510498046875 113.64832305908203 C 57.399227142333984 115.36906433105469 187.8965606689453 119.31024169921875 109.08035278320312 119.7878646850586" fill="none" stroke="rgb(0, 0, 0)" stroke-linecap="round" stroke-linejoin="round" stroke-opacity="1.0" stroke-width="3.0"/>
    <path d="M 102.88721466064453 102.79849243164062 C 108.74910736083984 94.00857543945312 104.97257995605469 82.69010162353516 108.29418182373047 114.96210479736328" fill="none" stroke="rgb(0, 0, 0)" stroke-linecap="round" stroke-linejoin="round" stroke-opacity="1.0" stroke-width="3.0"/>
    <path d="M 111.9713363647461 116.95269775390625 C 131.7613525390625 112.0782470703125 144.07302856445312 137.32833862304688 126.72834777832031 119.94793701171875" fill="none" stroke="rgb(0, 0, 0)" stroke-linecap="round" stroke-linejoin="round" stroke-opacity="1.0" stroke-width="3.0"/>
    <path d="M 126.2656478881836 120.14469909667969 C 130.75607299804688 141.1656951904297 137.35279846191406 76.82673645019531 135.16445922851562 128.65374755859375" fill="none" stroke="rgb(0, 0, 0)" stroke-linecap="round" stroke-linejoin="round" stroke-opacity="1.0" stroke-width="3.0"/>
    <path d="M 132.95872497558594 116.39708709716797 C 109.87931823730469 115.23625946044922 117.0514144897461 123.36149597167969 122.14582061767578 119.97615814208984" fill="none" stroke="rgb(0, 0, 0)" stroke-linecap="round" stroke-linejoin="round" stroke-opacity="1.0" stroke-width="3.0"/>
    <path d="M 82.3219223022461 127.7779541015625 C 53.73217010498047 106.79720306396484 83.82605743408203 53.5450553894043 97.69088745117188 102.84346008300781" fill="none" stroke="rgb(0, 0, 0)" stroke-linecap="round" stroke-linejoin="round" stroke-opacity="1.0" stroke-width="3.0"/>
    <path d="M 118.24604797363281 113.87953186035156 C 122.23164367675781 142.6302032470703 106.38633728027344 85.15682220458984 109.71632385253906 135.0602264404297" fill="none" stroke="rgb(0, 0, 0)" stroke-linecap="round" stroke-linejoin="round" stroke-opacity="1.0" stroke-width="3.0"/>
    <path d="M 108.76570892333984 134.75900268554688 C 75.96221160888672 137.05792236328125 87.79328918457031 136.06398010253906 83.0276107788086 126.20784759521484" fill="none" stroke="rgb(0, 0, 0)" stroke-linecap="round" stroke-linejoin="round" stroke-opacity="1.0" stroke-width="3.0"/>
  </g>
</svg>
