<?xml version="1.0" ?>
<svg height="224" version="1.1" width="224" xmlns="http://www.w3.org/2000/svg">
  <defs/>
  <g>
    <path d="M 125.04402923583984 99.37306213378906 C 100.06781768798828 101.03458404541016 97.13985443115234 96.85585021972656 128.3984832763672 95.3262939453125" fill="none" stroke="rgb(0, 0, 0)" stroke-linecap="round" stroke-linejoin="round" stroke-opacity="1.0" stroke-width="3.0"/>
    <path d="M 135.4424591064453 153.21524047851562 C 91.00557708740234 143.73260498046875 107.55059814453125 147.67236328125 106.03427124023438 146.81011962890625" fill="none" stroke="rgb(0, 0, 0)" stroke-linecap="round" stroke-linejoin="round" stroke-opacity="1.0" stroke-width="3.0"/>
    <path d="M 112.96380615234375 147.8874969482422 C 105.70757293701172 146.32693481445312 82.06809997558594 140.9045867919922 106.5339126586914 147.1522979736328" fill="none" stroke="rgb(0, 0, 0)" stroke-linecap="round" stroke-linejoin="round" stroke-opacity="1.0" stroke-width="3.0"/>
    <path d="M 137.82388305664062 115.69390869140625 C 139.4236297607422 88.21110534667969 135.92955017089844 110.40007019042969 121.98513793945312 93.89912414550781" fill="none" stroke="rgb(0, 0, 0)" stroke-linecap="round" stroke-linejoin="round" stroke-opacity="1.0" stroke-width="3.0"/>
    <path d="M 112.22188568115234 93.98924255371094 C 79.87583923339844 99.5288314819336 90.87159729003906 82.2701644897461 90.08538055419922 142.80841064453125" fill="none" stroke="rgb(0, 0, 0)" stroke-linecap="round" stroke-linejoin="round" stroke-opacity="1.0" stroke-width="3.0"/>
    <path d="M 129.1904296875 98.64576721191406 C 119.30681610107422 103.08164978027344 139.0853729248047 105.20294952392578 108.4498519897461 102.2873306274414" fill="none" stroke="rgb(0, 0, 0)" stroke-linecap="round" stroke-linejoin="round" stroke-opacity="1.0" stroke-width="3.0"/>
    <path d="M 137.929931640625 108.74832916259766 C 137.65185546875 142.8143310546875 138.71144104003906 155.44285583496094 137.16912841796875 151.50018310546875" fill="none" stroke="rgb(0, 0, 0)" stroke-linecap="round" stroke-linejoin="round" stroke-opacity="1.0" stroke-width="3.0"/>
    <path d="M 99.90786743164062 106.97457122802734 C 101.84229278564453 78.04369354248047 110.38609313964844 92.98748016357422 107.7591323852539 108.31624603271484" fill="none" stroke="rgb(0, 0, 0)" stroke-linecap="round" stroke-linejoin="round" stroke-opacity="1.0" stroke-width="3.0"/>
  </g>
</svg>
