<?xml version="1.0" ?>
<svg height="224" version="1.1" width="224" xmlns="http://www.w3.org/2000/svg">
  <defs/>
  <g>
    <path d="M 130.48040771484375 115.0799560546875 C 125.50591278076172 151.5721893310547 132.1671905517578 149.6661376953125 133.8742218017578 114.91056060791016" fill="none" stroke="rgb(0, 0, 0)" stroke-linecap="round" stroke-linejoin="round" stroke-opacity="1.0" stroke-width="3.0"/>
    <path d="M 96.2260971069336 96.86480712890625 C 94.79792785644531 123.6791000366211 103.4924087524414 128.6346435546875 97.7203140258789 95.67778015136719" fill="none" stroke="rgb(0, 0, 0)" stroke-linecap="round" stroke-linejoin="round" stroke-opacity="1.0" stroke-width="3.0"/>
    <path d="M 114.48641967773438 100.24586486816406 C 124.78511047363281 130.8423614501953 116.61400604248047 111.43651580810547 103.04073333740234 116.86585998535156" fill="none" stroke="rgb(0, 0, 0)" stroke-linecap="round" stroke-linejoin="round" stroke-opacity="1.0" stroke-width="3.0"/>
    <path d="M 117.63385009765625 108.93607330322266 C 140.08407592773438 108.92256164550781 142.7914581298828 144.7177734375 116.5205307006836 136.94525146484375" fill="none" stroke="rgb(0, 0, 0)" stroke-linecap="round" stroke-linejoin="round" stroke-opacity="1.0" stroke-width="3.0"/>
    <path d="M 102.95709228515625 123.84104919433594 C 103.08939361572266 85.6072998046875 92.46314239501953 98.87024688720703 110.4287338256836 96.44071960449219" fill="none" stroke="rgb(0, 0, 0)" stroke-linecap="round" stroke-linejoin="round" stroke-opacity="1.0" stroke-width="3.0"/>
    <path d="M 114.63162994384766 119.91997528076172 C 119.72734832763672 155.9290008544922 101.6562271118164 177.64028930664062 100.29133605957031 108.89767456054688" fill="none" stroke="rgb(0, 0, 0)" stroke-linecap="round" stroke-linejoin="round" stroke-opacity="1.0" stroke-width="3.0"/>
    <path d="M 135.30325317382812 116.08943176269531 C 139.01124572753906 143.21067810058594 128.07742309570312 149.80612182617188 132.87918090820312 119.34693908691406" fill="none" stroke="rgb(0, 0, 0)" stroke-linecap="round" stroke-linejoin="round" stroke-opacity="1.0" stroke-width="3.0"/>
    <path d="M 101.84022521972656 154.37362670898438 C 105.25481414794922 68.46971130371094 106.91400146484375 80.18125915527344 110.60062408447266 149.8018341064453" fill="none" stroke="rgb(0, 0, 0)" stroke-linecap="round" stroke-linejoin="round" stroke-opacity="1.0" stroke-width="3.0"/>
  </g>
</svg>
