<?xml version="1.0" ?>
<svg height="224" version="1.1" width="224" xmlns="http://www.w3.org/2000/svg">
  <defs/>
  <g>
    <path d="M 131.2318878173828 104.58296203613281 C 142.7474365234375 115.96926879882812 139.15908813476562 67.80581665039062 139.6324005126953 146.1253662109375" fill="none" stroke="rgb(0, 0, 0)" stroke-linecap="round" stroke-linejoin="round" stroke-opacity="1.0" stroke-width="3.0"/>
    <path d="M 122.80277252197266 101.42169189453125 C 140.5179901123047 98.35411834716797 134.68936157226562 113.64098358154297 134.59039306640625 94.81755828857422" fill="none" stroke="rgb(0, 0, 0)" stroke-linecap="round" stroke-linejoin="round" stroke-opacity="1.0" stroke-width="3.0"/>
    <path d="M 92.60969543457031 108.35859680175781 C 91.96847534179688 158.865966796875 92.17449188232422 129.3248748779297 96.3858642578125 139.33705139160156" fill="none" stroke="rgb(0, 0, 0)" stroke-linecap="round" stroke-linejoin="round" stroke-opacity="1.0" stroke-width="3.0"/>
    <path d="M 104.27621459960938 146.13693237304688 C 121.09394836425781 149.80174255371094 97.83070373535156 138.45899963378906 138.56202697753906 147.6562042236328" fill="none" stroke="rgb(0, 0, 0)" stroke-linecap="round" stroke-linejoin="round" stroke-opacity="1.0" stroke-width="3.0"/>
    <path d="M 133.7541961669922 146.78396606445312 C 127.89704132080078 150.57493591308594 142.43087768554688 96.42587280273438 122.57742309570312 105.81585693359375" fill="none" stroke="rgb(0, 0, 0)" stroke-linecap="round" stroke-linejoin="round" stroke-opacity="1.0" stroke-width="3.0"/>
    <path d="M 97.4683837890625 141.3125 C 113.5916519165039 151.91456604003906 132.67803955078125 117.69960021972656 107.0113525390625 103.59014892578125" fill="none" stroke="rgb(0, 0, 0)" stroke-linecap="round" stroke-linejoin="round" stroke-opacity="1.0" stroke-width="3.0"/>
    <path d="M 96.60863494873047 131.70079040527344 C 95.89299011230469 89.93647766113281 90.058837890625 105.21837615966797 138.2744598388672 99.3858413696289" fill="none" stroke="rgb(0, 0, 0)" stroke-linecap="round" stroke-linejoin="round" stroke-opacity="1.0" stroke-width="3.0"/>
    <path d="M 112.44589233398438 96.65071868896484 C 144.01161193847656 122.14391326904297 135.73333740234375 126.6523208618164 125.85128021240234 101.98941802978516" fill="none" stroke="rgb(0, 0, 0)" stroke-linecap="round" stroke-linejoin="round" stroke-opacity="1.0" stroke-width="3.0"/>
  </g>
</svg>
